<?xml version="1.0" encoding="UTF-8" standalone="no"?>
<svg version="1.1" x="0px" y="0px" viewBox="0 70 595.28 120" style="enable-background:new 0 0 595.28 260.79;" xml:space="preserve" id="svg1991" sodipodi:docname="agorapulse.svg" inkscape:version="1.1.1 (c3084ef, 2021-09-22)" inkscape:export-filename="/Users/csabourdin/Documents/projets/personnel/projets/site/parisjug/website/src/site/resources/images/sponsors/2022/sciam.png" inkscape:export-xdpi="19.101164" inkscape:export-ydpi="19.101164" xmlns:inkscape="http://www.inkscape.org/namespaces/inkscape" xmlns:sodipodi="http://sodipodi.sourceforge.net/DTD/sodipodi-0.dtd" xmlns="http://www.w3.org/2000/svg" xmlns:svg="http://www.w3.org/2000/svg" xmlns:rdf="http://www.w3.org/1999/02/22-rdf-syntax-ns#" xmlns:cc="http://creativecommons.org/ns#" xmlns:dc="http://purl.org/dc/elements/1.1/"><metadata id="metadata1997"><rdf:RDF><cc:Work rdf:about=""><dc:format>image/svg+xml</dc:format><dc:type rdf:resource="http://purl.org/dc/dcmitype/StillImage"/></cc:Work></rdf:RDF></metadata><defs id="defs1995"><clipPath id="clip0"><rect width="110" height="116" fill="white" id="rect834"/></clipPath></defs><sodipodi:namedview pagecolor="#ffffff" bordercolor="#666666" borderopacity="1" objecttolerance="10" gridtolerance="10" guidetolerance="10" inkscape:pageopacity="0" inkscape:pageshadow="2" inkscape:window-width="1577" inkscape:window-height="1067" id="namedview1993" showgrid="false" inkscape:zoom="1.1575153" inkscape:cx="204.74891" inkscape:cy="24.621705" inkscape:window-x="0" inkscape:window-y="25" inkscape:window-maximized="0" inkscape:current-layer="layer4" inkscape:document-rotation="0" inkscape:pagecheckerboard="0"/><g inkscape:groupmode="layer" id="layer4" inkscape:label="agorapulse"><g style="fill:none" id="g1392" transform="matrix(0.51120918,0,0,0.51120918,-9.7420904,63.871175)"><path d="m 80.9691,193.403 c 13.6493,0 23.8279,-4.627 31.2309,-14.112 l 0.463,0.231 v 11.799 h 34.47 V 78.1936 h -36.321 v 11.7985 l -0.462,0.2314 c -7.866,-9.2538 -19.2018,-14.112 -31.2316,-14.112 -29.1493,0 -51.5896,24.0595 -51.5896,58.7615 0,34.933 22.4403,58.53 53.4403,58.53 z m 7.6344,-31.926 c -14.3433,0 -24.2911,-10.642 -24.2911,-26.604 0,-16.194 10.4105,-26.836 24.2911,-26.836 13.4175,0 23.8285,11.336 23.8285,26.836 0,16.194 -10.873,26.604 -23.8285,26.604 z" fill="#ff6726" id="path1356"/><path d="m 219.012,239.209 c 45.806,0 61.075,-25.911 61.075,-62.694 V 78.1936 h -36.321 v 11.1045 h -0.463 c -8.559,-8.7911 -20.126,-13.1866 -32.388,-13.1866 -28.455,0 -50.201,23.8284 -50.201,57.3735 0,32.156 21.746,55.753 52.284,55.753 13.186,0 23.597,-4.626 31.231,-12.492 l 0.463,0.231 v 10.411 c 0,11.798 -9.948,21.515 -29.612,21.515 -12.493,0 -24.985,-4.396 -34.471,-9.948 l -8.097,29.38 c 13.881,7.635 28.224,10.874 46.5,10.874 z m 2.545,-82.127 c -13.649,0 -24.06,-9.717 -24.06,-24.291 0,-14.575 10.18,-24.523 24.06,-24.523 13.418,0 23.829,9.948 23.829,24.291 0,14.344 -10.18,24.523 -23.829,24.523 z" fill="#ff6726" id="path1358"/><path d="m 355.216,193.403 c 35.627,0 61.074,-23.829 61.074,-58.53 0,-34.9331 -25.447,-58.7615 -61.074,-58.7615 -36.552,0 -61.306,24.2915 -61.306,58.7615 0,34.239 24.754,58.53 61.306,58.53 z m 0,-31.926 c -14.343,0 -24.754,-11.567 -24.754,-26.604 0,-15.5 10.179,-26.605 24.754,-26.605 14.112,0 24.522,10.873 24.522,26.605 0,15.5 -10.873,26.604 -24.522,26.604 z" fill="#ff6726" id="path1360"/><path d="m 431.066,191.321 h 36.089 v -50.896 c 0,-14.806 8.791,-25.679 25.911,-25.679 1.851,0 5.089,0.231 8.559,0.463 V 76.1115 h -1.388 c -12.492,0 -24.291,6.2463 -32.619,17.8134 h -0.463 V 78.1936 h -36.089 z" fill="#ff6726" id="path1362"/><path d="m 559.037,193.403 c 13.649,0 23.828,-4.627 31.231,-14.112 l 0.463,0.231 v 11.799 h 34.47 V 78.1936 H 588.88 v 11.7985 l -0.463,0.2314 c -7.865,-9.2538 -19.201,-14.112 -31.231,-14.112 -29.149,0 -51.59,24.0595 -51.59,58.7615 0,34.933 22.441,58.53 53.441,58.53 z m 7.634,-31.926 c -14.343,0 -24.291,-10.642 -24.291,-26.604 0,-16.194 10.41,-26.836 24.291,-26.836 13.418,0 23.828,11.336 23.828,26.836 0,16.194 -10.873,26.604 -23.828,26.604 z" fill="#ff6726" id="path1364"/><path d="m 656.09,237.126 h 30.306 v -58.298 l 0.463,-0.231 c 7.865,9.485 18.97,14.805 33.082,14.805 31.462,0 54.365,-23.365 54.365,-58.298 0,-34.239 -22.903,-58.5299 -53.44,-58.5299 -13.881,0 -25.91,5.0896 -34.007,14.5746 h -0.463 V 78.1935 H 656.09 Z m 58.53,-71.022 c -16.657,0 -29.612,-12.261 -29.612,-30.769 0,-18.276 12.03,-31.694 29.38,-31.694 16.194,0 29.15,12.261 29.15,31.694 0,18.045 -12.03,30.769 -28.918,30.769 z" fill="#344563" id="path1366"/><path d="m 830.814,193.402 c 12.724,0 24.753,-5.32 33.313,-15.731 l 0.463,0.231 v 13.418 h 30.537 V 78.1935 H 864.59 v 55.0595 c 0,21.747 -11.799,32.851 -24.985,32.851 -14.112,0 -20.358,-6.94 -20.358,-27.53 V 78.1935 H 789.172 V 146.44 c 0,34.47 17.119,46.962 41.642,46.962 z" fill="#344563" id="path1368"/><path d="m 918.769,191.32 h 30.306 V 21.0517 h -30.306 z" fill="#344563" id="path1370"/><path d="m 1010.25,193.402 c 29.61,0 43.73,-15.268 43.73,-35.164 0,-22.44 -14.35,-27.761 -38.87,-36.783 -11.11,-4.164 -16.657,-7.403 -16.657,-12.03 0,-6.015 6.017,-8.328 10.637,-8.328 8.33,0 18.51,3.701 27.07,12.029 l 14.81,-22.4399 c -12.96,-9.9478 -25.68,-14.112 -41.18,-14.112 -23.367,0 -40.949,13.1866 -40.949,33.5449 0,21.978 16.194,30.769 34.929,37.015 14.58,4.858 20.36,7.403 20.36,12.261 0,5.552 -4.86,9.254 -13.65,9.254 -12.49,0 -22.206,-4.396 -31.46,-12.955 l -14.575,21.052 c 12.261,10.642 27.761,16.656 45.805,16.656 z" fill="#344563" id="path1372"/><path d="m 1175.04,133.716 c 0,-33.082 -22.21,-57.1419 -54.13,-57.1419 -33.55,0 -57.38,23.5969 -57.38,58.0669 0,35.396 24.52,58.761 59.23,58.761 25.21,0 39.79,-9.253 49.27,-21.514 l -19.66,-18.277 c -6.02,7.403 -14.81,12.724 -27.53,12.724 -15.27,0 -26.14,-8.097 -29.84,-21.746 h 79.35 c 0.23,-1.851 0.69,-7.172 0.69,-10.873 z m -54.37,-30.769 c 13.19,0 21.29,7.866 24.3,19.896 h -49.74 c 3.47,-12.955 13.18,-19.896 25.44,-19.896 z" fill="#344563" id="path1374"/></g></g><style type="text/css" id="style1076">
	.st0{fill:#66D8D0;}
</style></svg>