<?xml version="1.0" encoding="UTF-8" standalone="no"?>
<svg id="Layer_1" data-name="Layer 1" viewBox="0 90 388 70" version="1.1" sodipodi:docname="worldline.svg" inkscape:version="1.2.2 (b0a8486, 2022-12-01)" xml:space="preserve" xmlns:inkscape="http://www.inkscape.org/namespaces/inkscape" xmlns:sodipodi="http://sodipodi.sourceforge.net/DTD/sodipodi-0.dtd" xmlns="http://www.w3.org/2000/svg" xmlns:svg="http://www.w3.org/2000/svg" xmlns:rdf="http://www.w3.org/1999/02/22-rdf-syntax-ns#" xmlns:cc="http://creativecommons.org/ns#" xmlns:dc="http://purl.org/dc/elements/1.1/"><sodipodi:namedview id="namedview205" pagecolor="#ffffff" bordercolor="#666666" borderopacity="1.0" inkscape:showpageshadow="2" inkscape:pageopacity="0.0" inkscape:pagecheckerboard="0" inkscape:deskcolor="#d1d1d1" showgrid="false" inkscape:zoom="0.944" inkscape:cx="18.008475" inkscape:cy="224.57627" inkscape:window-width="1594" inkscape:window-height="904" inkscape:window-x="0" inkscape:window-y="25" inkscape:window-maximized="0" inkscape:current-layer="layer1"/><defs id="defs194"><style id="style192">.cls-1{fill:#e00;}</style></defs><title id="title196">RedHat-Logo-B-Color</title><metadata id="metadata377"><rdf:RDF><cc:Work rdf:about=""><dc:title>RedHat-Logo-B-Color</dc:title></cc:Work></rdf:RDF></metadata><g inkscape:groupmode="layer" id="layer1" inkscape:label="wordline" style="display:inline" sodipodi:insensitive="true"><g id="g10" transform="matrix(0.01922761,0,0,-0.01922761,-12.396934,159.16011)"><path d="m 17350.1,2314.19 c -71.5,-62.72 -138.5,-130.48 -200.4,-202.74 300,-301.2 516.4,-761.03 589.2,-1293.458 h 288.6 c -58.2,469.188 -219.2,902.388 -467.8,1247.888 -65.5,91.14 -135.7,173.94 -209.6,248.31" style="fill:#4dc3b2;fill-opacity:1;fill-rule:nonzero;stroke:none" id="path12"/><path d="m 16998.5,1910.51 c -55.4,-84.21 -104.7,-172.84 -147,-265.32 171.7,-214.12 298.1,-501.17 355.7,-827.198 h 289.6 c -54.7,350.278 -181,673.068 -369.3,934.198 -40.9,56.72 -84,109.5 -129,158.32" style="fill:#4dc3b2;fill-opacity:1;fill-rule:nonzero;stroke:none" id="path14"/><path d="m 16671.8,817.992 h 290.5 c -41.8,198.648 -114.7,383.418 -215.4,543.368 -48.9,-172.71 -75.1,-354.98 -75.1,-543.368" style="fill:#4dc3b2;fill-opacity:1;fill-rule:nonzero;stroke:none" id="path16"/><path d="m 19824.2,2432.34 c -37.7,27.16 -76.3,53.02 -115.9,77.55 -18,-18.8 -35.9,-37.81 -53.4,-57.26 -231.2,-256.76 -493.2,-649.71 -631.9,-1202.61 -42.5,223.07 -102.2,438.58 -178.3,643.43 150.6,336.93 337.6,597.35 509.9,789.83 -46.4,17.26 -93.6,32.86 -141.6,46.67 -148,-171.92 -303.5,-391.23 -437.9,-662.33 -96.8,225 -214.2,435.12 -351,625.75 -22.2,31.05 -45,61.2 -68,90.86 -105.8,-16.29 -208.8,-41.02 -308.4,-73.28 238.8,-276.29 433.6,-626.43 567,-1025.76 -49.1,-140.79 -91.7,-291.99 -124.9,-454.43 -94,428.53 -263,821.83 -497.9,1148.85 -60.1,83.72 -123.4,161.57 -189.5,233.39 -88.8,-42.54 -173.9,-91.44 -254.7,-146.16 377.3,-382.02 644.6,-970.55 720.3,-1648.848 h 298.8 c 22.3,229.878 63.3,440.488 117.7,632.578 52.7,-201.44 90.4,-413.22 111,-632.578 h 288.7 c 85.3,741.878 401.2,1241.328 672.7,1542.768 22.3,24.75 44.8,48.47 67.3,71.58" style="fill:#4dc3b2;fill-opacity:1;fill-rule:nonzero;stroke:none" id="path18"/><path d="m 20199,2080.48 c -29.4,35.73 -60,70.39 -91.8,103.97 -306.6,-314.07 -562.9,-769.67 -642.9,-1366.458 h 138.6 c 81.9,579.308 333.6,973.028 551,1214.198 14.9,16.6 30,32.59 45.1,48.29" style="fill:#4dc3b2;fill-opacity:1;fill-rule:nonzero;stroke:none" id="path20"/><path d="m 19985,817.992 h 139.4 c 65.6,359.078 213.4,622.268 357.3,803.748 -20.5,46.27 -42.6,91.64 -66.4,135.97 -199.8,-233.37 -363.1,-546.67 -430.3,-939.718" style="fill:#4dc3b2;fill-opacity:1;fill-rule:nonzero;stroke:none" id="path22"/><path d="m 20624.8,1139.61 c -47.5,-97.01 -86.6,-204.2 -114.2,-321.618 h 140.2 c 0,109.52 -8.9,216.908 -26,321.618" style="fill:#4dc3b2;fill-opacity:1;fill-rule:nonzero;stroke:none" id="path24"/><path d="M 8072.05,2729.98 H 7642.5 V 818.012 h 1178.59 v 377.168 h -749.04 v 1534.8" style="fill:#4dc3b2;fill-opacity:1;fill-rule:nonzero;stroke:none" id="path26"/><path d="m 11196.5,2729.98 h -155.4 V 818.012 h 1026.7 V 957.52 h -871.3 v 1772.46" style="fill:#4dc3b2;fill-opacity:1;fill-rule:nonzero;stroke:none" id="path28"/><path d="m 12246.8,818.012 h 155.4 V 2729.98 h -155.4 V 818.012" style="fill:#4dc3b2;fill-opacity:1;fill-rule:nonzero;stroke:none" id="path30"/><path d="m 14914,957.52 v 771.81 h 845.1 v 136.48 H 14914 v 724.65 h 908.2 v 139.52 H 14758.7 V 818.012 h 1095.1 V 957.52 H 14914" style="fill:#4dc3b2;fill-opacity:1;fill-rule:nonzero;stroke:none" id="path32"/><path d="m 14239.8,957.531 h -31.6 L 13100.7,2729.98 h -279.3 V 818.012 H 12976 V 2590.52 h 37.8 L 14121.3,818.012 h 273.3 V 2729.98 h -154.8 V 957.531" style="fill:#4dc3b2;fill-opacity:1;fill-rule:nonzero;stroke:none" id="path34"/><path d="m 2758.1,1195.18 h -32.06 L 2411.1,2677.56 h -447 L 1682.64,1195.18 h -41.51 l -383.47,1534.8 H 818.008 L 1289.53,818.012 h 658.7 L 2185.07,1982.52 2440.16,818.012 h 671.89 l 418.99,1911.968 h -441.6 L 2758.1,1195.18" style="fill:#4dc3b2;fill-opacity:1;fill-rule:nonzero;stroke:none" id="path36"/><path d="m 10258.2,1519.92 c -54.3,-141.72 -154.7,-242.3 -297.26,-295.92 -71.6,-27.13 -152.81,-40.6 -243.59,-40.6 h -288.61 v 1186.49 h 288.61 c 90.78,0 171.99,-12.24 243.59,-36.68 142.76,-48.32 243.06,-148.49 297.26,-288.07 53.5,-148.37 54.8,-374.64 0,-525.22 z m 228.7,942.9 c -203.8,199.3 -471.2,283.73 -777.94,282.92 H 8999.19 V 807.551 h 709.77 c 172.91,0 323.84,26.578 453.14,79.871 243.6,98.289 428.8,283.918 519.9,519.878 50.8,129.76 68.2,264.17 64.2,400.74 -0.4,245.03 -83.7,481.09 -259.3,654.78" style="fill:#4dc3b2;fill-opacity:1;fill-rule:nonzero;stroke:none" id="path38"/><path d="m 4561.8,1156.77 c -364.07,0 -573.24,286.4 -573.24,618.85 0,344.75 196.23,618.85 573.24,618.85 319.61,0 573.23,-220.42 573.23,-618.85 0,-334.41 -213.3,-618.85 -573.23,-618.85 z m 441.44,1545.72 c -244.41,113.6 -643.46,113.4 -886.59,0 -242.36,-106.63 -424.05,-301.07 -513.4,-542.17 -50.69,-134.75 -68.01,-270.7 -64.11,-409.87 3.42,-366 223.36,-734.9 569.66,-893.161 245.65,-122.25 657.97,-122.199 903.58,0 346.26,158.151 566.34,527.241 569.66,893.161 11.06,261.57 -77.88,529.36 -259.3,725.48 -85.58,94.31 -192.08,169.79 -319.5,226.56" style="fill:#4dc3b2;fill-opacity:1;fill-rule:nonzero;stroke:none" id="path40"/><path d="m 6845.1,1914.12 c -56.48,-98.83 -152.43,-145.84 -269.8,-145.35 h -343.68 v 601.12 h 343.68 c 62.83,0 117,-0.91 162.4,-26.22 45.39,-25.34 81.19,-61.14 107.41,-107.4 51.51,-88.07 53.25,-232.43 -0.01,-322.15 z m 391.02,-204.26 c 71.22,99.64 100.99,247.36 95.54,394.16 0,141.43 -31.42,259.71 -94.26,354.88 -148.77,219.61 -407.55,284.68 -683.64,286.84 H 5802.07 V 818.012 h 429.55 v 591.958 c 8.47,0.12 316.16,-0.23 325.34,0.11 l 405.43,-592.068 h 497.6 l -488.34,684.598 c 113.45,46.26 201.64,115.28 264.47,207.25" style="fill:#4dc3b2;fill-opacity:1;fill-rule:nonzero;stroke:none" id="path42"/></g></g><style xmlns="" id="autoconsent-prehide"/></svg>