<?xml version="1.0" encoding="UTF-8" standalone="no"?>
<!-- Generator: Adobe Illustrator 18.1.1, SVG Export Plug-In . SVG Version: 6.00 Build 0)  -->

<svg
   xmlns:dc="http://purl.org/dc/elements/1.1/"
   xmlns:cc="http://creativecommons.org/ns#"
   xmlns:rdf="http://www.w3.org/1999/02/22-rdf-syntax-ns#"
   xmlns:svg="http://www.w3.org/2000/svg"
   xmlns="http://www.w3.org/2000/svg"
   xmlns:sodipodi="http://sodipodi.sourceforge.net/DTD/sodipodi-0.dtd"
   xmlns:inkscape="http://www.inkscape.org/namespaces/inkscape"
   version="1.1"
   x="0px"
   y="0px"
   viewBox="0 0 595.28 260.79"
   xml:space="preserve"
   id="svg4136"
   inkscape:version="0.92.2 5c3e80d, 2017-08-06"
   sodipodi:docname="ebiznext.svg"
   width="595.28003"
   height="260.79001"><metadata
     id="metadata5226"><rdf:RDF><cc:Work
         rdf:about=""><dc:format>image/svg+xml</dc:format><dc:type
           rdf:resource="http://purl.org/dc/dcmitype/StillImage" /><dc:title></dc:title></cc:Work></rdf:RDF></metadata><defs
     id="defs5224" /><sodipodi:namedview
     pagecolor="#ffffff"
     bordercolor="#666666"
     borderopacity="1"
     objecttolerance="10"
     gridtolerance="10"
     guidetolerance="10"
     inkscape:pageopacity="0"
     inkscape:pageshadow="2"
     inkscape:window-width="1612"
     inkscape:window-height="894"
     id="namedview5222"
     showgrid="false"
     units="px"
     inkscape:snap-grids="false"
     inkscape:zoom="0.5"
     inkscape:cx="297.64001"
     inkscape:cy="130.395"
     inkscape:window-x="36"
     inkscape:window-y="0"
     inkscape:window-maximized="0"
     inkscape:current-layer="layer1" /><g
     inkscape:groupmode="layer"
     id="layer1"
     inkscape:label="ebiznext"><g
       style="display:inline"
       id="g894"
       transform="matrix(1.6063042,0,0,1.6063042,3.5474007,76.89383)"><g
         id="g862"><path
           id="path860"
           d="m 11.615,44.791 c 0.527,7.742 7.392,12.055 13.991,11.967 5.632,0 9.416,-2.553 11.616,-6.512 h 11.879 c -2.287,5.367 -5.72,9.416 -9.768,12.145 -4.048,2.814 -8.8,4.223 -13.815,4.223 C 10.646,66.613 0,54.559 0,41.094 0,27.367 10.734,15.311 25.343,15.311 c 7.216,0 13.552,2.729 18.039,7.393 5.896,6.072 8.097,13.639 7.128,22.088 H 11.615 Z M 39.158,35.99 c -0.439,-4.576 -5.279,-11 -13.728,-10.912 -8.536,0 -13.2,6.16 -13.64,10.912 z"
           inkscape:connector-curvature="0"
           style="fill:#d52018" /></g><path
         id="path864"
         d="M 58.223,0 H 69.75 v 16.982 5.809 c 4.752,-5.896 11.704,-7.48 16.104,-7.48 11.439,0 24.111,8.36 24.111,25.432 0,16.367 -11.439,25.871 -24.639,25.871 -7.568,0 -13.464,-3.695 -16.016,-8.447 v 6.951 H 58.223 Z m 40.215,40.83 c 0,-7.92 -6.072,-14.783 -14.52,-14.783 -8.976,0 -14.607,7.039 -14.607,14.871 0,8.096 5.632,14.961 14.344,14.961 9.416,0 14.783,-7.48 14.783,-14.961 z"
         inkscape:connector-curvature="0"
         style="fill:#333333" /><path
         id="path866"
         d="m 118.766,0 h 11.527 v 10.295 h -11.527 z m 0,16.807 h 11.527 v 48.311 h -11.527 z"
         inkscape:connector-curvature="0"
         style="fill:#333333" /><path
         id="path868"
         d="M 137.157,57.109 159.86,25.695 h -22.263 v -8.889 h 34.847 v 8.889 l -21.56,30.535 h 21.912 v 8.887 h -35.64 v -8.008 z"
         inkscape:connector-curvature="0"
         style="fill:#333333" /><path
         id="path870"
         d="m 179.66,60.52 h 8.892 V 21.375 h -8.892 v -4.6 h 14.207 v 7.461 c 6.234,-5.213 12.775,-8.176 18.191,-8.176 7.562,0 13.082,4.701 13.082,12.57 v 31.89 h 7.768 v 4.598 H 211.241 V 60.52 h 8.585 V 30.062 c 0,-6.234 -3.066,-9.199 -8.074,-9.199 -5.314,0 -12.264,3.373 -17.885,8.688 V 60.52 h 7.869 v 4.598 H 179.66 Z"
         inkscape:connector-curvature="0"
         style="fill:#333333" /><path
         id="path872"
         d="m 242.615,42.123 c 0,11.139 9.096,20.133 20.338,20.133 7.461,0 14.206,-3.781 18.907,-10.527 l 4.19,1.943 c -4.701,7.971 -13.695,12.877 -23.711,12.877 -14.615,0 -25.04,-10.629 -25.04,-25.551 0,-14.922 10.221,-25.551 24.632,-25.551 14.206,0 23.812,10.526 24.119,26.676 z m 37.917,-4.6 c -1.84,-11.141 -8.892,-17.58 -19.01,-17.58 -9.914,0 -16.966,6.644 -18.806,17.58 z"
         inkscape:connector-curvature="0"
         style="fill:#333333" /><path
         id="path874"
         d="m 289.422,60.52 h 6.541 L 311.498,40.18 296.474,21.375 h -6.234 v -4.6 h 17.988 v 4.6 h -5.724 l 11.958,15.023 11.753,-15.023 h -5.212 v -4.6 h 17.783 v 4.6 h -6.541 l -14.718,18.805 16.455,20.34 h 6.132 v 4.598 H 322.127 V 60.52 h 5.928 L 314.462,43.86 301.891,60.52 h 6.337 v 4.598 h -18.806 z"
         inkscape:connector-curvature="0"
         style="fill:#333333" /><path
         id="path876"
         d="m 342.156,21.375 v -4.6 h 8.585 V 5.941 l 5.314,-4.189 v 15.023 h 10.118 v 4.6 h -10.118 v 33.727 c 0,5.621 0.92,7.666 10.118,5.418 v 4.598 C 356.872,67.776 350.74,65.835 350.74,57.35 V 21.375 Z"
         inkscape:connector-curvature="0"
         style="fill:#333333" /></g></g></svg>