<?xml version="1.0" encoding="UTF-8" standalone="no"?>
<!-- Generator: Adobe Illustrator 18.1.1, SVG Export Plug-In . SVG Version: 6.00 Build 0)  -->

<svg
   xmlns:dc="http://purl.org/dc/elements/1.1/"
   xmlns:cc="http://creativecommons.org/ns#"
   xmlns:rdf="http://www.w3.org/1999/02/22-rdf-syntax-ns#"
   xmlns:svg="http://www.w3.org/2000/svg"
   xmlns="http://www.w3.org/2000/svg"
   xmlns:sodipodi="http://sodipodi.sourceforge.net/DTD/sodipodi-0.dtd"
   xmlns:inkscape="http://www.inkscape.org/namespaces/inkscape"
   version="1.1"
   x="0px"
   y="0px"
   viewBox="0 0 595.28 260.79"
   style="enable-background:new 0 0 595.28 260.79;"
   xml:space="preserve"
   id="svg5545"
   inkscape:version="0.92.2 5c3e80d, 2017-08-06"
   sodipodi:docname="jems.group.svg"
   inkscape:export-filename="/Users/csabourdin/Documents/projets/personnel/ParisJug/xwikiwebsite/Logo_2016/png/viseo.png"
   inkscape:export-xdpi="18.459269"
   inkscape:export-ydpi="18.459269"><metadata
     id="metadata6635"><rdf:RDF><cc:Work
         rdf:about=""><dc:format>image/svg+xml</dc:format><dc:type
           rdf:resource="http://purl.org/dc/dcmitype/StillImage" /><dc:title></dc:title></cc:Work></rdf:RDF></metadata><defs
     id="defs6633"><inkscape:perspective
       sodipodi:type="inkscape:persp3d"
       inkscape:vp_x="0 : 130.395 : 1"
       inkscape:vp_y="0 : 1000 : 0"
       inkscape:vp_z="595.28 : 130.395 : 1"
       inkscape:persp3d-origin="297.64 : 86.93 : 1"
       id="perspective6639" /><clipPath
       id="clipPath11331"
       clipPathUnits="userSpaceOnUse"><path
         inkscape:connector-curvature="0"
         id="path11329"
         d="M 0,0 H 841.89 V 595.276 H 0 Z" /></clipPath><clipPath
       id="clipPath11351"
       clipPathUnits="userSpaceOnUse"><path
         inkscape:connector-curvature="0"
         id="path11349"
         d="m 174.976,335.744 221.165,-71.861 71.862,221.165 -221.165,71.86 z" /></clipPath><clipPath
       id="clipPath11455"
       clipPathUnits="userSpaceOnUse"><path
         inkscape:connector-curvature="0"
         id="path11453"
         d="M 36.292,518.183 H 147.04 v 60.736 H 36.292 Z" /></clipPath></defs><sodipodi:namedview
     pagecolor="#ffffff"
     bordercolor="#666666"
     borderopacity="1"
     objecttolerance="10"
     gridtolerance="10"
     guidetolerance="10"
     inkscape:pageopacity="0"
     inkscape:pageshadow="2"
     inkscape:window-width="1680"
     inkscape:window-height="1006"
     id="namedview6631"
     showgrid="false"
     inkscape:zoom="1"
     inkscape:cx="222.262"
     inkscape:cy="167.01916"
     inkscape:window-x="4"
     inkscape:window-y="1"
     inkscape:window-maximized="0"
     inkscape:current-layer="layer2"
     showguides="false"
     inkscape:lockguides="false"
     inkscape:object-paths="true"
     inkscape:snap-others="true"
     inkscape:snap-smooth-nodes="true"
     inkscape:snap-intersection-paths="false"
     inkscape:snap-bbox="false"
     inkscape:snap-global="false" /><g
     inkscape:groupmode="layer"
     id="layer2"
     inkscape:label="Jems"
     style="display:inline"><path
       style="opacity:0;fill:#ff0000;fill-rule:evenodd;stroke:#000000;stroke-width:1px;stroke-linecap:butt;stroke-linejoin:miter;stroke-opacity:1"
       d="m 205.84069,133.25023 c -0.83299,5.83092 7.682,3.97983 7.682,3.97983 l 4.99793,-8.42243 z"
       id="path3616"
       inkscape:connector-curvature="0" /><path
       d="m 113.83329,229.99259 -1.20273,-11.14697 1.20273,-0.15328 c 3.2996,3.52523 7.59224,5.28784 12.86606,5.28784 2.62306,0 4.62101,-0.57475 5.99387,-1.72429 1.37681,-1.14953 2.27887,-2.60212 2.7101,-4.36473 0.43125,-1.76262 0.64885,-3.79346 0.64885,-6.09252 v -22.7468 c 0,-4.52149 -0.36399,-7.59735 -1.088,-9.23108 -0.72402,-1.63373 -2.15226,-2.52549 -4.28077,-2.67875 v -0.96143 h 23.04971 v 0.96143 c -1.29769,0.2299 -2.31447,0.72454 -3.05431,1.4909 -0.70819,0.76636 -1.23438,1.96813 -1.57462,3.60186 -0.34025,1.60586 -0.51037,3.88054 -0.51037,6.81707 l 0.0949,23.12997 c 0.0594,1.86364 0.091,3.25701 0.091,4.17664 0,5.23559 -1.73684,9.21018 -5.20656,11.93074 -3.46972,2.71708 -8.55759,4.07909 -15.25174,4.07909 -4.28868,0 -9.11939,-0.79421 -14.48816,-2.37569"
       style="fill:#eb0a7e;fill-opacity:1;fill-rule:nonzero;stroke:none;stroke-width:3.71236777"
       id="path11459"
       inkscape:connector-curvature="0" /><path
       d="m 174.74845,198.55813 h 11.20043 c 3.3352,0 5.78815,-0.29958 7.36277,-0.89874 1.57067,-0.60262 2.69824,-1.66855 3.37873,-3.19778 h 1.01679 c -0.12265,1.48046 -0.18595,3.76559 -0.18595,6.85539 0.12265,4.18708 0.18595,7.30126 0.18595,9.34256 l -1.06426,-0.0383 c -0.55389,-1.48046 -1.6142,-2.51504 -3.173,-3.10025 -1.55485,-0.58871 -3.99987,-0.88131 -7.33508,-0.88131 h -11.38638 v 12.48461 c 0,1.35505 0.18594,2.33738 0.55389,2.95047 0.34024,0.58521 0.997,0.98928 1.97026,1.20526 0.9693,0.21597 2.53602,0.32396 4.69619,0.32396 h 6.61898 c 3.6715,0 6.41325,-0.33092 8.21735,-0.99626 1.80409,-0.66186 3.07804,-1.82532 3.81788,-3.48343 l 1.06426,0.15327 -1.61815,12.40797 h -42.67718 v -0.95794 c 2.00191,-0.35531 3.3629,-1.35157 4.07109,-2.9853 0.71213,-1.63373 1.06821,-4.60857 1.06821,-8.92454 v -29.0309 c 0,-4.41699 -0.35608,-7.4406 -1.06821,-9.07433 -0.70819,-1.63721 -2.06918,-2.58122 -4.07109,-2.83552 v -0.95794 h 43.04512 l 0.0474,11.83321 h -1.57463 c -0.67653,-1.52922 -1.75661,-2.54987 -3.24024,-3.06193 -1.47968,-0.51206 -4.08691,-0.76636 -7.82171,-0.76636 H 174.7484 Z"
       style="fill:#eb0a7e;fill-opacity:1;fill-rule:nonzero;stroke:none;stroke-width:3.71236777"
       id="path11463"
       inkscape:connector-curvature="0" /><path
       d="m 272.26582,173.85505 h 1.43616 l 15.45747,49.67371 c 0.74379,2.27119 1.44407,3.89447 2.10874,4.86286 0.66071,0.97188 1.68936,1.74868 3.07804,2.33738 v 0.95795 c -0.71214,-0.0243 -1.97818,-0.0522 -3.7981,-0.0767 h -7.12539 c -4.78719,0 -7.93249,0.0244 -9.44382,0.0767 V 230.729 c 1.97422,-0.4842 2.96331,-1.65811 2.96331,-3.52523 l -7.03835,-28.95078 -19.34656,35.08162 h -1.52715 l -19.62748,-35.08162 -6.70997,26.61689 c -0.40355,1.50484 -0.60136,2.51504 -0.60136,3.02361 0,1.50833 0.86248,2.45234 2.59141,2.83551 v 0.95795 c -2.71802,-0.15328 -5.80398,-0.22991 -9.25787,-0.22991 -3.5805,0 -6.66646,0.0767 -9.25787,0.22991 V 230.729 c 1.01678,-0.30654 1.78827,-0.66533 2.31447,-1.07289 0.52224,-0.43195 1.00887,-1.14256 1.45594,-2.1249 0.44707,-0.98233 1.02865,-2.53245 1.73684,-4.65385 l 14.72158,-49.02231 h 1.29374 l 22.0804,39.79122 z"
       style="fill:#eb0a7e;fill-opacity:1;fill-rule:nonzero;stroke:none;stroke-width:3.71236777"
       id="path11467"
       inkscape:connector-curvature="0" /><path
       d="m 334.48424,188.75333 h -1.34121 c -3.24025,-3.54962 -7.88501,-5.32269 -13.93428,-5.32269 -1.85157,0 -3.51719,0.28216 -4.99687,0.84299 -1.48363,0.56084 -2.63097,1.33764 -3.44993,2.3339 -0.81897,0.99626 -1.22647,2.10748 -1.22647,3.33364 0,1.63373 0.70818,3.03058 2.12852,4.19405 1.42032,1.15998 3.19673,2.18063 5.32129,3.06193 2.13247,0.88131 4.13835,1.70689 6.01761,2.46975 3.4262,1.50833 6.164,3.05149 8.21735,4.63645 2.05335,1.58147 3.54884,3.34409 4.49046,5.28436 0.94161,1.94028 1.41241,4.20102 1.41241,6.77876 0,3.36847 -0.94952,6.31894 -2.84857,8.84791 -1.89509,2.52896 -4.6052,4.47272 -8.1224,5.83822 -3.51719,1.36899 -7.6674,2.05174 -12.45064,2.05174 -4.93752,0 -10.3063,-0.84299 -16.11027,-2.52897 l -1.24625,-11.29676 h 1.24625 c 3.67546,3.93279 8.82663,5.89744 15.46144,5.89744 3.45389,0 6.31037,-0.80467 8.56549,-2.41401 2.25118,-1.60935 3.37873,-3.574 3.37873,-5.89744 0,-1.83926 -0.72796,-3.44163 -2.17599,-4.80714 -1.45198,-1.3655 -3.8614,-2.77629 -7.22035,-4.23237 -3.5528,-1.52922 -6.49633,-2.94698 -8.84245,-4.24978 -2.31446,-1.27842 -4.16603,-2.56032 -5.55471,-3.84918 -1.38869,-1.28887 -2.38964,-2.66135 -3.00683,-4.11742 -0.5895,-1.45608 -0.88227,-3.07587 -0.88227,-4.86286 0,-3.31971 0.98909,-6.12039 2.96331,-8.409 1.97422,-2.28165 4.59729,-3.99201 7.86919,-5.13109 3.2719,-1.13561 6.74162,-1.7034 10.41312,-1.7034 3.5805,0 6.89988,0.47374 9.95418,1.41775 1.44802,0.33093 2.33029,0.49814 2.63889,0.49814 0.64488,0 1.30955,-0.16721 1.99004,-0.49814 h 1.34121 z"
       style="fill:#eb0a7e;fill-opacity:1;fill-rule:nonzero;stroke:none;stroke-width:3.71236777"
       id="path11471"
       inkscape:connector-curvature="0" /><path
       d="m 360.84423,91.339923 c -26.73308,3.772554 -52.35837,7.402287 -84.13185,10.000927 -2.04147,-23.871941 -8.68815,-47.911086 -18.26648,-74.639436 0,0 12.8898,13.216129 31.09298,27.564374 18.14383,14.149689 40.57636,28.362079 71.30535,37.074135"
       style="fill:#eb0a7e;fill-opacity:1;fill-rule:nonzero;stroke:none;stroke-width:3.71236777"
       id="path11475"
       inkscape:connector-curvature="0" /><path
       d="m 361.50335,94.937618 c -26.73703,3.776037 -52.35838,7.402282 -84.12393,10.000922 1.97026,23.85104 -0.78732,45.59112 -10.83646,67.50537 0,0 17.91041,-10.01834 35.40541,-25.65545 17.35651,-15.48733 33.45492,-35.11645 59.55498,-51.850842"
       style="fill:#eb0a7e;fill-opacity:1;fill-rule:nonzero;stroke:none;stroke-width:3.71236777"
       id="path11479"
       inkscape:connector-curvature="0" /><path
       d="m 158.49695,103.95551 c 46.32098,1.02413 81.40592,-0.28912 113.30599,-2.85641 -2.04543,-23.868457 -8.69606,-47.921535 -18.29417,-74.653369 0,0 -3.3906,11.773989 -14.5396,28.090371 -5.59033,8.095489 -12.64055,16.849347 -24.55313,25.805242 -11.9284,8.865328 -27.58369,17.138471 -55.91909,23.614166"
       style="fill:#eb0a7e;fill-opacity:1;fill-rule:nonzero;stroke:none;stroke-width:3.71236777"
       id="path11483"
       inkscape:connector-curvature="0" /><path
       d="m 157.39074,115.65113 c 46.31703,1.02412 81.39405,-0.28913 113.29413,-2.85642 1.9663,23.85453 -0.81897,45.59113 -10.92745,67.49841 0,0 -7.77423,-10.14026 -24.08627,-23.17526 -16.31997,-12.86778 -36.50132,-26.2964 -78.28041,-41.46673"
       style="fill:#eb0a7e;fill-opacity:1;fill-rule:nonzero;stroke:none;stroke-width:3.71236777"
       id="path11487"
       inkscape:connector-curvature="0" /><text
       xml:space="preserve"
       style="font-style:normal;font-weight:normal;font-size:41.64906311px;line-height:125%;font-family:sans-serif;letter-spacing:0px;word-spacing:0px;fill:#eb0a7e;fill-opacity:1;stroke:none;stroke-width:1.04122651px;stroke-linecap:butt;stroke-linejoin:miter;stroke-opacity:1"
       x="334.22641"
       y="243.42836"
       id="text12526"
       transform="scale(1.0412265,0.96040581)"><tspan
         sodipodi:role="line"
         id="tspan12524"
         x="334.22641"
         y="243.42836"
         style="font-style:normal;font-variant:normal;font-weight:bold;font-stretch:normal;line-height:88.99999857%;font-family:'PT Sans';-inkscape-font-specification:'PT Sans Bold';fill:#eb0a7e;fill-opacity:1;stroke-width:1.04122651px"
         dx="-0.3019557">group</tspan></text>
</g></svg>