<?xml version="1.0" encoding="utf-8"?>
<svg version="1.1" xmlns="http://www.w3.org/2000/svg" x="0px" y="0px" viewBox="208 274 285 153">
<polygon fill="#00A01E" points="426.9,426.8 208.9,426.8 208.9,339.6 274.3,274.1 274.3,361.4 492.4,361.4"/>
<g fill="#FFFFFF">
<path d="M247.5,407.4v-11.3h-10.1v11.3h-6.8v-26.8h6.8V391h10.1v-10.4h6.7v26.8H247.5z"/>
<path d="M259.5,407.4v-26.8h6.7v26.8H259.5z"/>
<path d="M280.7,398.3c-0.9,0-1.7,0-2.7,0v9.2h-6.5v-26.8c3-0.2,5.5-0.3,8.6-0.3c7,0,12.6,1.3,12.6,8.7v0.4 C292.6,396.9,287,398.3,280.7,398.3z M286.1,389.1c0-3.1-1.9-3.7-5.6-3.7c-0.9,0-1.8,0-2.6,0v7.8h2.6c3.7,0,5.6-0.7,5.6-3.8V389.1z"/>
<path d="M305.6,398.3c-0.9,0-1.7,0-2.7,0v9.2h-6.5v-26.8c3-0.2,5.5-0.3,8.6-0.3c7,0,12.6,1.3,12.6,8.7v0.4 C317.5,396.9,311.9,398.3,305.6,398.3z M311,389.1c0-3.1-1.9-3.7-5.6-3.7c-0.9,0-1.8,0-2.6,0v7.8h2.6c3.7,0,5.6-0.7,5.6-3.8V389.1z"/>
<path d="M321.3,407.4v-26.8h6.7v26.8H321.3z"/>
<path d="M347.1,407.8v1.3c0,1.1,0.3,1.3,2.1,1.3h3v3.7c-1,0.3-3.4,0.6-5.3,0.6c-3.6,0-5.9-1-5.9-5.4v-1.4 c-5.2-0.9-8.5-4.7-8.5-12.2v-2.8c0-9.3,4.9-12.6,11.6-12.6c6.8,0,11.7,3.3,11.7,12.6v2.8C355.7,403.2,352.4,406.9,347.1,407.8z M349.1,392.6c0-5.6-1.9-7.3-5-7.3c-3.1,0-5,1.7-5,7.3v2.9c0,5.6,1.9,7.3,5,7.3c3.2,0,5-1.7,5-7.3V392.6z"/>
<path d="M371.3,408.1c-7.2,0-11.3-3.7-11.3-11.5v-15.9h6.7v15.7c0,4.8,1,6.6,4.6,6.6c3.6,0,4.7-1.8,4.7-6.6v-15.7h6.6 v15.9C382.5,404.3,378.4,408.1,371.3,408.1z"/>
<path d="M387.6,407.4v-26.8h18.2v4.9h-11.5v5.8h10.7v4.6h-10.7v6.5h11.5v4.9H387.6z"/>
<rect x="274.3" y="274.1" width="218" height="87.2"/>
</g>
<g fill="#00692D">
<path d="M329.3,297.5c-0.5,0-32.3,0-32.3,0c-0.2,1.3,0.2,2.4,2.7,3c2.1,0.5,5.9,1.5,6.1,1.5 c-7.6,27.9-9.2,33.9-9.7,35.8c0,0,0.3,0,2.4,0c4.6,0,7-2.1,7.8-5.1c0.7-2.7,2.5-9.5,2.5-9.5h13.7c8.2,0,14-8.9,14-17.4 C336.6,298.6,332.9,297.5,329.3,297.5z M324.3,316.1c-0.6,0.6-1.7,0.6-1.7,0.6h-12.1l3.2-12.1h11.9c0,0,1.4,0,1.7,1.7 C328,309.6,326.8,313.6,324.3,316.1z"/>
<path d="M384.5,297.5c-3.7,0-6.4,0.7-7.8,2.4c-0.8,1-18.9,23.3-18.9,23.3s-5.9-20-6.5-22c-0.8-2.6-2.5-3.7-5.8-3.7 c-1.7,0-1.9,0-1.9,0l-11.1,40.4c0,0,0.3,0,2.3,0c4.3,0,6.4-2.1,7.3-5.1c0.6-2.3,1.7-6.4,3.3-12.4c0.7-2.8,1.3-5.4,1.3-5.4 s4.6,15.8,5.1,17.5c0.4,1.4,1,1.6,2.3,1.6c0.9,0,1.6,0,2.1,0c1.6-0.1,2.3-0.4,3.2-1.4c1.4-1.7,14.2-17.8,14.2-17.8s-6,22-6.3,23 c0,0,1.2,0,2.5,0c4.6,0,6.6-2.1,7.3-5.1c0.1-0.5,8.5-31.2,9.6-35.3H384.5z"/>
<path d="M417.4,324.7c0.1,0,0.2,0,0.3,0c3-11.1,5.8-21,7.4-27.2h-2.2c-4.6,0-6.9,2.1-7.8,5.1 c-0.6,2.3-5.5,19.6-6.8,24.5c-0.1,0.3-0.4,1.4-1.3,1.9c-1.3,0.7-3.8,1.8-7.5,1.8c-2.7,0-4.6-0.8-5.7-1.5c-1.3-0.8-0.9-2.1-0.8-2.4 l8.2-29.5h-2.5c-4.6,0-6.9,2.1-7.8,5.1c-0.6,2.2-4.9,18.1-6.4,23.6c-1.7,6.1,3.2,11.8,13,11.8c5.2,0,9.4-0.9,12.6-2.6 c-0.4-0.9-0.6-1.9-0.6-2.9C409.6,328.2,413.1,324.7,417.4,324.7z"/>
</g>
<g fill="#B9001E">
<path d="M417.4,326.9c-0.1,0-0.2,0-0.4,0c-2.9,0.2-5.1,2.6-5.1,5.5c0,0.6,0.1,1.1,0.3,1.7c0.7,2.2,2.8,3.8,5.2,3.8 c3,0,5.5-2.5,5.5-5.5C422.9,329.3,420.4,326.9,417.4,326.9z"/>
<path d="M447.4,315.1H440c-2.1,0-3,0.7-3.7,3.1l-1.1,3.9h9.8c0.4,0,0.6,0.3,0.5,0.7l-0.7,2.6 c-0.1,0.4-0.5,0.7-0.9,0.7h-9.8l-3,11c-0.1,0.4-0.5,0.7-0.9,0.7h-3.5c-0.4,0-0.6-0.3-0.5-0.7l5.1-18.9c1.7-6.1,5.6-7.4,10.3-7.4 c4.3,0,5.6,0.3,6.7,0.5c0.5,0.1,0.7,0.3,0.5,0.8l-0.6,2.3C448.2,314.8,447.8,315.1,447.4,315.1z"/>
<path d="M465.2,337.9h-4.4c-0.4,0-0.4-0.4-0.5-0.7l-2.6-9.6h-0.5c-0.9,0-2.3-0.1-3.2-0.1l-2.6,9.8 c-0.1,0.4-0.5,0.7-0.9,0.7h-3.6c-0.4,0-0.6-0.3-0.5-0.7l6.7-24.8c0.2-0.7,0.7-1,1.4-1.1c1.9-0.3,4.6-0.5,7.2-0.5 c5.5,0,9.8,2,8.2,8.1l-0.1,0.3c-1,3.8-3.6,6.2-6.9,7.3l2.8,10.5c0,0.1,0,0.2,0,0.3C465.7,337.7,465.5,337.9,465.2,337.9z M464.9,319c0.7-2.7-0.8-3.9-4.4-3.9c-0.8,0-2.6,0.1-3.2,0.1l-2.2,8.1c0.6,0,2.6,0.1,3.2,0.1c3.7,0,5.7-1,6.5-4.2L464.9,319z"/>
</g>
</svg>