<?xml version="1.0" encoding="UTF-8" standalone="no"?>
<!-- Generator: Adobe Illustrator 18.1.1, SVG Export Plug-In . SVG Version: 6.00 Build 0)  -->

<svg
   xmlns:dc="http://purl.org/dc/elements/1.1/"
   xmlns:cc="http://creativecommons.org/ns#"
   xmlns:rdf="http://www.w3.org/1999/02/22-rdf-syntax-ns#"
   xmlns:svg="http://www.w3.org/2000/svg"
   xmlns="http://www.w3.org/2000/svg"
   xmlns:sodipodi="http://sodipodi.sourceforge.net/DTD/sodipodi-0.dtd"
   xmlns:inkscape="http://www.inkscape.org/namespaces/inkscape"
   version="1.1"
   x="0px"
   y="0px"
   viewBox="0 0 595.28 260.79"
   style="enable-background:new 0 0 595.28 260.79;"
   xml:space="preserve"
   id="svg5545"
   inkscape:version="0.91 r13725"
   sodipodi:docname="codenvy.svg"><metadata
     id="metadata6635"><rdf:RDF><cc:Work
         rdf:about=""><dc:format>image/svg+xml</dc:format><dc:type
           rdf:resource="http://purl.org/dc/dcmitype/StillImage" /><dc:title></dc:title></cc:Work></rdf:RDF></metadata><defs
     id="defs6633"><inkscape:perspective
       sodipodi:type="inkscape:persp3d"
       inkscape:vp_x="0 : 130.395 : 1"
       inkscape:vp_y="0 : 1000 : 0"
       inkscape:vp_z="595.28 : 130.395 : 1"
       inkscape:persp3d-origin="297.64 : 86.93 : 1"
       id="perspective6639" /></defs><sodipodi:namedview
     pagecolor="#ffffff"
     bordercolor="#666666"
     borderopacity="1"
     objecttolerance="10"
     gridtolerance="10"
     guidetolerance="10"
     inkscape:pageopacity="0"
     inkscape:pageshadow="2"
     inkscape:window-width="1680"
     inkscape:window-height="1006"
     id="namedview6631"
     showgrid="false"
     inkscape:zoom="0.43634927"
     inkscape:cx="-203.4052"
     inkscape:cy="433.45136"
     inkscape:window-x="38"
     inkscape:window-y="1"
     inkscape:window-maximized="0"
     inkscape:current-layer="svg5545" /><g
     inkscape:groupmode="layer"
     id="layer7"
     inkscape:label="codenvy"
     style="display:inline"><g
       id="g4523"
       style="fill:none;fill-rule:evenodd;stroke:none;stroke-width:1"
       transform="translate(12.461024,82.283858)"><g
         id="g4525"
         transform="translate(-2,-1)"
         style="fill:#294d6f"><g
           id="g4527"
           transform="matrix(1,0,0,-1,0,99)"><g
             id="g12"><g
               id="g14-Clipped"><g
                 transform="translate(0.33333,0.666655)"
                 id="g14"><g
                   transform="translate(201.88093,20.14)"
                   id="g20"><path
                     id="path22"
                     d="m 51.999999,49.666665 c -0.524,2.025334 -1.242667,3.889334 -2.157334,5.590667 -0.917333,1.698667 -2.093333,3.170666 -3.530666,4.413333 -1.44,1.24 -3.122667,2.205333 -5.050667,2.893333 -1.930666,0.685334 -4.169333,1.029334 -6.718666,1.029334 -3.726667,0 -6.948,-0.752 -9.661333,-2.256 -2.713334,-1.504 -4.92,-3.514667 -6.618667,-6.032 -1.701333,-2.517333 -2.96,-5.378667 -3.776,-8.581333 C 13.668,43.519999 13.26,40.250666 13.26,36.917332 c 0,-3.335999 0.408,-6.605333 1.226666,-9.807999 0.816,-3.204 2.074667,-6.065334 3.776,-8.582667 1.698667,-2.517333 3.905333,-4.528 6.618667,-6.030666 2.713333,-1.505334 5.934666,-2.256 9.661333,-2.256 2.745333,0 5.164,0.473333 7.257333,1.422666 2.092,0.946667 3.889333,2.256 5.394666,3.922667 1.502667,1.666666 2.68,3.612 3.530667,5.834666 0.848,2.222667 1.404,4.610667 1.666667,7.16 l 11.965333,0 c -0.262667,-4.184 -1.161334,-8.009333 -2.697334,-11.474666 -1.536,-3.466667 -3.613333,-6.457333 -6.227999,-8.9733332 -2.616,-2.5186666 -5.688,-4.4626666 -9.218667,-5.8359999 -3.530666,-1.37333328 -7.421333,-2.0586666 -11.670666,-2.0586666 -5.232,0 -9.922667,0.9653333 -14.074667,2.8933333 C 16.316,5.0573332 12.802666,7.6906664 9.9253331,11.025333 7.0479998,14.358666 4.8413332,18.249333 3.3053333,22.695999 1.768,27.141333 0.99999997,31.881332 0.99999997,36.917332 c 0,4.968 0.76800003,9.674667 2.30533333,14.122667 1.5359999,4.444 3.7426665,8.336 6.6199998,11.670666 2.8773329,3.334667 6.3906669,5.982667 10.5426659,7.944 4.152,1.961333 8.842667,2.942666 14.074667,2.942666 3.922666,0 7.616,-0.539999 11.081333,-1.618666 3.465333,-1.078667 6.522666,-2.648 9.170666,-4.708 2.648,-2.058667 4.788,-4.56 6.424,-7.502667 1.633333,-2.942666 2.648,-6.310666 3.041333,-10.101333 l -12.259999,0 z"
                     inkscape:connector-curvature="0" /></g><g
                   transform="translate(268.38426,20.164266)"
                   id="g24"><path
                     id="path26"
                     d="m 26.666666,9.3333331 c 2.484,0 4.642667,0.5226667 6.473333,1.5693329 1.829333,1.045334 3.334667,2.418667 4.510667,4.118667 1.177333,1.7 2.044,3.612 2.6,5.737333 0.554666,2.124 0.833333,4.298667 0.833333,6.522667 0,2.157333 -0.278667,4.314666 -0.833333,6.471999 -0.556,2.158667 -1.422667,4.070667 -2.6,5.737334 -1.176,1.668 -2.681334,3.024 -4.510667,4.070666 -1.830666,1.045334 -3.989333,1.569333 -6.473333,1.569333 -2.485333,0 -4.642667,-0.523999 -6.473333,-1.569333 -1.830667,-1.046666 -3.333333,-2.402666 -4.510667,-4.070666 -1.177333,-1.666667 -2.044,-3.578667 -2.598666,-5.737334 -0.557334,-2.157333 -0.834667,-4.314666 -0.834667,-6.471999 0,-2.224 0.277333,-4.398667 0.834667,-6.522667 0.554666,-2.125333 1.421333,-4.037333 2.598666,-5.737333 1.177334,-1.7 2.68,-3.073333 4.510667,-4.118667 1.830666,-1.0466662 3.988,-1.5693329 6.473333,-1.5693329 m 0,-8.82666645 C 22.611999,0.50666665 19,1.1773333 15.829333,2.5173333 12.657333,3.8559999 9.9773331,5.7039999 7.7879998,8.0586665 5.5959999,10.412 3.9293332,13.222666 2.7853333,16.493333 c -1.144,3.268 -1.716,6.865333 -1.716,10.788 0,3.856 0.572,7.419999 1.716,10.689333 1.1439999,3.269333 2.8106666,6.081333 5.0026665,8.434666 2.1893333,2.354667 4.8693332,4.2 8.0413332,5.541333 3.170667,1.34 6.782666,2.010667 10.837333,2.010667 4.053333,0 7.665333,-0.670667 10.837333,-2.010667 3.170667,-1.341333 5.850667,-3.186666 8.042667,-5.541333 2.189333,-2.353333 3.857333,-5.165333 5.001333,-8.434666 1.144,-3.269334 1.717333,-6.833333 1.717333,-10.689333 0,-3.922667 -0.573333,-7.52 -1.717333,-10.788 -1.144,-3.270667 -2.812,-6.081333 -5.001333,-8.4346665 -2.192,-2.3546666 -4.872,-4.2026666 -8.042667,-5.5413332 -3.172,-1.34 -6.784,-2.01066665 -10.837333,-2.01066665"
                     inkscape:connector-curvature="0" /></g><g
                   transform="translate(322.04786,20.189999)"
                   id="g28"><path
                     id="path30"
                     d="m 12,26.666666 c 0,-2.157333 0.276,-4.282667 0.833333,-6.374667 0.554667,-2.093333 1.405333,-3.957333 2.549333,-5.589333 1.144,-1.636 2.6,-2.944 4.365333,-3.924 1.765334,-0.9799996 3.856,-1.4706662 6.276,-1.4706662 2.484,0 4.625334,0.5226666 6.424,1.5680002 1.797334,1.045333 3.269333,2.418666 4.413333,4.12 1.144,1.698666 1.994667,3.611999 2.549334,5.737333 0.556,2.124 0.834666,4.298666 0.834666,6.522666 0,5.621334 -1.26,10.002667 -3.776,13.141333 -2.517333,3.138667 -5.933333,4.708 -10.249333,4.708 -2.616,0 -4.821333,-0.54 -6.618666,-1.618666 -1.8,-1.078667 -3.272,-2.485334 -4.414667,-4.217334 -1.145333,-1.733333 -1.961333,-3.694666 -2.452,-5.884 C 12.244,31.193333 12,28.954666 12,26.666666 l 0,0 z m 39.033332,-24.8133327 -10.592,0 0,6.8653332 -0.196,0 C 38.739999,5.7773332 36.550666,3.6679999 33.674666,2.3933333 30.795999,1.1186666 27.755999,0.48133332 24.553333,0.48133332 20.564,0.48133332 17.082666,1.184 14.108,2.5893333 11.132,3.9946666 8.6653331,5.9066665 6.7039998,8.3266665 4.7413332,10.745333 3.2706666,13.606666 2.2906666,16.908 1.3093333,20.209333 0.81866665,23.757333 0.81866665,27.549333 c 0,4.575999 0.62133335,8.533333 1.86399995,11.866666 1.2413333,3.334667 2.8933333,6.081333 4.9519999,8.238666 2.0599999,2.157334 4.4146665,3.742667 7.0626665,4.757334 2.648,1.013333 5.344,1.52 8.090666,1.52 1.569334,0 3.170667,-0.146667 4.805334,-0.441334 1.633333,-0.294666 3.202666,-0.769333 4.707999,-1.422666 1.502667,-0.653334 2.893334,-1.488 4.168,-2.501334 1.274667,-1.013333 2.336,-2.205333 3.186667,-3.578666 l 0.197333,0 0,25.891999 11.18,0 0,-70.0266647 z"
                     inkscape:connector-curvature="0" /></g><g
                   transform="translate(375.04879,19.858933)"
                   id="g32"><path
                     id="path34"
                     d="m 37.333332,31.999999 c -0.132,1.765333 -0.506666,3.465333 -1.128,5.1 -0.622666,1.633333 -1.471999,3.056 -2.549333,4.266667 -1.08,1.208 -2.388,2.189333 -3.924,2.941333 -1.537333,0.752 -3.253333,1.128 -5.148,1.128 -1.961333,0 -3.744,-0.344 -5.345333,-1.029333 -1.602666,-0.686667 -2.976,-1.634667 -4.12,-2.845334 -1.144,-1.210666 -2.058666,-2.632 -2.745333,-4.265333 -0.686667,-1.636 -1.062667,-3.401333 -1.128,-5.296 l 26.087999,0 z m -26.087999,-7.356 c 0,-1.961333 0.277333,-3.858666 0.833333,-5.688 0.554667,-1.830666 1.389334,-3.433333 2.501334,-4.805333 1.110666,-1.373333 2.516,-2.469333 4.217333,-3.285333 1.698666,-0.818667 3.726666,-1.2266666 6.08,-1.2266666 3.269333,0 5.9,0.7013336 7.896,2.1093336 1.993333,1.404 3.481333,3.513333 4.461333,6.325333 l 10.593333,0 c -0.589333,-2.746667 -1.604,-5.197333 -3.041334,-7.356 -1.438666,-2.1573332 -3.171999,-3.9719998 -5.197333,-5.4439998 -2.028,-1.4693333 -4.3,-2.5826666 -6.815999,-3.3333333 -2.518667,-0.7506666 -5.149334,-1.12799992 -7.896,-1.12799992 -3.988,0 -7.518667,0.65466662 -10.592,1.96133332 C 11.212,4.0813332 8.6119998,5.9119998 6.4893332,8.2653331 4.3626666,10.62 2.7613333,13.429333 1.6826666,16.7 0.60399998,19.967999 0.064,23.565333 0.064,27.487999 c 0,3.596 0.57199998,7.013333 1.7173333,10.249333 1.1426666,3.236 2.7773332,6.08 4.9026665,8.533333 2.1253333,2.450667 4.6906662,4.396 7.7000002,5.834667 3.006666,1.437333 6.406666,2.157333 10.199999,2.157333 3.986667,0 7.566667,-0.833333 10.738667,-2.501333 3.170666,-1.666667 5.801333,-3.873333 7.894666,-6.618667 2.092,-2.746666 3.612,-5.901333 4.56,-9.465333 0.948,-3.564 1.193333,-7.242666 0.736,-11.033333 l -37.267999,0 z"
                     inkscape:connector-curvature="0" /></g><g
                   transform="translate(426.64092,20.748666)"
                   id="g36"><path
                     id="path38"
                     d="m 0,51.999999 10.592,0 0,-7.453333 0.196,-0.197334 c 1.698666,2.810667 3.922666,5.018667 6.669333,6.621333 2.745333,1.6 5.785333,2.402667 9.121333,2.402667 5.556,0 9.937333,-1.44 13.141333,-4.316 3.202667,-2.877333 4.805333,-7.193333 4.805333,-12.945333 l 0,-34.8173324 -11.18,0 0,31.8746664 c -0.132,3.987999 -0.981333,6.881333 -2.550666,8.679999 -1.568,1.797334 -4.021333,2.697334 -7.354667,2.697334 -1.897333,0 -3.597333,-0.344 -5.1,-1.030667 C 16.834666,42.829332 15.56,41.881332 14.514666,40.671999 13.468,39.461332 12.652,38.039999 12.062666,36.406666 11.474666,34.770666 11.18,33.037332 11.18,31.207999 l 0,-29.9133324 -11.18,0 0,50.7053324 z"
                     inkscape:connector-curvature="0" /></g><g
                   transform="translate(470.05412,20.748666)"
                   id="g40"><path
                     id="path42"
                     d="m 0,51.999999 12.161333,0 12.848,-38.935999 0.196,0 12.357333,38.935999 11.571999,0 -18.142666,-50.7053324 -12.553333,0 L 0,51.999999 Z"
                     inkscape:connector-curvature="0" /></g><g
                   transform="translate(521.37599,0.748667)"
                   id="g44"><path
                     id="path46"
                     d="m 0,71.999998 12.26,0 13.239999,-37.855999 0.196,0 12.848,37.855999 11.670666,0 -19.711999,-53.450665 c -0.917333,-2.288 -1.816,-4.478667 -2.698667,-6.572 -0.882666,-2.0906666 -1.96,-3.9373332 -3.236,-5.5399998 C 23.293333,4.8359999 21.706666,3.5599999 19.811999,2.6119999 17.913333,1.664 15.496,1.1893333 12.554666,1.1893333 c -2.6159996,0 -5.1986662,0.1973333 -7.7493328,0.5893333 l 0,9.4146664 C 5.7199999,11.062666 6.6026665,10.916 7.4533331,10.752 c 0.8493334,-0.162667 1.732,-0.245334 2.6479999,-0.245334 1.308,0 2.386667,0.164 3.237333,0.490667 0.849334,0.328 1.552,0.801333 2.108,1.422667 0.554667,0.621333 1.030667,1.357333 1.422667,2.205333 0.392,0.850667 0.750667,1.832 1.078667,2.944 L 19.222666,21.491999 0,71.999998 Z"
                     inkscape:connector-curvature="0" /></g><g
                   transform="translate(0.807333,16.493066)"
                   id="g48"><path
                     id="path50"
                     d="m 9.3333331,26.666666 c 0,9.648 -8.0399998,10.309333 -8.0399998,10.309333 l 0,8.134667 c 0,0 8.0399998,0.662666 8.0399998,10.499999 l 0,7.944 c 0,14.945333 10.7826659,16.458666 15.3226659,16.458666 1.325334,0 2.176,-0.09467 2.176,-0.09467 l 0,-7 -1.324,0 c -2.365333,0 -8.134666,-0.850667 -8.134666,-9.930667 l 0,-9.742666 c 0,-9.364 -7.6613332,-12.012 -7.6613332,-12.012 l 0,-0.189333 c 0,0 7.6613332,-2.270667 7.6613332,-12.013333 l 0,-10.877333 c 0,-9.0799999 5.769333,-9.9306665 8.134666,-9.9306665 l 1.324,0 0,-6.9999999 c 0,0 -0.850666,-0.188 -2.176,-0.188 -4.54,0 -15.3226659,1.512 -15.3226659,16.5519994 l 0,9.08 z"
                     inkscape:connector-curvature="0" /></g><g
                   transform="translate(147.97573,16.715333)"
                   id="g52"><path
                     id="path54"
                     d="m 1.3333333,7.9999998 c 2.3639999,0 8.1346665,0.8506667 8.1346665,9.9320002 l 0,10.877333 c 0,9.742666 7.6613332,12.011999 7.6613332,12.011999 l 0,0.189334 c 0,0 -7.6613332,2.648 -7.6613332,12.011999 l 0,9.742667 c 0,9.079999 -5.7706666,9.932 -8.1346665,9.932 l -1.32399997,0 0,6.998666 c 0,0 0.85066665,0.09467 2.17466667,0.09467 4.5399998,0 15.322666,-1.513334 15.322666,-16.457333 l 0,-7.945333 c 0,-9.837334 8.041333,-10.498667 8.041333,-10.498667 l 0,-8.134666 c 0,0 -8.041333,-0.662667 -8.041333,-10.310667 l 0,-9.079999 C 17.506666,2.3253333 6.7239998,0.81199998 2.184,0.81199998 c -1.32400002,0 -2.17466667,0.18933332 -2.17466667,0.18933332 l 0,6.9986665 1.32399997,0 z"
                     inkscape:connector-curvature="0" /></g><g
                   transform="translate(42.561199,27.051599)"
                   id="g56"><path
                     id="path58"
                     d="m 23.999999,39.999999 c -8.730666,0 -15.8319992,-7.102667 -15.8319992,-15.832 0,-8.730666 7.1013332,-15.8333325 15.8319992,-15.8333325 l 45.279999,0 c 7.098667,0 12.874667,5.7759995 12.874667,12.8759995 0,6.678667 -5.212,12.314666 -11.864,12.829333 l -2.074667,0.161333 -1.041333,1.801334 c -2.228,3.852 -6.204,6.257333 -10.636,6.430666 l -2.533333,0.1 -0.965333,2.342667 c -1.997334,4.844 -6.670667,7.973333 -11.906667,7.973333 -5.970666,0 -11.114666,-4.048 -12.513333,-9.844 l -0.758666,-3.146666 -3.234667,0.124 c -0.208,0.008 -0.416,0.01733 -0.626667,0.01733 m 45.279999,-39.56933234 -45.279999,0 C 10.912,0.43066666 0.26399999,11.08 0.26399999,24.167999 c 0,12.374667 9.51866641,22.568 21.61866601,23.642666 3.134667,7.752 10.665333,12.942667 19.250666,12.942667 7.626667,0 14.512,-4.112 18.150667,-10.66 5.498666,-0.862667 10.386666,-3.878666 13.633333,-8.428 4.426666,-0.781333 8.481333,-2.98 11.581333,-6.312 3.585333,-3.853333 5.559999,-8.875999 5.559999,-14.142666 0,-11.4586662 -9.321333,-20.77999934 -20.778666,-20.77999934"
                     inkscape:connector-curvature="0" /></g></g></g></g></g></g></g></g></svg>