<?xml version="1.0" encoding="UTF-8" standalone="no"?>
<!-- Generator: Adobe Illustrator 18.1.1, SVG Export Plug-In . SVG Version: 6.00 Build 0)  -->

<svg
   xmlns:dc="http://purl.org/dc/elements/1.1/"
   xmlns:cc="http://creativecommons.org/ns#"
   xmlns:rdf="http://www.w3.org/1999/02/22-rdf-syntax-ns#"
   xmlns:svg="http://www.w3.org/2000/svg"
   xmlns="http://www.w3.org/2000/svg"
   xmlns:sodipodi="http://sodipodi.sourceforge.net/DTD/sodipodi-0.dtd"
   xmlns:inkscape="http://www.inkscape.org/namespaces/inkscape"
   version="1.1"
   x="0px"
   y="0px"
   viewBox="0 0 595.28 260.79"
   style="enable-background:new 0 0 595.28 260.79;"
   xml:space="preserve"
   id="svg5545"
   inkscape:version="0.91 r13725"
   sodipodi:docname="Cosium.svg"><metadata
     id="metadata6635"><rdf:RDF><cc:Work
         rdf:about=""><dc:format>image/svg+xml</dc:format><dc:type
           rdf:resource="http://purl.org/dc/dcmitype/StillImage" /><dc:title></dc:title></cc:Work></rdf:RDF></metadata><defs
     id="defs6633"><inkscape:perspective
       sodipodi:type="inkscape:persp3d"
       inkscape:vp_x="0 : 130.395 : 1"
       inkscape:vp_y="0 : 1000 : 0"
       inkscape:vp_z="595.28 : 130.395 : 1"
       inkscape:persp3d-origin="297.64 : 86.93 : 1"
       id="perspective6639" /></defs><sodipodi:namedview
     pagecolor="#ffffff"
     bordercolor="#666666"
     borderopacity="1"
     objecttolerance="10"
     gridtolerance="10"
     guidetolerance="10"
     inkscape:pageopacity="0"
     inkscape:pageshadow="2"
     inkscape:window-width="1680"
     inkscape:window-height="1006"
     id="namedview6631"
     showgrid="false"
     inkscape:zoom="0.43634927"
     inkscape:cx="42.957073"
     inkscape:cy="433.45136"
     inkscape:window-x="79"
     inkscape:window-y="2"
     inkscape:window-maximized="0"
     inkscape:current-layer="svg5545" /><g
     inkscape:groupmode="layer"
     id="layer6"
     inkscape:label="Cosium"
     style="display:inline"><g
       id="g4925"
       transform="matrix(1.7258123,0,0,1.7258123,2.640015,19.415781)"><g
         id="Calque_2" /><g
         id="Calque_2_-_copie"><path
           id="path4853"
           d="m 341.868,67.99 c 0,0 -6.11,0.619 -24.404,5.275 -9.698,2.471 -16.968,5.998 -19.162,7.44 -22.212,14.598 -1.21,24.358 -1.878,24.012 -3.891,-2.197 -6.567,-3.742 0,0 0,0 0.645,-1.055 -38.022,-7.461 -1.112,-0.184 -7.154,-1.059 -7.154,-1.059 -6.966,-1.301 -17.372,-2.678 -23.279,-3.336 C 221.108,92.093 224.307,92.527 222.52,92.3 188.125,87.948 188.193,88.003 177.107,86.868 128.027,81.845 0,78.664 0,78.664 l 187.572,-2.173 27.512,-0.706 33.648,-0.858 24.15,-1.144 8.573,-0.404 26.434,-1.725 33.979,-3.664"
           inkscape:connector-curvature="0"
           style="fill:#194072" /><g
           id="g4855"><g
             id="g4857"><path
               id="path4859"
               d="m 97.899,15.91 c 12.934,0 20.639,6.493 20.639,17.023 0,15.343 -13.042,29.428 -31.995,29.428 -12.934,0 -20.639,-6.493 -20.639,-17.023 C 65.905,29.995 78.947,15.91 97.899,15.91 Z m -9.9,40.498 c 3.585,0 7.438,-1.09 10.375,-3.187 8.53,-5.903 9.381,-19.602 9.381,-21.225 0,-8.107 -6.467,-10.134 -11.311,-10.134 -3.585,0 -7.437,1.09 -10.375,3.187 -8.53,5.903 -9.38,19.602 -9.38,21.225 0,8.107 6.468,10.134 11.31,10.134 z"
               inkscape:connector-curvature="0"
               style="fill:#333334" /><path
               id="path4861"
               d="m 139.59,62.361 c -3.48,0 -10.695,-0.252 -16.66,-2.6 l 1.579,-6.456 c 5.984,2.264 12.951,3.103 17.591,3.103 10.597,0 14.017,-4.705 14.017,-7.841 0,-3.328 -4.113,-4.579 -7.679,-5.575 l -7.502,-2.096 C 134.827,39.27 130.26,35.69 130.26,30.786 c 0,-7.915 11.044,-14.877 25.326,-14.877 4.324,0 9.538,0.671 14.524,1.845 l -1.559,6.373 c -4.985,-1.174 -9.992,-2.264 -14.737,-2.264 -7.497,0 -13.16,2.536 -13.16,6.34 0,2.851 4.1,4.063 7.63,5.063 l 7.607,2.096 c 5.867,1.617 10.833,4.632 10.833,10.121 0,7.934 -9.249,16.878 -27.134,16.878 z"
               inkscape:connector-curvature="0"
               style="fill:#333334" /><path
               id="path4863"
               d="m 175.376,61.355 10.864,-44.439 10.018,0 -10.864,44.439 -10.018,0 z m 12.913,-52.824 1.948,-7.965 10.018,0 -1.948,7.965 -10.018,0 z"
               inkscape:connector-curvature="0"
               style="fill:#333334" /><path
               id="path4865"
               d="m 214.088,51.41 c 0,2.873 1.339,4.999 6.262,4.999 6.807,0 13.252,-3.995 18.147,-9.097 l 7.43,-30.396 10.018,0 -10.864,44.439 -10.018,0 1.722,-7.043 c -6.254,4.804 -13.683,8.049 -21.477,8.049 -9.13,0 -11.401,-4.292 -11.401,-9.224 0,-2.967 0.822,-6.167 1.467,-8.803 l 6.703,-27.418 10.018,0 -7.072,28.927 c -0.471,1.927 -0.935,3.877 -0.935,5.567 z"
               inkscape:connector-curvature="0"
               style="fill:#333334" /><path
               id="path4867"
               d="m 293.545,21.863 c -5.904,0 -11.139,3.415 -14.996,7.857 l -7.734,31.635 -10.018,0 10.863,-44.439 10.019,0 -1.314,5.374 c 5.19,-3.871 11.435,-6.38 18.116,-6.38 5.439,0 10.64,1.66 11.363,7.506 5.423,-4.504 12.183,-7.506 19.429,-7.506 9.144,0 11.409,4.294 11.409,9.211 0,2.951 -0.815,6.126 -1.453,8.732 l -6.724,27.502 -10.018,0 7.093,-29.011 c 0.441,-1.81 0.907,-3.736 0.907,-5.438 0,-2.834 -1.294,-5.043 -6.149,-5.043 -5.903,0 -11.136,3.413 -14.952,7.854 -0.271,1.358 -0.609,2.748 -0.949,4.137 l -6.724,27.502 -9.913,0 7.093,-29.011 c 0.442,-1.809 0.885,-3.619 0.885,-5.245 0,-3.729 -2.477,-5.237 -6.233,-5.237 z"
               inkscape:connector-curvature="0"
               style="fill:#333334" /></g></g><path
           id="path4869"
           d="m 309.33,93.017 c 0,3.393 -3.236,6.146 -7.212,6.146 -3.97,0 -7.195,-2.754 -7.195,-6.146 0,-3.395 3.226,-6.148 7.195,-6.148 3.976,0 7.212,2.754 7.212,6.148 z"
           inkscape:connector-curvature="0"
           style="fill:#194072" /><g
           id="g4871"><path
             id="path4873"
             d="m 49.662,9.12 c 6.186,0 13.202,0.786 19.81,2.163 l -1.879,7.374 C 60.961,17.378 54.069,16.1 48.012,16.1 33.29,16.1 24.91,23.832 21.72,36.352 c -0.639,2.507 -0.968,4.827 -0.968,6.934 0,8.328 5.146,13.318 16.684,13.318 6.443,0 13.931,-1.573 21.291,-3.146 l -1.929,7.57 C 49.439,62.601 41.972,63.584 35.658,63.584 18.402,63.584 8.43,56.78 8.43,44.049 8.429,32.425 16.677,9.12 49.662,9.12 Z"
             inkscape:connector-curvature="0"
             style="fill:#194072" /></g><g
           id="g4875"><path
             id="path4877"
             d="m 13.412,113.966 c 2.636,0.608 3.632,2.259 3.632,3.911 0,0.654 -0.204,2.69 -2.267,4.042 -1.823,1.194 -4.028,1.201 -6.214,1.201 l -4.323,0 3.385,-17.412 4.203,0 c 1.993,0 3.987,0 5.252,1.152 0.739,0.688 1.037,1.575 1.037,2.442 -0.001,1.899 -1.468,3.975 -4.705,4.664 z m -6.421,7.353 2.57,0 c 1.375,0 4.472,0.1 5.019,-2.714 0.042,-0.214 0.062,-0.424 0.062,-0.628 0,-0.781 -0.293,-1.479 -0.797,-2.014 -1.038,-1.102 -2.596,-1.104 -4.157,-1.104 l -1.441,0 -1.256,6.46 z m 3.216,-8.262 c 1.369,0 2.714,0 3.967,-0.889 1.332,-0.899 1.508,-2.108 1.508,-2.552 0,-0.512 -0.17,-1.029 -0.589,-1.435 -0.71,-0.673 -1.863,-0.673 -3.016,-0.673 l -2.401,0 -1.079,5.548 1.61,0 z"
             inkscape:connector-curvature="0"
             style="fill:#121212" /><path
             id="path4879"
             d="m 21.821,120.272 c 0,0.823 0.305,1.432 1.426,1.432 1.55,0 3.018,-1.145 4.133,-2.605 l 1.692,-8.707 2.281,0 -2.474,12.729 -2.282,0 0.392,-2.018 c -1.424,1.376 -3.116,2.306 -4.891,2.306 -2.08,0 -2.597,-1.229 -2.597,-2.642 0,-0.851 0.187,-1.767 0.334,-2.522 l 1.526,-7.854 2.282,0 -1.61,8.286 c -0.106,0.552 -0.212,1.111 -0.212,1.595 z"
             inkscape:connector-curvature="0"
             style="fill:#121212" /><path
             id="path4881"
             d="m 35.956,123.409 c -0.792,0 -2.436,-0.072 -3.794,-0.744 l 0.359,-1.85 c 1.363,0.648 2.95,0.889 4.006,0.889 2.414,0 3.192,-1.348 3.192,-2.246 0,-0.953 -0.937,-1.312 -1.749,-1.597 l -1.708,-0.601 c -1.392,-0.466 -2.432,-1.491 -2.432,-2.896 0,-2.268 2.515,-4.262 5.768,-4.262 0.985,0 2.172,0.192 3.308,0.528 l -0.355,1.825 c -1.136,-0.336 -2.276,-0.648 -3.356,-0.648 -1.708,0 -2.997,0.727 -2.997,1.816 0,0.816 0.934,1.164 1.738,1.45 l 1.732,0.601 c 1.336,0.463 2.467,1.326 2.467,2.898 0.001,2.275 -2.105,4.837 -6.179,4.837 z"
             inkscape:connector-curvature="0"
             style="fill:#121212" /><path
             id="path4883"
             d="m 44.105,123.121 2.474,-12.729 2.282,0 -2.474,12.729 -2.282,0 z m 2.942,-15.131 0.443,-2.281 2.282,0 -0.444,2.281 -2.281,0 z"
             inkscape:connector-curvature="0"
             style="fill:#121212" /><path
             id="path4885"
             d="m 59.535,113.169 c 0,-0.822 -0.315,-1.361 -1.416,-1.361 -1.569,0 -3.041,1.145 -4.157,2.606 l -1.692,8.706 -2.282,0 2.474,-12.729 2.282,0 -0.393,2.022 c 1.432,-1.379 3.143,-2.311 4.964,-2.311 2.025,0 2.544,1.144 2.544,2.539 0,0.832 -0.184,1.754 -0.344,2.577 l -1.536,7.901 -2.282,0 1.62,-8.334 c 0.118,-0.597 0.218,-1.152 0.218,-1.616 z"
             inkscape:connector-curvature="0"
             style="fill:#121212" /><path
             id="path4887"
             d="m 75.479,113.031 c 0,1.605 -1.353,3.228 -3.775,4.014 -1.54,0.499 -3.306,0.576 -5.036,0.576 l -0.523,0 c -0.037,0.314 -0.054,0.605 -0.054,0.874 0,2.727 1.8,3.209 3.411,3.209 1.249,0 2.722,-0.288 4.194,-0.696 l -0.355,1.825 c -1.477,0.433 -2.946,0.576 -4.075,0.576 -4.219,0 -5.47,-2.178 -5.47,-4.716 0,-0.617 0.074,-1.256 0.197,-1.889 1.042,-5.36 4.922,-6.701 7.475,-6.701 2.304,0 4.011,1.149 4.011,2.928 z m -2.304,0.252 c 0,-0.896 -0.834,-1.475 -2.015,-1.475 -1.274,0 -3.667,0.565 -4.668,4.083 l 0.513,0 c 1.417,0 2.834,0 4.014,-0.384 1.408,-0.478 2.156,-1.335 2.156,-2.224 z"
             inkscape:connector-curvature="0"
             style="fill:#121212" /><path
             id="path4889"
             d="m 79.569,123.409 c -0.792,0 -2.436,-0.072 -3.794,-0.744 l 0.359,-1.85 c 1.363,0.648 2.95,0.889 4.006,0.889 2.414,0 3.192,-1.348 3.192,-2.246 0,-0.953 -0.937,-1.312 -1.749,-1.597 l -1.708,-0.601 c -1.392,-0.466 -2.432,-1.491 -2.432,-2.896 0,-2.268 2.515,-4.262 5.768,-4.262 0.985,0 2.172,0.192 3.308,0.528 l -0.355,1.825 c -1.136,-0.336 -2.276,-0.648 -3.356,-0.648 -1.708,0 -2.997,0.727 -2.997,1.816 0,0.816 0.934,1.164 1.738,1.45 l 1.732,0.601 c 1.336,0.463 2.467,1.326 2.467,2.898 10e-4,2.275 -2.106,4.837 -6.179,4.837 z"
             inkscape:connector-curvature="0"
             style="fill:#121212" /><path
             id="path4891"
             d="m 91.216,123.409 c -0.792,0 -2.436,-0.072 -3.794,-0.744 l 0.359,-1.85 c 1.363,0.648 2.95,0.889 4.006,0.889 2.414,0 3.192,-1.348 3.192,-2.246 0,-0.953 -0.937,-1.312 -1.749,-1.597 l -1.708,-0.601 c -1.392,-0.466 -2.432,-1.491 -2.432,-2.896 0,-2.268 2.515,-4.262 5.768,-4.262 0.985,0 2.172,0.192 3.308,0.528 l -0.355,1.825 c -1.136,-0.336 -2.276,-0.648 -3.356,-0.648 -1.708,0 -2.997,0.727 -2.997,1.816 0,0.816 0.934,1.164 1.738,1.45 l 1.732,0.601 c 1.336,0.463 2.467,1.326 2.467,2.898 0.001,2.275 -2.106,4.837 -6.179,4.837 z"
             inkscape:connector-curvature="0"
             style="fill:#121212" /><path
             id="path4893"
             d="m 109.466,110.295 c 0,1.205 1.125,1.64 3.487,2.474 l 1.04,0.336 c 2.924,1.028 4.099,2.461 4.099,4.282 0,0.307 -0.033,0.625 -0.097,0.954 -0.663,3.41 -4.039,5.212 -7.738,5.212 -1.729,0 -3.84,-0.385 -5.532,-1.441 l 0.434,-2.233 c 1.735,1.081 3.695,1.873 5.76,1.873 2.717,0 4.617,-1.35 4.617,-3.374 0,-1.355 -1.141,-2.196 -3.341,-2.942 l -1.011,-0.36 c -3.179,-1.133 -4.292,-2.137 -4.292,-3.723 0,-0.271 0.032,-0.558 0.091,-0.864 0.682,-3.507 4.063,-5.212 7.45,-5.212 1.562,0 3.216,0.384 4.699,1.032 l -0.397,2.042 c -1.507,-0.648 -3.067,-1.273 -4.844,-1.273 -2.601,-0.001 -4.425,1.287 -4.425,3.217 z"
             inkscape:connector-curvature="0"
             style="fill:#121212" /><path
             id="path4895"
             d="m 122.759,120.272 c 0,0.823 0.305,1.432 1.426,1.432 1.55,0 3.018,-1.145 4.133,-2.605 l 1.692,-8.707 2.281,0 -2.474,12.729 -2.282,0 0.392,-2.018 c -1.424,1.376 -3.116,2.306 -4.891,2.306 -2.08,0 -2.597,-1.229 -2.597,-2.642 0,-0.851 0.187,-1.767 0.334,-2.522 l 1.526,-7.854 2.282,0 -1.61,8.286 c -0.106,0.552 -0.212,1.111 -0.212,1.595 z"
             inkscape:connector-curvature="0"
             style="fill:#121212" /><path
             id="path4897"
             d="m 133.395,123.121 2.474,-12.729 2.282,0 -2.474,12.729 -2.282,0 z m 2.942,-15.131 0.443,-2.281 2.282,0 -0.444,2.281 -2.281,0 z"
             inkscape:connector-curvature="0"
             style="fill:#121212" /><path
             id="path4899"
             d="m 142.641,120.494 c 0,0.729 0.272,1.21 1.212,1.21 0.456,0 1.147,-0.096 1.67,-0.192 l -0.332,1.705 c -0.768,0.12 -1.526,0.192 -2.175,0.192 -2.12,0 -2.729,-0.805 -2.729,-2.222 0,-0.73 0.162,-1.624 0.362,-2.653 l 1.251,-6.438 -1.705,0 0.332,-1.705 1.705,0 0.561,-2.882 2.281,0 -0.56,2.882 3.17,0 -0.332,1.705 -3.17,0 -1.335,6.869 c -0.108,0.566 -0.206,1.092 -0.206,1.529 z"
             inkscape:connector-curvature="0"
             style="fill:#121212" /><path
             id="path4901"
             d="m 159.222,113.031 c 0,1.605 -1.353,3.228 -3.775,4.014 -1.54,0.499 -3.306,0.576 -5.036,0.576 l -0.523,0 c -0.037,0.314 -0.054,0.605 -0.054,0.874 0,2.727 1.8,3.209 3.411,3.209 1.249,0 2.722,-0.288 4.195,-0.696 l -0.355,1.825 c -1.477,0.433 -2.946,0.576 -4.075,0.576 -4.219,0 -5.47,-2.178 -5.47,-4.716 0,-0.617 0.074,-1.256 0.197,-1.889 1.042,-5.36 4.922,-6.701 7.475,-6.701 2.303,0 4.01,1.149 4.01,2.928 z m -2.304,0.252 c 0,-0.896 -0.834,-1.475 -2.015,-1.475 -1.274,0 -3.667,0.565 -4.668,4.083 l 0.513,0 c 1.417,0 2.834,0 4.014,-0.384 1.408,-0.478 2.156,-1.335 2.156,-2.224 z"
             inkscape:connector-curvature="0"
             style="fill:#121212" /><path
             id="path4903"
             d="m 169.913,110.295 c 0,1.205 1.125,1.64 3.488,2.474 l 1.039,0.336 c 2.924,1.028 4.099,2.461 4.099,4.282 0,0.307 -0.033,0.625 -0.097,0.954 -0.663,3.41 -4.039,5.212 -7.738,5.212 -1.729,0 -3.84,-0.385 -5.532,-1.441 l 0.434,-2.233 c 1.735,1.081 3.695,1.873 5.76,1.873 2.717,0 4.617,-1.35 4.617,-3.374 0,-1.355 -1.141,-2.196 -3.341,-2.942 l -1.011,-0.36 c -3.179,-1.133 -4.292,-2.137 -4.292,-3.723 0,-0.271 0.032,-0.558 0.091,-0.864 0.682,-3.507 4.063,-5.212 7.45,-5.212 1.562,0 3.216,0.384 4.699,1.032 l -0.397,2.042 c -1.507,-0.648 -3.067,-1.273 -4.844,-1.273 -2.6,-0.001 -4.425,1.287 -4.425,3.217 z"
             inkscape:connector-curvature="0"
             style="fill:#121212" /><path
             id="path4905"
             d="m 187.704,110.103 c 2.946,0 4.701,1.86 4.701,4.876 0,4.396 -2.97,8.43 -7.287,8.43 -2.946,0 -4.701,-1.859 -4.701,-4.876 0,-4.396 2.97,-8.43 7.287,-8.43 z m -2.255,11.601 c 0.817,0 1.694,-0.313 2.363,-0.913 1.942,-1.69 2.136,-5.614 2.136,-6.079 0,-2.322 -1.473,-2.903 -2.576,-2.903 -0.816,0 -1.693,0.313 -2.363,0.913 -1.942,1.69 -2.136,5.614 -2.136,6.08 0,2.322 1.473,2.902 2.576,2.902 z"
             inkscape:connector-curvature="0"
             style="fill:#121212" /><path
             id="path4907"
             d="m 201.889,104.339 c 0.84,0 1.437,0.144 1.995,0.36 l -0.332,1.705 c -0.496,-0.168 -1.011,-0.36 -1.659,-0.36 -1.854,0 -2.384,1.409 -2.958,4.347 l 2.282,0 -0.332,1.705 -2.282,0 -1.671,8.599 c -0.714,3.677 -1.416,7.35 -5.631,7.35 -0.841,0 -1.36,-0.168 -1.852,-0.36 l 0.332,-1.705 c 0.587,0.191 1.155,0.36 1.803,0.36 1.789,0 2.196,-1.165 2.772,-4.132 l 1.965,-10.111 -1.705,0 0.332,-1.705 1.71,0 c 0.835,-4.005 1.988,-6.053 5.231,-6.053 z"
             inkscape:connector-curvature="0"
             style="fill:#121212" /><path
             id="path4909"
             d="m 205.227,120.494 c 0,0.729 0.272,1.21 1.212,1.21 0.456,0 1.147,-0.096 1.67,-0.192 l -0.332,1.705 c -0.768,0.12 -1.526,0.192 -2.175,0.192 -2.12,0 -2.729,-0.805 -2.729,-2.222 0,-0.73 0.162,-1.624 0.362,-2.653 l 1.251,-6.438 -1.705,0 0.332,-1.705 1.705,0 0.561,-2.882 2.281,0 -0.56,2.882 3.17,0 -0.332,1.705 -3.17,0 -1.335,6.869 c -0.109,0.566 -0.206,1.092 -0.206,1.529 z"
             inkscape:connector-curvature="0"
             style="fill:#121212" /><path
             id="path4911"
             d="m 220.502,123.121 -2.618,0 -1.144,-4.362 -2.459,4.362 -2.521,0 -0.96,-12.729 2.042,0 0.795,10.54 3.405,-6.072 c 0.364,-0.649 0.508,-1.313 0.508,-1.965 0,-0.774 -0.203,-1.534 -0.484,-2.238 l 1.928,-0.528 c 0.311,0.767 0.526,1.607 0.526,2.465 0,0.756 -0.167,1.524 -0.581,2.267 l -0.794,1.41 1.35,5.189 3.527,-6.6 c 0.33,-0.619 0.461,-1.252 0.461,-1.876 0,-0.806 -0.218,-1.597 -0.509,-2.327 l 1.928,-0.528 c 0.332,0.785 0.557,1.642 0.557,2.52 0,0.732 -0.157,1.479 -0.54,2.212 l -4.417,8.26 z"
             inkscape:connector-curvature="0"
             style="fill:#121212" /><path
             id="path4913"
             d="m 236.739,112.886 c 0,0.698 -0.147,1.468 -0.297,2.236 l -1.555,7.998 -2.282,0 0.325,-1.672 c -1.386,1.145 -2.96,1.96 -4.56,1.96 -1.846,0 -2.906,-1.092 -2.906,-2.704 0,-0.944 0.333,-2.696 2.427,-3.853 1.808,-0.998 3.951,-1.132 6.156,-1.15 l 0.188,-0.963 c 0.09,-0.463 0.17,-0.911 0.17,-1.312 0,-0.939 -0.442,-1.619 -2.243,-1.619 -1.393,0 -2.904,0.36 -4.385,0.938 l 0.341,-1.754 c 1.563,-0.624 3.151,-0.889 4.688,-0.889 3.181,10e-4 3.933,1.209 3.933,2.784 z m -2.958,4.182 c 0,0 -5.352,-0.266 -5.931,2.714 -0.03,0.152 -0.044,0.298 -0.044,0.436 0,0.907 0.627,1.486 1.712,1.486 1.304,0 2.563,-0.813 3.723,-1.855 l 0.54,-2.781 z"
             inkscape:connector-curvature="0"
             style="fill:#121212" /><path
             id="path4915"
             d="m 246.795,112.145 c -1.953,0 -3.802,1.316 -4.734,3.1 l -1.531,7.876 -2.282,0 2.474,-12.729 2.282,0 -0.471,2.425 c 1.199,-1.604 2.894,-2.713 4.874,-2.713 0.217,0 0.673,0 1.11,0.097 l -0.41,2.113 c -0.438,-0.098 -0.881,-0.169 -1.312,-0.169 z"
             inkscape:connector-curvature="0"
             style="fill:#121212" /><path
             id="path4917"
             d="m 260.016,113.031 c 0,1.605 -1.353,3.228 -3.775,4.014 -1.539,0.499 -3.307,0.576 -5.035,0.576 l -0.523,0 c -0.037,0.314 -0.055,0.605 -0.055,0.874 0,2.727 1.8,3.209 3.411,3.209 1.249,0 2.722,-0.288 4.194,-0.696 l -0.355,1.825 c -1.477,0.433 -2.945,0.576 -4.074,0.576 -4.22,0 -5.471,-2.178 -5.471,-4.716 0,-0.617 0.074,-1.256 0.197,-1.889 1.042,-5.36 4.923,-6.701 7.475,-6.701 2.304,0 4.011,1.149 4.011,2.928 z m -2.304,0.252 c 0,-0.896 -0.833,-1.475 -2.014,-1.475 -1.274,0 -3.667,0.565 -4.669,4.083 l 0.513,0 c 1.417,0 2.834,0 4.014,-0.384 1.408,-0.478 2.156,-1.335 2.156,-2.224 z"
             inkscape:connector-curvature="0"
             style="fill:#121212" /></g></g></g></g></svg>