<?xml version="1.0" encoding="UTF-8" standalone="no"?>
<!-- Generator: Adobe Illustrator 18.1.1, SVG Export Plug-In . SVG Version: 6.00 Build 0)  -->

<svg
   xmlns:dc="http://purl.org/dc/elements/1.1/"
   xmlns:cc="http://creativecommons.org/ns#"
   xmlns:rdf="http://www.w3.org/1999/02/22-rdf-syntax-ns#"
   xmlns:svg="http://www.w3.org/2000/svg"
   xmlns="http://www.w3.org/2000/svg"
   xmlns:sodipodi="http://sodipodi.sourceforge.net/DTD/sodipodi-0.dtd"
   xmlns:inkscape="http://www.inkscape.org/namespaces/inkscape"
   version="1.1"
   x="0px"
   y="0px"
   viewBox="0 0 595.28 260.79"
   style="enable-background:new 0 0 595.28 260.79;"
   xml:space="preserve"
   id="svg5545"
   inkscape:version="0.92.2 5c3e80d, 2017-08-06"
   sodipodi:docname="softeamcadextan.svg"
   inkscape:export-filename="/Users/csabourdin/Documents/projets/personnel/ParisJug/xwikiwebsite/Logo_2016/png/couchbase.png"
   inkscape:export-xdpi="34.471172"
   inkscape:export-ydpi="34.471172"><metadata
     id="metadata6635"><rdf:RDF><cc:Work
         rdf:about=""><dc:format>image/svg+xml</dc:format><dc:type
           rdf:resource="http://purl.org/dc/dcmitype/StillImage" /><dc:title></dc:title></cc:Work></rdf:RDF></metadata><defs
     id="defs6633"><inkscape:perspective
       sodipodi:type="inkscape:persp3d"
       inkscape:vp_x="0 : 130.395 : 1"
       inkscape:vp_y="0 : 1000 : 0"
       inkscape:vp_z="595.28 : 130.395 : 1"
       inkscape:persp3d-origin="297.64 : 86.93 : 1"
       id="perspective6639" /></defs><sodipodi:namedview
     pagecolor="#ffffff"
     bordercolor="#666666"
     borderopacity="1"
     objecttolerance="10"
     gridtolerance="10"
     guidetolerance="10"
     inkscape:pageopacity="0"
     inkscape:pageshadow="2"
     inkscape:window-width="1680"
     inkscape:window-height="1006"
     id="namedview6631"
     showgrid="false"
     inkscape:zoom="0.61709106"
     inkscape:cx="312.86808"
     inkscape:cy="546.79879"
     inkscape:window-x="0"
     inkscape:window-y="1"
     inkscape:window-maximized="0"
     inkscape:current-layer="layer1" /><g
     inkscape:groupmode="layer"
     id="layer1"
     inkscape:label="couchebase 1"
     style="display:inline"><g
       id="g10"
       transform="matrix(1.5643766,0,0,-1.5643766,2.1347502,156.15129)"><g
         id="g12"
         transform="scale(0.1)"><path
           d="m 159.586,261.23 c -9.66,26.211 -27.598,39.551 -55.645,39.551 -28.0582,0 -47.8316,-19.316 -47.8316,-41.398 0,-68.067 139.8046,-51.043 139.8046,-155.449 C 195.914,42.3125 147.164,0 74.043,0 40.9336,0 13.3359,9.65625 0,19.7734 5.97656,40.9375 10.1172,57.4883 13.3359,78.1836 h 8.7383 c 5.0586,-26.668 26.2149,-49.668 63.4688,-49.668 35.867,0 53.809,21.1524 53.809,46.9141 0,69.4413 -137.05122,51.0433 -137.05122,155.4373 0,63.469 48.75002,98.418 103.47622,98.418 33.114,0 57.95,-8.73 75.418,-22.527 -5.515,-14.258 -8.73,-25.293 -14.715,-45.528 h -6.894"
           style="fill:#435466;fill-opacity:1;fill-rule:nonzero;stroke:none"
           id="path14"
           inkscape:connector-curvature="0" /><path
           d="m 404.215,303.074 c -63.008,0 -99.797,-63.465 -99.797,-142.566 0,-97.9572 45.07,-131.9924 96.574,-131.9924 55.196,0 103.477,45.9883 103.477,146.2504 0,79.558 -40.93,128.308 -100.254,128.308 z m 1.375,26.211 c 97.5,0 174.308,-53.34 174.308,-164.18 C 579.898,74.043 506.773,0 404.215,0 307.172,0 228.988,49.668 228.988,164.648 c 0,90.594 69.914,164.637 176.602,164.637"
           style="fill:#435466;fill-opacity:1;fill-rule:nonzero;stroke:none"
           id="path16"
           inkscape:connector-curvature="0" /><path
           d="m 632.719,195.918 c 0,51.512 -0.926,86.922 -3.68,127.391 27.129,-0.457 54.727,-2.293 81.856,-2.293 45.078,0 83.699,0.918 96.121,2.293 -0.918,-5.516 -1.836,-11.036 -1.836,-19.317 0,-9.656 0.918,-13.797 1.836,-20.691 -34.95,2.304 -90.137,5.515 -103.934,5.515 -2.305,-33.574 -2.305,-66.675 -2.305,-100.253 40.02,0.917 69.453,1.835 104.403,3.671 -1.844,-10.574 -2.305,-14.707 -2.305,-20.691 0,-5.059 0.918,-9.199 2.305,-18.859 -34.95,2.765 -69.453,4.14 -104.403,4.14 v -23.457 c 0,-51.5037 0.926,-86.9139 3.68,-127.38262 -10.117,0.91796 -22.527,2.29687 -37.715,2.29687 -15.176,0 -27.586,-1.37891 -37.703,-2.29687 2.754,40.46872 3.68,75.87892 3.68,127.38262 v 62.551"
           style="fill:#435466;fill-opacity:1;fill-rule:nonzero;stroke:none"
           id="path18"
           inkscape:connector-curvature="0" /><path
           d="m 921.031,248.348 c 0,17.48 0,34.035 -1.379,40.468 -17.937,0 -56.562,-2.753 -84.16,-5.976 1.379,6.894 2.297,13.34 2.297,20.234 0,6.895 -0.918,13.34 -2.297,20.235 41.856,-1.375 62.551,-2.293 119.571,-2.293 57.027,0 77.727,0.918 116.817,2.293 -1.38,-6.895 -2.3,-13.34 -2.3,-20.235 0,-6.894 0.92,-13.34 2.3,-20.234 -24.83,3.223 -63.47,5.976 -81.864,5.976 -0.918,-6.433 -0.918,-22.988 -0.918,-40.468 V 133.367 c 0,-51.5037 0.918,-86.9139 3.679,-127.38262 -10.117,0.91796 -22.539,2.29687 -37.714,2.29687 -15.176,0 -27.586,-1.37891 -37.704,-2.29687 2.754,40.46872 3.672,75.87892 3.672,127.38262 v 114.981"
           style="fill:#435466;fill-opacity:1;fill-rule:nonzero;stroke:none"
           id="path20"
           inkscape:connector-curvature="0" /><path
           d="m 1118.29,195.918 c 0,51.512 -0.92,86.922 -3.68,127.391 27.13,-0.457 54.73,-2.293 81.86,-2.293 45.08,0 83.71,0.918 96.12,2.293 -0.92,-5.516 -1.83,-11.036 -1.83,-19.317 0,-9.656 0.91,-13.797 1.83,-20.691 -34.95,2.304 -90.13,5.515 -103.93,5.515 -2.31,-33.574 -2.31,-66.675 -2.31,-100.253 40.02,0.917 69.46,1.835 104.41,3.671 -1.85,-10.574 -2.31,-14.707 -2.31,-20.691 0,-5.059 0.92,-9.199 2.31,-18.859 -34.95,2.765 -69.45,4.14 -104.41,4.14 0,-19.312 -0.46,-39.09 -0.46,-58.8631 0,-19.3203 0.46,-39.0937 1.39,-57.4843 34.49,0 69.9,1.8359 105.31,5.9765 -0.92,-6.4414 -1.83,-11.0312 -1.83,-20.6914 0,-9.6601 0.91,-14.2578 1.83,-19.77732 -16.55,0.46093 -38.17,2.29687 -80.48,2.29687 -74.97,0 -87.38,-1.37891 -97.5,-2.29687 2.76,40.46872 3.68,75.87892 3.68,127.38262 v 62.551"
           style="fill:#435466;fill-opacity:1;fill-rule:nonzero;stroke:none"
           id="path22"
           inkscape:connector-curvature="0" /><path
           d="m 1489.85,127.391 c -13.33,37.257 -26.21,73.586 -40.93,109.464 -15.63,-35.878 -29.89,-72.207 -43.23,-109.464 z M 1611.72,5.98438 c -14.71,0.91796 -27.58,2.29687 -40.47,2.29687 -12.88,0 -26.21,-1.37891 -39.09,-2.29687 -9.66,31.27342 -20.23,63.00002 -31.73,94.28162 -19.78,0.457 -39.09,0.918 -58.86,0.918 -16.11,0 -31.74,-0.461 -47.83,-0.918 -12.43,-31.2816 -22.54,-62.5512 -31.28,-94.28162 -7.36,0.91796 -14.25,2.29687 -21.62,2.29687 -7.36,0 -14.25,-1.37891 -22.99,-2.29687 22.54,51.04692 91.52,214.76962 131.07,319.62862 5.98,-0.918 11.5,-2.304 17.48,-2.304 5.98,0 11.5,1.386 17.47,2.304 39.09,-104.859 92.9,-244.6677 127.85,-319.62862"
           style="fill:#435466;fill-opacity:1;fill-rule:nonzero;stroke:none"
           id="path24"
           inkscape:connector-curvature="0" /><path
           d="m 1695.83,214.773 c -9.65,-69.441 -13.79,-139.3433 -18.39,-208.78862 -7.36,1.3789 -14.72,2.29687 -21.61,2.29687 -7.37,0 -14.26,-0.91797 -21.63,-2.29687 19.32,105.77362 34.5,211.55462 47.38,317.32462 6.43,-1.375 12.41,-2.293 18.85,-2.293 5.98,0 12.42,0.918 18.4,2.293 33.57,-73.125 72.66,-154.981 106.23,-219.832 36.34,68.527 74.05,146.707 107.16,219.832 6.44,-1.375 13.34,-2.293 19.78,-2.293 6.43,0 12.88,0.918 19.31,2.293 11.96,-105.77 28.06,-252.4809 39.55,-317.32462 -12.41,1.3789 -24.83,2.29687 -37.25,2.29687 -12.41,0 -25.29,-0.91797 -38.17,-2.29687 -3.22,63.92582 -11.04,142.11362 -18.39,213.39062 h -0.92 C 1881.64,148.098 1847.6,77.2656 1814.49,5.98438 c -2.77,0.46093 -5.98,0.91796 -8.74,0.91796 -2.76,0 -5.98,-0.45703 -8.74,-0.91796 C 1764.36,75.4297 1731.25,145.332 1696.75,214.773 h -0.92"
           style="fill:#435466;fill-opacity:1;fill-rule:nonzero;stroke:none"
           id="path26"
           inkscape:connector-curvature="0" /><path
           d="m 2463.32,267.207 c -18.86,22.527 -54.73,45.066 -101.19,45.066 -76.33,0 -134.74,-45.527 -134.74,-147.625 0,-90.1441 50.58,-145.3316 137.05,-145.3316 26.21,0 57.95,5.0586 73.58,14.7149 0.46,18.4023 0.92,36.7968 0.92,55.6562 0,21.6135 -1.38,43.6795 -2.3,62.9965 5.98,-1.375 14.71,-2.293 22.08,-2.293 6.89,0 13.79,0.457 19.77,2.293 -0.92,-13.789 -1.83,-43.68 -1.83,-93.3598 0,-11.9531 0.45,-24.832 0.45,-37.2461 C 2450.89,12.8828 2395.71,0 2359.84,0 c -109.46,0 -177.52,57.0313 -177.52,164.648 0,104.395 70.82,164.637 179.81,164.637 62.09,0 95.67,-15.176 117.28,-26.668 -4.6,-8.281 -9.2,-23.918 -10.58,-35.41 h -5.51"
           style="fill:#435466;fill-opacity:1;fill-rule:nonzero;stroke:none"
           id="path28"
           inkscape:connector-curvature="0" /><path
           d="m 2595.25,177.988 c 8.28,-1.847 18.86,-2.304 30.81,-2.304 37.71,0 87.84,15.632 87.84,70.359 0,48.293 -40.01,60.254 -71.28,60.254 -21.16,0 -34.96,-1.387 -44.62,-2.305 -1.37,-33.574 -2.75,-66.679 -2.75,-99.793 z m -37.72,26.211 c 0,39.551 -1.83,79.559 -3.68,119.11 17.48,-1.375 34.96,-2.293 52.43,-2.293 17.48,0 34.96,2.293 52.44,2.293 51.96,0 95.65,-17.93 95.65,-72.664 0,-59.329 -59.33,-83.243 -94.28,-87.84 22.54,-28.047 99.34,-126.9261 126.02,-156.82062 -9.2,1.3789 -18.4,2.29687 -27.6,2.29687 -8.74,0 -17.94,-0.91797 -26.67,-2.29687 C 2713.44,34.0313 2652.27,118.66 2612.72,158.672 h -17.47 v -33.574 c 0,-39.5511 1.83,-79.5628 3.68,-119.11362 -7.82,1.3789 -15.18,2.29687 -22.54,2.29687 -7.35,0 -14.72,-0.91797 -22.54,-2.29687 1.85,39.55082 3.68,79.56252 3.68,119.11362 v 79.101"
           style="fill:#435466;fill-opacity:1;fill-rule:nonzero;stroke:none"
           id="path30"
           inkscape:connector-curvature="0" /><path
           d="m 2984.73,312.273 c -71.75,0 -126.93,-45.527 -126.93,-147.625 0,-102.0972 55.18,-147.6285 126.93,-147.6285 72.21,0 127.39,45.5313 127.39,147.6285 0,102.098 -55.18,147.625 -127.39,147.625 z m 0,17.012 c 101.64,0 172.46,-60.242 172.46,-164.637 C 3157.19,60.2539 3086.37,0 2984.73,0 c -101.18,0 -172,60.2539 -172,164.648 0,104.395 70.82,164.637 172,164.637"
           style="fill:#435466;fill-opacity:1;fill-rule:nonzero;stroke:none"
           id="path32"
           inkscape:connector-curvature="0" /><path
           d="m 3458.35,323.309 c 5.99,-1.375 12.43,-2.293 18.86,-2.293 4.6,0 9.66,0.918 13.8,2.293 -3.68,-42.774 -7.35,-123.711 -8.28,-190.86 C 3481.81,51.0547 3434.45,0 3351.67,0 c -91.07,0 -131.54,42.3125 -131.54,131.531 0,28.52 2.3,49.668 2.3,72.668 0,50.586 -1.84,92.442 -2.76,119.11 7.36,-1.375 16.56,-2.293 23.92,-2.293 6.43,0 13.8,0.918 19.77,2.293 -2.76,-27.129 -5.51,-89.676 -5.51,-157.743 0,-62.55 0,-143.9449 102.55,-143.9449 100.72,0 100.72,94.2769 100.72,152.2269 0,87.382 0,131.531 -2.77,149.461"
           style="fill:#435466;fill-opacity:1;fill-rule:nonzero;stroke:none"
           id="path34"
           inkscape:connector-curvature="0" /><path
           d="m 3616.97,169.707 c 9.66,-2.305 22.53,-3.684 32.65,-3.684 37.71,0 86,14.258 86,76.809 0,52.43 -29.89,63.465 -77.27,63.465 h -41.38 z m -37.72,34.492 c 0,39.551 -1.83,79.559 -3.68,119.11 14.72,-1.375 29.9,-2.293 44.62,-2.293 14.72,0 44.15,2.293 57.02,2.293 27.6,0 100.72,-0.918 100.72,-77.723 0,-80.938 -79.57,-96.57 -123.72,-96.57 -13.79,0 -25.29,0.457 -37.24,1.375 v -25.293 c 0,-39.5511 1.83,-79.5628 3.68,-119.11362 -7.82,1.3789 -15.18,2.29687 -22.54,2.29687 -7.35,0 -14.72,-0.91797 -22.54,-2.29687 1.85,39.55082 3.68,79.56252 3.68,119.11362 v 79.101"
           style="fill:#435466;fill-opacity:1;fill-rule:nonzero;stroke:none"
           id="path36"
           inkscape:connector-curvature="0" /></g></g></g></svg>