<?xml version="1.0" encoding="utf-8"?>
<!-- Generator: Adobe Illustrator 21.1.0, SVG Export Plug-In . SVG Version: 6.00 Build 0)  -->
<svg version="1.1" id="Calque_1" xmlns="http://www.w3.org/2000/svg" xmlns:xlink="http://www.w3.org/1999/xlink" x="0px" y="0px"
	 viewBox="0 0 61 103" style="enable-background:new 0 0 61 103;" xml:space="preserve">
<style type="text/css">
	.st0{fill:#FFFFFF;}
</style>
<title>tour</title>
<desc>Created with Sketch.</desc>
<g id="Page-3">
	<g id="Desktop-FAQ_x2F_MonBilletOpen" transform="translate(-690.000000, -24.000000)">
		<g id="_x2F__x2F_HEADER">
			<g id="nav_x2F_tour_x2F_colorBLACK" transform="translate(690.000000, 24.000000)">
				<g id="Page-1">
					<g id="Group-5" transform="translate(0.000000, 0.242353)">
						<path id="Fill-3" class="st0" d="M30.8,88c-7.2,0-12.7,5-13.3,11.9h-7.2c3.4-4.5,6.2-9.1,8.7-14.3c0.1-0.2,0.1-0.3,0.1-0.5
							l0-3.8l1.1,0c0.5,0,0.9-0.3,1-0.7c0.9-2.2,1.8-4.6,2.7-7.2c0.8-2.3,1.5-4.8,2.1-7.5c0.1-0.3,0-0.7-0.2-1c0,0,0.3-0.7,0.8-1.9
							c0-0.1,0.1-0.2,0.1-0.3c2.3-11.5,3.5-26.4,3.5-45.5c0-0.2-0.1-0.5-0.2-0.7l-0.7-1v-1.6c0.4-0.2,0.6-0.6,0.6-1v-1.3
							c0.2-0.2,0.6-0.3,0.8-0.4c0.1,0,0.1,0,0.1,0c0,0,0.1,0,0.1,0c0.2,0.1,0.5,0.2,0.8,0.4v1.3c0,0.4,0.2,0.8,0.6,1l0,1.7l-0.7,1
							c-0.1,0.2-0.2,0.4-0.2,0.7c0,19.1,1.1,34,3.5,45.5c0,0.1,0,0.2,0.1,0.3l0.9,1.8c-0.3,0.4-0.4,0.7-0.3,1.1
							c0.6,2.7,1.3,5.2,2.1,7.5c0.9,2.6,1.8,5,2.7,7.2c0.2,0.4,0.6,0.7,1,0.7l1.1,0l0,3.8c0,0.2,0,0.3,0.1,0.5
							c2.5,5.2,5.3,9.8,8.7,14.3h-7.2C43.5,93,38,88,30.8,88z M19.8,99.9c0.5-5.5,5.1-9.6,11-9.6s10.5,4.1,11,9.6H19.8z M54.1,99.9
							c-3.8-4.7-6.8-9.5-9.4-15.1l0-4.7c0-0.3-0.1-0.6-0.3-0.8c-0.2-0.2-0.5-0.3-0.8-0.3l-1.4,0c-0.8-2-1.6-4.1-2.3-6.4
							c-0.6-1.9-1.2-3.9-1.8-6c0.3-0.2,0.6-0.6,0.6-1c0-0.2-0.1-0.4-0.2-0.6l-1.4-2.9c-2.3-11.3-3.4-25.9-3.4-44.6l0.7-1
							c0.1-0.2,0.2-0.4,0.2-0.7v-2.7c0-0.4-0.2-0.8-0.6-1l0-1.1c0-0.9-0.9-1.5-1.7-1.8C32.2,7.4,32,2.7,32,1.9
							c0-0.7-0.5-1.3-1.2-1.3c-0.7,0-1.2,0.6-1.2,1.3c0,0.8-0.1,5.5-0.2,7.4c-0.8,0.4-1.7,1-1.7,1.8v1c-0.4,0.2-0.6,0.6-0.6,1v2.7
							c0,0.2,0.1,0.5,0.2,0.7l0.7,1c0,18.7-1.1,33.3-3.4,44.6l-1.5,3c-0.2,0.4-0.2,0.8,0.1,1.1c0.1,0.2,0.2,0.3,0.4,0.4
							c-0.5,2.1-1.1,4.2-1.8,6C21,74.9,20.2,77,19.4,79L18,79c-0.3,0-0.6,0.1-0.8,0.3c-0.2,0.2-0.3,0.5-0.3,0.8l0,4.7
							c-2.6,5.5-5.6,10.3-9.4,15.1H1.1c-0.6,0-1.1,0.5-1.1,1.1c0,0.6,0.5,1.1,1.1,1.1h58.2c0.6,0,1.1-0.5,1.1-1.1s-0.5-1.1-1.1-1.1
							H54.1z M28,79c0.5-2.1,1.2-4.7,1.7-7.6h2c0.6,2.9,1.2,5.5,1.8,7.6H28z M33.8,70c-0.1-0.5-0.6-0.9-1.1-0.9h-3.9
							c-0.5,0-1,0.4-1.1,0.9c-0.7,3.9-1.6,7.4-2.3,9.7c-0.1,0.3,0,0.7,0.2,1c0.2,0.3,0.5,0.5,0.9,0.5H35c0,0,0,0,0,0
							c0.6,0,1.1-0.5,1.1-1.1c0-0.2,0-0.3-0.1-0.4C35.4,77.4,34.5,73.9,33.8,70L33.8,70z"/>
					</g>
				</g>
			</g>
		</g>
	</g>
</g>
</svg>
