<?xml version="1.0" encoding="iso-8859-1"?>
<!-- Generator: Adobe Illustrator 18.1.1, SVG Export Plug-In . SVG Version: 6.00 Build 0)  -->
<svg version="1.1" xmlns="http://www.w3.org/2000/svg" xmlns:xlink="http://www.w3.org/1999/xlink" x="0px" y="0px"
	 viewBox="0 0 595.28 260.79" style="enable-background:new 0 0 595.28 260.79;" xml:space="preserve">
<g id="PaloIT">
	<g>
		<g>
			<defs>
				<rect id="SVGID_29_" x="5" y="59.634" width="586.667" height="131.166"/>
			</defs>
			<clipPath id="SVGID_30_">
				<use xlink:href="#SVGID_29_"  style="overflow:visible;"/>
			</clipPath>
			<g style="clip-path:url(#SVGID_30_);">
				<defs>
					<rect id="SVGID_31_" x="-4.748" y="45.086" width="608.148" height="161.893"/>
				</defs>
				<clipPath id="SVGID_32_">
					<use xlink:href="#SVGID_31_"  style="overflow:visible;"/>
				</clipPath>
				<path style="clip-path:url(#SVGID_32_);fill-rule:evenodd;clip-rule:evenodd;fill:#AAC93C;" d="M511.244,91.078h22.129v49.747
					h20.806V91.078h24.021l13.467-17.485h-76.38l-4.042,5.242l-9.428,12.243H511.244z M508.033,140.825h-20.804V73.593h20.804v5.242
					l-9.426,13.85h9.426V140.825z"/>
				<g style="clip-path:url(#SVGID_32_);">
					<defs>
						<rect id="SVGID_33_" x="-4.748" y="45.086" width="608.149" height="161.893"/>
					</defs>
					<clipPath id="SVGID_34_">
						<use xlink:href="#SVGID_33_"  style="overflow:visible;"/>
					</clipPath>
					<path style="clip-path:url(#SVGID_34_);fill:#5B595E;" d="M256.398,98.818c0,3.751-0.737,7.152-2.21,10.201
						c-1.474,3.045-3.635,5.642-6.481,7.783c-2.849,2.148-6.315,3.822-10.403,5.027c-4.085,1.207-8.742,1.811-13.968,1.811h-35.177
						v17.185h-20.703v-34.371h57.888c3.217,0,5.714-0.702,7.489-2.109c1.774-1.406,2.663-3.283,2.663-5.627
						c0-2.345-0.889-4.205-2.663-5.578c-1.775-1.375-4.272-2.061-7.489-2.061h-57.888l13.77-17.485h42.212
						c5.224,0,9.882,0.619,13.968,1.859c4.088,1.237,7.538,2.963,10.352,5.175c2.814,2.211,4.957,4.859,6.431,7.94
						C255.66,91.649,256.398,95.066,256.398,98.818 M424.673,129.223c3.796,0,7.009-0.157,9.639-0.475
						c2.629-0.315,4.76-0.937,6.388-1.861c1.631-0.927,2.813-2.203,3.544-3.832c0.728-1.634,1.094-3.761,1.094-6.391
						c0-2.628-0.366-4.759-1.094-6.39c-0.731-1.628-1.913-2.895-3.544-3.795c-1.629-0.9-3.76-1.51-6.388-1.825
						c-2.63-0.317-5.843-0.474-9.639-0.474c-3.797,0-7.01,0.158-9.64,0.474c-2.627,0.315-4.758,0.925-6.388,1.825
						c-1.632,0.9-2.813,2.167-3.545,3.795c-0.729,1.631-1.093,3.762-1.093,6.39c0,2.63,0.364,4.757,1.093,6.391
						c0.732,1.629,1.913,2.905,3.545,3.832c1.63,0.923,3.76,1.545,6.388,1.861C417.663,129.066,420.875,129.223,424.673,129.223
						 M424.673,91.472c11.879,0,20.798,2.022,26.764,6.062c5.965,4.041,8.945,10.417,8.945,19.13c0,8.762-2.969,15.163-8.91,19.205
						c-5.94,4.043-14.873,6.061-26.799,6.061c-11.978,0-20.924-2.018-26.836-6.061c-5.914-4.042-8.873-10.443-8.873-19.205
						c0-8.714,2.97-15.09,8.91-19.13C403.811,93.494,412.745,91.472,424.673,91.472 M385.459,128.566l-9.786,12.559h-43.159V92.274
						h15.116v36.292H385.459z M270.307,141.125h56.806l-30.523-44.174c-1.074-1.56-2.376-2.861-3.91-3.909
						c-1.533-1.045-3.442-1.569-5.728-1.569c-2.387,0-4.357,0.561-5.914,1.681c-1.561,1.119-2.848,2.387-3.869,3.798l-31.321,44.174
						h17.887l22.924-32.418l8.758,12.923c0.828,1.169,1.694,2.422,2.596,3.759c0.901,1.338,1.691,2.448,2.373,3.325
						c-1.172-0.098-2.542-0.146-4.126-0.146h-4.563h-12.266L270.307,141.125z"/>
				</g>
				<g style="clip-path:url(#SVGID_32_);">
					<defs>
						<path id="SVGID_35_" d="M55.567,76.998c-27.592,9.82-42.009,40.159-32.189,67.754c9.818,27.594,40.155,42.01,67.749,32.191
							c27.593-9.818,42.008-40.159,32.191-67.753c-7.729-21.719-28.169-35.273-49.978-35.273
							C67.44,73.917,61.442,74.908,55.567,76.998"/>
					</defs>
					<clipPath id="SVGID_36_">
						<use xlink:href="#SVGID_35_"  style="overflow:visible;"/>
					</clipPath>
					
						<radialGradient id="SVGID_37_" cx="-1.2264" cy="-2.1494" r="0.2483" gradientTransform="matrix(204.492 0 0 -204.492 327.3254 -309.3853)" gradientUnits="userSpaceOnUse">
						<stop  offset="0" style="stop-color:#FFFFFF"/>
						<stop  offset="0.0193" style="stop-color:#FBFBFB"/>
						<stop  offset="0.2958" style="stop-color:#C0C0C0"/>
						<stop  offset="0.5417" style="stop-color:#8D8D8C"/>
						<stop  offset="0.7483" style="stop-color:#636362"/>
						<stop  offset="0.9074" style="stop-color:#474746"/>
						<stop  offset="1" style="stop-color:#3C3C3B"/>
					</radialGradient>
					<rect x="13.559" y="73.917" style="clip-path:url(#SVGID_36_);fill:url(#SVGID_37_);" width="119.576" height="112.846"/>
				</g>
				<g style="clip-path:url(#SVGID_32_);">
					<defs>
						<path id="SVGID_38_" d="M8.342,130.467c1.515-2.074,3.382-4.146,5.45-6.212c-6.296-15.059,15.96-45.481,26.304-28.82
							c0.183-1.713-0.218-3.363-1.355-4.937c-3.544-2.947-7.113-4.222-10.532-4.222C11.667,86.273-1.404,116.093,8.342,130.467"/>
					</defs>
					<clipPath id="SVGID_39_">
						<use xlink:href="#SVGID_38_"  style="overflow:visible;"/>
					</clipPath>
					
						<radialGradient id="SVGID_40_" cx="-1.0453" cy="-5.5907" r="0.2483" gradientTransform="matrix(88.7393 0 0 -88.7393 117.0858 -384.6527)" gradientUnits="userSpaceOnUse">
						<stop  offset="0" style="stop-color:#FFFFFF"/>
						<stop  offset="0.1147" style="stop-color:#F4F4F4"/>
						<stop  offset="0.3366" style="stop-color:#D7D7D6"/>
						<stop  offset="0.6434" style="stop-color:#A3A3A2"/>
						<stop  offset="1" style="stop-color:#575756"/>
					</radialGradient>
					<rect x="-1.404" y="78.774" style="clip-path:url(#SVGID_39_);fill:url(#SVGID_40_);" width="41.682" height="51.693"/>
				</g>
				<g style="clip-path:url(#SVGID_32_);">
					<defs>
						<rect id="SVGID_41_" x="-4.748" y="45.086" width="608.149" height="161.893"/>
					</defs>
					<clipPath id="SVGID_42_">
						<use xlink:href="#SVGID_41_"  style="overflow:visible;"/>
					</clipPath>
					<defs>
						<filter id="Adobe_OpacityMaskFilter" filterUnits="userSpaceOnUse" x="29.812" y="83.536" width="86.523" height="86.529">
							<feColorMatrix  type="matrix" values="1 0 0 0 0  0 1 0 0 0  0 0 1 0 0  0 0 0 1 0"/>
						</filter>
					</defs>
					<mask maskUnits="userSpaceOnUse" x="29.812" y="83.536" width="86.523" height="86.529" id="SVGID_43_">
						<g style="filter:url(#Adobe_OpacityMaskFilter);">
							<g>
								<defs>
									<rect id="SVGID_44_" x="29.812" y="83.536" width="86.523" height="86.529"/>
								</defs>
								<clipPath id="SVGID_45_" style="clip-path:url(#SVGID_42_);">
									<use xlink:href="#SVGID_44_"  style="overflow:visible;"/>
								</clipPath>
								<rect x="24.32" y="78.043" style="clip-path:url(#SVGID_45_);" width="97.508" height="97.513"/>
								<g style="enable-background:new    ;">
									<g>
										<defs>
											<rect id="SVGID_46_" x="24.32" y="78.043" width="97.508" height="97.513"/>
										</defs>
										<clipPath id="SVGID_47_" style="clip-path:url(#SVGID_45_);">
											<use xlink:href="#SVGID_46_"  style="overflow:visible;"/>
										</clipPath>
										
											<radialGradient id="SVGID_48_" cx="-0.4086" cy="-1.3481" r="0.2483" gradientTransform="matrix(508.0972 0 0 -508.0972 269.8594 -635.9189)" gradientUnits="userSpaceOnUse">
											<stop  offset="0" style="stop-color:#FFFFFF"/>
											<stop  offset="1" style="stop-color:#000000"/>
										</radialGradient>
										
											<rect x="-26.96" y="44.712" style="opacity:0.5;clip-path:url(#SVGID_47_);fill:url(#SVGID_48_);" width="191.521" height="156.651"/>
									</g>
								</g>
							</g>
						</g>
					</mask>
					<g style="clip-path:url(#SVGID_42_);mask:url(#SVGID_43_);">
						<g>
							<defs>
								<rect id="SVGID_49_" x="29.812" y="83.536" width="86.523" height="86.529"/>
							</defs>
							<clipPath id="SVGID_50_">
								<use xlink:href="#SVGID_49_"  style="overflow:visible;"/>
							</clipPath>
							<path style="clip-path:url(#SVGID_50_);fill-rule:evenodd;clip-rule:evenodd;fill:#FFFFFF;" d="M58.574,86.05
								c22.502-8.007,47.241,3.75,55.247,26.251c8.006,22.5-3.748,47.244-26.249,55.253c-22.5,8.003-47.242-3.752-55.246-26.256
								C24.32,118.796,36.074,94.054,58.574,86.05"/>
						</g>
					</g>
				</g>
				<g style="clip-path:url(#SVGID_32_);">
					<defs>
						<path id="SVGID_51_" d="M16.13,88.141c6.517-4.061,13.581-5.522,22.612,2.313c1.143,1.581,1.539,3.236,1.352,4.961
							c-1.117,10.181-22.716,22.651-31.753,35.003c-10.905,14.911,9.742,39.491,21.012,48.272c0.504,0.393,1.009,0.773,1.516,1.149
							c-30.074-29.021-5.497-43.849,16.939-59.811c15.352-10.919,29.701-22.372,24.855-39.271
							c-3.468-6.505-9.422-9.885-16.398-10.718c-1.162-0.139-2.353-0.207-3.565-0.207C40.369,69.83,25.803,76.87,16.13,88.141"/>
					</defs>
					<clipPath id="SVGID_52_">
						<use xlink:href="#SVGID_51_"  style="overflow:visible;"/>
					</clipPath>
					
						<radialGradient id="SVGID_53_" cx="-0.6726" cy="-2.0888" r="0.2483" gradientTransform="matrix(221.322 0 0 -221.322 191.7169 -339.6713)" gradientUnits="userSpaceOnUse">
						<stop  offset="0" style="stop-color:#BCCF17"/>
						<stop  offset="0.49" style="stop-color:#8AB925"/>
						<stop  offset="1" style="stop-color:#68A72F"/>
					</radialGradient>
					<rect x="-2.564" y="69.83" style="clip-path:url(#SVGID_52_);fill:url(#SVGID_53_);" width="80.073" height="110.007"/>
				</g>
				<g style="clip-path:url(#SVGID_32_);">
					<defs>
						<path id="SVGID_54_" d="M16.13,88.141c-0.932,1.088-1.822,2.215-2.657,3.379c-3.387,5.528-5.878,11.402-7.493,17.435
							c4.959-15.63,21.387-28.238,32.762-18.501c-4.678-4.059-8.829-5.623-12.649-5.623C22.539,84.83,19.271,86.184,16.13,88.141"/>
					</defs>
					<clipPath id="SVGID_55_">
						<use xlink:href="#SVGID_54_"  style="overflow:visible;"/>
					</clipPath>
					
						<radialGradient id="SVGID_56_" cx="-0.4671" cy="-5.4526" r="0.2483" gradientTransform="matrix(98.8097 0 0 -98.8097 55.0781 -441.3943)" gradientUnits="userSpaceOnUse">
						<stop  offset="0" style="stop-color:#BCCF17"/>
						<stop  offset="0.49" style="stop-color:#8AB925"/>
						<stop  offset="1" style="stop-color:#68A72F"/>
					</radialGradient>
					<rect x="5.98" y="80.717" style="clip-path:url(#SVGID_55_);fill:url(#SVGID_56_);" width="32.762" height="28.238"/>
				</g>
				<g style="clip-path:url(#SVGID_32_);">
					<defs>
						<path id="SVGID_57_" d="M56.265,70.037c0.005,0,0.011,0.002,0.019,0.003C56.277,70.039,56.27,70.037,56.265,70.037
							 M54.302,61.626c-14.002,3.446-26.989,11.446-36.538,23.7c-1.564,2.007-2.992,4.074-4.291,6.193
							c0.835-1.164,1.725-2.29,2.657-3.379c10.623-12.378,27.151-19.653,40.135-18.103c0.005,0.005,0.011,0.003,0.019,0.003
							c26.627-4.977,41.623,3.097,42.015,17.502c1.451-14.926-8.483-26.3-35.077-26.301C60.434,61.242,57.464,61.367,54.302,61.626"
							/>
					</defs>
					<clipPath id="SVGID_58_">
						<use xlink:href="#SVGID_57_"  style="overflow:visible;"/>
					</clipPath>
					<g style="clip-path:url(#SVGID_58_);">
						<g>
							<defs>
								<rect id="SVGID_59_" x="13.473" y="61.242" width="86.277" height="30.277"/>
							</defs>
							<clipPath id="SVGID_60_">
								<use xlink:href="#SVGID_59_"  style="overflow:visible;"/>
							</clipPath>
							<g style="clip-path:url(#SVGID_60_);">
						
							</g>
						</g>
					</g>
				</g>
				<g style="clip-path:url(#SVGID_32_);">
					<defs>
						<path id="SVGID_61_" d="M54.302,61.626c81.793-7.901,36.669,54.53,3.222,75.738c-18.503,11.735-17.903,43.09,3.812,44.811
							c5.885,0.465,12.143-1.291,17.676-3.105c23.478-7.713,44.308-26.271,51.119-50.119c2.626-9.186,3.167-19.16,0.975-29.599
							c-2.266-5.151-5.207-10.056-8.803-14.564c-3.209-4.031-6.94-7.747-11.183-11.052c-0.532-0.414-1.067-0.822-1.607-1.216
							c-11.797-8.639-25.563-12.829-39.228-12.83C64.9,59.69,59.531,60.341,54.302,61.626"/>
					</defs>
					<clipPath id="SVGID_62_">
						<use xlink:href="#SVGID_61_"  style="overflow:visible;"/>
					</clipPath>
					
						<radialGradient id="SVGID_63_" cx="-0.8773" cy="-1.6066" r="0.2483" gradientTransform="matrix(302.429 0 0 -302.429 346.6666 -371.0489)" gradientUnits="userSpaceOnUse">
						<stop  offset="0" style="stop-color:#BCCF17"/>
						<stop  offset="0.49" style="stop-color:#8AB925"/>
						<stop  offset="1" style="stop-color:#68A72F"/>
					</radialGradient>
					<rect x="39.021" y="53.726" style="clip-path:url(#SVGID_62_);fill:url(#SVGID_63_);" width="97.074" height="128.915"/>
				</g>
				<g style="clip-path:url(#SVGID_32_);">
					<defs>
						<path id="SVGID_64_" d="M56.288,70.049h-0.019H56.288z M54.308,61.634C40.307,65.08,27.319,73.08,17.77,85.336
							c-1.564,2.007-2.993,4.072-4.293,6.193c0.838-1.164,1.724-2.29,2.659-3.381c10.623-12.378,27.15-19.651,40.133-18.1
							c0.008,0.003,0.013,0.003,0.019,0c26.627-4.977,41.625,3.099,42.019,17.504c1.449-14.926-8.486-26.302-35.088-26.302
							C60.433,61.251,57.465,61.376,54.308,61.634"/>
					</defs>
					<clipPath id="SVGID_65_">
						<use xlink:href="#SVGID_64_"  style="overflow:visible;"/>
					</clipPath>
					
						<radialGradient id="SVGID_66_" cx="-1.1551" cy="-3.9458" r="0.2483" gradientTransform="matrix(149.8558 0 0 -149.8558 223.9549 -511.2731)" gradientUnits="userSpaceOnUse">
						<stop  offset="0" style="stop-color:#FFFFFF"/>
						<stop  offset="0.1033" style="stop-color:#F7F7F7"/>
						<stop  offset="0.287" style="stop-color:#E1E1E1"/>
						<stop  offset="0.5295" style="stop-color:#BBBBBB"/>
						<stop  offset="0.8185" style="stop-color:#838382"/>
						<stop  offset="1" style="stop-color:#575756"/>
					</radialGradient>
					<rect x="13.477" y="61.251" style="clip-path:url(#SVGID_65_);fill:url(#SVGID_66_);" width="86.279" height="30.278"/>
				</g>
				<g style="clip-path:url(#SVGID_32_);">
					<defs>
						<path id="SVGID_67_" d="M57.673,186.137c27.802,6.727,70.637-13.289,78.919-55.156c0.193-2.712,0.218-5.428,0.079-8.134
							C128.206,169.435,90.046,189.273,57.673,186.137"/>
					</defs>
					<clipPath id="SVGID_68_">
						<use xlink:href="#SVGID_67_"  style="overflow:visible;"/>
					</clipPath>
					
						<radialGradient id="SVGID_69_" cx="-5.046" cy="-4.5677" r="0.2483" gradientTransform="matrix(75.3952 0 0 -75.3952 499.8071 -182.7928)" gradientUnits="userSpaceOnUse">
						<stop  offset="0" style="stop-color:#BCCF17"/>
						<stop  offset="0.49" style="stop-color:#8AB925"/>
						<stop  offset="1" style="stop-color:#68A72F"/>
					</radialGradient>
					<rect x="57.673" y="122.848" style="clip-path:url(#SVGID_68_);fill:url(#SVGID_69_);" width="79.136" height="70.016"/>
				</g>
				<g style="clip-path:url(#SVGID_32_);">
					<defs>
						<path id="SVGID_70_" d="M57.673,186.137c1.406,0.654,2.823,1.242,4.252,1.761c12.961,4.702,26.817,3.823,40.785-3.609
							c7.533-4.203,14.367-9.959,20.002-17.19c8.42-10.809,12.977-23.403,13.879-36.118
							C128.31,172.848,85.475,192.864,57.673,186.137"/>
					</defs>
					<clipPath id="SVGID_71_">
						<use xlink:href="#SVGID_70_"  style="overflow:visible;"/>
					</clipPath>
					
						<radialGradient id="SVGID_72_" cx="-1.9317" cy="-2.0131" r="0.2483" gradientTransform="matrix(165.8262 0 0 -165.8262 419.8272 -168.739)" gradientUnits="userSpaceOnUse">
						<stop  offset="0" style="stop-color:#BCCF17"/>
						<stop  offset="0.49" style="stop-color:#8AB925"/>
						<stop  offset="1" style="stop-color:#68A72F"/>
					</radialGradient>
					<rect x="57.673" y="130.982" style="clip-path:url(#SVGID_71_);fill:url(#SVGID_72_);" width="78.919" height="61.883"/>
				</g>
				<g style="clip-path:url(#SVGID_32_);">
					<defs>
						<path id="SVGID_73_" d="M29.361,178.344c-10.875-15.445-15.398-28.475,3.469-47.418
							C17.371,143.192,8.061,156.799,29.361,178.344"/>
					</defs>
					<clipPath id="SVGID_74_">
						<use xlink:href="#SVGID_73_"  style="overflow:visible;"/>
					</clipPath>
					
						<radialGradient id="SVGID_75_" cx="-0.8985" cy="-4.1482" r="0.2483" gradientTransform="matrix(88.4401 0 0 -88.4401 99.4011 -212.7056)" gradientUnits="userSpaceOnUse">
						<stop  offset="0" style="stop-color:#BCCF17"/>
						<stop  offset="0.49" style="stop-color:#8AB925"/>
						<stop  offset="1" style="stop-color:#68A72F"/>
					</radialGradient>
					<rect x="8.061" y="130.926" style="clip-path:url(#SVGID_74_);fill:url(#SVGID_75_);" width="24.769" height="47.418"/>
				</g>
				<g style="clip-path:url(#SVGID_32_);">
					<defs>
						<path id="SVGID_76_" d="M54.302,61.626c35.957-3.471,47.387,6.647,46.062,20.881c-0.79,8.502-6.131,18.474-13.514,27.89
							c-7.463,9.522-17.013,18.481-26.056,24.789c0.085-0.054,0.173-0.107,0.259-0.16c17.552-10.656,38.453-32.33,43.096-49.855
							c5.268-19.873-14.188-25.536-31.873-25.537C65.54,59.634,59.062,60.456,54.302,61.626"/>
					</defs>
					<clipPath id="SVGID_77_">
						<use xlink:href="#SVGID_76_"  style="overflow:visible;"/>
					</clipPath>
					
						<radialGradient id="SVGID_78_" cx="-1.6345" cy="-2.9601" r="0.2483" gradientTransform="matrix(195.8845 0 0 -195.8845 419.6192 -496.0187)" gradientUnits="userSpaceOnUse">
						<stop  offset="0" style="stop-color:#BCCF17"/>
						<stop  offset="0.49" style="stop-color:#8AB925"/>
						<stop  offset="1" style="stop-color:#68A72F"/>
					</radialGradient>
					<rect x="54.302" y="58.155" style="clip-path:url(#SVGID_77_);fill:url(#SVGID_78_);" width="55.117" height="77.032"/>
				</g>
				<g style="clip-path:url(#SVGID_32_);">
					<defs>
						<rect id="SVGID_79_" x="-4.748" y="45.086" width="608.149" height="161.893"/>
					</defs>
					<clipPath id="SVGID_80_">
						<use xlink:href="#SVGID_79_"  style="overflow:visible;"/>
					</clipPath>
					<defs>
						<filter id="Adobe_OpacityMaskFilter_1_" filterUnits="userSpaceOnUse" x="10.333" y="71.359" width="63.289" height="80.057">
							<feColorMatrix  type="matrix" values="1 0 0 0 0  0 1 0 0 0  0 0 1 0 0  0 0 0 1 0"/>
						</filter>
					</defs>
					<mask maskUnits="userSpaceOnUse" x="10.333" y="71.359" width="63.289" height="80.057" id="SVGID_81_">
						<g style="filter:url(#Adobe_OpacityMaskFilter_1_);">
							<g>
								<defs>
									<rect id="SVGID_82_" x="10.333" y="71.36" width="63.289" height="80.056"/>
								</defs>
								<clipPath id="SVGID_83_" style="clip-path:url(#SVGID_80_);">
									<use xlink:href="#SVGID_82_"  style="overflow:visible;"/>
								</clipPath>
								<rect x="10.333" y="71.36" style="clip-path:url(#SVGID_83_);" width="67.177" height="80.056"/>
								<g style="enable-background:new    ;">
									<g>
										<defs>
											<rect id="SVGID_84_" x="10.333" y="71.36" width="67.177" height="80.056"/>
										</defs>
										<clipPath id="SVGID_85_" style="clip-path:url(#SVGID_83_);">
											<use xlink:href="#SVGID_84_"  style="overflow:visible;"/>
										</clipPath>
										<g>
											<defs>
												<rect id="SVGID_86_" x="-38.006" y="31.925" width="169.436" height="144.157"/>
											</defs>
											<clipPath id="SVGID_87_" style="clip-path:url(#SVGID_85_);">
												<use xlink:href="#SVGID_86_"  style="overflow:visible;"/>
											</clipPath>
											
												<linearGradient id="SVGID_88_" gradientUnits="userSpaceOnUse" x1="2.3592" y1="-0.4808" x2="2.6075" y2="-0.4808" gradientTransform="matrix(-5.8499 313.6808 313.6808 5.8499 212.6631 -705.4102)">
												<stop  offset="0" style="stop-color:#FFFFFF"/>
												<stop  offset="1" style="stop-color:#000000"/>
											</linearGradient>
											<polygon style="clip-path:url(#SVGID_87_);fill:url(#SVGID_88_);" points="134.118,31.975 131.371,179.24 
												-40.693,176.031 -37.947,28.766 											"/>
										</g>
									</g>
								</g>
							</g>
						</g>
					</mask>
					<g style="clip-path:url(#SVGID_80_);mask:url(#SVGID_81_);">
						<g>
							<defs>
								<rect id="SVGID_89_" x="10.333" y="71.36" width="63.289" height="80.056"/>
							</defs>
							<clipPath id="SVGID_90_">
								<use xlink:href="#SVGID_89_"  style="overflow:visible;"/>
							</clipPath>
							<path style="clip-path:url(#SVGID_90_);fill-rule:evenodd;clip-rule:evenodd;fill:#FFFFFF;" d="M72.664,80.756
								c-1.37-2.567-3.126-4.649-5.178-6.278c-1.687-1.338-3.571-2.37-5.608-3.118c-5.322,0.195-10.707,1.197-15.991,3.077
								c-6.762,2.406-12.738,6.031-17.775,10.54c2.573,0.372,5.302,1.48,8.24,3.581c0.78,0.563,1.576,1.191,2.39,1.896
								c1.137,1.572,1.536,3.221,1.353,4.935c0,0.008-0.001,0.016-0.003,0.025c-0.732,6.676-10.271,14.336-19.297,22.302
								c-2.433,2.145-4.828,4.313-7.004,6.489c-1.236,1.235-2.399,2.475-3.458,3.712c0.281,4.991,1.27,10.026,3.03,14.973
								c1.067,3,2.376,5.846,3.896,8.526c0.709-3.637,2.465-7.016,4.939-10.213c2.789-3.607,6.489-6.988,10.632-10.276
								c3.516-2.789,7.35-5.507,11.21-8.232c1.257-0.885,2.516-1.774,3.769-2.667C63.16,109.108,77.509,97.655,72.664,80.756"/>
						</g>
					</g>
					<defs>
						<filter id="Adobe_OpacityMaskFilter_2_" filterUnits="userSpaceOnUse" x="44.519" y="88.441" width="72.931" height="90.088">
							<feColorMatrix  type="matrix" values="1 0 0 0 0  0 1 0 0 0  0 0 1 0 0  0 0 0 1 0"/>
						</filter>
					</defs>
					<mask maskUnits="userSpaceOnUse" x="44.519" y="88.441" width="72.931" height="90.088" id="SVGID_91_">
						<g style="filter:url(#Adobe_OpacityMaskFilter_2_);">
							<g>
								<defs>
									<rect id="SVGID_92_" x="44.519" y="88.441" width="72.931" height="90.088"/>
								</defs>
								<clipPath id="SVGID_93_" style="clip-path:url(#SVGID_80_);">
									<use xlink:href="#SVGID_92_"  style="overflow:visible;"/>
								</clipPath>
								<rect x="42.042" y="88.441" style="clip-path:url(#SVGID_93_);" width="82.213" height="90.41"/>
								<g style="enable-background:new    ;">
									<g>
										<defs>
											<rect id="SVGID_94_" x="42.042" y="88.441" width="82.213" height="90.411"/>
										</defs>
										<clipPath id="SVGID_95_" style="clip-path:url(#SVGID_93_);">
											<use xlink:href="#SVGID_94_"  style="overflow:visible;"/>
										</clipPath>
										<g>
											<defs>
												<rect id="SVGID_96_" x="22.808" y="73.559" width="131.216" height="110.731"/>
											</defs>
											<clipPath id="SVGID_97_" style="clip-path:url(#SVGID_95_);">
												<use xlink:href="#SVGID_96_"  style="overflow:visible;"/>
											</clipPath>
											
												<linearGradient id="SVGID_98_" gradientUnits="userSpaceOnUse" x1="2.2442" y1="-0.7858" x2="2.4925" y2="-0.7858" gradientTransform="matrix(-29.8461 307.2374 307.2374 29.8461 403.9829 -610.7139)">
												<stop  offset="0" style="stop-color:#FFFFFF"/>
												<stop  offset="1" style="stop-color:#000000"/>
											</linearGradient>
											<polygon style="clip-path:url(#SVGID_97_);fill:url(#SVGID_98_);" points="164.681,74.594 152.798,196.918 
												12.152,183.255 24.035,60.931 											"/>
										</g>
									</g>
								</g>
							</g>
						</g>
					</mask>
					<g style="clip-path:url(#SVGID_80_);mask:url(#SVGID_91_);">
						<g>
							<defs>
								<rect id="SVGID_99_" x="44.519" y="88.441" width="72.931" height="90.088"/>
							</defs>
							<clipPath id="SVGID_100_">
								<use xlink:href="#SVGID_99_"  style="overflow:visible;"/>
							</clipPath>
							<path style="clip-path:url(#SVGID_100_);fill-rule:evenodd;clip-rule:evenodd;fill:#FFFFFF;" d="M103.119,88.441
								c-6.164,16.874-25.591,36.582-42.065,46.585l-0.257,0.158c-1.1,0.766-2.193,1.496-3.273,2.18
								c-12.172,7.722-15.482,22.391-11.257,34.325c0.552,1.562,1.235,3.078,2.042,4.526c6.12,1.855,12.6,2.636,19.151,2.191
								c4.787-0.328,9.611-1.306,14.354-2.991c27.877-9.921,42.442-40.577,32.523-68.457
								C111.811,99.862,107.942,93.631,103.119,88.441"/>
						</g>
					</g>
					<g style="opacity:0.7;clip-path:url(#SVGID_80_);">
						<g>
							<defs>
								<rect id="SVGID_101_" x="29.497" y="74.263" width="47.31" height="69.766"/>
							</defs>
							<clipPath id="SVGID_102_">
								<use xlink:href="#SVGID_101_"  style="overflow:visible;"/>
							</clipPath>
							<path style="clip-path:url(#SVGID_102_);fill-rule:evenodd;clip-rule:evenodd;fill:#706F6F;" d="M30.035,144.029
								c9.06-19.596,27.597-24.712,40.155-39.226c6.054-6.997,8.998-17.486,4.29-26.375c-0.761-1.436-1.723-2.834-2.905-4.165
								c-1.358,0.018-2.724,0.086-4.09,0.214c1.234,0.98,2.36,2.122,3.359,3.436c0.665,0.871,1.272,1.819,1.819,2.842
								c4.846,16.899-9.503,28.352-24.856,39.271c-1.252,0.893-2.512,1.782-3.769,2.668c-6.807,6.967-11.758,13.876-14.542,20.457
								C29.673,143.445,29.853,143.741,30.035,144.029"/>
						</g>
					</g>
					<g style="opacity:0.7;clip-path:url(#SVGID_80_);">
						<g>
							<defs>
								<rect id="SVGID_103_" x="42.153" y="77.875" width="53.713" height="93.842"/>
							</defs>
							<clipPath id="SVGID_104_">
								<use xlink:href="#SVGID_103_"  style="overflow:visible;"/>
							</clipPath>
							<path style="clip-path:url(#SVGID_104_);fill-rule:evenodd;clip-rule:evenodd;fill:#706F6F;" d="M92.49,78.523
								c0.871,2.544,1.237,5.402,0.989,8.595c-0.023,0.313-0.053,0.628-0.09,0.946c-0.671,5.955-3.42,13.045-8.902,21.421
								c-7.463,9.522-17.013,18.48-26.056,24.786c-1.099,0.769-2.191,1.496-3.273,2.182c-7.651,4.853-11.801,12.452-12.777,20.395
								c-0.022,0.159-0.041,0.32-0.057,0.48c-0.462,4.327,0.013,8.74,1.373,12.851c0.823,0.538,1.663,1.049,2.515,1.538
								c-1.517-4.282-2.061-8.912-1.577-13.449c0.866-8.114,5.028-15.925,12.835-20.876c1.078-0.685,2.171-1.412,3.271-2.18
								c9.042-6.306,18.592-15.265,26.055-24.786c5.482-8.379,8.231-15.468,8.902-21.422c0.405-3.578,0.057-6.75-0.901-9.543
								c-1.193-0.574-2.41-1.103-3.647-1.585C91.595,78.089,92.042,78.307,92.49,78.523"/>
						</g>
					</g>
				</g>
				<g style="clip-path:url(#SVGID_32_);">
					<defs>
						<path id="SVGID_105_" d="M54.302,61.626c28.819-0.691,63.298,13.26,23.849,60.373c36.328-38.625,25.971-61.683-8.438-61.686
							C65.005,60.313,59.854,60.744,54.302,61.626"/>
					</defs>
					<clipPath id="SVGID_106_">
						<use xlink:href="#SVGID_105_"  style="overflow:visible;"/>
					</clipPath>
					
						<radialGradient id="SVGID_107_" cx="-1.8413" cy="-3.9026" r="0.2483" gradientTransform="matrix(147.183 0 0 -147.183 354.2135 -488.7954)" gradientUnits="userSpaceOnUse">
						<stop  offset="0" style="stop-color:#FFFFFF"/>
						<stop  offset="0.1546" style="stop-color:#F6F5F5"/>
						<stop  offset="0.4257" style="stop-color:#DCDADA"/>
						<stop  offset="0.7787" style="stop-color:#B4B1B0"/>
						<stop  offset="1" style="stop-color:#989595"/>
					</radialGradient>
					<rect x="54.302" y="60.313" style="clip-path:url(#SVGID_106_);fill:url(#SVGID_107_);" width="63.298" height="61.686"/>
				</g>
				<g style="clip-path:url(#SVGID_32_);">
					<defs>
						<path id="SVGID_108_" d="M32.829,130.926c-18.868,18.943-14.344,31.973-3.468,47.419c0.486,0.493,0.99,0.992,1.508,1.492
							c10.632,7.815,24.394,13.136,37.765,9.976c-1.43-0.518-9.558-3.019-10.961-3.676l3.145-3.387
							c-6.727,0.515-11.905-2.178-17.858-5.359c-23.23-12.412-19.854-33.265,1.079-54.697
							C40.177,125.419,36.343,128.138,32.829,130.926"/>
					</defs>
					<clipPath id="SVGID_109_">
						<use xlink:href="#SVGID_108_"  style="overflow:visible;"/>
					</clipPath>
					
						<radialGradient id="SVGID_110_" cx="-0.8714" cy="-2.2506" r="0.2483" gradientTransform="matrix(150.4164 0 0 -150.4164 168.0541 -175.0094)" gradientUnits="userSpaceOnUse">
						<stop  offset="0" style="stop-color:#FFFFFF"/>
						<stop  offset="0.4682" style="stop-color:#C0BFBF"/>
						<stop  offset="1" style="stop-color:#706F6F"/>
					</radialGradient>
					<rect x="13.962" y="122.694" style="clip-path:url(#SVGID_109_);fill:url(#SVGID_110_);" width="54.673" height="70.279"/>
				</g>
				<g style="clip-path:url(#SVGID_32_);">
					<defs>
						<path id="SVGID_111_" d="M130.132,128.951c-7.846,32.329-35.343,51.267-61.534,52.784c-2.586,0.476-5.185,0.815-7.78,1.015
							l-3.145,3.388c32.372,3.134,70.533-16.702,78.998-63.291c-0.411-8.068-2.284-16.041-5.564-23.498
							C133.298,109.787,132.755,119.765,130.132,128.951"/>
					</defs>
					<clipPath id="SVGID_112_">
						<use xlink:href="#SVGID_111_"  style="overflow:visible;"/>
					</clipPath>
					
						<radialGradient id="SVGID_113_" cx="-1.6749" cy="-1.9864" r="0.2483" gradientTransform="matrix(189.899 0 0 -189.899 416.815 -226.4753)" gradientUnits="userSpaceOnUse">
						<stop  offset="0" style="stop-color:#FFFFFF"/>
						<stop  offset="0.2503" style="stop-color:#DDDDDD"/>
						<stop  offset="0.8163" style="stop-color:#7D7D7C"/>
						<stop  offset="1" style="stop-color:#575756"/>
					</radialGradient>
					<rect x="57.673" y="99.347" style="clip-path:url(#SVGID_112_);fill:url(#SVGID_113_);" width="78.998" height="89.924"/>
				</g>
				<g style="clip-path:url(#SVGID_32_);">
					<defs>
						<rect id="SVGID_114_" x="-4.748" y="45.086" width="608.149" height="161.893"/>
					</defs>
					<clipPath id="SVGID_115_">
						<use xlink:href="#SVGID_114_"  style="overflow:visible;"/>
					</clipPath>
					<rect x="167.807" y="153.216" style="clip-path:url(#SVGID_115_);fill:#5B595E;" width="6.849" height="25.669"/>
					<path style="clip-path:url(#SVGID_115_);fill:#5B595E;" d="M185.828,159.544v2.271h0.088c0.701-0.98,1.61-1.653,2.721-2.091
						c1.103-0.463,2.375-0.665,3.802-0.665c2.095,0,3.697,0.411,4.821,1.287c1.113,0.851,1.681,2.241,1.681,4.208v14.331h-6.552
						v-13.352c0-0.979-0.218-1.704-0.673-2.09c-0.442-0.389-1.146-0.593-2.133-0.593c-2.311,0-3.471,1.059-3.471,3.202v12.832
						h-6.564v-19.341H185.828z"/>
					<path style="clip-path:url(#SVGID_115_);fill:#5B595E;" d="M209.594,159.544v2.271h0.101c0.691-0.98,1.602-1.653,2.711-2.091
						c1.105-0.463,2.377-0.665,3.804-0.665c2.097,0,3.703,0.411,4.826,1.287c1.121,0.851,1.681,2.241,1.681,4.208v14.331h-6.55
						v-13.352c0-0.979-0.225-1.704-0.673-2.09c-0.446-0.389-1.159-0.593-2.133-0.593c-2.318,0-3.476,1.059-3.476,3.202v12.832
						h-6.553v-19.341H209.594z"/>
					<path style="clip-path:url(#SVGID_115_);fill:#5B595E;" d="M232.9,171.932c0.063,0.856,0.206,1.584,0.448,2.177
						c0.23,0.587,0.593,1.059,1.066,1.391c0.475,0.337,1.112,0.516,1.901,0.516c1.336,0,2.257-0.542,2.756-1.601
						c0.512-1.033,0.76-2.763,0.76-5.22c0-2.4-0.248-4.126-0.76-5.185c-0.499-1.047-1.42-1.604-2.756-1.604
						c-0.79,0-1.427,0.181-1.901,0.519c-0.472,0.336-0.835,0.798-1.066,1.422c-0.242,0.568-0.385,1.29-0.448,2.141
						c-0.077,0.822-0.101,1.73-0.101,2.706C232.799,170.182,232.823,171.109,232.9,171.932 M226.758,164.838
						c0.361-1.263,0.923-2.348,1.715-3.213c0.798-0.822,1.831-1.463,3.11-1.901c1.286-0.463,2.863-0.665,4.732-0.665
						c1.972-0.032,3.604,0.149,4.901,0.561c1.303,0.412,2.326,1.086,3.092,1.933c0.762,0.853,1.296,1.938,1.613,3.205
						c0.32,1.267,0.477,2.744,0.477,4.438c0,1.68-0.17,3.126-0.525,4.42c-0.348,1.262-0.916,2.326-1.712,3.155
						c-0.794,0.873-1.828,1.491-3.105,1.903c-1.285,0.413-2.869,0.59-4.74,0.59c-1.962,0.06-3.596-0.12-4.899-0.54
						c-1.296-0.388-2.326-1.002-3.087-1.859c-0.752-0.848-1.296-1.932-1.613-3.228c-0.32-1.258-0.475-2.761-0.475-4.441
						C226.24,167.569,226.41,166.105,226.758,164.838"/>
					<polygon style="clip-path:url(#SVGID_115_);fill:#5B595E;" points="268.591,159.544 262.179,178.885 254.573,178.885 
						247.96,159.544 254.816,159.544 258.47,173.382 258.569,173.382 262.029,159.544 					"/>
					<path style="clip-path:url(#SVGID_115_);fill:#5B595E;" d="M281.535,169.845c-0.52,0.162-0.975,0.257-1.392,0.337
						c-1.327,0.237-2.275,0.599-2.848,1.084c-0.561,0.493-0.859,1.191-0.859,2.039c0,0.742,0.192,1.391,0.578,1.909
						c0.373,0.548,1.009,0.803,1.896,0.803c0.447,0,0.903-0.048,1.383-0.16c0.468-0.095,0.903-0.276,1.297-0.538
						c0.403-0.228,0.733-0.546,0.985-0.934c0.248-0.389,0.386-0.822,0.386-1.358v-3.83
						C282.513,169.489,282.032,169.69,281.535,169.845 M270.973,164.994c0-1.114,0.243-2.031,0.711-2.818
						c0.475-0.747,1.117-1.372,1.926-1.829c0.809-0.464,1.758-0.802,2.855-0.98c1.096-0.237,2.263-0.307,3.496-0.307
						c1.964,0,3.541,0.126,4.743,0.411c1.197,0.277,2.144,0.693,2.807,1.236c0.667,0.509,1.118,1.164,1.358,1.881
						c0.244,0.723,0.362,1.523,0.362,2.377v10.177c0,0.9,0.049,1.629,0.174,2.133c0.093,0.5,0.311,1.037,0.632,1.611h-6.272
						c-0.226-0.313-0.387-0.624-0.499-0.986c-0.122-0.327-0.22-0.693-0.307-1.035h-0.105c-0.767,1.035-1.643,1.653-2.64,1.967
						c-0.989,0.312-2.284,0.432-3.874,0.432c-1.135,0-2.1-0.12-2.898-0.432c-0.792-0.314-1.427-0.733-1.896-1.239
						c-0.479-0.54-0.828-1.112-1.048-1.785c-0.223-0.665-0.325-1.287-0.325-1.953c0-0.91,0.114-1.712,0.375-2.362
						c0.257-0.636,0.637-1.21,1.158-1.695c0.531-0.445,1.179-0.856,1.996-1.162c0.816-0.31,1.783-0.597,2.924-0.827l3.711-0.758
						c0.983-0.173,1.654-0.46,2.04-0.79c0.398-0.335,0.582-0.821,0.582-1.47c0-0.755-0.237-1.321-0.704-1.735
						c-0.456-0.442-1.242-0.649-2.351-0.649c-1.014,0-1.77,0.239-2.274,0.699c-0.513,0.47-0.768,1.068-0.768,1.827v0.55h-5.89
						V164.994z"/>
					<path style="clip-path:url(#SVGID_115_);fill:#5B595E;" d="M301.872,154.022v5.523h3.81v3.382h-3.81v10.456
						c0,0.778,0.142,1.314,0.457,1.646c0.306,0.315,0.921,0.472,1.876,0.472h0.748c0.263-0.026,0.5-0.056,0.73-0.078v3.463
						c-0.73,0-1.434,0.026-2.121,0.073c-0.69,0.027-1.406,0.027-2.163,0.027c-1.269,0-2.298-0.056-3.108-0.18
						c-0.815-0.149-1.441-0.412-1.851-0.805c-0.438-0.408-0.731-0.906-0.88-1.572c-0.163-0.65-0.254-1.444-0.254-2.433v-11.069
						h-3.334v-3.382h3.334v-5.523H301.872z"/>
					<path style="clip-path:url(#SVGID_115_);fill:#5B595E;" d="M314.765,178.885h-6.567v-19.341h6.567V178.885z M314.765,157.165
						h-6.567v-4.261h6.567V157.165z"/>
					<path style="clip-path:url(#SVGID_115_);fill:#5B595E;" d="M325.164,171.932c0.063,0.856,0.214,1.584,0.455,2.177
						c0.237,0.587,0.594,1.059,1.073,1.391c0.489,0.337,1.117,0.516,1.901,0.516c1.329,0,2.241-0.542,2.764-1.601
						c0.506-1.033,0.76-2.763,0.76-5.22c0-2.4-0.254-4.126-0.76-5.185c-0.523-1.047-1.435-1.604-2.764-1.604
						c-0.784,0-1.412,0.181-1.901,0.519c-0.479,0.336-0.836,0.798-1.073,1.422c-0.241,0.568-0.392,1.29-0.455,2.141
						c-0.066,0.822-0.09,1.73-0.09,2.706C325.074,170.182,325.098,171.109,325.164,171.932 M319.032,164.838
						c0.349-1.263,0.923-2.348,1.702-3.213c0.791-0.822,1.857-1.463,3.116-1.901c1.298-0.463,2.876-0.665,4.743-0.665
						c1.958-0.032,3.596,0.149,4.889,0.561c1.324,0.412,2.338,1.086,3.099,1.933c0.755,0.853,1.294,1.938,1.602,3.205
						c0.336,1.267,0.495,2.744,0.495,4.438c0,1.68-0.183,3.126-0.532,4.42c-0.35,1.262-0.918,2.326-1.704,3.155
						c-0.806,0.873-1.831,1.491-3.109,1.903c-1.296,0.413-2.868,0.59-4.74,0.59c-1.963,0.06-3.606-0.12-4.894-0.54
						c-1.29-0.388-2.338-1.002-3.09-1.859c-0.756-0.848-1.298-1.932-1.622-3.228c-0.318-1.258-0.473-2.761-0.473-4.441
						C318.514,167.569,318.695,166.105,319.032,164.838"/>
					<path style="clip-path:url(#SVGID_115_);fill:#5B595E;" d="M348.462,159.544v2.271h0.095c0.697-0.98,1.607-1.653,2.718-2.091
						c1.104-0.463,2.376-0.665,3.797-0.665c2.095,0,3.716,0.411,4.82,1.287c1.139,0.851,1.709,2.241,1.709,4.208v14.331h-6.585
						v-13.352c0-0.979-0.205-1.704-0.654-2.09c-0.456-0.389-1.153-0.593-2.138-0.593c-2.312,0-3.484,1.059-3.484,3.202v12.832
						h-6.552v-19.341H348.462z"/>
					<path style="clip-path:url(#SVGID_115_);fill:#5B595E;" d="M387.884,169.845c-0.506,0.162-0.98,0.257-1.384,0.337
						c-1.329,0.237-2.283,0.599-2.857,1.084c-0.557,0.493-0.841,1.191-0.841,2.039c0,0.742,0.174,1.391,0.562,1.909
						c0.387,0.548,0.999,0.803,1.901,0.803c0.443,0,0.917-0.048,1.375-0.16c0.487-0.095,0.923-0.276,1.325-0.538
						c0.388-0.228,0.704-0.546,0.954-0.934c0.258-0.389,0.387-0.822,0.387-1.358v-3.83
						C388.861,169.489,388.393,169.69,387.884,169.845 M377.322,164.994c0-1.114,0.232-2.031,0.728-2.818
						c0.455-0.747,1.109-1.372,1.909-1.829c0.808-0.464,1.771-0.802,2.855-0.98c1.093-0.237,2.258-0.307,3.49-0.307
						c1.958,0,3.569,0.126,4.772,0.411c1.195,0.277,2.125,0.693,2.798,1.236c0.663,0.509,1.109,1.164,1.354,1.881
						c0.245,0.723,0.35,1.523,0.35,2.377v10.177c0,0.9,0.047,1.629,0.179,2.133c0.104,0.5,0.304,1.037,0.637,1.611h-6.292
						c-0.208-0.313-0.387-0.624-0.487-0.986c-0.111-0.327-0.207-0.693-0.311-1.035h-0.088c-0.773,1.035-1.645,1.653-2.65,1.967
						c-0.978,0.312-2.288,0.432-3.873,0.432c-1.133,0-2.106-0.12-2.89-0.432c-0.798-0.314-1.423-0.733-1.916-1.239
						c-0.452-0.54-0.82-1.112-1.048-1.785c-0.216-0.665-0.318-1.287-0.318-1.953c0-0.91,0.133-1.712,0.388-2.362
						c0.232-0.636,0.637-1.21,1.161-1.695c0.518-0.445,1.176-0.856,1.987-1.162c0.81-0.31,1.777-0.597,2.918-0.827l3.716-0.758
						c0.987-0.173,1.672-0.46,2.046-0.79c0.386-0.335,0.568-0.821,0.568-1.47c0-0.755-0.23-1.321-0.687-1.735
						c-0.446-0.442-1.239-0.649-2.362-0.649c-1.002,0-1.771,0.239-2.275,0.699c-0.517,0.47-0.749,1.068-0.749,1.827v0.55h-5.91
						V164.994z"/>
					<path style="clip-path:url(#SVGID_115_);fill:#5B595E;" d="M412.436,165.119c-0.077-0.46-0.235-0.877-0.413-1.239
						c-0.22-0.389-0.512-0.682-0.894-0.907c-0.373-0.229-0.885-0.327-1.52-0.327c-0.785,0-1.46,0.128-1.949,0.409
						c-0.5,0.255-0.888,0.668-1.131,1.209c-0.268,0.551-0.45,1.248-0.537,2.071c-0.091,0.799-0.142,1.782-0.142,2.909
						c0,1.199,0.052,2.221,0.142,3.077c0.087,0.85,0.269,1.552,0.537,2.093c0.243,0.569,0.587,0.981,1.054,1.214
						c0.452,0.257,1.059,0.387,1.775,0.387c1.119,0,1.941-0.359,2.433-1.084c0.515-0.728,0.76-1.888,0.76-3.44h6.283
						c0,2.537-0.759,4.476-2.277,5.783c-1.496,1.349-3.983,1.989-7.479,1.989c-1.656,0-3.073-0.12-4.285-0.432
						c-1.238-0.314-2.25-0.831-3.047-1.624c-0.822-0.779-1.434-1.81-1.825-3.122c-0.419-1.295-0.63-2.924-0.63-4.889
						c0-1.95,0.261-3.634,0.749-4.931c0.522-1.301,1.229-2.343,2.142-3.123c0.928-0.774,2.033-1.314,3.28-1.658
						c1.279-0.275,2.675-0.424,4.201-0.424c3.026,0,5.323,0.665,6.859,1.98c1.538,1.367,2.311,3.183,2.311,5.477h-6.283
						C412.552,166.053,412.515,165.561,412.436,165.119"/>
					<path style="clip-path:url(#SVGID_115_);fill:#5B595E;" d="M434.459,165.119c-0.08-0.46-0.229-0.877-0.441-1.239
						c-0.206-0.389-0.487-0.682-0.872-0.907c-0.388-0.229-0.888-0.327-1.53-0.327c-0.799,0-1.445,0.128-1.936,0.409
						c-0.515,0.255-0.894,0.668-1.151,1.209c-0.253,0.551-0.426,1.248-0.53,2.071c-0.093,0.799-0.121,1.782-0.121,2.909
						c0,1.199,0.028,2.221,0.121,3.077c0.104,0.85,0.276,1.552,0.53,2.093c0.258,0.569,0.608,0.981,1.079,1.214
						c0.45,0.257,1.053,0.387,1.776,0.387c1.112,0,1.909-0.359,2.427-1.084c0.503-0.728,0.748-1.888,0.748-3.44h6.309
						c0,2.537-0.773,4.476-2.275,5.783c-1.516,1.349-4.01,1.989-7.49,1.989c-1.652,0-3.104-0.12-4.313-0.432
						c-1.217-0.314-2.221-0.831-3.043-1.624c-0.811-0.779-1.416-1.81-1.839-3.122c-0.399-1.295-0.625-2.924-0.625-4.889
						c0-1.95,0.262-3.634,0.785-4.931c0.496-1.301,1.211-2.343,2.141-3.123c0.917-0.774,2.013-1.314,3.273-1.658
						c1.265-0.275,2.654-0.424,4.189-0.424c3.041,0,5.331,0.665,6.869,1.98c1.54,1.367,2.326,3.183,2.326,5.477h-6.309
						C434.56,166.053,434.534,165.561,434.459,165.119"/>
					<path style="clip-path:url(#SVGID_115_);fill:#5B595E;" d="M456.405,165.07c-0.106-0.574-0.275-1.059-0.518-1.449
						c-0.233-0.384-0.567-0.695-0.991-0.877c-0.422-0.231-0.973-0.338-1.633-0.338c-0.669,0-1.229,0.13-1.645,0.368
						c-0.426,0.199-0.769,0.513-1.025,0.898c-0.261,0.362-0.435,0.777-0.542,1.243c-0.1,0.434-0.18,0.903-0.18,1.345v0.767h6.716
						C456.558,166.28,456.493,165.638,456.405,165.07 M449.871,171.52c0,0.569,0.08,1.144,0.18,1.652
						c0.107,0.552,0.281,1.032,0.542,1.443c0.256,0.447,0.581,0.78,1.011,1.014c0.41,0.257,0.902,0.387,1.507,0.387
						c1.117,0,1.922-0.31,2.424-0.904c0.509-0.592,0.87-1.496,1.052-2.734h5.884c-0.125,2.238-0.911,3.97-2.375,5.159
						c-1.447,1.159-3.753,1.726-6.897,1.726c-2.375,0-4.234-0.278-5.55-0.904c-1.339-0.559-2.324-1.357-2.954-2.343
						c-0.635-0.988-1.022-2.09-1.159-3.328c-0.149-1.196-0.226-2.432-0.226-3.642c0-1.296,0.134-2.556,0.363-3.752
						c0.236-1.209,0.723-2.262,1.416-3.191c0.729-0.934,1.734-1.71,3.073-2.244c1.334-0.555,3.11-0.798,5.324-0.798
						c1.908,0,3.462,0.223,4.699,0.687c1.215,0.469,2.165,1.12,2.865,1.967c0.698,0.848,1.192,1.884,1.421,3.102
						c0.254,1.209,0.384,2.548,0.384,4.046v1.116h-12.983V171.52z"/>
					<rect x="466.522" y="153.216" style="clip-path:url(#SVGID_115_);fill:#5B595E;" width="6.564" height="25.669"/>
					<path style="clip-path:url(#SVGID_115_);fill:#5B595E;" d="M489.815,165.07c-0.102-0.574-0.263-1.059-0.5-1.449
						c-0.232-0.384-0.566-0.695-1.005-0.877c-0.422-0.231-0.965-0.338-1.625-0.338c-0.674,0-1.222,0.13-1.655,0.368
						c-0.421,0.199-0.759,0.513-1.015,0.898c-0.245,0.362-0.437,0.777-0.549,1.243c-0.107,0.434-0.167,0.903-0.167,1.345v0.767
						h6.709C489.982,166.28,489.907,165.638,489.815,165.07 M483.3,171.52c0,0.569,0.06,1.144,0.167,1.652
						c0.112,0.552,0.304,1.032,0.549,1.443c0.256,0.447,0.579,0.78,0.99,1.014c0.42,0.257,0.928,0.387,1.53,0.387
						c1.109,0,1.907-0.31,2.425-0.904c0.498-0.592,0.855-1.496,1.049-2.734h5.89c-0.125,2.238-0.93,3.97-2.37,5.159
						c-1.457,1.159-3.772,1.726-6.896,1.726c-2.367,0-4.233-0.278-5.562-0.904c-1.331-0.559-2.312-1.357-2.945-2.343
						c-0.631-0.988-1.024-2.09-1.172-3.328c-0.138-1.196-0.202-2.432-0.202-3.642c0-1.296,0.096-2.556,0.35-3.752
						c0.23-1.209,0.705-2.262,1.414-3.191c0.735-0.934,1.742-1.71,3.067-2.244c1.331-0.555,3.118-0.798,5.337-0.798
						c1.896,0,3.46,0.223,4.668,0.687c1.21,0.469,2.197,1.12,2.894,1.967c0.681,0.848,1.162,1.884,1.416,3.102
						c0.242,1.209,0.389,2.548,0.389,4.046v1.116H483.3V171.52z"/>
					<path style="clip-path:url(#SVGID_115_);fill:#5B595E;" d="M505.967,159.544v2.58h0.112c0.665-0.927,1.466-1.674,2.42-2.243
						c0.958-0.579,2.12-0.823,3.471-0.823h0.587c0.225,0.014,0.418,0.014,0.605,0.046v4.75c-0.356-0.026-0.68-0.026-1.017-0.045
						c-0.333-0.025-0.666-0.025-1.036-0.025c-0.568,0-1.133,0.07-1.698,0.175c-0.568,0.124-1.107,0.332-1.582,0.593
						c-0.478,0.284-0.847,0.647-1.133,1.084c-0.287,0.436-0.436,0.981-0.436,1.657v11.59h-6.557v-19.341H505.967z"/>
					<path style="clip-path:url(#SVGID_115_);fill:#5B595E;" d="M526.044,169.845c-0.5,0.162-0.967,0.257-1.38,0.337
						c-1.327,0.237-2.286,0.599-2.843,1.084c-0.572,0.493-0.879,1.191-0.879,2.039c0,0.742,0.212,1.391,0.588,1.909
						c0.374,0.548,1.023,0.803,1.896,0.803c0.448,0,0.904-0.048,1.376-0.16c0.484-0.095,0.922-0.276,1.307-0.538
						c0.401-0.228,0.724-0.546,0.98-0.934c0.263-0.389,0.388-0.822,0.388-1.358v-3.83
						C527.034,169.489,526.545,169.69,526.044,169.845 M515.495,164.994c0-1.114,0.235-2.031,0.715-2.818
						c0.464-0.747,1.112-1.372,1.926-1.829c0.797-0.464,1.754-0.802,2.839-0.98c1.097-0.237,2.267-0.307,3.506-0.307
						c1.948,0,3.543,0.126,4.753,0.411c1.195,0.277,2.145,0.693,2.806,1.236c0.653,0.509,1.115,1.164,1.352,1.881
						c0.238,0.723,0.358,1.523,0.358,2.377v10.177c0,0.9,0.062,1.629,0.157,2.133c0.121,0.5,0.338,1.037,0.652,1.611h-6.28
						c-0.215-0.313-0.392-0.624-0.498-0.986c-0.112-0.327-0.205-0.693-0.304-1.035h-0.109c-0.74,1.035-1.632,1.653-2.625,1.967
						c-1.008,0.312-2.297,0.432-3.877,0.432c-1.133,0-2.111-0.12-2.906-0.432c-0.795-0.314-1.426-0.733-1.895-1.239
						c-0.478-0.54-0.822-1.112-1.052-1.785c-0.206-0.665-0.341-1.287-0.341-1.953c0-0.91,0.135-1.712,0.386-2.362
						c0.256-0.636,0.645-1.21,1.163-1.695c0.527-0.445,1.187-0.856,2.002-1.162c0.806-0.31,1.786-0.597,2.931-0.827l3.704-0.758
						c0.986-0.173,1.664-0.46,2.052-0.79c0.361-0.335,0.568-0.821,0.568-1.47c0-0.755-0.236-1.321-0.69-1.735
						c-0.471-0.442-1.243-0.649-2.36-0.649c-1.002,0-1.764,0.239-2.28,0.699c-0.502,0.47-0.765,1.068-0.765,1.827v0.55h-5.887
						V164.994z"/>
					<path style="clip-path:url(#SVGID_115_);fill:#5B595E;" d="M546.402,154.022v5.523h3.793v3.382h-3.793v10.456
						c0,0.778,0.138,1.314,0.443,1.646c0.297,0.315,0.928,0.472,1.877,0.472h0.749c0.267-0.026,0.497-0.056,0.724-0.078v3.463
						c-0.724,0-1.433,0.026-2.115,0.073c-0.681,0.027-1.398,0.027-2.17,0.027c-1.258,0-2.301-0.056-3.099-0.18
						c-0.82-0.149-1.429-0.412-1.857-0.805c-0.441-0.408-0.715-0.906-0.879-1.572c-0.168-0.65-0.244-1.444-0.244-2.433v-11.069
						h-3.309v-3.382h3.309v-5.523H546.402z"/>
					<path style="clip-path:url(#SVGID_115_);fill:#5B595E;" d="M558.279,171.932c0.062,0.856,0.207,1.584,0.45,2.177
						c0.243,0.587,0.602,1.059,1.071,1.391c0.493,0.337,1.115,0.516,1.899,0.516c1.322,0,2.259-0.542,2.755-1.601
						c0.507-1.033,0.775-2.763,0.775-5.22c0-2.4-0.268-4.126-0.775-5.185c-0.496-1.047-1.433-1.604-2.755-1.604
						c-0.784,0-1.407,0.181-1.899,0.519c-0.469,0.336-0.829,0.798-1.071,1.422c-0.244,0.568-0.388,1.29-0.45,2.141
						c-0.067,0.822-0.105,1.73-0.105,2.706C558.174,170.182,558.212,171.109,558.279,171.932 M552.146,164.838
						c0.348-1.263,0.922-2.348,1.721-3.213c0.784-0.822,1.819-1.463,3.111-1.901c1.27-0.463,2.854-0.665,4.723-0.665
						c1.963-0.032,3.601,0.149,4.892,0.561c1.313,0.412,2.354,1.086,3.101,1.933c0.756,0.853,1.298,1.938,1.61,3.205
						c0.326,1.267,0.479,2.744,0.479,4.438c0,1.68-0.179,3.126-0.516,4.42c-0.361,1.262-0.929,2.326-1.701,3.155
						c-0.8,0.873-1.859,1.491-3.126,1.903c-1.294,0.413-2.865,0.59-4.739,0.59c-1.963,0.06-3.59-0.12-4.897-0.54
						c-1.298-0.388-2.333-1.002-3.098-1.859c-0.749-0.848-1.279-1.932-1.597-3.228c-0.325-1.258-0.492-2.761-0.492-4.441
						C551.616,167.569,551.802,166.105,552.146,164.838"/>
					<path style="clip-path:url(#SVGID_115_);fill:#5B595E;" d="M581.577,159.544v2.58h0.087c0.678-0.927,1.48-1.674,2.431-2.243
						c0.959-0.579,2.122-0.823,3.469-0.823h0.617c0.177,0.014,0.396,0.014,0.578,0.046v4.75c-0.349-0.026-0.705-0.026-1.021-0.045
						c-0.339-0.025-0.675-0.025-1.025-0.025c-0.573,0-1.144,0.07-1.707,0.175c-0.582,0.124-1.092,0.332-1.578,0.593
						c-0.466,0.284-0.853,0.647-1.139,1.084c-0.283,0.436-0.43,0.981-0.43,1.657v11.59h-6.554v-19.341H581.577z"/>
				</g>
			</g>
		</g>
	</g>
</g>
</svg>
