<?xml version="1.0" encoding="iso-8859-1"?>
<!-- Generator: Adobe Illustrator 18.1.1, SVG Export Plug-In . SVG Version: 6.00 Build 0)  -->
<svg version="1.1" xmlns="http://www.w3.org/2000/svg" xmlns:xlink="http://www.w3.org/1999/xlink" x="0px" y="0px"
	 viewBox="0 0 595.28 260.79" style="enable-background:new 0 0 595.28 260.79;" xml:space="preserve">
<g id="Sfeir">
	<g>
		<path style="fill-rule:evenodd;clip-rule:evenodd;fill:#191918;" d="M144.516,63.29c-1.804,7.201-3.433,13.708-5.103,20.368
			c-4.054-0.854-7.911-1.82-11.82-2.452c-8.013-1.294-16.047-1.366-23.804,1.322c-2.763,0.958-5.509,2.447-7.759,4.309
			c-5.513,4.575-4.894,12.616,1.296,16.199c3.361,1.942,7.13,3.259,10.819,4.546c8.78,3.06,17.821,5.436,26.382,9
			c14.04,5.849,22.062,16.401,22.014,32.071c-0.052,15.805-8.092,26.522-22.003,33.219c-11.489,5.524-23.717,5.992-36.116,5.084
			c-8.493-0.624-16.71-2.447-24.488-6.054c-1.772-0.821-2.539-1.574-1.988-3.802c1.478-5.959,2.566-12.012,3.886-18.403
			c1.241,0.612,2.272,1.125,3.308,1.634c12.535,6.144,25.697,8.274,39.341,5.147c4.023-0.921,8.068-2.986,11.386-5.479
			c7.089-5.317,6.554-15.836-1.076-20.357c-4.943-2.928-10.459-4.972-15.873-7.021c-5.982-2.264-12.173-3.962-18.198-6.11
			C84,122.697,75.505,116.388,72.092,104.937c-5.07-17.022,3.095-33.089,20.522-40.36c9.98-4.166,20.496-5.326,31.16-4.365
			C130.62,60.826,137.392,62.204,144.516,63.29"/>
		<g>
			<defs>
				<rect id="SVGID_5_" x="5.685" y="20.268" width="583.91" height="195.977"/>
			</defs>
			<clipPath id="SVGID_6_">
				<use xlink:href="#SVGID_5_"  style="overflow:visible;"/>
			</clipPath>
			<path style="clip-path:url(#SVGID_6_);fill-rule:evenodd;clip-rule:evenodd;fill:#E75112;" d="M52.282,195.406v20.725H5.685
				V29.736h46.527v20.718c-0.826,0.046-1.721,0.136-2.62,0.138c-6.584,0.01-13.164,0.123-19.743-0.056
				c-2.566-0.071-3.323,0.604-3.314,3.251c0.095,29.062,0.052,58.126,0.052,87.19c0,17.094,0.051,34.191-0.046,51.287
				c-0.013,2.409,0.562,3.269,3.114,3.2c6.571-0.175,13.153-0.058,19.74-0.058H52.282L52.282,195.406z"/>
			<path style="clip-path:url(#SVGID_6_);fill-rule:evenodd;clip-rule:evenodd;fill:#191918;" d="M246.018,24.881
				c-1.919,5.98-3.719,11.564-5.486,17.071c-5.274-0.963-10.343-2.197-15.48-2.733c-3.856-0.404-7.862-0.261-11.705,0.267
				c-3.965,0.549-6.845,3.252-7.486,7.17c-0.919,5.593-1.138,11.3-1.687,17.298h30.521v21.434h-30.211v97.479h-21.51V85.541H168.24
				V64.102h14.651c0.129-2.308,0.122-4.336,0.392-6.328c0.757-5.742,1.16-11.594,2.567-17.181
				c2.562-10.134,9.201-16.519,19.527-18.858C219.155,18.612,232.492,20.859,246.018,24.881"/>
		</g>
		<path style="fill-rule:evenodd;clip-rule:evenodd;fill:#E75112;" d="M589.595,216.245h-46.441v-20.839h5.093
			c5.896,0,11.803-0.105,17.693,0.051c2.337,0.062,2.847-0.764,2.842-2.948c-0.068-31.286-0.046-62.571-0.046-93.86
			c0-14.958-0.071-29.917,0.071-44.875c0.024-2.702-0.814-3.286-3.334-3.232c-7.343,0.156-14.681,0.053-22.283,0.053V29.839h46.405
			V216.245L589.595,216.245z"/>
		<path style="fill-rule:evenodd;clip-rule:evenodd;fill:#191918;" d="M534.04,68.049c-2.734,6.531-5.434,12.961-8.206,19.575
			c-2.397-0.922-4.676-1.792-6.951-2.676c-14.947-5.836-27.47-2.054-37.794,9.764c-2.92,3.335-5.466,7.005-7.993,10.65
			c-0.666,0.949-0.848,2.388-0.848,3.603c-0.052,23.593-0.042,47.182-0.042,70.771v3.152h-20.471V64.205h20.458v18.121
			c1.548-2.07,2.631-3.544,3.746-4.992c10.412-13.596,24.165-18.305,40.792-15.214C522.706,63.23,528.464,65.008,534.04,68.049"/>
		<polygon style="fill-rule:evenodd;clip-rule:evenodd;fill:#191918;" points="425.005,182.921 404.56,182.921 404.56,85.563 
			370.592,85.563 370.592,64.228 425.005,64.228 425.005,182.921 		"/>
		<polygon style="fill-rule:evenodd;clip-rule:evenodd;fill:#E75112;" points="348.916,133.956 256.655,133.956 256.655,113.194 
			348.916,113.194 348.916,133.956 		"/>
		<polygon style="fill-rule:evenodd;clip-rule:evenodd;fill:#E75112;" points="256.612,64.325 348.894,64.325 348.894,84.871 
			256.612,84.871 256.612,64.325 		"/>
		<polygon style="fill-rule:evenodd;clip-rule:evenodd;fill:#E75112;" points="348.901,182.754 256.606,182.754 256.606,162.212 
			348.901,162.212 348.901,182.754 		"/>
		<path style="fill-rule:evenodd;clip-rule:evenodd;fill:#191918;" d="M415.17,20.303c7.477,0.019,13.427,6.006,13.441,13.541
			c0.016,7.748-5.889,13.732-13.51,13.703c-7.242-0.029-13.18-6.262-13.16-13.814C401.961,26.301,407.884,20.286,415.17,20.303"/>
	</g>
</g>
</svg>
