<?xml version="1.0" encoding="iso-8859-1"?>
<!-- Generator: Adobe Illustrator 18.1.1, SVG Export Plug-In . SVG Version: 6.00 Build 0)  -->
<svg version="1.1" xmlns="http://www.w3.org/2000/svg" xmlns:xlink="http://www.w3.org/1999/xlink" x="0px" y="0px"
	 viewBox="0 0 595.28 260.79" style="enable-background:new 0 0 595.28 260.79;" xml:space="preserve">
<g id="Valtech_x5F_">
	<g>
		<polygon points="62.166,105.177 86.583,105.177 55.175,192.158 31.197,192.158 0.004,105.177 25.539,105.177 43.652,169.335 
			62.166,105.177 		"/>
		<path d="M143.744,149.865c-1.461,0.901-2.929,1.636-4.414,2.196c-1.484,0.557-3.511,1.074-6.105,1.556l-5.177,0.954
			c-4.852,0.857-8.332,1.895-10.455,3.115c-3.574,2.074-5.37,5.291-5.37,9.652c0,3.89,1.094,6.696,3.281,8.42
			c2.186,1.725,4.851,2.593,7.979,2.593c4.971,0,9.552-1.437,13.741-4.309c4.181-2.871,6.351-8.113,6.52-15.72V149.865
			L143.744,149.865z M129.835,139.252c4.229-0.531,7.261-1.198,9.081-1.994c3.271-1.384,4.907-3.541,4.907-6.464
			c0-3.563-1.252-6.024-3.757-7.382c-2.507-1.357-6.194-2.035-11.045-2.035c-5.443,0-9.305,1.328-11.571,3.989
			c-1.613,1.968-2.697,4.628-3.231,7.981H92.274c0.478-7.608,2.616-13.857,6.409-18.752c6.039-7.661,16.406-11.491,31.104-11.491
			c9.561,0,18.05,1.888,25.479,5.666c7.431,3.778,11.139,10.904,11.139,21.385v39.899c0,2.767,0.056,6.12,0.16,10.057
			c0.161,2.975,0.616,5.003,1.357,6.062c0.743,1.064,1.86,1.939,3.353,2.635v3.351h-24.738c-0.695-1.755-1.173-3.41-1.438-4.949
			c-0.262-1.541-0.478-3.296-0.637-5.265c-3.152,3.407-6.79,6.301-10.916,8.698c-4.924,2.817-10.494,4.226-16.695,4.226
			c-7.923,0-14.468-2.242-19.622-6.742c-5.17-4.5-7.748-10.866-7.748-19.109c0-10.694,4.158-18.435,12.457-23.223
			c4.565-2.603,11.258-4.469,20.1-5.586L129.835,139.252L129.835,139.252z"/>
		<polygon points="205.412,192.158 182.668,192.158 182.668,74.535 205.412,74.535 205.412,192.158 		"/>
		<path d="M214.572,122.175v-16.2H226.7V81.717h22.505v24.259h14.124v16.2h-14.124v45.962c0,3.568,0.455,5.787,1.355,6.666
			c0.903,0.875,3.671,1.316,8.299,1.316c0.695,0,1.429-0.011,2.195-0.042c0.766-0.03,1.531-0.064,2.275-0.119v16.998l-10.774,0.4
			c-10.747,0.373-18.091-1.494-22.024-5.588c-2.553-2.61-3.831-6.623-3.831-12.049v-53.544H214.572L214.572,122.175z"/>
		<path d="M296.499,126.587c-3.206,3.311-5.233,7.8-6.047,13.461h39.179c-0.414-6.036-2.441-10.617-6.063-13.744
			c-3.624-3.125-8.125-4.688-13.484-4.688C304.24,121.617,299.725,123.272,296.499,126.587L296.499,126.587z M330.526,106.942
			c6.066,2.716,11.073,7.005,15.036,12.865c3.555,5.168,5.871,11.161,6.926,17.98c0.623,3.998,0.861,9.75,0.746,17.264h-63.339
			c0.349,8.721,3.379,14.841,9.093,18.354c3.462,2.176,7.649,3.271,12.532,3.271c5.183,0,9.4-1.333,12.64-3.99
			c1.75-1.436,3.317-3.432,4.677-5.985h23.217c-0.621,5.163-3.428,10.396-8.443,15.72c-7.787,8.457-18.688,12.69-32.714,12.69
			c-11.571,0-21.785-3.568-30.643-10.701c-8.843-7.135-13.272-18.747-13.272-34.827c0-15.064,3.999-26.619,11.978-34.658
			c7.994-8.04,18.369-12.062,31.105-12.062C317.648,102.864,324.46,104.225,330.526,106.942L330.526,106.942z"/>
		<path d="M412.686,136.378c-0.43-3.242-1.516-6.173-3.287-8.777c-2.558-3.512-6.527-5.266-11.925-5.266
			c-7.672,0-12.925,3.801-15.751,11.411c-1.498,4.034-2.234,9.392-2.234,16.08c0,6.366,0.736,11.489,2.234,15.36
			c2.711,7.235,7.837,10.853,15.352,10.853c5.347,0,9.13-1.437,11.365-4.312c2.234-2.872,3.608-6.597,4.084-11.17h23.223
			c-0.546,6.92-3.034,13.462-7.519,19.629c-7.134,9.953-17.699,14.925-31.711,14.925c-13.995,0-24.304-4.15-30.912-12.45
			c-6.59-8.3-9.895-19.062-9.895-32.283c0-14.918,3.635-26.527,10.931-34.826c7.296-8.299,17.363-12.449,30.195-12.449
			c10.919,0,19.855,2.447,26.797,7.342c6.962,4.895,11.077,13.537,12.352,25.933H412.686L412.686,136.378z"/>
		<path d="M509.974,105.661c4.359,1.862,7.948,4.711,10.759,8.542c2.377,3.252,3.843,6.593,4.369,10.027
			c0.529,3.435,0.799,9.036,0.799,16.809v51.12h-23.218v-52.965c0-4.689-0.799-8.473-2.38-11.345
			c-2.058-4.045-5.967-6.073-11.73-6.073c-5.968,0-10.486,2.01-13.581,6.032c-3.096,4.022-4.627,9.76-4.627,17.219v47.131h-22.746
			V74.935h22.746v41.494c3.288-5.054,7.084-8.577,11.391-10.572c4.33-1.994,8.859-2.993,13.631-2.993
			C500.733,102.864,505.601,103.797,509.974,105.661L509.974,105.661z"/>
		<polygon points="545.053,192.158 595.28,192.158 595.28,173.658 545.053,173.658 545.053,192.158 		"/>
	</g>
</g>
</svg>
