<?xml version="1.0" encoding="UTF-8" standalone="no"?>
<!-- Generator: Adobe Illustrator 18.1.1, SVG Export Plug-In . SVG Version: 6.00 Build 0)  -->

<svg
   xmlns:dc="http://purl.org/dc/elements/1.1/"
   xmlns:cc="http://creativecommons.org/ns#"
   xmlns:rdf="http://www.w3.org/1999/02/22-rdf-syntax-ns#"
   xmlns:svg="http://www.w3.org/2000/svg"
   xmlns="http://www.w3.org/2000/svg"
   xmlns:sodipodi="http://sodipodi.sourceforge.net/DTD/sodipodi-0.dtd"
   xmlns:inkscape="http://www.inkscape.org/namespaces/inkscape"
   version="1.1"
   x="0px"
   y="0px"
   viewBox="0 0 595.28 260.79"
   style="enable-background:new 0 0 595.28 260.79;"
   xml:space="preserve"
   id="svg73"
   sodipodi:docname="pivotal.svg"
   inkscape:version="0.92.2 5c3e80d, 2017-08-06"><metadata
     id="metadata79"><rdf:RDF><cc:Work
         rdf:about=""><dc:format>image/svg+xml</dc:format><dc:type
           rdf:resource="http://purl.org/dc/dcmitype/StillImage" /><dc:title></dc:title></cc:Work></rdf:RDF></metadata><defs
     id="defs77"><style
       id="style994">.cls-1{fill:none;}.cls-2{isolation:isolate;}.cls-3{fill:#008774;}</style></defs><sodipodi:namedview
     pagecolor="#ffffff"
     bordercolor="#666666"
     borderopacity="1"
     objecttolerance="10"
     gridtolerance="10"
     guidetolerance="10"
     inkscape:pageopacity="0"
     inkscape:pageshadow="2"
     inkscape:window-width="1361"
     inkscape:window-height="729"
     id="namedview75"
     showgrid="false"
     inkscape:zoom="0.54428166"
     inkscape:cx="111.84486"
     inkscape:cy="324.98045"
     inkscape:window-x="0"
     inkscape:window-y="0"
     inkscape:window-maximized="0"
     inkscape:current-layer="svg73" /><g
     inkscape:groupmode="layer"
     id="layer1"
     inkscape:label="piv"
     style="display:inline"><g
       id="g1036"
       transform="matrix(1.8278337,0,0,1.8278337,-99.913815,-34.110029)"><rect
         id="rect1000"
         height="180"
         width="435"
         class="cls-1"
         x="0"
         y="0"
         style="fill:none" /><g
         id="g1016"
         class="cls-2"
         style="isolation:isolate"><path
           id="path1002"
           d="M 138.8784,62.043 H 127.9272 V 51.4483 h 10.9512 z m 0.0133,60.4186 H 127.9139 V 69.8194 h 10.9778 z"
           class="cls-3"
           inkscape:connector-curvature="0"
           style="fill:#008774" /><path
           id="path1004"
           d="m 202.2187,69.8194 -15.2865,45.4725 c -2.6277,7.4364 -7.3131,8.39 -11.1049,8.39 -5.6323,0 -9.0236,-2.5877 -11.0212,-8.3768 L 152.0642,77.5426 h -5.0422 v -7.7232 h 13.1523 l 13.1322,42.2712 c 0.5733,1.804 0.9271,2.8844 2.5208,2.8844 1.6541,0 1.9809,-1.0971 2.5146,-2.8844 l 13.3989,-42.2712 z"
           class="cls-3"
           inkscape:connector-curvature="0"
           style="fill:#008774" /><path
           id="path1006"
           d="m 229.25,69.8194 c 14.2058,0 24.11,9.37 24.11,22.7964 v 8.27 c 0,13.4088 -9.9042,22.796 -24.11,22.796 -14.1994,0 -24.1237,-9.3872 -24.1237,-22.796 v -8.27 c 0,-13.4259 9.9243,-22.7964 24.1237,-22.7964 m 0,45.199 c 8.4969,0 13.7625,-6.4259 13.7625,-14.1324 v -8.27 c 0,-7.7133 -5.2191,-14.1392 -13.7625,-14.1392 -8.9973,0 -13.7558,6.4259 -13.7558,14.1392 v 8.27 c 0,7.7065 4.9655,14.1324 13.7558,14.1324"
           class="cls-3"
           inkscape:connector-curvature="0"
           style="fill:#008774" /><path
           id="path1008"
           d="m 340.9972,71.5 a 93.53,93.53 0 0 0 -20.3285,-2.4276 c -14.4128,0 -23.3567,9.0905 -23.3567,23.7433 v 5.7689 c 0,14.6395 8.9439,23.8669 23.3567,23.8669 0.3333,0 2.8943,0.01 4.0615,-0.1035 v -8.8371 c -0.4436,0 -3.7347,0.1168 -4.0615,0.1168 -7.84,0 -13.1124,-6.0459 -13.1124,-15.0431 v -5.7687 c 0,-8.9973 5.2724,-15.04 13.1124,-15.04 a 77.0142,77.0142 0 0 1 10.7511,0.6768 l 0.587,0.1267 0.0133,43.8819 h 10.9679 v -49.137 c 0,-0.937 0,-1.2972 -1.9908,-1.8241"
           class="cls-3"
           inkscape:connector-curvature="0"
           style="fill:#008774" /><rect
           id="rect1010"
           height="71.013298"
           width="10.9744"
           y="51.448299"
           x="353.5625"
           class="cls-3"
           style="fill:#008774" /><path
           id="path1012"
           d="M 89.7244,51.4483 H 70.4631 v 71.0034 H 81.878 V 61.319 h 6.6926 c 1.4205,0.01 2.6311,0.07 3.845,0.0936 9.8943,0.19 14.7361,4.1151 14.7361,11.8083 0,0.31 0.02,0.5136 0.02,0.8335 0,7.1164 -3.9085,11.8384 -14.6962,11.8384 -1.0306,0 -2.0908,-0.0233 -3.188,-0.0134 0.0034,2.7213 -0.01,7.77 -0.0167,9.544 1.1139,0.0536 2.1543,0.1 3.2215,0.1 15.48,0 26.4108,-6.0858 26.4108,-21.3621 0,-0.3 -0.0167,-0.6136 -0.0167,-0.92 0,-15.8336 -11.9083,-21.7927 -29.1622,-21.7927"
           class="cls-3"
           inkscape:connector-curvature="0"
           style="fill:#008774" /><path
           id="path1014"
           d="m 272.8485,58.4714 v 11.348 h 17.874 v 8.5035 h -17.874 v 30.6732 c 0,4.8118 3.0744,4.9419 7.53,4.9419 h 10.3512 v 8.5137 h -14.006 c -10.3577,0 -14.9762,-4.1452 -14.9762,-13.4556 v -49.001 z"
           class="cls-3"
           inkscape:connector-curvature="0"
           style="fill:#008774" /></g><path
         id="path1018"
         d="m 369.5826,117.8579 a 4.5878,4.5878 0 1 1 4.5884,4.6037 4.6,4.6 0 0 1 -4.5884,-4.6037 z m 4.5889,-3.9564 a 3.9356,3.9356 0 1 0 3.9161,3.9422 3.9425,3.9425 0 0 0 -3.9161,-3.9422 z m -1.0109,6.3916 h -0.5332 V 115.31 h 1.4026 c 1.2639,0 1.8808,0.5776 1.8808,1.5068 a 1.466,1.466 0 0 1 -1.024,1.4214 l 1.29,2.0548 h -0.6307 l -1.1927,-1.9283 -1.1928,0.07 z m 0.8981,-2.3643 c 0.828,-0.0282 1.3325,-0.4229 1.3325,-1.0845 0,-0.7035 -0.4483,-1.0556 -1.4024,-1.0556 h -0.8418 v 2.1821 z"
         class="cls-3"
         inkscape:connector-curvature="0"
         style="fill:#008774" /></g></g></svg>