<?xml version="1.0" encoding="UTF-8" standalone="no"?>
<!-- Generator: Adobe Illustrator 18.1.1, SVG Export Plug-In . SVG Version: 6.00 Build 0)  -->

<svg
   xmlns:dc="http://purl.org/dc/elements/1.1/"
   xmlns:cc="http://creativecommons.org/ns#"
   xmlns:rdf="http://www.w3.org/1999/02/22-rdf-syntax-ns#"
   xmlns:svg="http://www.w3.org/2000/svg"
   xmlns="http://www.w3.org/2000/svg"
   xmlns:sodipodi="http://sodipodi.sourceforge.net/DTD/sodipodi-0.dtd"
   xmlns:inkscape="http://www.inkscape.org/namespaces/inkscape"
   version="1.1"
   x="0px"
   y="0px"
   viewBox="0 0 595.28 260.79"
   xml:space="preserve"
   id="svg4136"
   inkscape:version="0.92.2 5c3e80d, 2017-08-06"
   sodipodi:docname="codeworks.svg"
   width="595.28003"
   height="260.79001"
   inkscape:export-filename="/Users/csabourdin/Documents/projets/personnel/projets/site/parisjug/website/src/site/resources/images/sponsors/2020/codeworks.png"
   inkscape:export-xdpi="247.71001"
   inkscape:export-ydpi="247.71001"><metadata
     id="metadata5226"><rdf:RDF><cc:Work
         rdf:about=""><dc:format>image/svg+xml</dc:format><dc:type
           rdf:resource="http://purl.org/dc/dcmitype/StillImage" /><dc:title></dc:title></cc:Work></rdf:RDF></metadata><defs
     id="defs5224"><clipPath
       clipPathUnits="userSpaceOnUse"
       id="clipPath20"><path
         d="m 3786.79,3319.19 c -48.66,0 -88.11,-39.48 -88.11,-88.12 0,-48.63 39.45,-88.1 88.11,-88.1 48.64,0 88.08,39.47 88.08,88.1 0,48.64 -39.44,88.12 -88.08,88.12 z"
         id="path18" /></clipPath><linearGradient
       x1="0"
       y1="0"
       x2="1"
       y2="0"
       gradientUnits="userSpaceOnUse"
       gradientTransform="matrix(3206.67,-1400.01,-1400.01,-3206.67,1476.3,4239.81)"
       spreadMethod="pad"
       id="linearGradient26"><stop
         style="stop-opacity:1;stop-color:#5ecbf5"
         offset="0"
         id="stop22" /><stop
         style="stop-opacity:1;stop-color:#294ca7"
         offset="1"
         id="stop24" /></linearGradient><clipPath
       clipPathUnits="userSpaceOnUse"
       id="clipPath36"><path
         d="m 2894.32,2933.99 c 36.89,0 66.74,29.89 66.74,66.77 0,36.89 -29.85,66.77 -66.74,66.77 -36.89,0 -66.77,-29.88 -66.77,-66.77 0,-36.88 29.88,-66.77 66.77,-66.77 z"
         id="path34" /></clipPath><linearGradient
       x1="0"
       y1="0"
       x2="1"
       y2="0"
       gradientUnits="userSpaceOnUse"
       gradientTransform="matrix(3206.9,-1400.11,-1400.11,-3206.9,1248.85,3719.15)"
       spreadMethod="pad"
       id="linearGradient42"><stop
         style="stop-opacity:1;stop-color:#5ecbf5"
         offset="0"
         id="stop38" /><stop
         style="stop-opacity:1;stop-color:#294ca7"
         offset="1"
         id="stop40" /></linearGradient><clipPath
       clipPathUnits="userSpaceOnUse"
       id="clipPath52"><path
         d="m 3067.06,3480.99 c 36.88,0 66.75,29.89 66.75,66.77 0,36.89 -29.87,66.77 -66.75,66.77 -36.89,0 -66.78,-29.88 -66.78,-66.77 0,-36.88 29.89,-66.77 66.78,-66.77 z"
         id="path50" /></clipPath><linearGradient
       x1="0"
       y1="0"
       x2="1"
       y2="0"
       gradientUnits="userSpaceOnUse"
       gradientTransform="matrix(3206.43,-1399.9,-1399.9,-3206.43,1477.33,4241.82)"
       spreadMethod="pad"
       id="linearGradient58"><stop
         style="stop-opacity:1;stop-color:#5ecbf5"
         offset="0"
         id="stop54" /><stop
         style="stop-opacity:1;stop-color:#294ca7"
         offset="1"
         id="stop56" /></linearGradient><clipPath
       clipPathUnits="userSpaceOnUse"
       id="clipPath68"><path
         d="m 2079.02,3288.66 c 0,-36.89 29.88,-66.78 66.77,-66.78 36.89,0 66.74,29.89 66.74,66.78 0,36.88 -29.85,66.77 -66.74,66.77 -36.89,0 -66.77,-29.89 -66.77,-66.77 z"
         id="path66" /></clipPath><linearGradient
       x1="0"
       y1="0"
       x2="1"
       y2="0"
       gradientUnits="userSpaceOnUse"
       gradientTransform="matrix(3206.9,-1400.11,-1400.11,-3206.9,1234.64,3686.45)"
       spreadMethod="pad"
       id="linearGradient74"><stop
         style="stop-opacity:1;stop-color:#5ecbf5"
         offset="0"
         id="stop70" /><stop
         style="stop-opacity:1;stop-color:#294ca7"
         offset="1"
         id="stop72" /></linearGradient><clipPath
       clipPathUnits="userSpaceOnUse"
       id="clipPath84"><path
         d="m 1483.63,3250.67 c 36.89,0 66.75,29.88 66.75,66.78 0,36.88 -29.86,66.77 -66.75,66.77 -36.88,0 -66.76,-29.89 -66.76,-66.77 0,-36.9 29.88,-66.78 66.76,-66.78 z"
         id="path82" /></clipPath><linearGradient
       x1="0"
       y1="0"
       x2="1"
       y2="0"
       gradientUnits="userSpaceOnUse"
       gradientTransform="matrix(3206.67,-1400.01,-1400.01,-3206.67,1139.25,3467.8)"
       spreadMethod="pad"
       id="linearGradient90"><stop
         style="stop-opacity:1;stop-color:#5ecbf5"
         offset="0"
         id="stop86" /><stop
         style="stop-opacity:1;stop-color:#294ca7"
         offset="1"
         id="stop88" /></linearGradient><clipPath
       clipPathUnits="userSpaceOnUse"
       id="clipPath100"><path
         d="m 1742.73,3624.94 c 36.89,0 66.75,29.88 66.75,66.76 0,36.89 -29.86,66.78 -66.75,66.78 -36.88,0 -66.76,-29.89 -66.76,-66.78 0,-36.88 29.88,-66.76 66.76,-66.76 z"
         id="path98" /></clipPath><linearGradient
       x1="0"
       y1="0"
       x2="1"
       y2="0"
       gradientUnits="userSpaceOnUse"
       gradientTransform="matrix(3206.43,-1399.9,-1399.9,-3206.43,1318.01,3877.14)"
       spreadMethod="pad"
       id="linearGradient106"><stop
         style="stop-opacity:1;stop-color:#5ecbf5"
         offset="0"
         id="stop102" /><stop
         style="stop-opacity:1;stop-color:#294ca7"
         offset="1"
         id="stop104" /></linearGradient><clipPath
       clipPathUnits="userSpaceOnUse"
       id="clipPath116"><path
         d="m 2721.58,3826.46 c 36.89,0 66.74,29.89 66.74,66.78 0,36.88 -29.85,66.76 -66.74,66.76 -36.89,0 -66.78,-29.88 -66.78,-66.76 0,-36.89 29.89,-66.78 66.78,-66.78 z"
         id="path114" /></clipPath><linearGradient
       x1="0"
       y1="0"
       x2="1"
       y2="0"
       gradientUnits="userSpaceOnUse"
       gradientTransform="matrix(3206.43,-1399.9,-1399.9,-3206.43,1548.67,4405.32)"
       spreadMethod="pad"
       id="linearGradient122"><stop
         style="stop-opacity:1;stop-color:#5ecbf5"
         offset="0"
         id="stop118" /><stop
         style="stop-opacity:1;stop-color:#294ca7"
         offset="1"
         id="stop120" /></linearGradient><clipPath
       clipPathUnits="userSpaceOnUse"
       id="clipPath132"><path
         d="m 3182.22,3884.04 c 36.88,0 66.74,29.88 66.74,66.77 0,36.89 -29.86,66.77 -66.74,66.77 -36.9,0 -66.78,-29.88 -66.78,-66.77 0,-36.89 29.88,-66.77 66.78,-66.77 z"
         id="path130" /></clipPath><linearGradient
       x1="0"
       y1="0"
       x2="1"
       y2="0"
       gradientUnits="userSpaceOnUse"
       gradientTransform="matrix(3206.67,-1400.01,-1400.01,-3206.67,1643.45,4622.62)"
       spreadMethod="pad"
       id="linearGradient138"><stop
         style="stop-opacity:1;stop-color:#5ecbf5"
         offset="0"
         id="stop134" /><stop
         style="stop-opacity:1;stop-color:#294ca7"
         offset="1"
         id="stop136" /></linearGradient><clipPath
       clipPathUnits="userSpaceOnUse"
       id="clipPath148"><path
         d="m 3758,3682.51 c 36.88,0 66.75,29.89 66.75,66.78 0,36.89 -29.87,66.77 -66.75,66.77 -36.89,0 -66.78,-29.88 -66.78,-66.77 0,-36.89 29.89,-66.78 66.78,-66.78 z"
         id="path146" /></clipPath><linearGradient
       x1="0"
       y1="0"
       x2="1"
       y2="0"
       gradientUnits="userSpaceOnUse"
       gradientTransform="matrix(3206.43,-1399.9,-1399.9,-3206.43,1661.88,4664.43)"
       spreadMethod="pad"
       id="linearGradient154"><stop
         style="stop-opacity:1;stop-color:#5ecbf5"
         offset="0"
         id="stop150" /><stop
         style="stop-opacity:1;stop-color:#294ca7"
         offset="1"
         id="stop152" /></linearGradient><clipPath
       clipPathUnits="userSpaceOnUse"
       id="clipPath164"><path
         d="m 4074.68,3480.99 c 36.89,0 66.75,29.89 66.75,66.77 0,36.89 -29.86,66.77 -66.75,66.77 -36.88,0 -66.77,-29.88 -66.77,-66.77 0,-36.88 29.89,-66.77 66.77,-66.77 z"
         id="path162" /></clipPath><linearGradient
       x1="0"
       y1="0"
       x2="1"
       y2="0"
       gradientUnits="userSpaceOnUse"
       gradientTransform="matrix(3206.67,-1400.01,-1400.01,-3206.67,1638.52,4611.37)"
       spreadMethod="pad"
       id="linearGradient170"><stop
         style="stop-opacity:1;stop-color:#5ecbf5"
         offset="0"
         id="stop166" /><stop
         style="stop-opacity:1;stop-color:#294ca7"
         offset="1"
         id="stop168" /></linearGradient><clipPath
       clipPathUnits="userSpaceOnUse"
       id="clipPath180"><path
         d="m 4247.42,3851.01 c 23.34,0 42.23,18.89 42.23,42.23 0,23.33 -18.89,42.22 -42.23,42.22 -23.34,0 -42.26,-18.89 -42.26,-42.22 0,-23.34 18.92,-42.23 42.26,-42.23 z"
         id="path178" /></clipPath><linearGradient
       x1="0"
       y1="0"
       x2="1"
       y2="0"
       gradientUnits="userSpaceOnUse"
       gradientTransform="matrix(3207.04,-1400.17,-1400.17,-3207.04,1792.58,4964.99)"
       spreadMethod="pad"
       id="linearGradient186"><stop
         style="stop-opacity:1;stop-color:#5ecbf5"
         offset="0"
         id="stop182" /><stop
         style="stop-opacity:1;stop-color:#294ca7"
         offset="1"
         id="stop184" /></linearGradient><clipPath
       clipPathUnits="userSpaceOnUse"
       id="clipPath196"><path
         d="m 4420.17,3417.25 c -23.34,0 -42.27,-18.89 -42.27,-42.23 0,-23.32 18.93,-42.22 42.27,-42.22 23.32,0 42.21,18.9 42.21,42.22 0,23.34 -18.89,42.23 -42.21,42.23 z"
         id="path194" /></clipPath><linearGradient
       x1="0"
       y1="0"
       x2="1"
       y2="0"
       gradientUnits="userSpaceOnUse"
       gradientTransform="matrix(3206.3,-1399.84,-1399.84,-3206.3,1630.82,4592.83)"
       spreadMethod="pad"
       id="linearGradient202"><stop
         style="stop-opacity:1;stop-color:#5ecbf5"
         offset="0"
         id="stop198" /><stop
         style="stop-opacity:1;stop-color:#294ca7"
         offset="1"
         id="stop200" /></linearGradient><clipPath
       clipPathUnits="userSpaceOnUse"
       id="clipPath212"><path
         d="m 4477.74,4194.57 c -23.34,0 -42.26,-18.9 -42.26,-42.23 0,-23.34 18.92,-42.23 42.26,-42.23 23.33,0 42.22,18.89 42.22,42.23 0,23.33 -18.89,42.23 -42.22,42.23 z"
         id="path210" /></clipPath><linearGradient
       x1="0"
       y1="0"
       x2="1"
       y2="0"
       gradientUnits="userSpaceOnUse"
       gradientTransform="matrix(3207.04,-1400.17,-1400.17,-3207.04,1924.45,5267.08)"
       spreadMethod="pad"
       id="linearGradient218"><stop
         style="stop-opacity:1;stop-color:#5ecbf5"
         offset="0"
         id="stop214" /><stop
         style="stop-opacity:1;stop-color:#294ca7"
         offset="1"
         id="stop216" /></linearGradient><clipPath
       clipPathUnits="userSpaceOnUse"
       id="clipPath228"><path
         d="m 3815.58,4110.11 c 23.34,0 42.23,18.89 42.23,42.23 0,23.33 -18.89,42.23 -42.23,42.23 -23.33,0 -42.25,-18.9 -42.25,-42.23 0,-23.34 18.92,-42.23 42.25,-42.23 z"
         id="path226" /></clipPath><linearGradient
       x1="0"
       y1="0"
       x2="1"
       y2="0"
       gradientUnits="userSpaceOnUse"
       gradientTransform="matrix(3207.04,-1400.17,-1400.17,-3207.04,1818.52,5024.24)"
       spreadMethod="pad"
       id="linearGradient234"><stop
         style="stop-opacity:1;stop-color:#5ecbf5"
         offset="0"
         id="stop230" /><stop
         style="stop-opacity:1;stop-color:#294ca7"
         offset="1"
         id="stop232" /></linearGradient><clipPath
       clipPathUnits="userSpaceOnUse"
       id="clipPath244"><path
         d="m 3383.73,3707.06 c 23.34,0 42.24,18.89 42.24,42.23 0,23.33 -18.9,42.22 -42.24,42.22 -23.32,0 -42.26,-18.89 -42.26,-42.22 0,-23.34 18.94,-42.23 42.26,-42.23 z"
         id="path242" /></clipPath><linearGradient
       x1="0"
       y1="0"
       x2="1"
       y2="0"
       gradientUnits="userSpaceOnUse"
       gradientTransform="matrix(3206.67,-1400.01,-1400.01,-3206.67,1601.81,4527.26)"
       spreadMethod="pad"
       id="linearGradient250"><stop
         style="stop-opacity:1;stop-color:#5ecbf5"
         offset="0"
         id="stop246" /><stop
         style="stop-opacity:1;stop-color:#294ca7"
         offset="1"
         id="stop248" /></linearGradient><clipPath
       clipPathUnits="userSpaceOnUse"
       id="clipPath260"><path
         d="m 2692.79,3505.53 c 23.33,0 42.23,18.9 42.23,42.23 0,23.33 -18.9,42.23 -42.23,42.23 -23.34,0 -42.26,-18.9 -42.26,-42.23 0,-23.33 18.92,-42.23 42.26,-42.23 z"
         id="path258" /></clipPath><linearGradient
       x1="0"
       y1="0"
       x2="1"
       y2="0"
       gradientUnits="userSpaceOnUse"
       gradientTransform="matrix(3206.3,-1399.84,-1399.84,-3206.3,1417.44,4104.56)"
       spreadMethod="pad"
       id="linearGradient266"><stop
         style="stop-opacity:1;stop-color:#5ecbf5"
         offset="0"
         id="stop262" /><stop
         style="stop-opacity:1;stop-color:#294ca7"
         offset="1"
         id="stop264" /></linearGradient><clipPath
       clipPathUnits="userSpaceOnUse"
       id="clipPath276"><path
         d="m 2117,3707.06 c 23.33,0 42.22,18.89 42.22,42.23 0,23.33 -18.89,42.22 -42.22,42.22 -23.33,0 -42.26,-18.89 -42.26,-42.22 0,-23.34 18.93,-42.23 42.26,-42.23 z"
         id="path274" /></clipPath><linearGradient
       x1="0"
       y1="0"
       x2="1"
       y2="0"
       gradientUnits="userSpaceOnUse"
       gradientTransform="matrix(3206.3,-1399.84,-1399.84,-3206.3,1399.09,4062.71)"
       spreadMethod="pad"
       id="linearGradient282"><stop
         style="stop-opacity:1;stop-color:#5ecbf5"
         offset="0"
         id="stop278" /><stop
         style="stop-opacity:1;stop-color:#294ca7"
         offset="1"
         id="stop280" /></linearGradient><clipPath
       clipPathUnits="userSpaceOnUse"
       id="clipPath292"><path
         d="m 1786.85,3403.81 c 0,-23.33 18.92,-42.22 42.26,-42.22 23.33,0 42.22,18.89 42.22,42.22 0,23.34 -18.89,42.23 -42.22,42.23 -23.34,0 -42.26,-18.89 -42.26,-42.23 z"
         id="path290" /></clipPath><linearGradient
       x1="0"
       y1="0"
       x2="1"
       y2="0"
       gradientUnits="userSpaceOnUse"
       gradientTransform="matrix(3207.04,-1400.17,-1400.17,-3207.04,1226.17,3667.05)"
       spreadMethod="pad"
       id="linearGradient298"><stop
         style="stop-opacity:1;stop-color:#5ecbf5"
         offset="0"
         id="stop294" /><stop
         style="stop-opacity:1;stop-color:#294ca7"
         offset="1"
         id="stop296" /></linearGradient><clipPath
       clipPathUnits="userSpaceOnUse"
       id="clipPath308"><path
         d="m 2347.31,3402.07 c 48.64,0 88.09,39.48 88.09,88.11 0,48.64 -39.45,88.12 -88.09,88.12 -48.66,0 -88.11,-39.48 -88.11,-88.12 0,-48.63 39.45,-88.11 88.11,-88.11 z"
         id="path306" /></clipPath><linearGradient
       x1="0"
       y1="0"
       x2="1"
       y2="0"
       gradientUnits="userSpaceOnUse"
       gradientTransform="matrix(3206.67,-1400.01,-1400.01,-3206.67,1340.86,3929.58)"
       spreadMethod="pad"
       id="linearGradient314"><stop
         style="stop-opacity:1;stop-color:#5ecbf5"
         offset="0"
         id="stop310" /><stop
         style="stop-opacity:1;stop-color:#294ca7"
         offset="1"
         id="stop312" /></linearGradient><clipPath
       clipPathUnits="userSpaceOnUse"
       id="clipPath324"><path
         d="m 4088.97,3202.29 c 0,-39.81 32.27,-72.06 72.08,-72.06 39.81,0 72.03,32.25 72.03,72.06 0,39.81 -32.22,72.06 -72.03,72.06 -39.81,0 -72.08,-32.25 -72.08,-72.06 z"
         id="path322" /></clipPath><linearGradient
       x1="0"
       y1="0"
       x2="1"
       y2="0"
       gradientUnits="userSpaceOnUse"
       gradientTransform="matrix(3206.89,-1400.1,-1400.1,-3206.89,1525.49,4352.95)"
       spreadMethod="pad"
       id="linearGradient330"><stop
         style="stop-opacity:1;stop-color:#5ecbf5"
         offset="0"
         id="stop326" /><stop
         style="stop-opacity:1;stop-color:#294ca7"
         offset="1"
         id="stop328" /></linearGradient><clipPath
       clipPathUnits="userSpaceOnUse"
       id="clipPath340"><path
         d="m 4122.9,1971.96 c -2.74,0.18 -5.48,0.42 -8.27,0.42 -6.56,0 -12.95,-0.67 -19.24,-1.64 l -122.58,583.86 218.47,111.46 c 13.5,-19.39 33.01,-34.23 55.85,-41.89 z m -568.13,-321.53 -131.08,179.53 236.64,4.63 c 1.76,-0.7 3.61,-1.2 5.54,-1.2 1.75,0 3.51,0.31 5.24,0.95 0.35,0.13 0.66,0.33 1,0.49 l 318.91,6.26 c 0.86,-14.83 4.22,-28.98 9.85,-41.95 z m -96.99,-410.06 -258.19,369.69 331.41,8.07 z M 1038,3160.33 1136.84,2936 1074.72,2602.9 909.512,2961.53 Z m 502.9,-318.31 335.44,-346.91 v -247.53 l -487.24,198.04 z m 409.58,106.28 -72.48,-415.69 -317.79,330.58 340.18,123.75 c 11.24,-18.41 28.98,-32.37 50.09,-38.64 z m 1374.12,-26.9 c 19.78,-38.11 58.73,-64.54 104.09,-66.69 l 29.56,-312.76 C 3385.78,2530.6 3324.08,2486.9 3288.3,2426.1 l -521.62,264.13 c 2.5,8.18 3.87,16.85 3.87,25.85 0,4.79 -0.49,9.47 -1.23,14.05 z m 704.06,-983.79 -329.46,238.11 c 23.54,37.19 37.23,81.24 37.23,128.51 0,37.49 -8.59,72.98 -23.88,104.62 l 232.75,130.81 121.14,-577 c -14.15,-5.98 -26.89,-14.56 -37.78,-25.05 z m -569.09,128.68 c 11.81,-1.77 23.91,-2.71 36.21,-2.71 24.33,0 47.79,3.64 69.92,10.35 l 78.72,-210.98 -229.96,-4.81 z m -281.03,-428.39 -266.8,269.74 474.86,-77.77 133.55,-182.89 z m -306.8,267.96 247.27,-249.66 -336.76,111.35 z m -982.57,290.8 210.09,-360.15 -322.7,109.48 z m 527.17,-177.91 -279.01,-187.95 -213.68,366.29 z m 135.46,253.69 c -2.3,-10.66 -4.55,-21.69 -4.55,-33.03 0,-33.36 10.05,-64.2 27.87,-89.57 l -126.94,-110.02 -541.84,196.79 v 242.79 z m 119.29,356.33 9.85,-234.85 c -27.64,-3.81 -52.93,-14.81 -73.98,-31.12 l -272.35,289.5 c 5.22,7.8 8.77,16.78 10.32,26.43 l 251.95,16.66 c 8.46,-35.06 37.82,-61.92 74.21,-66.62 z m 584.16,-329.15 -399.22,-32.61 c -12.57,70.33 -72.13,124.2 -145.11,128.13 l -9.86,234.84 c 21.19,4.56 39.48,16.78 52,33.57 l 521.68,-264.13 c -12.59,-29.2 -19.6,-61.37 -19.6,-95.19 0,-1.54 0.08,-3.07 0.11,-4.61 z m -388.84,-354.24 -384.73,85.48 112.47,96.19 c 28.08,-27.07 66.2,-43.8 108.29,-43.8 85.49,0 154.83,68.7 156.05,153.89 l 399.14,32.63 c 3.87,-27.01 12.25,-52.56 24.32,-75.89 z m 517.73,-85.52 -472.18,77.7 385.41,230.52 c 31.41,-45.69 78.2,-79.95 132.89,-95.4 z m 134.57,1027.61 410.16,-322.64 -231.1,-129.87 c -42.88,66.13 -117.29,109.92 -201.99,109.92 -2.57,0 -5.11,-0.11 -7.65,-0.2 l -29.51,312.1 c 22.96,4.5 43.58,15.4 60.09,30.69 z m 38.3,71.94 h 600.04 l -205.89,-373.95 -412.97,324.85 c 9.56,14.52 16.06,31.18 18.82,49.1 z m -1576.68,-14.54 c 16.66,0.9 32.1,6.35 45.04,15.25 l 199.9,-231.35 c -8.09,-11.04 -12.92,-24.62 -12.92,-39.36 0,-36.89 29.88,-66.77 66.77,-66.77 12.27,0 23.73,3.36 33.6,9.14 l 272.39,-289.54 c -10.73,-12.23 -19.65,-26.06 -26.16,-41.21 l -654.4,209.19 z m -870.01,-419.26 250.82,-102.14 c 0.12,-0.05 0.22,-0.13 0.35,-0.18 0.09,-0.03 0.18,-0.04 0.26,-0.07 l 469.47,-191.18 -530.24,-120.31 z m 237.26,-434.07 513.85,116.59 -113.41,-252.45 z m 828.83,-270.59 275.97,185.91 392.65,-87.05 -93.65,-144.74 z m 1499.78,42.67 -82.39,220.84 c 34.26,15.3 64.31,38.31 87.86,66.92 l 328.07,-237.11 c -8.31,-13.21 -14.2,-28.06 -17.04,-44.02 z m 495.19,865.79 c 0,-12.85 2.29,-25.14 6.31,-36.62 l -185.21,-94.49 187.95,341.35 46.57,-114.1 c -33.22,-19.2 -55.62,-55.02 -55.62,-96.14 z m 111.06,111.07 c -9.57,0 -18.8,-1.34 -27.65,-3.62 l -58.46,143.22 c -0.05,0.12 -0.16,0.22 -0.21,0.35 -0.53,1.21 -1.19,2.37 -2.03,3.41 -0.09,0.1 -0.18,0.18 -0.26,0.28 -0.76,0.88 -1.64,1.67 -2.62,2.37 -0.27,0.2 -0.54,0.39 -0.83,0.57 -0.24,0.16 -0.45,0.68 -0.7,0.83 -0.91,0.49 -1.86,1.52 -2.81,1.52 -0.01,0 -0.03,0 -0.04,0 -1.28,0 -2.59,0.21 -3.9,0.25 -0.17,0.01 -0.32,-0.25 -0.49,-0.25 h -624.38 c -5.59,63.3 -58.68,112.97 -123.43,112.97 -2.44,0 -4.82,-0.23 -7.22,-0.37 l -37.19,234.71 c 30.96,7.92 53.88,35.92 53.88,69.35 0,39.58 -32.08,71.67 -71.66,71.67 -39.58,0 -71.66,-32.09 -71.66,-71.67 0,-35.33 25.6,-64.63 59.25,-70.52 l 37.83,-238.72 c -25.94,-8.05 -48.13,-24.45 -63.69,-45.97 l -342.83,205.69 c 1.76,6.21 2.76,12.75 2.76,19.52 0,39.58 -32.08,71.67 -71.66,71.67 -39.58,0 -71.66,-32.09 -71.66,-71.67 0,-39.58 32.08,-71.66 71.66,-71.66 22.02,0 41.71,9.95 54.85,25.59 l 342.35,-205.4 c -5.75,-14.29 -9,-29.86 -9,-46.21 0,-9.95 1.3,-19.58 3.52,-28.85 l -554.53,-191.01 c -15,27.21 -43.94,45.66 -77.19,45.66 -3.51,0 -6.95,-0.26 -10.36,-0.66 l -65.29,219.64 c 22.23,12.17 37.31,35.77 37.31,62.9 0,39.58 -32.08,71.67 -71.66,71.67 -39.58,0 -71.67,-32.09 -71.67,-71.67 0,-39.58 32.09,-71.66 71.67,-71.66 1.88,0 3.73,0.14 5.57,0.28 l 65.33,-219.74 c -26.4,-13.12 -45.33,-39.01 -48.52,-69.63 l -251.8,-16.65 c -8.26,27.49 -33.71,47.51 -63.9,47.51 -11.28,0 -21.88,-2.82 -31.19,-7.75 l -201.09,232.72 c 10.52,14.52 16.79,32.31 16.79,51.6 0,48.64 -39.45,88.11 -88.08,88.11 -48.67,0 -88.11,-39.47 -88.11,-88.11 0,-6.14 0.64,-12.14 1.83,-17.94 l -360.97,-131.3 c -0.31,-0.11 -0.56,-0.29 -0.85,-0.41 -0.37,-0.17 -0.73,-0.33 -1.08,-0.52 -0.73,-0.39 -1.41,-0.84 -2.05,-1.34 -0.26,-0.19 -0.53,-0.37 -0.77,-0.58 -0.85,-0.75 -1.64,-1.57 -2.3,-2.49 -0.05,-0.08 -0.09,-0.17 -0.14,-0.25 -0.6,-0.86 -1.09,-1.8 -1.5,-2.77 -0.04,-0.12 -0.13,-0.22 -0.18,-0.35 l -161.04,-417.86 -260.58,106.13 67.77,363.38 186.3,63.93 c 14.98,-27.26 43.94,-45.75 77.24,-45.75 48.64,0 88.09,39.48 88.09,88.12 0,48.64 -39.45,88.11 -88.09,88.11 -48.67,0 -88.11,-39.47 -88.11,-88.11 0,-4.76 0.48,-9.41 1.21,-13.96 l -181.61,-62.33 -103.11,234.03 53.54,82.84 c 7.68,-3.08 16.04,-4.82 24.82,-4.82 36.9,0 66.75,29.89 66.75,66.78 0,36.88 -29.85,66.77 -66.75,66.77 -36.88,0 -66.76,-29.89 -66.76,-66.77 0,-17.25 6.59,-32.92 17.33,-44.77 L 879.84,2970.89 c -2.789,-4.32 -3.176,-9.76 -1.027,-14.42 l 399.937,-868.21 c 0.02,-0.04 0.03,-0.07 0.05,-0.1 l 0.01,-0.03 c 0.04,-0.08 0.1,-0.15 0.14,-0.23 0.4,-0.83 0.86,-1.63 1.39,-2.36 0.11,-0.14 0.26,-0.27 0.37,-0.42 0.5,-0.63 1.03,-1.24 1.62,-1.79 0.2,-0.17 0.43,-0.32 0.63,-0.48 0.56,-0.45 1.12,-0.9 1.73,-1.26 0.29,-0.18 0.6,-0.31 0.9,-0.46 0.58,-0.3 1.15,-0.59 1.77,-0.81 0.09,-0.03 0.16,-0.09 0.26,-0.12 l 840,-285 c 0.21,-0.07 0.44,-0.08 0.66,-0.14 0.28,-0.07 0.53,-0.2 0.81,-0.27 0.4,-0.09 0.8,-0.08 1.2,-0.14 0.32,-0.05 0.63,-0.16 0.96,-0.19 l 624.86,-49.86 406.89,-134.54 290.48,-415.91 c 2.84,-4.07 7.46,-6.41 12.29,-6.41 1.04,0 2.08,0.11 3.12,0.32 5.89,1.26 10.47,5.91 11.61,11.83 l 81.67,421.39 454.38,151.47 c 22.68,-29.36 58.13,-48.34 98.08,-48.34 68.48,0 123.98,55.51 123.98,123.98 0,55.31 -36.22,102.1 -86.22,118.09 l 124.22,652.15 c 1.94,-0.1 3.86,-0.29 5.83,-0.29 61.34,0 111.07,49.73 111.07,111.07 0,61.34 -49.73,111.07 -111.07,111.07 z"
         id="path338" /></clipPath><linearGradient
       x1="0"
       y1="0"
       x2="1"
       y2="0"
       gradientUnits="userSpaceOnUse"
       gradientTransform="matrix(3206.67,-1400.01,-1400.01,-3206.67,1078.5,3328.65)"
       spreadMethod="pad"
       id="linearGradient346"><stop
         style="stop-opacity:1;stop-color:#5ecbf5"
         offset="0"
         id="stop342" /><stop
         style="stop-opacity:1;stop-color:#294ca7"
         offset="1"
         id="stop344" /></linearGradient></defs><sodipodi:namedview
     pagecolor="#ffffff"
     bordercolor="#666666"
     borderopacity="1"
     objecttolerance="10"
     gridtolerance="10"
     guidetolerance="10"
     inkscape:pageopacity="0"
     inkscape:pageshadow="2"
     inkscape:window-width="1273"
     inkscape:window-height="769"
     id="namedview5222"
     showgrid="false"
     units="px"
     inkscape:snap-grids="false"
     inkscape:zoom="1"
     inkscape:cx="297.64001"
     inkscape:cy="130.395"
     inkscape:window-x="19"
     inkscape:window-y="0"
     inkscape:window-maximized="0"
     inkscape:current-layer="layer2" /><g
     inkscape:groupmode="layer"
     id="layer1"
     inkscape:label="serli"
     sodipodi:insensitive="true"
     style="display:none"><g
       style="display:inline"
       id="g997"
       transform="matrix(1.0331718,0,0,1.0331718,-12.382299,-23.687072)"><g
         id="g884"><path
           id="path870"
           d="m 71.94,31.321 c -1.109,4.765 -1.66,8.465 -1.66,11.102 0,3.746 1.105,7.617 3.32,11.615 2.214,4 6.13,9.149 11.75,15.44 11.322,12.936 19.179,22.191 23.562,27.763 4.384,5.57 7.94,10.824 10.664,15.757 3.237,5.871 5.559,11.343 6.962,16.4 1.404,5.063 2.107,10.491 2.107,16.272 0,7.232 -1.233,14.272 -3.705,21.124 -2.466,6.846 -5.919,12.871 -10.344,18.06 -11.748,13.781 -29.758,20.673 -54.023,20.673 H 12.296 V 164.275 H 55.08 c 9.111,0 15.623,-2.252 19.542,-6.77 3.149,-3.746 4.727,-7.79 4.727,-12.132 0,-5.026 -1.792,-10.196 -5.364,-15.519 C 70.408,124.536 61.596,113.872 47.547,97.86 41.077,90.369 36.113,84.217 32.665,79.407 29.218,74.597 26.684,70.189 25.066,66.185 22.343,59.46 20.98,53.33 20.98,47.795 c 0,-4.085 0.596,-9.579 1.788,-16.474 z"
           inkscape:connector-curvature="0"
           style="fill:#1768b1" /><rect
           id="rect872"
           height="41.380001"
           width="117.373"
           y="31.320999"
           x="144.326"
           style="fill:#1768b1" /><polygon
           id="polygon874"
           points="191.834,139.752 191.834,164.275 261.699,164.275 261.699,205.527 144.326,205.527 144.326,98.375 261.699,98.375 261.699,139.752 "
           style="fill:#1768b1" /><path
           id="path876"
           d="m 277.403,31.321 h 60.029 c 10.644,0 19.883,0.637 27.718,1.917 5.104,0.765 10,2.447 14.685,5.045 4.682,2.596 8.642,5.807 11.878,9.641 3.235,3.833 5.765,8.346 7.6,13.541 1.829,5.19 2.744,10.641 2.744,16.346 0,10.982 -2.808,20.225 -8.428,27.713 -3.063,4.176 -6.664,7.41 -10.79,9.708 -4.133,2.297 -9.858,4.259 -17.181,5.874 5.958,1.278 10.537,2.832 13.73,4.661 3.193,1.826 5.979,4.487 8.366,7.973 4.338,6.296 6.511,14.802 6.511,25.521 v 46.269 h -47.512 v -41.174 c 0,-8.325 -1.576,-14.274 -4.721,-17.846 -1.965,-2.38 -4.856,-4.098 -8.688,-5.162 -3.833,-1.06 -8.897,-1.594 -15.197,-1.594 H 277.402 V 98.375 h 56.583 c 4.594,0 8.064,-0.339 10.404,-1.021 2.342,-0.684 4.153,-1.831 5.43,-3.453 1.959,-2.38 2.937,-5.19 2.937,-8.427 0,-4 -1.276,-7.194 -3.83,-9.579 -2.469,-2.128 -6.812,-3.192 -13.027,-3.192 h -58.496 z"
           inkscape:connector-curvature="0"
           style="fill:#1768b1" /><polygon
           id="polygon878"
           points="417.768,205.527 417.768,31.321 465.276,31.321 465.276,164.275 525.05,164.275 525.05,205.527 "
           style="fill:#1768b1" /><rect
           id="rect880"
           height="41.380001"
           width="47.513"
           y="31.320999"
           x="540.328"
           style="fill:#1768b1" /><rect
           id="rect882"
           height="107.153"
           width="47.513"
           y="98.375"
           x="540.328"
           style="fill:#1768b1" /></g><g
         id="g948"><path
           id="path886"
           d="m 12.67,257.869 5.741,-26.987 h 3.1 l -5.74,26.987 z"
           inkscape:connector-curvature="0"
           style="fill:#1768b1" /><path
           id="path888"
           d="m 34.857,257.869 2.731,-12.774 c 0.246,-1.279 0.37,-2.164 0.37,-2.659 0,-0.772 -0.219,-1.395 -0.655,-1.862 -0.438,-0.468 -1.136,-0.703 -2.096,-0.703 -1.094,0 -2.163,0.371 -3.203,1.108 -1.04,0.739 -1.956,1.792 -2.75,3.157 -0.794,1.367 -1.393,3.021 -1.799,4.965 l -1.865,8.769 h -3.1 l 4.318,-20.232 h 2.567 l -0.408,3.749 h 0.186 c 1.182,-1.5 2.323,-2.562 3.425,-3.185 1.1,-0.622 2.243,-0.933 3.423,-0.933 1.563,0 2.796,0.429 3.7,1.283 0.906,0.856 1.357,2.052 1.357,3.592 0,0.972 -0.141,2.079 -0.424,3.319 l -2.639,12.406 z"
           inkscape:connector-curvature="0"
           style="fill:#1768b1" /><path
           id="path890"
           d="m 56.674,257.869 2.731,-12.774 c 0.248,-1.279 0.37,-2.164 0.37,-2.659 0,-0.772 -0.219,-1.395 -0.655,-1.862 -0.438,-0.468 -1.135,-0.703 -2.095,-0.703 -1.096,0 -2.163,0.371 -3.203,1.108 -1.04,0.739 -1.958,1.792 -2.751,3.157 -0.793,1.367 -1.393,3.021 -1.799,4.965 l -1.864,8.769 h -3.102 l 4.319,-20.232 h 2.566 l -0.406,3.749 h 0.184 c 1.182,-1.5 2.323,-2.562 3.424,-3.185 1.102,-0.622 2.243,-0.933 3.425,-0.933 1.562,0 2.796,0.429 3.7,1.283 0.904,0.856 1.357,2.052 1.357,3.592 0,0.972 -0.142,2.079 -0.426,3.319 l -2.64,12.406 z"
           inkscape:connector-curvature="0"
           style="fill:#1768b1" /><path
           id="path892"
           d="m 76.904,237.38 c 2.338,0 4.184,0.691 5.537,2.077 1.354,1.382 2.03,3.287 2.03,5.714 0,2.312 -0.442,4.497 -1.328,6.55 -0.886,2.056 -2.086,3.643 -3.6,4.763 -1.514,1.12 -3.224,1.682 -5.131,1.682 -2.363,0 -4.215,-0.697 -5.557,-2.086 -1.34,-1.392 -2.012,-3.293 -2.012,-5.705 0,-2.339 0.45,-4.536 1.348,-6.598 0.898,-2.062 2.11,-3.644 3.637,-4.745 1.526,-1.102 3.218,-1.652 5.076,-1.652 z m 4.356,7.365 c 0,-1.416 -0.385,-2.562 -1.153,-3.444 -0.77,-0.878 -1.812,-1.318 -3.128,-1.318 -1.342,0 -2.545,0.455 -3.609,1.367 -1.065,0.908 -1.889,2.173 -2.473,3.791 -0.584,1.617 -0.877,3.42 -0.877,5.399 0,1.612 0.391,2.858 1.172,3.737 0.78,0.881 1.903,1.321 3.369,1.321 1.28,0 2.43,-0.449 3.452,-1.349 1.02,-0.896 1.817,-2.174 2.391,-3.83 0.571,-1.653 0.856,-3.546 0.856,-5.674 z"
           inkscape:connector-curvature="0"
           style="fill:#1768b1" /><path
           id="path894"
           d="m 90.36,257.869 -2.308,-20.232 h 3.102 l 1.182,11.315 c 0.294,3.176 0.442,5.403 0.442,6.684 h 0.11 c 1.563,-3.384 2.665,-5.669 3.305,-6.85 l 5.999,-11.149 h 3.286 l -10.91,20.232 z"
           inkscape:connector-curvature="0"
           style="fill:#1768b1" /><path
           id="path896"
           d="m 115.5,237.269 c 1.132,0 2.14,0.305 3.026,0.914 0.887,0.61 1.576,1.485 2.067,2.63 h 0.204 l 1.236,-3.176 h 2.345 l -4.301,20.232 h -2.456 l 0.48,-3.857 h -0.148 c -2.202,2.815 -4.521,4.226 -6.958,4.226 -1.71,0 -3.052,-0.609 -4.023,-1.826 -0.972,-1.22 -1.458,-2.886 -1.458,-5.005 0,-2.56 0.436,-4.932 1.31,-7.123 0.874,-2.191 2.08,-3.906 3.619,-5.149 1.538,-1.244 3.224,-1.866 5.057,-1.866 z m -3.507,18.403 c 1.194,0 2.381,-0.567 3.562,-1.709 1.182,-1.138 2.142,-2.62 2.879,-4.446 0.74,-1.829 1.108,-3.658 1.108,-5.493 0,-1.268 -0.344,-2.275 -1.034,-3.027 -0.688,-0.748 -1.594,-1.126 -2.713,-1.126 -1.28,0 -2.469,0.531 -3.571,1.588 -1.102,1.06 -1.967,2.493 -2.594,4.301 -0.626,1.809 -0.94,3.716 -0.94,5.724 0,1.403 0.288,2.45 0.866,3.147 0.579,0.693 1.391,1.041 2.437,1.041 z"
           inkscape:connector-curvature="0"
           style="fill:#1768b1" /><path
           id="path898"
           d="m 132.352,255.708 c 0.678,0 1.563,-0.16 2.658,-0.48 v 2.382 c -0.418,0.172 -0.934,0.32 -1.55,0.443 -0.616,0.124 -1.108,0.185 -1.478,0.185 -1.538,0 -2.715,-0.365 -3.535,-1.099 -0.818,-0.73 -1.227,-1.823 -1.227,-3.275 0,-0.812 0.11,-1.735 0.332,-2.771 l 2.344,-11.11 h -3.174 l 0.258,-1.347 3.415,-1.439 2.306,-4.211 h 1.81 l -1.016,4.651 h 5.057 l -0.48,2.346 h -5.038 l -2.381,11.149 c -0.222,1.068 -0.332,1.881 -0.332,2.436 0,0.688 0.178,1.22 0.534,1.588 0.359,0.367 0.857,0.552 1.497,0.552 z"
           inkscape:connector-curvature="0"
           style="fill:#1768b1" /><path
           id="path900"
           d="m 141.507,257.869 h -3.1 l 4.319,-20.232 h 3.1 z m 2.085,-25.399 c 0,-0.688 0.198,-1.253 0.592,-1.688 0.394,-0.438 0.904,-0.655 1.532,-0.655 1.082,0 1.624,0.553 1.624,1.66 0,0.676 -0.205,1.25 -0.619,1.718 -0.412,0.468 -0.889,0.7 -1.429,0.7 -0.494,0 -0.899,-0.151 -1.22,-0.453 -0.32,-0.302 -0.48,-0.728 -0.48,-1.282 z"
           inkscape:connector-curvature="0"
           style="fill:#1768b1" /><path
           id="path902"
           d="m 158.784,237.38 c 2.337,0 4.183,0.691 5.537,2.077 1.354,1.382 2.03,3.287 2.03,5.714 0,2.312 -0.442,4.497 -1.328,6.55 -0.886,2.056 -2.085,3.643 -3.6,4.763 -1.514,1.12 -3.224,1.682 -5.131,1.682 -2.364,0 -4.215,-0.697 -5.556,-2.086 -1.341,-1.392 -2.013,-3.293 -2.013,-5.705 0,-2.339 0.45,-4.536 1.348,-6.598 0.898,-2.062 2.111,-3.644 3.637,-4.745 1.526,-1.101 3.218,-1.652 5.076,-1.652 z m 4.356,7.365 c 0,-1.416 -0.383,-2.562 -1.153,-3.444 -0.77,-0.878 -1.812,-1.318 -3.128,-1.318 -1.342,0 -2.544,0.455 -3.608,1.367 -1.064,0.908 -1.89,2.173 -2.474,3.791 -0.584,1.617 -0.877,3.42 -0.877,5.399 0,1.612 0.391,2.858 1.173,3.737 0.78,0.881 1.903,1.321 3.369,1.321 1.28,0 2.43,-0.449 3.451,-1.349 1.022,-0.896 1.819,-2.174 2.391,-3.83 0.57,-1.653 0.856,-3.546 0.856,-5.674 z"
           inkscape:connector-curvature="0"
           style="fill:#1768b1" /><path
           id="path904"
           d="m 181.58,257.869 2.732,-12.774 c 0.246,-1.279 0.368,-2.164 0.368,-2.659 0,-0.772 -0.217,-1.395 -0.655,-1.862 -0.437,-0.468 -1.135,-0.703 -2.095,-0.703 -1.096,0 -2.163,0.371 -3.203,1.108 -1.04,0.739 -1.956,1.792 -2.75,3.157 -0.793,1.367 -1.395,3.021 -1.8,4.965 l -1.864,8.769 h -3.102 l 4.319,-20.232 h 2.566 l -0.406,3.749 h 0.184 c 1.182,-1.5 2.323,-2.562 3.424,-3.185 1.102,-0.622 2.243,-0.933 3.424,-0.933 1.562,0 2.797,0.429 3.701,1.283 0.904,0.856 1.357,2.052 1.357,3.592 0,0.972 -0.142,2.079 -0.424,3.319 l -2.64,12.406 z"
           inkscape:connector-curvature="0"
           style="fill:#1768b1" /><path
           id="path906"
           d="m 200.776,249.212 0.646,-2.915 h 8.842 l -0.628,2.915 z"
           inkscape:connector-curvature="0"
           style="fill:#1768b1" /><path
           id="path908"
           d="m 222.962,257.869 5.741,-26.987 h 3.102 l -5.741,26.987 z"
           inkscape:connector-curvature="0"
           style="fill:#1768b1" /><path
           id="path910"
           d="m 245.149,257.869 2.731,-12.774 c 0.246,-1.279 0.37,-2.164 0.37,-2.659 0,-0.772 -0.219,-1.395 -0.655,-1.862 -0.438,-0.468 -1.135,-0.703 -2.095,-0.703 -1.096,0 -2.163,0.371 -3.203,1.108 -1.04,0.739 -1.957,1.792 -2.751,3.157 -0.794,1.367 -1.393,3.021 -1.799,4.965 l -1.864,8.769 h -3.101 l 4.319,-20.232 h 2.565 l -0.406,3.749 h 0.184 c 1.182,-1.5 2.323,-2.562 3.424,-3.185 1.1,-0.622 2.243,-0.933 3.423,-0.933 1.563,0 2.796,0.429 3.702,1.283 0.904,0.856 1.356,2.052 1.356,3.592 0,0.972 -0.142,2.079 -0.425,3.319 l -2.64,12.406 z"
           inkscape:connector-curvature="0"
           style="fill:#1768b1" /><path
           id="path912"
           d="m 273.814,237.637 -0.462,1.977 -3.894,0.444 c 0.504,0.761 0.756,1.732 0.756,2.916 0,2.348 -0.717,4.223 -2.15,5.62 -1.433,1.397 -3.351,2.095 -5.75,2.095 -0.676,0 -1.192,-0.049 -1.55,-0.148 -1.71,0.652 -2.566,1.458 -2.566,2.418 0,0.504 0.204,0.839 0.61,1.005 0.406,0.166 0.996,0.299 1.772,0.398 l 2.16,0.257 c 2.228,0.271 3.842,0.814 4.844,1.627 1.004,0.812 1.505,2.004 1.505,3.58 0,2.264 -0.898,4.018 -2.696,5.261 -1.796,1.243 -4.325,1.862 -7.585,1.862 -2.388,0 -4.257,-0.45 -5.611,-1.355 -1.354,-0.905 -2.031,-2.182 -2.031,-3.83 0,-1.292 0.444,-2.412 1.33,-3.359 0.886,-0.948 2.32,-1.754 4.301,-2.418 -0.96,-0.504 -1.44,-1.249 -1.44,-2.233 0,-0.849 0.314,-1.579 0.94,-2.188 0.628,-0.606 1.501,-1.177 2.622,-1.705 -0.776,-0.396 -1.41,-0.976 -1.902,-1.745 -0.492,-0.77 -0.738,-1.666 -0.738,-2.687 0,-2.387 0.735,-4.343 2.207,-5.87 1.47,-1.524 3.349,-2.288 5.638,-2.288 0.96,0 1.908,0.124 2.843,0.368 h 6.847 z m -19.657,23.83 c 0,0.948 0.4,1.699 1.2,2.252 0.8,0.555 1.986,0.83 3.562,0.83 2.239,0 3.99,-0.39 5.252,-1.171 1.26,-0.782 1.891,-1.887 1.891,-3.314 0,-0.761 -0.332,-1.364 -0.996,-1.809 -0.664,-0.443 -1.798,-0.748 -3.397,-0.923 l -2.934,-0.293 c -1.478,0.308 -2.609,0.848 -3.397,1.624 -0.787,0.775 -1.181,1.708 -1.181,2.804 z m 5.132,-16.152 c 0,1.048 0.276,1.845 0.83,2.391 0.554,0.55 1.324,0.821 2.308,0.821 0.972,0 1.821,-0.257 2.547,-0.773 0.726,-0.519 1.283,-1.229 1.671,-2.134 0.386,-0.902 0.581,-1.883 0.581,-2.942 0,-1.009 -0.272,-1.778 -0.812,-2.307 -0.542,-0.531 -1.318,-0.794 -2.326,-0.794 -0.96,0 -1.801,0.248 -2.521,0.746 -0.72,0.498 -1.28,1.195 -1.68,2.086 -0.399,0.893 -0.598,1.862 -0.598,2.906 z"
           inkscape:connector-curvature="0"
           style="fill:#1768b1" /><path
           id="path914"
           d="m 281.529,258.237 c -2.264,0 -4.042,-0.67 -5.333,-2.011 -1.292,-1.343 -1.938,-3.199 -1.938,-5.574 0,-2.315 0.457,-4.534 1.375,-6.656 0.917,-2.121 2.131,-3.772 3.645,-4.956 1.514,-1.18 3.181,-1.771 5.003,-1.771 1.882,0 3.297,0.41 4.245,1.229 0.946,0.817 1.42,1.959 1.42,3.423 0,2.216 -1.021,3.954 -3.064,5.216 -2.042,1.262 -4.965,1.893 -8.767,1.893 h -0.61 l -0.074,1.476 c 0,1.612 0.379,2.871 1.135,3.773 0.758,0.905 1.929,1.358 3.517,1.358 0.775,0 1.572,-0.112 2.391,-0.332 0.818,-0.224 1.836,-0.628 3.054,-1.22 v 2.695 c -1.156,0.54 -2.178,0.921 -3.063,1.135 -0.886,0.214 -1.864,0.322 -2.936,0.322 z m 2.566,-18.328 c -1.266,0 -2.457,0.577 -3.571,1.733 -1.114,1.158 -1.966,2.765 -2.557,4.82 h 0.222 c 2.806,0 4.955,-0.369 6.451,-1.1 1.496,-0.733 2.242,-1.792 2.242,-3.184 0,-0.652 -0.225,-1.195 -0.673,-1.624 -0.449,-0.43 -1.154,-0.645 -2.114,-0.645 z m -0.848,-5.444 c 0.688,-0.74 1.461,-1.673 2.316,-2.799 0.854,-1.126 1.511,-2.046 1.965,-2.759 h 3.507 v 0.387 c -0.468,0.604 -1.33,1.533 -2.583,2.789 -1.256,1.256 -2.345,2.216 -3.268,2.88 h -1.938 v -0.498 z"
           inkscape:connector-curvature="0"
           style="fill:#1768b1" /><path
           id="path916"
           d="m 304.548,257.869 2.731,-12.774 c 0.244,-1.279 0.368,-2.164 0.368,-2.659 0,-0.772 -0.217,-1.395 -0.655,-1.862 -0.438,-0.468 -1.135,-0.703 -2.095,-0.703 -1.096,0 -2.161,0.371 -3.202,1.108 -1.038,0.739 -1.956,1.792 -2.75,3.157 -0.793,1.367 -1.394,3.021 -1.8,4.965 l -1.864,8.769 h -3.102 l 4.319,-20.232 h 2.567 l -0.408,3.749 h 0.184 c 1.183,-1.5 2.324,-2.562 3.426,-3.185 1.099,-0.622 2.243,-0.933 3.423,-0.933 1.563,0 2.795,0.429 3.701,1.283 0.905,0.856 1.357,2.052 1.357,3.592 0,0.972 -0.142,2.079 -0.425,3.319 l -2.642,12.406 z"
           inkscape:connector-curvature="0"
           style="fill:#1768b1" /><path
           id="path918"
           d="m 317.098,257.869 h -3.1 l 4.319,-20.232 h 3.1 z m 2.086,-25.399 c 0,-0.688 0.196,-1.253 0.592,-1.688 0.393,-0.438 0.905,-0.655 1.53,-0.655 1.084,0 1.627,0.553 1.627,1.66 0,0.676 -0.208,1.25 -0.619,1.718 -0.413,0.468 -0.89,0.7 -1.431,0.7 -0.491,0 -0.899,-0.151 -1.219,-0.453 -0.32,-0.302 -0.48,-0.728 -0.48,-1.282 z"
           inkscape:connector-curvature="0"
           style="fill:#1768b1" /><path
           id="path920"
           d="m 331.589,258.237 c -2.267,0 -4.044,-0.67 -5.336,-2.011 -1.292,-1.343 -1.938,-3.199 -1.938,-5.574 0,-2.315 0.458,-4.534 1.376,-6.656 0.918,-2.121 2.131,-3.772 3.646,-4.956 1.512,-1.18 3.178,-1.771 5.001,-1.771 1.884,0 3.296,0.41 4.244,1.229 0.947,0.817 1.422,1.959 1.422,3.423 0,2.216 -1.021,3.954 -3.064,5.216 -2.043,1.262 -4.965,1.893 -8.768,1.893 h -0.607 l -0.075,1.476 c 0,1.612 0.377,2.871 1.135,3.773 0.758,0.905 1.929,1.358 3.517,1.358 0.775,0 1.572,-0.112 2.391,-0.332 0.818,-0.224 1.835,-0.628 3.055,-1.22 v 2.695 c -1.156,0.54 -2.18,0.921 -3.063,1.135 -0.889,0.214 -1.867,0.322 -2.936,0.322 z m 2.566,-18.328 c -1.268,0 -2.46,0.577 -3.574,1.733 -1.113,1.158 -1.965,2.765 -2.557,4.82 h 0.224 c 2.804,0 4.956,-0.369 6.45,-1.1 1.494,-0.733 2.242,-1.792 2.242,-3.184 0,-0.652 -0.223,-1.195 -0.673,-1.624 -0.449,-0.43 -1.152,-0.645 -2.112,-0.645 z"
           inkscape:connector-curvature="0"
           style="fill:#1768b1" /><path
           id="path922"
           d="m 355.03,237.269 c 0.848,0 1.588,0.088 2.215,0.26 l -0.664,2.768 c -0.651,-0.16 -1.298,-0.238 -1.938,-0.238 -1.12,0 -2.17,0.368 -3.148,1.107 -0.978,0.736 -1.835,1.763 -2.565,3.073 -0.733,1.31 -1.271,2.765 -1.614,4.364 l -1.978,9.267 h -3.1 l 4.319,-20.232 h 2.565 l -0.404,3.749 h 0.184 c 0.885,-1.168 1.618,-2.011 2.194,-2.521 0.58,-0.51 1.187,-0.902 1.82,-1.181 0.635,-0.278 1.338,-0.416 2.114,-0.416 z"
           inkscape:connector-curvature="0"
           style="fill:#1768b1" /><path
           id="path924"
           d="m 360.31,257.869 h -3.101 l 4.316,-20.232 h 3.104 z m 2.085,-25.399 c 0,-0.688 0.196,-1.253 0.592,-1.688 0.393,-0.438 0.902,-0.655 1.53,-0.655 1.084,0 1.624,0.553 1.624,1.66 0,0.676 -0.205,1.25 -0.619,1.718 -0.41,0.468 -0.887,0.7 -1.427,0.7 -0.495,0 -0.9,-0.151 -1.22,-0.453 -0.32,-0.302 -0.48,-0.728 -0.48,-1.282 z"
           inkscape:connector-curvature="0"
           style="fill:#1768b1" /><path
           id="path926"
           d="m 374.798,258.237 c -2.265,0 -4.042,-0.67 -5.334,-2.011 -1.292,-1.343 -1.938,-3.199 -1.938,-5.574 0,-2.315 0.459,-4.534 1.376,-6.656 0.915,-2.121 2.131,-3.772 3.644,-4.956 1.515,-1.18 3.182,-1.771 5.001,-1.771 1.884,0 3.3,0.41 4.247,1.229 0.948,0.817 1.422,1.959 1.422,3.423 0,2.216 -1.023,3.954 -3.063,5.216 -2.044,1.262 -4.966,1.893 -8.769,1.893 h -0.609 l -0.073,1.476 c 0,1.612 0.378,2.871 1.135,3.773 0.758,0.905 1.93,1.358 3.517,1.358 0.776,0 1.573,-0.112 2.391,-0.332 0.818,-0.224 1.835,-0.628 3.055,-1.22 v 2.695 c -1.156,0.54 -2.179,0.921 -3.063,1.135 -0.89,0.214 -1.868,0.322 -2.939,0.322 z m 2.565,-18.328 c -1.268,0 -2.457,0.577 -3.571,1.733 -1.113,1.158 -1.965,2.765 -2.557,4.82 h 0.221 c 2.807,0 4.956,-0.369 6.453,-1.1 1.494,-0.733 2.243,-1.792 2.243,-3.184 0,-0.652 -0.227,-1.195 -0.674,-1.624 -0.449,-0.43 -1.155,-0.645 -2.115,-0.645 z"
           inkscape:connector-curvature="0"
           style="fill:#1768b1" /><path
           id="path928"
           d="m 395.195,249.212 0.646,-2.915 h 8.841 l -0.628,2.915 z"
           inkscape:connector-curvature="0"
           style="fill:#1768b1" /><path
           id="path930"
           d="m 420.556,257.869 h -3.175 l 5.705,-26.987 h 13.564 l -0.553,2.825 h -10.482 l -2.031,9.837 h 9.746 l -0.592,2.825 h -9.765 z"
           inkscape:connector-curvature="0"
           style="fill:#1768b1" /><path
           id="path932"
           d="m 445.512,237.38 c 2.337,0 4.184,0.691 5.536,2.077 1.355,1.382 2.031,3.287 2.031,5.714 0,2.312 -0.443,4.497 -1.328,6.55 -0.888,2.056 -2.086,3.643 -3.601,4.763 -1.513,1.12 -3.224,1.682 -5.132,1.682 -2.363,0 -4.213,-0.697 -5.557,-2.086 -1.34,-1.392 -2.01,-3.293 -2.01,-5.705 0,-2.339 0.449,-4.536 1.346,-6.598 0.899,-2.062 2.113,-3.644 3.638,-4.745 1.528,-1.102 3.217,-1.652 5.077,-1.652 z m 4.355,7.365 c 0,-1.416 -0.386,-2.562 -1.152,-3.444 -0.77,-0.878 -1.814,-1.318 -3.13,-1.318 -1.341,0 -2.545,0.455 -3.607,1.367 -1.065,0.908 -1.89,2.173 -2.475,3.791 -0.583,1.617 -0.876,3.42 -0.876,5.399 0,1.612 0.39,2.858 1.171,3.737 0.782,0.881 1.905,1.321 3.369,1.321 1.279,0 2.43,-0.449 3.453,-1.349 1.02,-0.896 1.816,-2.174 2.391,-3.83 0.57,-1.653 0.856,-3.546 0.856,-5.674 z"
           inkscape:connector-curvature="0"
           style="fill:#1768b1" /><path
           id="path934"
           d="m 468.732,237.269 c 0.849,0 1.588,0.088 2.213,0.26 l -0.664,2.768 c -0.652,-0.16 -1.298,-0.238 -1.938,-0.238 -1.119,0 -2.167,0.368 -3.145,1.107 -0.981,0.736 -1.836,1.763 -2.566,3.073 -0.733,1.31 -1.271,2.765 -1.617,4.364 l -1.975,9.267 h -3.1 l 4.319,-20.232 h 2.565 l -0.407,3.749 h 0.185 c 0.887,-1.168 1.617,-2.011 2.197,-2.521 0.579,-0.51 1.183,-0.902 1.816,-1.181 0.635,-0.278 1.342,-0.416 2.117,-0.416 z"
           inkscape:connector-curvature="0"
           style="fill:#1768b1" /><path
           id="path936"
           d="m 482.668,257.869 2.732,-12.774 c 0.22,-1.155 0.332,-1.985 0.332,-2.493 0,-0.859 -0.19,-1.53 -0.574,-2.01 -0.38,-0.48 -1.032,-0.722 -1.956,-0.722 -1.032,0 -2.04,0.371 -3.018,1.108 -0.979,0.739 -1.839,1.796 -2.584,3.166 -0.746,1.373 -1.319,3.024 -1.727,4.956 l -1.862,8.769 h -3.103 l 4.318,-20.232 h 2.566 l -0.404,3.749 h 0.184 c 1.071,-1.464 2.137,-2.518 3.202,-3.157 1.062,-0.64 2.161,-0.96 3.294,-0.96 1.391,0 2.463,0.401 3.211,1.201 0.752,0.8 1.195,1.914 1.331,3.342 h 0.148 c 1.056,-1.54 2.182,-2.681 3.377,-3.426 1.192,-0.743 2.399,-1.117 3.616,-1.117 1.563,0 2.774,0.42 3.628,1.256 0.854,0.836 1.283,2.056 1.283,3.655 0,0.836 -0.136,1.932 -0.407,3.283 l -2.656,12.406 h -3.14 l 2.731,-12.774 c 0.248,-1.279 0.372,-2.179 0.372,-2.695 0,-0.764 -0.215,-1.373 -0.638,-1.835 -0.425,-0.462 -1.092,-0.694 -2.004,-0.694 -0.996,0 -1.979,0.359 -2.952,1.071 -0.972,0.716 -1.826,1.727 -2.557,3.037 -0.733,1.31 -1.288,2.864 -1.672,4.66 l -1.974,9.23 z"
           inkscape:connector-curvature="0"
           style="fill:#1768b1" /><path
           id="path938"
           d="m 514.582,237.269 c 1.132,0 2.14,0.305 3.027,0.914 0.884,0.61 1.575,1.485 2.067,2.63 h 0.202 l 1.237,-3.176 h 2.343 l -4.302,20.232 h -2.453 l 0.479,-3.857 h -0.147 c -2.204,2.815 -4.522,4.226 -6.958,4.226 -1.711,0 -3.052,-0.609 -4.023,-1.826 -0.972,-1.22 -1.458,-2.886 -1.458,-5.005 0,-2.56 0.435,-4.932 1.311,-7.123 0.872,-2.191 2.079,-3.906 3.615,-5.149 1.54,-1.244 3.224,-1.866 5.06,-1.866 z m -3.508,18.403 c 1.192,0 2.382,-0.567 3.562,-1.709 1.184,-1.138 2.144,-2.62 2.88,-4.446 0.739,-1.829 1.107,-3.658 1.107,-5.493 0,-1.268 -0.344,-2.275 -1.032,-3.027 -0.691,-0.748 -1.594,-1.126 -2.713,-1.126 -1.28,0 -2.473,0.531 -3.574,1.588 -1.099,1.06 -1.965,2.493 -2.593,4.301 -0.628,1.809 -0.941,3.716 -0.941,5.724 0,1.403 0.289,2.45 0.869,3.147 0.576,0.693 1.388,1.041 2.435,1.041 z"
           inkscape:connector-curvature="0"
           style="fill:#1768b1" /><path
           id="path940"
           d="m 531.434,255.708 c 0.676,0 1.563,-0.16 2.659,-0.48 v 2.382 c -0.42,0.172 -0.936,0.32 -1.552,0.443 -0.615,0.124 -1.107,0.185 -1.476,0.185 -1.54,0 -2.717,-0.365 -3.535,-1.099 -0.817,-0.73 -1.229,-1.823 -1.229,-3.275 0,-0.812 0.112,-1.735 0.332,-2.771 l 2.346,-11.11 h -3.176 l 0.257,-1.347 3.417,-1.439 2.306,-4.211 h 1.809 l -1.015,4.651 h 5.059 l -0.479,2.346 h -5.041 l -2.381,11.149 c -0.221,1.068 -0.332,1.881 -0.332,2.436 0,0.688 0.178,1.22 0.537,1.588 0.355,0.367 0.853,0.552 1.494,0.552 z"
           inkscape:connector-curvature="0"
           style="fill:#1768b1" /><path
           id="path942"
           d="m 540.588,257.869 h -3.1 l 4.319,-20.232 h 3.1 z m 2.086,-25.399 c 0,-0.688 0.196,-1.253 0.592,-1.688 0.393,-0.438 0.905,-0.655 1.53,-0.655 1.083,0 1.627,0.553 1.627,1.66 0,0.676 -0.209,1.25 -0.619,1.718 -0.413,0.468 -0.891,0.7 -1.431,0.7 -0.492,0 -0.899,-0.151 -1.22,-0.453 -0.319,-0.302 -0.479,-0.728 -0.479,-1.282 z"
           inkscape:connector-curvature="0"
           style="fill:#1768b1" /><path
           id="path944"
           d="m 557.865,237.38 c 2.339,0 4.184,0.691 5.539,2.077 1.352,1.382 2.028,3.287 2.028,5.714 0,2.312 -0.444,4.497 -1.328,6.55 -0.888,2.056 -2.086,3.643 -3.602,4.763 -1.512,1.12 -3.224,1.682 -5.131,1.682 -2.36,0 -4.214,-0.697 -5.554,-2.086 -1.343,-1.392 -2.014,-3.293 -2.014,-5.705 0,-2.339 0.45,-4.536 1.35,-6.598 0.896,-2.062 2.109,-3.644 3.634,-4.745 1.528,-1.102 3.219,-1.652 5.078,-1.652 z m 4.356,7.365 c 0,-1.416 -0.383,-2.562 -1.153,-3.444 -0.77,-0.878 -1.811,-1.318 -3.13,-1.318 -1.34,0 -2.541,0.455 -3.606,1.367 -1.065,0.908 -1.89,2.173 -2.476,3.791 -0.582,1.617 -0.875,3.42 -0.875,5.399 0,1.612 0.39,2.858 1.171,3.737 0.782,0.881 1.904,1.321 3.368,1.321 1.28,0 2.434,-0.449 3.453,-1.349 1.021,-0.896 1.817,-2.174 2.391,-3.83 0.57,-1.653 0.857,-3.546 0.857,-5.674 z"
           inkscape:connector-curvature="0"
           style="fill:#1768b1" /><path
           id="path946"
           d="m 580.66,257.869 2.731,-12.774 c 0.248,-1.279 0.371,-2.164 0.371,-2.659 0,-0.772 -0.22,-1.395 -0.654,-1.862 -0.438,-0.468 -1.139,-0.703 -2.099,-0.703 -1.092,0 -2.161,0.371 -3.202,1.108 -1.038,0.739 -1.956,1.792 -2.75,3.157 -0.794,1.367 -1.391,3.021 -1.799,4.965 l -1.865,8.769 h -3.1 l 4.319,-20.232 h 2.565 l -0.404,3.749 h 0.184 c 1.181,-1.5 2.321,-2.562 3.423,-3.185 1.103,-0.622 2.243,-0.933 3.423,-0.933 1.563,0 2.799,0.429 3.704,1.283 0.902,0.856 1.355,2.052 1.355,3.592 0,0.972 -0.143,2.079 -0.426,3.319 l -2.639,12.406 z"
           inkscape:connector-curvature="0"
           style="fill:#1768b1" /></g></g></g><g
     inkscape:groupmode="layer"
     id="layer2"
     inkscape:label="codeworks"><g
       id="g10"
       transform="matrix(0.60726087,0,0,-0.60726087,149.033,257.75492)"><g
         id="g12"
         transform="scale(0.1)"><g
           id="g14"><g
             id="g16"
             clip-path="url(#clipPath20)"><path
               d="m 3786.79,3319.19 c -48.66,0 -88.11,-39.48 -88.11,-88.12 0,-48.63 39.45,-88.1 88.11,-88.1 48.64,0 88.08,39.47 88.08,88.1 0,48.64 -39.44,88.12 -88.08,88.12"
               style="fill:url(#linearGradient26);fill-opacity:1;fill-rule:nonzero;stroke:none"
               id="path28"
               inkscape:connector-curvature="0" /></g></g><g
           id="g30"><g
             id="g32"
             clip-path="url(#clipPath36)"><path
               d="m 2894.32,2933.99 c 36.89,0 66.74,29.89 66.74,66.77 0,36.89 -29.85,66.77 -66.74,66.77 -36.89,0 -66.77,-29.88 -66.77,-66.77 0,-36.88 29.88,-66.77 66.77,-66.77"
               style="fill:url(#linearGradient42);fill-opacity:1;fill-rule:nonzero;stroke:none"
               id="path44"
               inkscape:connector-curvature="0" /></g></g><g
           id="g46"><g
             id="g48"
             clip-path="url(#clipPath52)"><path
               d="m 3067.06,3480.99 c 36.88,0 66.75,29.89 66.75,66.77 0,36.89 -29.87,66.77 -66.75,66.77 -36.89,0 -66.78,-29.88 -66.78,-66.77 0,-36.88 29.89,-66.77 66.78,-66.77"
               style="fill:url(#linearGradient58);fill-opacity:1;fill-rule:nonzero;stroke:none"
               id="path60"
               inkscape:connector-curvature="0" /></g></g><g
           id="g62"><g
             id="g64"
             clip-path="url(#clipPath68)"><path
               d="m 2079.02,3288.66 c 0,-36.89 29.88,-66.78 66.77,-66.78 36.89,0 66.74,29.89 66.74,66.78 0,36.88 -29.85,66.77 -66.74,66.77 -36.89,0 -66.77,-29.89 -66.77,-66.77"
               style="fill:url(#linearGradient74);fill-opacity:1;fill-rule:nonzero;stroke:none"
               id="path76"
               inkscape:connector-curvature="0" /></g></g><g
           id="g78"><g
             id="g80"
             clip-path="url(#clipPath84)"><path
               d="m 1483.63,3250.67 c 36.89,0 66.75,29.88 66.75,66.78 0,36.88 -29.86,66.77 -66.75,66.77 -36.88,0 -66.76,-29.89 -66.76,-66.77 0,-36.9 29.88,-66.78 66.76,-66.78"
               style="fill:url(#linearGradient90);fill-opacity:1;fill-rule:nonzero;stroke:none"
               id="path92"
               inkscape:connector-curvature="0" /></g></g><g
           id="g94"><g
             id="g96"
             clip-path="url(#clipPath100)"><path
               d="m 1742.73,3624.94 c 36.89,0 66.75,29.88 66.75,66.76 0,36.89 -29.86,66.78 -66.75,66.78 -36.88,0 -66.76,-29.89 -66.76,-66.78 0,-36.88 29.88,-66.76 66.76,-66.76"
               style="fill:url(#linearGradient106);fill-opacity:1;fill-rule:nonzero;stroke:none"
               id="path108"
               inkscape:connector-curvature="0" /></g></g><g
           id="g110"><g
             id="g112"
             clip-path="url(#clipPath116)"><path
               d="m 2721.58,3826.46 c 36.89,0 66.74,29.89 66.74,66.78 0,36.88 -29.85,66.76 -66.74,66.76 -36.89,0 -66.78,-29.88 -66.78,-66.76 0,-36.89 29.89,-66.78 66.78,-66.78"
               style="fill:url(#linearGradient122);fill-opacity:1;fill-rule:nonzero;stroke:none"
               id="path124"
               inkscape:connector-curvature="0" /></g></g><g
           id="g126"><g
             id="g128"
             clip-path="url(#clipPath132)"><path
               d="m 3182.22,3884.04 c 36.88,0 66.74,29.88 66.74,66.77 0,36.89 -29.86,66.77 -66.74,66.77 -36.9,0 -66.78,-29.88 -66.78,-66.77 0,-36.89 29.88,-66.77 66.78,-66.77"
               style="fill:url(#linearGradient138);fill-opacity:1;fill-rule:nonzero;stroke:none"
               id="path140"
               inkscape:connector-curvature="0" /></g></g><g
           id="g142"><g
             id="g144"
             clip-path="url(#clipPath148)"><path
               d="m 3758,3682.51 c 36.88,0 66.75,29.89 66.75,66.78 0,36.89 -29.87,66.77 -66.75,66.77 -36.89,0 -66.78,-29.88 -66.78,-66.77 0,-36.89 29.89,-66.78 66.78,-66.78"
               style="fill:url(#linearGradient154);fill-opacity:1;fill-rule:nonzero;stroke:none"
               id="path156"
               inkscape:connector-curvature="0" /></g></g><g
           id="g158"><g
             id="g160"
             clip-path="url(#clipPath164)"><path
               d="m 4074.68,3480.99 c 36.89,0 66.75,29.89 66.75,66.77 0,36.89 -29.86,66.77 -66.75,66.77 -36.88,0 -66.77,-29.88 -66.77,-66.77 0,-36.88 29.89,-66.77 66.77,-66.77"
               style="fill:url(#linearGradient170);fill-opacity:1;fill-rule:nonzero;stroke:none"
               id="path172"
               inkscape:connector-curvature="0" /></g></g><g
           id="g174"><g
             id="g176"
             clip-path="url(#clipPath180)"><path
               d="m 4247.42,3851.01 c 23.34,0 42.23,18.89 42.23,42.23 0,23.33 -18.89,42.22 -42.23,42.22 -23.34,0 -42.26,-18.89 -42.26,-42.22 0,-23.34 18.92,-42.23 42.26,-42.23"
               style="fill:url(#linearGradient186);fill-opacity:1;fill-rule:nonzero;stroke:none"
               id="path188"
               inkscape:connector-curvature="0" /></g></g><g
           id="g190"><g
             id="g192"
             clip-path="url(#clipPath196)"><path
               d="m 4420.17,3417.25 c -23.34,0 -42.27,-18.89 -42.27,-42.23 0,-23.32 18.93,-42.22 42.27,-42.22 23.32,0 42.21,18.9 42.21,42.22 0,23.34 -18.89,42.23 -42.21,42.23"
               style="fill:url(#linearGradient202);fill-opacity:1;fill-rule:nonzero;stroke:none"
               id="path204"
               inkscape:connector-curvature="0" /></g></g><g
           id="g206"><g
             id="g208"
             clip-path="url(#clipPath212)"><path
               d="m 4477.74,4194.57 c -23.34,0 -42.26,-18.9 -42.26,-42.23 0,-23.34 18.92,-42.23 42.26,-42.23 23.33,0 42.22,18.89 42.22,42.23 0,23.33 -18.89,42.23 -42.22,42.23"
               style="fill:url(#linearGradient218);fill-opacity:1;fill-rule:nonzero;stroke:none"
               id="path220"
               inkscape:connector-curvature="0" /></g></g><g
           id="g222"><g
             id="g224"
             clip-path="url(#clipPath228)"><path
               d="m 3815.58,4110.11 c 23.34,0 42.23,18.89 42.23,42.23 0,23.33 -18.89,42.23 -42.23,42.23 -23.33,0 -42.25,-18.9 -42.25,-42.23 0,-23.34 18.92,-42.23 42.25,-42.23"
               style="fill:url(#linearGradient234);fill-opacity:1;fill-rule:nonzero;stroke:none"
               id="path236"
               inkscape:connector-curvature="0" /></g></g><g
           id="g238"><g
             id="g240"
             clip-path="url(#clipPath244)"><path
               d="m 3383.73,3707.06 c 23.34,0 42.24,18.89 42.24,42.23 0,23.33 -18.9,42.22 -42.24,42.22 -23.32,0 -42.26,-18.89 -42.26,-42.22 0,-23.34 18.94,-42.23 42.26,-42.23"
               style="fill:url(#linearGradient250);fill-opacity:1;fill-rule:nonzero;stroke:none"
               id="path252"
               inkscape:connector-curvature="0" /></g></g><g
           id="g254"><g
             id="g256"
             clip-path="url(#clipPath260)"><path
               d="m 2692.79,3505.53 c 23.33,0 42.23,18.9 42.23,42.23 0,23.33 -18.9,42.23 -42.23,42.23 -23.34,0 -42.26,-18.9 -42.26,-42.23 0,-23.33 18.92,-42.23 42.26,-42.23"
               style="fill:url(#linearGradient266);fill-opacity:1;fill-rule:nonzero;stroke:none"
               id="path268"
               inkscape:connector-curvature="0" /></g></g><g
           id="g270"><g
             id="g272"
             clip-path="url(#clipPath276)"><path
               d="m 2117,3707.06 c 23.33,0 42.22,18.89 42.22,42.23 0,23.33 -18.89,42.22 -42.22,42.22 -23.33,0 -42.26,-18.89 -42.26,-42.22 0,-23.34 18.93,-42.23 42.26,-42.23"
               style="fill:url(#linearGradient282);fill-opacity:1;fill-rule:nonzero;stroke:none"
               id="path284"
               inkscape:connector-curvature="0" /></g></g><g
           id="g286"><g
             id="g288"
             clip-path="url(#clipPath292)"><path
               d="m 1786.85,3403.81 c 0,-23.33 18.92,-42.22 42.26,-42.22 23.33,0 42.22,18.89 42.22,42.22 0,23.34 -18.89,42.23 -42.22,42.23 -23.34,0 -42.26,-18.89 -42.26,-42.23"
               style="fill:url(#linearGradient298);fill-opacity:1;fill-rule:nonzero;stroke:none"
               id="path300"
               inkscape:connector-curvature="0" /></g></g><g
           id="g302"><g
             id="g304"
             clip-path="url(#clipPath308)"><path
               d="m 2347.31,3402.07 c 48.64,0 88.09,39.48 88.09,88.11 0,48.64 -39.45,88.12 -88.09,88.12 -48.66,0 -88.11,-39.48 -88.11,-88.12 0,-48.63 39.45,-88.11 88.11,-88.11"
               style="fill:url(#linearGradient314);fill-opacity:1;fill-rule:nonzero;stroke:none"
               id="path316"
               inkscape:connector-curvature="0" /></g></g><g
           id="g318"><g
             id="g320"
             clip-path="url(#clipPath324)"><path
               d="m 4088.97,3202.29 c 0,-39.81 32.27,-72.06 72.08,-72.06 39.81,0 72.03,32.25 72.03,72.06 0,39.81 -32.22,72.06 -72.03,72.06 -39.81,0 -72.08,-32.25 -72.08,-72.06"
               style="fill:url(#linearGradient330);fill-opacity:1;fill-rule:nonzero;stroke:none"
               id="path332"
               inkscape:connector-curvature="0" /></g></g><g
           id="g334"><g
             id="g336"
             clip-path="url(#clipPath340)"><path
               d="m 4122.9,1971.96 c -2.74,0.18 -5.48,0.42 -8.27,0.42 -6.56,0 -12.95,-0.67 -19.24,-1.64 l -122.58,583.86 218.47,111.46 c 13.5,-19.39 33.01,-34.23 55.85,-41.89 z m -568.13,-321.53 -131.08,179.53 236.64,4.63 c 1.76,-0.7 3.61,-1.2 5.54,-1.2 1.75,0 3.51,0.31 5.24,0.95 0.35,0.13 0.66,0.33 1,0.49 l 318.91,6.26 c 0.86,-14.83 4.22,-28.98 9.85,-41.95 z m -96.99,-410.06 -258.19,369.69 331.41,8.07 z M 1038,3160.33 1136.84,2936 1074.72,2602.9 909.512,2961.53 Z m 502.9,-318.31 335.44,-346.91 v -247.53 l -487.24,198.04 z m 409.58,106.28 -72.48,-415.69 -317.79,330.58 340.18,123.75 c 11.24,-18.41 28.98,-32.37 50.09,-38.64 z m 1374.12,-26.9 c 19.78,-38.11 58.73,-64.54 104.09,-66.69 l 29.56,-312.76 C 3385.78,2530.6 3324.08,2486.9 3288.3,2426.1 l -521.62,264.13 c 2.5,8.18 3.87,16.85 3.87,25.85 0,4.79 -0.49,9.47 -1.23,14.05 z m 704.06,-983.79 -329.46,238.11 c 23.54,37.19 37.23,81.24 37.23,128.51 0,37.49 -8.59,72.98 -23.88,104.62 l 232.75,130.81 121.14,-577 c -14.15,-5.98 -26.89,-14.56 -37.78,-25.05 z m -569.09,128.68 c 11.81,-1.77 23.91,-2.71 36.21,-2.71 24.33,0 47.79,3.64 69.92,10.35 l 78.72,-210.98 -229.96,-4.81 z m -281.03,-428.39 -266.8,269.74 474.86,-77.77 133.55,-182.89 z m -306.8,267.96 247.27,-249.66 -336.76,111.35 z m -982.57,290.8 210.09,-360.15 -322.7,109.48 z m 527.17,-177.91 -279.01,-187.95 -213.68,366.29 z m 135.46,253.69 c -2.3,-10.66 -4.55,-21.69 -4.55,-33.03 0,-33.36 10.05,-64.2 27.87,-89.57 l -126.94,-110.02 -541.84,196.79 v 242.79 z m 119.29,356.33 9.85,-234.85 c -27.64,-3.81 -52.93,-14.81 -73.98,-31.12 l -272.35,289.5 c 5.22,7.8 8.77,16.78 10.32,26.43 l 251.95,16.66 c 8.46,-35.06 37.82,-61.92 74.21,-66.62 z m 584.16,-329.15 -399.22,-32.61 c -12.57,70.33 -72.13,124.2 -145.11,128.13 l -9.86,234.84 c 21.19,4.56 39.48,16.78 52,33.57 l 521.68,-264.13 c -12.59,-29.2 -19.6,-61.37 -19.6,-95.19 0,-1.54 0.08,-3.07 0.11,-4.61 z m -388.84,-354.24 -384.73,85.48 112.47,96.19 c 28.08,-27.07 66.2,-43.8 108.29,-43.8 85.49,0 154.83,68.7 156.05,153.89 l 399.14,32.63 c 3.87,-27.01 12.25,-52.56 24.32,-75.89 z m 517.73,-85.52 -472.18,77.7 385.41,230.52 c 31.41,-45.69 78.2,-79.95 132.89,-95.4 z m 134.57,1027.61 410.16,-322.64 -231.1,-129.87 c -42.88,66.13 -117.29,109.92 -201.99,109.92 -2.57,0 -5.11,-0.11 -7.65,-0.2 l -29.51,312.1 c 22.96,4.5 43.58,15.4 60.09,30.69 z m 38.3,71.94 h 600.04 l -205.89,-373.95 -412.97,324.85 c 9.56,14.52 16.06,31.18 18.82,49.1 z m -1576.68,-14.54 c 16.66,0.9 32.1,6.35 45.04,15.25 l 199.9,-231.35 c -8.09,-11.04 -12.92,-24.62 -12.92,-39.36 0,-36.89 29.88,-66.77 66.77,-66.77 12.27,0 23.73,3.36 33.6,9.14 l 272.39,-289.54 c -10.73,-12.23 -19.65,-26.06 -26.16,-41.21 l -654.4,209.19 z m -870.01,-419.26 250.82,-102.14 c 0.12,-0.05 0.22,-0.13 0.35,-0.18 0.09,-0.03 0.18,-0.04 0.26,-0.07 l 469.47,-191.18 -530.24,-120.31 z m 237.26,-434.07 513.85,116.59 -113.41,-252.45 z m 828.83,-270.59 275.97,185.91 392.65,-87.05 -93.65,-144.74 z m 1499.78,42.67 -82.39,220.84 c 34.26,15.3 64.31,38.31 87.86,66.92 l 328.07,-237.11 c -8.31,-13.21 -14.2,-28.06 -17.04,-44.02 z m 495.19,865.79 c 0,-12.85 2.29,-25.14 6.31,-36.62 l -185.21,-94.49 187.95,341.35 46.57,-114.1 c -33.22,-19.2 -55.62,-55.02 -55.62,-96.14 z m 111.06,111.07 c -9.57,0 -18.8,-1.34 -27.65,-3.62 l -58.46,143.22 c -0.05,0.12 -0.16,0.22 -0.21,0.35 -0.53,1.21 -1.19,2.37 -2.03,3.41 -0.09,0.1 -0.18,0.18 -0.26,0.28 -0.76,0.88 -1.64,1.67 -2.62,2.37 -0.27,0.2 -0.54,0.39 -0.83,0.57 -0.24,0.16 -0.45,0.68 -0.7,0.83 -0.91,0.49 -1.86,1.52 -2.81,1.52 -0.01,0 -0.03,0 -0.04,0 -1.28,0 -2.59,0.21 -3.9,0.25 -0.17,0.01 -0.32,-0.25 -0.49,-0.25 h -624.38 c -5.59,63.3 -58.68,112.97 -123.43,112.97 -2.44,0 -4.82,-0.23 -7.22,-0.37 l -37.19,234.71 c 30.96,7.92 53.88,35.92 53.88,69.35 0,39.58 -32.08,71.67 -71.66,71.67 -39.58,0 -71.66,-32.09 -71.66,-71.67 0,-35.33 25.6,-64.63 59.25,-70.52 l 37.83,-238.72 c -25.94,-8.05 -48.13,-24.45 -63.69,-45.97 l -342.83,205.69 c 1.76,6.21 2.76,12.75 2.76,19.52 0,39.58 -32.08,71.67 -71.66,71.67 -39.58,0 -71.66,-32.09 -71.66,-71.67 0,-39.58 32.08,-71.66 71.66,-71.66 22.02,0 41.71,9.95 54.85,25.59 l 342.35,-205.4 c -5.75,-14.29 -9,-29.86 -9,-46.21 0,-9.95 1.3,-19.58 3.52,-28.85 l -554.53,-191.01 c -15,27.21 -43.94,45.66 -77.19,45.66 -3.51,0 -6.95,-0.26 -10.36,-0.66 l -65.29,219.64 c 22.23,12.17 37.31,35.77 37.31,62.9 0,39.58 -32.08,71.67 -71.66,71.67 -39.58,0 -71.67,-32.09 -71.67,-71.67 0,-39.58 32.09,-71.66 71.67,-71.66 1.88,0 3.73,0.14 5.57,0.28 l 65.33,-219.74 c -26.4,-13.12 -45.33,-39.01 -48.52,-69.63 l -251.8,-16.65 c -8.26,27.49 -33.71,47.51 -63.9,47.51 -11.28,0 -21.88,-2.82 -31.19,-7.75 l -201.09,232.72 c 10.52,14.52 16.79,32.31 16.79,51.6 0,48.64 -39.45,88.11 -88.08,88.11 -48.67,0 -88.11,-39.47 -88.11,-88.11 0,-6.14 0.64,-12.14 1.83,-17.94 l -360.97,-131.3 c -0.31,-0.11 -0.56,-0.29 -0.85,-0.41 -0.37,-0.17 -0.73,-0.33 -1.08,-0.52 -0.73,-0.39 -1.41,-0.84 -2.05,-1.34 -0.26,-0.19 -0.53,-0.37 -0.77,-0.58 -0.85,-0.75 -1.64,-1.57 -2.3,-2.49 -0.05,-0.08 -0.09,-0.17 -0.14,-0.25 -0.6,-0.86 -1.09,-1.8 -1.5,-2.77 -0.04,-0.12 -0.13,-0.22 -0.18,-0.35 l -161.04,-417.86 -260.58,106.13 67.77,363.38 186.3,63.93 c 14.98,-27.26 43.94,-45.75 77.24,-45.75 48.64,0 88.09,39.48 88.09,88.12 0,48.64 -39.45,88.11 -88.09,88.11 -48.67,0 -88.11,-39.47 -88.11,-88.11 0,-4.76 0.48,-9.41 1.21,-13.96 l -181.61,-62.33 -103.11,234.03 53.54,82.84 c 7.68,-3.08 16.04,-4.82 24.82,-4.82 36.9,0 66.75,29.89 66.75,66.78 0,36.88 -29.85,66.77 -66.75,66.77 -36.88,0 -66.76,-29.89 -66.76,-66.77 0,-17.25 6.59,-32.92 17.33,-44.77 L 879.84,2970.89 c -2.789,-4.32 -3.176,-9.76 -1.027,-14.42 l 399.937,-868.21 c 0.02,-0.04 0.03,-0.07 0.05,-0.1 l 0.01,-0.03 c 0.04,-0.08 0.1,-0.15 0.14,-0.23 0.4,-0.83 0.86,-1.63 1.39,-2.36 0.11,-0.14 0.26,-0.27 0.37,-0.42 0.5,-0.63 1.03,-1.24 1.62,-1.79 0.2,-0.17 0.43,-0.32 0.63,-0.48 0.56,-0.45 1.12,-0.9 1.73,-1.26 0.29,-0.18 0.6,-0.31 0.9,-0.46 0.58,-0.3 1.15,-0.59 1.77,-0.81 0.09,-0.03 0.16,-0.09 0.26,-0.12 l 840,-285 c 0.21,-0.07 0.44,-0.08 0.66,-0.14 0.28,-0.07 0.53,-0.2 0.81,-0.27 0.4,-0.09 0.8,-0.08 1.2,-0.14 0.32,-0.05 0.63,-0.16 0.96,-0.19 l 624.86,-49.86 406.89,-134.54 290.48,-415.91 c 2.84,-4.07 7.46,-6.41 12.29,-6.41 1.04,0 2.08,0.11 3.12,0.32 5.89,1.26 10.47,5.91 11.61,11.83 l 81.67,421.39 454.38,151.47 c 22.68,-29.36 58.13,-48.34 98.08,-48.34 68.48,0 123.98,55.51 123.98,123.98 0,55.31 -36.22,102.1 -86.22,118.09 l 124.22,652.15 c 1.94,-0.1 3.86,-0.29 5.83,-0.29 61.34,0 111.07,49.73 111.07,111.07 0,61.34 -49.73,111.07 -111.07,111.07"
               style="fill:url(#linearGradient346);fill-opacity:1;fill-rule:nonzero;stroke:none"
               id="path348"
               inkscape:connector-curvature="0" /></g></g><path
           d="m 632.066,310.32 1.118,-3.699 C 634.672,210.789 608.129,135.73 553.547,81.4414 498.949,27.1484 423.617,0 327.527,0 229.566,0 150.488,34.6484 90.293,103.961 30.0938,173.262 0,262.82 0,372.629 v 178.293 c 0,109.398 29.3438,198.957 88.0508,268.656 58.6952,69.723 135.7222,104.57 231.0662,104.57 99.453,0 177.227,-26.726 233.309,-80.187 56.082,-53.481 83.371,-128.742 81.883,-225.801 l -1.125,-3.699 H 473.906 c 0,57.578 -12.617,100.461 -37.855,128.629 -25.235,28.16 -64.215,42.262 -116.934,42.262 -48.984,0 -87.215,-21.704 -114.691,-65.09 -27.485,-43.391 -41.223,-99.434 -41.223,-168.114 V 372.629 c 0,-69.098 14.488,-125.449 43.469,-169.039 28.969,-43.602 69.262,-65.391 120.855,-65.391 48.977,0 85.532,14.082 109.645,42.25 24.117,28.18 36.172,71.469 36.172,129.871 h 158.722"
           style="fill:#040606;fill-opacity:1;fill-rule:nonzero;stroke:none"
           id="path350"
           inkscape:connector-curvature="0" /><path
           d="m 864.543,339.93 c 0,-60.871 9.715,-109.711 29.156,-146.52 19.442,-36.808 50.848,-55.211 94.227,-55.211 42.244,0 73.184,18.5 92.814,55.531 19.63,37.008 29.45,85.75 29.45,146.2 v 12.961 c 0,59.218 -9.92,107.539 -29.73,144.98 -19.82,37.418 -51.04,56.129 -93.659,56.129 -42.254,0 -73.188,-18.809 -92.817,-56.449 -19.629,-37.621 -29.441,-85.86 -29.441,-144.66 z M 701.34,352.891 c 0,99.531 25.23,181.058 75.711,244.597 50.472,63.551 120.387,95.321 209.75,95.321 89.729,0 160.029,-31.668 210.879,-95 50.84,-63.34 76.27,-144.981 76.27,-244.918 V 339.93 c 0,-100.36 -25.33,-182.09 -75.99,-245.2308 C 1147.29,31.5703 1077.28,0 987.926,0 898.188,0 827.988,31.5703 777.328,94.6992 726.66,157.84 701.34,239.57 701.34,339.93 v 12.961"
           style="fill:#040606;fill-opacity:1;fill-rule:nonzero;stroke:none"
           id="path352"
           inkscape:connector-curvature="0" /><path
           d="m 1501.38,328.211 c 0,-58.402 8.97,-104.371 26.92,-137.883 17.95,-33.527 47.11,-50.277 87.49,-50.277 23.56,0 44.11,5.25 61.69,15.73 17.57,10.481 31.97,25.809 43.19,45.957 v 284.403 c -11.22,20.968 -25.52,37.32 -42.91,49.05 -17.38,11.719 -37.67,17.579 -60.85,17.579 -40.01,0 -69.26,-19.54 -87.77,-58.61 -18.51,-39.082 -27.76,-90.07 -27.76,-152.988 z m -163.2,12.961 c 0,105.277 20.65,190.207 61.97,254.777 41.31,64.571 99.55,96.86 174.7,96.86 30.29,0 57.57,-7.2 81.88,-21.59 24.3,-14.399 45.61,-34.969 63.94,-61.688 v 365.828 h 164.32 V 12.9609 h -139.65 l -14.02,82.0508 C 1712.26,64.1602 1689.63,40.6211 1663.46,24.3789 1637.29,8.12891 1607.38,0 1573.73,0 c -74.41,0 -132.27,30.0195 -173.58,90.0781 -41.32,60.0429 -61.97,139.4339 -61.97,238.1329 v 12.961"
           style="fill:#040606;fill-opacity:1;fill-rule:nonzero;stroke:none"
           id="path354"
           inkscape:connector-curvature="0" /><path
           d="m 2252.64,554 c -32.91,0 -58.24,-12.441 -75.99,-37.332 -17.77,-24.879 -28.52,-57.887 -32.26,-99.008 l 1.13,-3.09 h 199.66 v 13.578 c 0,39.071 -7.29,69.813 -21.88,92.231 -14.58,22.41 -38.13,33.621 -70.66,33.621 z M 2263.29,0 c -90.49,0 -161.15,30.5391 -212,91.6289 -50.85,61.0701 -76.27,139.7231 -76.27,235.9611 v 24.68 c 0,99.941 24.68,181.781 74.03,245.539 49.36,63.742 117.22,95.41 203.59,95 81.5,0 144.03,-27.45 187.59,-82.36 43.56,-54.91 65.34,-128.84 65.34,-221.777 v -93.16 h -361.74 l -1.68,-3.703 c 2.61,-45.649 15.23,-82.661 37.86,-111.039 22.62,-28.379 56.17,-42.571 100.67,-42.571 36.63,0 67.76,4.11 93.38,12.332 25.6,8.219 52.06,20.77 79.36,37.637 l 44.3,-111.0469 C 2473.41,55.3203 2440.52,37.0313 2399.01,22.2188 2357.51,7.41016 2312.27,0 2263.29,0"
           style="fill:#040606;fill-opacity:1;fill-rule:nonzero;stroke:none"
           id="path356"
           inkscape:connector-curvature="0" /><path
           d="m 2761.04,257.941 23.98,-137.722 h 3.19 l 27.18,137.722 161.96,608.34 h 64.48 l 162.5,-608.34 26.1,-138.312 h 3.2 l 25.58,138.312 136.92,608.34 h 69.27 L 3266.66,12.9609 h -60.73 l -175.3,654.6481 -19.17,92.012 h -3.2 L 2990.15,667.609 2812.72,12.9609 h -60.74 L 2553.26,866.281 h 69.26 l 138.52,-608.34"
           style="fill:#040606;fill-opacity:1;fill-rule:nonzero;stroke:none"
           id="path358"
           inkscape:connector-curvature="0" /><path
           d="m 3566.65,320.059 c 0,-73.45 16.87,-135.18 50.62,-185.188 33.74,-50.0194 80.8,-75.0194 141.19,-75.0194 59.31,0 105.92,25 139.85,75.0194 33.92,50.008 50.89,111.738 50.89,185.188 v 19.351 c 0,72.27 -17.05,133.621 -51.15,184.02 -34.1,50.398 -80.99,75.609 -140.66,75.609 -59.68,0 -106.38,-25.211 -140.12,-75.609 -33.75,-50.399 -50.62,-111.75 -50.62,-184.02 z m -63.94,19.351 c 0,93.379 23.27,169.961 69.8,229.738 46.52,59.782 108.15,89.661 184.88,89.661 77.07,0 138.88,-29.879 185.41,-89.661 46.53,-59.777 69.8,-136.359 69.8,-229.738 v -19.351 c 0,-93.77 -23.18,-170.45 -69.53,-230.0277 -46.35,-59.5899 -107.89,-89.371144 -184.61,-89.371144 -77.44,0 -139.43,29.781244 -185.95,89.371144 -46.53,59.5777 -69.8,136.2577 -69.8,230.0277 v 19.351"
           style="fill:#040606;fill-opacity:1;fill-rule:nonzero;stroke:none"
           id="path360"
           inkscape:connector-curvature="0" /><path
           d="m 4387.17,586.73 -45.29,3.52 c -40.14,0 -73.08,-12.41 -98.83,-37.219 -25.76,-24.812 -44.14,-58.89 -55.15,-102.269 V 12.9609 h -63.94 V 647.09 h 55.95 l 7.99,-105.481 v -7.039 c 16.69,39.071 39.07,69.551 67.14,91.43 28.05,21.879 61.44,32.809 100.16,32.809 7.81,0 15.27,-0.68 22.38,-2.047 7.1,-1.364 12.96,-2.832 17.58,-4.391 l -7.99,-65.641"
           style="fill:#040606;fill-opacity:1;fill-rule:nonzero;stroke:none"
           id="path362"
           inkscape:connector-curvature="0" /><path
           d="m 4606.17,321.82 h -67.13 V 12.9609 h -63.93 V 927.238 h 63.93 V 382.191 h 60.74 l 221.11,264.899 h 74.59 l 1.06,-2.93 -236.56,-287.762 255.74,-340.5074 -1.59,-2.9297 h -73 L 4606.17,321.82"
           style="fill:#040606;fill-opacity:1;fill-rule:nonzero;stroke:none"
           id="path364"
           inkscape:connector-curvature="0" /><path
           d="m 5333.99,175.309 c 0,29.679 -11.1,55.57 -33.3,77.652 -22.2,22.07 -62.25,40.148 -120.14,54.211 -68.2,15.629 -118.91,37.008 -152.11,64.18 -33.23,27.148 -49.82,65.148 -49.82,113.988 0,48.441 18.56,89.469 55.68,123.07 37.11,33.61 86.22,50.399 147.31,50.399 64.29,0 115.62,-17.868 153.99,-53.618 38.36,-35.75 56.65,-79.8 54.87,-132.16 l -1.07,-3.511 h -59.14 c 0,34.761 -13.58,65.05 -40.76,90.839 -27.17,25.789 -63.13,38.68 -107.89,38.68 -46.17,0 -80.98,-11.141 -104.42,-33.41 -23.45,-22.27 -35.17,-48.258 -35.17,-77.949 0,-28.918 10.03,-52.84 30.11,-71.789 20.06,-18.95 60.11,-35.661 120.14,-50.11 67.49,-16.41 118.55,-39.269 153.18,-68.57 34.63,-29.313 51.94,-68.77 51.94,-118.391 0,-52.742 -19.44,-95.6286 -58.34,-128.6403 -38.89,-33.0313 -90.3,-49.519544 -154.24,-49.519544 -69.98,0 -124.94,18.359344 -164.9,55.089844 -39.96,36.7188 -58.87,80.488 -56.75,131.281 l 1.08,3.508 h 58.6 c 2.48,-45.711 19.45,-78.918 50.88,-99.6288 31.44,-20.711 68.47,-31.0586 111.09,-31.0586 46.17,0 82.58,11.3281 109.22,33.9882 26.64,22.6602 39.96,49.8202 39.96,81.4692"
           style="fill:#040606;fill-opacity:1;fill-rule:nonzero;stroke:none"
           id="path366"
           inkscape:connector-curvature="0" /></g></g></g></svg>