<?xml version="1.0" encoding="utf-8"?>
<!-- Generator: Adobe Illustrator 22.0.1, SVG Export Plug-In . SVG Version: 6.00 Build 0)  -->
<svg version="1.1" id="Calque_1" xmlns="http://www.w3.org/2000/svg" xmlns:xlink="http://www.w3.org/1999/xlink" x="0px" y="0px"
	 viewBox="0 0 297.5 116.5" style="enable-background:new 0 0 297.5 116.5;" xml:space="preserve">
<style type="text/css">
	.st0{fill:#FF0000;}
	.st1{fill:#FFFFFF;}
</style>
<title>whiteFichier 1</title>
<g id="Calque_2_1_">
	<g id="Rectangle">
		<rect id="Back" class="st0" width="297.5" height="116.5"/>
		<path id="ap" class="st1" d="M175.9,41.5c-3.9-0.1-7.7,1.6-10.2,4.6v-3.9h-5.5v26.2c-0.3,0.2-0.5,0.3-0.8,0.4
			c-0.7,0.3-1.4,0.5-2.1,0.5c-1.9,0-2.8-1.2-2.8-3.6l-0.2-12.3v-0.3c0-7.6-4.3-11.6-12.5-11.6c-7.1,0-12.7,4.3-13.4,10.4l-0.1,0.9
			h5.4l0.1-0.7c0.6-3.6,3.6-5.8,7.9-5.8c4.8,0,7.2,2.2,7.2,6.7v0.5l-4.9,0.8c-8.7,1.3-16.4,3.2-16.4,11c0,6.7,6,9.7,11.6,9.7
			c4.6,0,8.3-1.8,10.6-5.2c1.1,2.9,3.9,4.7,7,4.5c1.2,0,2.4-0.2,3.5-0.7v13.6h5.5V70.2c2.5,3.1,6.2,4.9,10.2,4.8
			c8.8,0,14.9-7,14.9-16.9C190.7,46.7,183.3,41.5,175.9,41.5 M185.1,58c0,7.1-3.9,11.9-9.8,11.9c-4.7,0-9.7-3.7-9.7-11.9
			c0-8.5,5.2-11.5,9.7-11.5C181.1,46.5,185.1,51.1,185.1,58 M139.6,70.1c-3.3,0-6.8-1.3-6.8-5c0-4,4.7-5.3,15.9-6.8v2.4
			C148.8,66.4,145.2,70.1,139.6,70.1"/>
		<path id="Lr" class="st1" d="M225.4,41.7l-0.7-0.1c-0.5-0.1-1.1-0.1-1.6-0.1c-2.6-0.1-5.1,0.9-7,2.6c-0.5,0.4-0.9,0.9-1.3,1.3
			v-3.8h-5.5v21.8v0.7c0,2.1-1.2,3.9-3.1,4.7c-0.6,0.3-1.3,0.4-2,0.4h-0.2c-2.2-0.1-3.9-1.8-4.1-3.9l-0.1-34.9h-5.3V65
			c0,5,4,9.1,9,9.3c0.1,0,0.2,0,0.3,0h0.6c5.8,0,10.5-4.7,10.5-10.5v-8.4c0-6.2,4.2-8.4,7.8-8.4c0.5,0,1.1,0,2.2,0.1h0.9v-4.6
			L225.4,41.7z"/>
		<path id="M" class="st1" d="M79.2,74.4V30.3h7.2l14.9,37.4l14.9-37.4h7.2v44.1H117V43.8l-2.3,6.2l-10.1,24.3h-6.6L88,50.1
			c-1.3-3.5-2.1-5.5-2.3-6.2v30.6H79.2z"/>
	</g>
</g>
</svg>
