<?xml version="1.0" encoding="UTF-8" standalone="no"?>
<!-- Generator: Adobe Illustrator 18.1.1, SVG Export Plug-In . SVG Version: 6.00 Build 0)  -->

<svg
   xmlns:dc="http://purl.org/dc/elements/1.1/"
   xmlns:cc="http://creativecommons.org/ns#"
   xmlns:rdf="http://www.w3.org/1999/02/22-rdf-syntax-ns#"
   xmlns:svg="http://www.w3.org/2000/svg"
   xmlns="http://www.w3.org/2000/svg"
   xmlns:sodipodi="http://sodipodi.sourceforge.net/DTD/sodipodi-0.dtd"
   xmlns:inkscape="http://www.inkscape.org/namespaces/inkscape"
   version="1.1"
   x="0px"
   y="0px"
   viewBox="0 0 595.28 260.79"
   xml:space="preserve"
   id="svg4136"
   inkscape:version="0.92.2 5c3e80d, 2017-08-06"
   sodipodi:docname="serli.svg"
   width="595.28003"
   height="260.79001"><metadata
     id="metadata5226"><rdf:RDF><cc:Work
         rdf:about=""><dc:format>image/svg+xml</dc:format><dc:type
           rdf:resource="http://purl.org/dc/dcmitype/StillImage" /><dc:title></dc:title></cc:Work></rdf:RDF></metadata><defs
     id="defs5224" /><sodipodi:namedview
     pagecolor="#ffffff"
     bordercolor="#666666"
     borderopacity="1"
     objecttolerance="10"
     gridtolerance="10"
     guidetolerance="10"
     inkscape:pageopacity="0"
     inkscape:pageshadow="2"
     inkscape:window-width="1612"
     inkscape:window-height="894"
     id="namedview5222"
     showgrid="false"
     units="px"
     inkscape:snap-grids="false"
     inkscape:zoom="1.4142136"
     inkscape:cx="224.9025"
     inkscape:cy="158.95292"
     inkscape:window-x="36"
     inkscape:window-y="0"
     inkscape:window-maximized="0"
     inkscape:current-layer="layer1" /><g
     inkscape:groupmode="layer"
     id="layer1"
     inkscape:label="serli"><g
       style="display:inline"
       id="g997"
       transform="matrix(1.0331718,0,0,1.0331718,-12.382299,-23.687072)"><g
         id="g884"><path
           id="path870"
           d="m 71.94,31.321 c -1.109,4.765 -1.66,8.465 -1.66,11.102 0,3.746 1.105,7.617 3.32,11.615 2.214,4 6.13,9.149 11.75,15.44 11.322,12.936 19.179,22.191 23.562,27.763 4.384,5.57 7.94,10.824 10.664,15.757 3.237,5.871 5.559,11.343 6.962,16.4 1.404,5.063 2.107,10.491 2.107,16.272 0,7.232 -1.233,14.272 -3.705,21.124 -2.466,6.846 -5.919,12.871 -10.344,18.06 -11.748,13.781 -29.758,20.673 -54.023,20.673 H 12.296 V 164.275 H 55.08 c 9.111,0 15.623,-2.252 19.542,-6.77 3.149,-3.746 4.727,-7.79 4.727,-12.132 0,-5.026 -1.792,-10.196 -5.364,-15.519 C 70.408,124.536 61.596,113.872 47.547,97.86 41.077,90.369 36.113,84.217 32.665,79.407 29.218,74.597 26.684,70.189 25.066,66.185 22.343,59.46 20.98,53.33 20.98,47.795 c 0,-4.085 0.596,-9.579 1.788,-16.474 z"
           inkscape:connector-curvature="0"
           style="fill:#1768b1" /><rect
           id="rect872"
           height="41.380001"
           width="117.373"
           y="31.320999"
           x="144.326"
           style="fill:#1768b1" /><polygon
           id="polygon874"
           points="144.326,205.527 144.326,98.375 261.699,98.375 261.699,139.752 191.834,139.752 191.834,164.275 261.699,164.275 261.699,205.527 "
           style="fill:#1768b1" /><path
           id="path876"
           d="m 277.403,31.321 h 60.029 c 10.644,0 19.883,0.637 27.718,1.917 5.104,0.765 10,2.447 14.685,5.045 4.682,2.596 8.642,5.807 11.878,9.641 3.235,3.833 5.765,8.346 7.6,13.541 1.829,5.19 2.744,10.641 2.744,16.346 0,10.982 -2.808,20.225 -8.428,27.713 -3.063,4.176 -6.664,7.41 -10.79,9.708 -4.133,2.297 -9.858,4.259 -17.181,5.874 5.958,1.278 10.537,2.832 13.73,4.661 3.193,1.826 5.979,4.487 8.366,7.973 4.338,6.296 6.511,14.802 6.511,25.521 v 46.269 h -47.512 v -41.174 c 0,-8.325 -1.576,-14.274 -4.721,-17.846 -1.965,-2.38 -4.856,-4.098 -8.688,-5.162 -3.833,-1.06 -8.897,-1.594 -15.197,-1.594 H 277.402 V 98.375 h 56.583 c 4.594,0 8.064,-0.339 10.404,-1.021 2.342,-0.684 4.153,-1.831 5.43,-3.453 1.959,-2.38 2.937,-5.19 2.937,-8.427 0,-4 -1.276,-7.194 -3.83,-9.579 -2.469,-2.128 -6.812,-3.192 -13.027,-3.192 h -58.496 z"
           inkscape:connector-curvature="0"
           style="fill:#1768b1" /><polygon
           id="polygon878"
           points="465.276,31.321 465.276,164.275 525.05,164.275 525.05,205.527 417.768,205.527 417.768,31.321 "
           style="fill:#1768b1" /><rect
           id="rect880"
           height="41.380001"
           width="47.513"
           y="31.320999"
           x="540.328"
           style="fill:#1768b1" /><rect
           id="rect882"
           height="107.153"
           width="47.513"
           y="98.375"
           x="540.328"
           style="fill:#1768b1" /></g><g
         id="g948"><path
           id="path886"
           d="m 12.67,257.869 5.741,-26.987 h 3.1 l -5.74,26.987 z"
           inkscape:connector-curvature="0"
           style="fill:#1768b1" /><path
           id="path888"
           d="m 34.857,257.869 2.731,-12.774 c 0.246,-1.279 0.37,-2.164 0.37,-2.659 0,-0.772 -0.219,-1.395 -0.655,-1.862 -0.438,-0.468 -1.136,-0.703 -2.096,-0.703 -1.094,0 -2.163,0.371 -3.203,1.108 -1.04,0.739 -1.956,1.792 -2.75,3.157 -0.794,1.367 -1.393,3.021 -1.799,4.965 l -1.865,8.769 h -3.1 l 4.318,-20.232 h 2.567 l -0.408,3.749 h 0.186 c 1.182,-1.5 2.323,-2.562 3.425,-3.185 1.1,-0.622 2.243,-0.933 3.423,-0.933 1.563,0 2.796,0.429 3.7,1.283 0.906,0.856 1.357,2.052 1.357,3.592 0,0.972 -0.141,2.079 -0.424,3.319 l -2.639,12.406 z"
           inkscape:connector-curvature="0"
           style="fill:#1768b1" /><path
           id="path890"
           d="m 56.674,257.869 2.731,-12.774 c 0.248,-1.279 0.37,-2.164 0.37,-2.659 0,-0.772 -0.219,-1.395 -0.655,-1.862 -0.438,-0.468 -1.135,-0.703 -2.095,-0.703 -1.096,0 -2.163,0.371 -3.203,1.108 -1.04,0.739 -1.958,1.792 -2.751,3.157 -0.793,1.367 -1.393,3.021 -1.799,4.965 l -1.864,8.769 h -3.102 l 4.319,-20.232 h 2.566 l -0.406,3.749 h 0.184 c 1.182,-1.5 2.323,-2.562 3.424,-3.185 1.102,-0.622 2.243,-0.933 3.425,-0.933 1.562,0 2.796,0.429 3.7,1.283 0.904,0.856 1.357,2.052 1.357,3.592 0,0.972 -0.142,2.079 -0.426,3.319 l -2.64,12.406 z"
           inkscape:connector-curvature="0"
           style="fill:#1768b1" /><path
           id="path892"
           d="m 76.904,237.38 c 2.338,0 4.184,0.691 5.537,2.077 1.354,1.382 2.03,3.287 2.03,5.714 0,2.312 -0.442,4.497 -1.328,6.55 -0.886,2.056 -2.086,3.643 -3.6,4.763 -1.514,1.12 -3.224,1.682 -5.131,1.682 -2.363,0 -4.215,-0.697 -5.557,-2.086 -1.34,-1.392 -2.012,-3.293 -2.012,-5.705 0,-2.339 0.45,-4.536 1.348,-6.598 0.898,-2.062 2.11,-3.644 3.637,-4.745 1.526,-1.102 3.218,-1.652 5.076,-1.652 z m 4.356,7.365 c 0,-1.416 -0.385,-2.562 -1.153,-3.444 -0.77,-0.878 -1.812,-1.318 -3.128,-1.318 -1.342,0 -2.545,0.455 -3.609,1.367 -1.065,0.908 -1.889,2.173 -2.473,3.791 -0.584,1.617 -0.877,3.42 -0.877,5.399 0,1.612 0.391,2.858 1.172,3.737 0.78,0.881 1.903,1.321 3.369,1.321 1.28,0 2.43,-0.449 3.452,-1.349 1.02,-0.896 1.817,-2.174 2.391,-3.83 0.571,-1.653 0.856,-3.546 0.856,-5.674 z"
           inkscape:connector-curvature="0"
           style="fill:#1768b1" /><path
           id="path894"
           d="m 90.36,257.869 -2.308,-20.232 h 3.102 l 1.182,11.315 c 0.294,3.176 0.442,5.403 0.442,6.684 h 0.11 c 1.563,-3.384 2.665,-5.669 3.305,-6.85 l 5.999,-11.149 h 3.286 l -10.91,20.232 z"
           inkscape:connector-curvature="0"
           style="fill:#1768b1" /><path
           id="path896"
           d="m 115.5,237.269 c 1.132,0 2.14,0.305 3.026,0.914 0.887,0.61 1.576,1.485 2.067,2.63 h 0.204 l 1.236,-3.176 h 2.345 l -4.301,20.232 h -2.456 l 0.48,-3.857 h -0.148 c -2.202,2.815 -4.521,4.226 -6.958,4.226 -1.71,0 -3.052,-0.609 -4.023,-1.826 -0.972,-1.22 -1.458,-2.886 -1.458,-5.005 0,-2.56 0.436,-4.932 1.31,-7.123 0.874,-2.191 2.08,-3.906 3.619,-5.149 1.538,-1.244 3.224,-1.866 5.057,-1.866 z m -3.507,18.403 c 1.194,0 2.381,-0.567 3.562,-1.709 1.182,-1.138 2.142,-2.62 2.879,-4.446 0.74,-1.829 1.108,-3.658 1.108,-5.493 0,-1.268 -0.344,-2.275 -1.034,-3.027 -0.688,-0.748 -1.594,-1.126 -2.713,-1.126 -1.28,0 -2.469,0.531 -3.571,1.588 -1.102,1.06 -1.967,2.493 -2.594,4.301 -0.626,1.809 -0.94,3.716 -0.94,5.724 0,1.403 0.288,2.45 0.866,3.147 0.579,0.693 1.391,1.041 2.437,1.041 z"
           inkscape:connector-curvature="0"
           style="fill:#1768b1" /><path
           id="path898"
           d="m 132.352,255.708 c 0.678,0 1.563,-0.16 2.658,-0.48 v 2.382 c -0.418,0.172 -0.934,0.32 -1.55,0.443 -0.616,0.124 -1.108,0.185 -1.478,0.185 -1.538,0 -2.715,-0.365 -3.535,-1.099 -0.818,-0.73 -1.227,-1.823 -1.227,-3.275 0,-0.812 0.11,-1.735 0.332,-2.771 l 2.344,-11.11 h -3.174 l 0.258,-1.347 3.415,-1.439 2.306,-4.211 h 1.81 l -1.016,4.651 h 5.057 l -0.48,2.346 h -5.038 l -2.381,11.149 c -0.222,1.068 -0.332,1.881 -0.332,2.436 0,0.688 0.178,1.22 0.534,1.588 0.359,0.367 0.857,0.552 1.497,0.552 z"
           inkscape:connector-curvature="0"
           style="fill:#1768b1" /><path
           id="path900"
           d="m 141.507,257.869 h -3.1 l 4.319,-20.232 h 3.1 z m 2.085,-25.399 c 0,-0.688 0.198,-1.253 0.592,-1.688 0.394,-0.438 0.904,-0.655 1.532,-0.655 1.082,0 1.624,0.553 1.624,1.66 0,0.676 -0.205,1.25 -0.619,1.718 -0.412,0.468 -0.889,0.7 -1.429,0.7 -0.494,0 -0.899,-0.151 -1.22,-0.453 -0.32,-0.302 -0.48,-0.728 -0.48,-1.282 z"
           inkscape:connector-curvature="0"
           style="fill:#1768b1" /><path
           id="path902"
           d="m 158.784,237.38 c 2.337,0 4.183,0.691 5.537,2.077 1.354,1.382 2.03,3.287 2.03,5.714 0,2.312 -0.442,4.497 -1.328,6.55 -0.886,2.056 -2.085,3.643 -3.6,4.763 -1.514,1.12 -3.224,1.682 -5.131,1.682 -2.364,0 -4.215,-0.697 -5.556,-2.086 -1.341,-1.392 -2.013,-3.293 -2.013,-5.705 0,-2.339 0.45,-4.536 1.348,-6.598 0.898,-2.062 2.111,-3.644 3.637,-4.745 1.526,-1.101 3.218,-1.652 5.076,-1.652 z m 4.356,7.365 c 0,-1.416 -0.383,-2.562 -1.153,-3.444 -0.77,-0.878 -1.812,-1.318 -3.128,-1.318 -1.342,0 -2.544,0.455 -3.608,1.367 -1.064,0.908 -1.89,2.173 -2.474,3.791 -0.584,1.617 -0.877,3.42 -0.877,5.399 0,1.612 0.391,2.858 1.173,3.737 0.78,0.881 1.903,1.321 3.369,1.321 1.28,0 2.43,-0.449 3.451,-1.349 1.022,-0.896 1.819,-2.174 2.391,-3.83 0.57,-1.653 0.856,-3.546 0.856,-5.674 z"
           inkscape:connector-curvature="0"
           style="fill:#1768b1" /><path
           id="path904"
           d="m 181.58,257.869 2.732,-12.774 c 0.246,-1.279 0.368,-2.164 0.368,-2.659 0,-0.772 -0.217,-1.395 -0.655,-1.862 -0.437,-0.468 -1.135,-0.703 -2.095,-0.703 -1.096,0 -2.163,0.371 -3.203,1.108 -1.04,0.739 -1.956,1.792 -2.75,3.157 -0.793,1.367 -1.395,3.021 -1.8,4.965 l -1.864,8.769 h -3.102 l 4.319,-20.232 h 2.566 l -0.406,3.749 h 0.184 c 1.182,-1.5 2.323,-2.562 3.424,-3.185 1.102,-0.622 2.243,-0.933 3.424,-0.933 1.562,0 2.797,0.429 3.701,1.283 0.904,0.856 1.357,2.052 1.357,3.592 0,0.972 -0.142,2.079 -0.424,3.319 l -2.64,12.406 z"
           inkscape:connector-curvature="0"
           style="fill:#1768b1" /><path
           id="path906"
           d="m 200.776,249.212 0.646,-2.915 h 8.842 l -0.628,2.915 z"
           inkscape:connector-curvature="0"
           style="fill:#1768b1" /><path
           id="path908"
           d="m 222.962,257.869 5.741,-26.987 h 3.102 l -5.741,26.987 z"
           inkscape:connector-curvature="0"
           style="fill:#1768b1" /><path
           id="path910"
           d="m 245.149,257.869 2.731,-12.774 c 0.246,-1.279 0.37,-2.164 0.37,-2.659 0,-0.772 -0.219,-1.395 -0.655,-1.862 -0.438,-0.468 -1.135,-0.703 -2.095,-0.703 -1.096,0 -2.163,0.371 -3.203,1.108 -1.04,0.739 -1.957,1.792 -2.751,3.157 -0.794,1.367 -1.393,3.021 -1.799,4.965 l -1.864,8.769 h -3.101 l 4.319,-20.232 h 2.565 l -0.406,3.749 h 0.184 c 1.182,-1.5 2.323,-2.562 3.424,-3.185 1.1,-0.622 2.243,-0.933 3.423,-0.933 1.563,0 2.796,0.429 3.702,1.283 0.904,0.856 1.356,2.052 1.356,3.592 0,0.972 -0.142,2.079 -0.425,3.319 l -2.64,12.406 z"
           inkscape:connector-curvature="0"
           style="fill:#1768b1" /><path
           id="path912"
           d="m 273.814,237.637 -0.462,1.977 -3.894,0.444 c 0.504,0.761 0.756,1.732 0.756,2.916 0,2.348 -0.717,4.223 -2.15,5.62 -1.433,1.397 -3.351,2.095 -5.75,2.095 -0.676,0 -1.192,-0.049 -1.55,-0.148 -1.71,0.652 -2.566,1.458 -2.566,2.418 0,0.504 0.204,0.839 0.61,1.005 0.406,0.166 0.996,0.299 1.772,0.398 l 2.16,0.257 c 2.228,0.271 3.842,0.814 4.844,1.627 1.004,0.812 1.505,2.004 1.505,3.58 0,2.264 -0.898,4.018 -2.696,5.261 -1.796,1.243 -4.325,1.862 -7.585,1.862 -2.388,0 -4.257,-0.45 -5.611,-1.355 -1.354,-0.905 -2.031,-2.182 -2.031,-3.83 0,-1.292 0.444,-2.412 1.33,-3.359 0.886,-0.948 2.32,-1.754 4.301,-2.418 -0.96,-0.504 -1.44,-1.249 -1.44,-2.233 0,-0.849 0.314,-1.579 0.94,-2.188 0.628,-0.606 1.501,-1.177 2.622,-1.705 -0.776,-0.396 -1.41,-0.976 -1.902,-1.745 -0.492,-0.77 -0.738,-1.666 -0.738,-2.687 0,-2.387 0.735,-4.343 2.207,-5.87 1.47,-1.524 3.349,-2.288 5.638,-2.288 0.96,0 1.908,0.124 2.843,0.368 h 6.847 z m -19.657,23.83 c 0,0.948 0.4,1.699 1.2,2.252 0.8,0.555 1.986,0.83 3.562,0.83 2.239,0 3.99,-0.39 5.252,-1.171 1.26,-0.782 1.891,-1.887 1.891,-3.314 0,-0.761 -0.332,-1.364 -0.996,-1.809 -0.664,-0.443 -1.798,-0.748 -3.397,-0.923 l -2.934,-0.293 c -1.478,0.308 -2.609,0.848 -3.397,1.624 -0.787,0.775 -1.181,1.708 -1.181,2.804 z m 5.132,-16.152 c 0,1.048 0.276,1.845 0.83,2.391 0.554,0.55 1.324,0.821 2.308,0.821 0.972,0 1.821,-0.257 2.547,-0.773 0.726,-0.519 1.283,-1.229 1.671,-2.134 0.386,-0.902 0.581,-1.883 0.581,-2.942 0,-1.009 -0.272,-1.778 -0.812,-2.307 -0.542,-0.531 -1.318,-0.794 -2.326,-0.794 -0.96,0 -1.801,0.248 -2.521,0.746 -0.72,0.498 -1.28,1.195 -1.68,2.086 -0.399,0.893 -0.598,1.862 -0.598,2.906 z"
           inkscape:connector-curvature="0"
           style="fill:#1768b1" /><path
           id="path914"
           d="m 281.529,258.237 c -2.264,0 -4.042,-0.67 -5.333,-2.011 -1.292,-1.343 -1.938,-3.199 -1.938,-5.574 0,-2.315 0.457,-4.534 1.375,-6.656 0.917,-2.121 2.131,-3.772 3.645,-4.956 1.514,-1.18 3.181,-1.771 5.003,-1.771 1.882,0 3.297,0.41 4.245,1.229 0.946,0.817 1.42,1.959 1.42,3.423 0,2.216 -1.021,3.954 -3.064,5.216 -2.042,1.262 -4.965,1.893 -8.767,1.893 h -0.61 l -0.074,1.476 c 0,1.612 0.379,2.871 1.135,3.773 0.758,0.905 1.929,1.358 3.517,1.358 0.775,0 1.572,-0.112 2.391,-0.332 0.818,-0.224 1.836,-0.628 3.054,-1.22 v 2.695 c -1.156,0.54 -2.178,0.921 -3.063,1.135 -0.886,0.214 -1.864,0.322 -2.936,0.322 z m 2.566,-18.328 c -1.266,0 -2.457,0.577 -3.571,1.733 -1.114,1.158 -1.966,2.765 -2.557,4.82 h 0.222 c 2.806,0 4.955,-0.369 6.451,-1.1 1.496,-0.733 2.242,-1.792 2.242,-3.184 0,-0.652 -0.225,-1.195 -0.673,-1.624 -0.449,-0.43 -1.154,-0.645 -2.114,-0.645 z m -0.848,-5.444 c 0.688,-0.74 1.461,-1.673 2.316,-2.799 0.854,-1.126 1.511,-2.046 1.965,-2.759 h 3.507 v 0.387 c -0.468,0.604 -1.33,1.533 -2.583,2.789 -1.256,1.256 -2.345,2.216 -3.268,2.88 h -1.938 v -0.498 z"
           inkscape:connector-curvature="0"
           style="fill:#1768b1" /><path
           id="path916"
           d="m 304.548,257.869 2.731,-12.774 c 0.244,-1.279 0.368,-2.164 0.368,-2.659 0,-0.772 -0.217,-1.395 -0.655,-1.862 -0.438,-0.468 -1.135,-0.703 -2.095,-0.703 -1.096,0 -2.161,0.371 -3.202,1.108 -1.038,0.739 -1.956,1.792 -2.75,3.157 -0.793,1.367 -1.394,3.021 -1.8,4.965 l -1.864,8.769 h -3.102 l 4.319,-20.232 h 2.567 l -0.408,3.749 h 0.184 c 1.183,-1.5 2.324,-2.562 3.426,-3.185 1.099,-0.622 2.243,-0.933 3.423,-0.933 1.563,0 2.795,0.429 3.701,1.283 0.905,0.856 1.357,2.052 1.357,3.592 0,0.972 -0.142,2.079 -0.425,3.319 l -2.642,12.406 z"
           inkscape:connector-curvature="0"
           style="fill:#1768b1" /><path
           id="path918"
           d="m 317.098,257.869 h -3.1 l 4.319,-20.232 h 3.1 z m 2.086,-25.399 c 0,-0.688 0.196,-1.253 0.592,-1.688 0.393,-0.438 0.905,-0.655 1.53,-0.655 1.084,0 1.627,0.553 1.627,1.66 0,0.676 -0.208,1.25 -0.619,1.718 -0.413,0.468 -0.89,0.7 -1.431,0.7 -0.491,0 -0.899,-0.151 -1.219,-0.453 -0.32,-0.302 -0.48,-0.728 -0.48,-1.282 z"
           inkscape:connector-curvature="0"
           style="fill:#1768b1" /><path
           id="path920"
           d="m 331.589,258.237 c -2.267,0 -4.044,-0.67 -5.336,-2.011 -1.292,-1.343 -1.938,-3.199 -1.938,-5.574 0,-2.315 0.458,-4.534 1.376,-6.656 0.918,-2.121 2.131,-3.772 3.646,-4.956 1.512,-1.18 3.178,-1.771 5.001,-1.771 1.884,0 3.296,0.41 4.244,1.229 0.947,0.817 1.422,1.959 1.422,3.423 0,2.216 -1.021,3.954 -3.064,5.216 -2.043,1.262 -4.965,1.893 -8.768,1.893 h -0.607 l -0.075,1.476 c 0,1.612 0.377,2.871 1.135,3.773 0.758,0.905 1.929,1.358 3.517,1.358 0.775,0 1.572,-0.112 2.391,-0.332 0.818,-0.224 1.835,-0.628 3.055,-1.22 v 2.695 c -1.156,0.54 -2.18,0.921 -3.063,1.135 -0.889,0.214 -1.867,0.322 -2.936,0.322 z m 2.566,-18.328 c -1.268,0 -2.46,0.577 -3.574,1.733 -1.113,1.158 -1.965,2.765 -2.557,4.82 h 0.224 c 2.804,0 4.956,-0.369 6.45,-1.1 1.494,-0.733 2.242,-1.792 2.242,-3.184 0,-0.652 -0.223,-1.195 -0.673,-1.624 -0.449,-0.43 -1.152,-0.645 -2.112,-0.645 z"
           inkscape:connector-curvature="0"
           style="fill:#1768b1" /><path
           id="path922"
           d="m 355.03,237.269 c 0.848,0 1.588,0.088 2.215,0.26 l -0.664,2.768 c -0.651,-0.16 -1.298,-0.238 -1.938,-0.238 -1.12,0 -2.17,0.368 -3.148,1.107 -0.978,0.736 -1.835,1.763 -2.565,3.073 -0.733,1.31 -1.271,2.765 -1.614,4.364 l -1.978,9.267 h -3.1 l 4.319,-20.232 h 2.565 l -0.404,3.749 h 0.184 c 0.885,-1.168 1.618,-2.011 2.194,-2.521 0.58,-0.51 1.187,-0.902 1.82,-1.181 0.635,-0.278 1.338,-0.416 2.114,-0.416 z"
           inkscape:connector-curvature="0"
           style="fill:#1768b1" /><path
           id="path924"
           d="m 360.31,257.869 h -3.101 l 4.316,-20.232 h 3.104 z m 2.085,-25.399 c 0,-0.688 0.196,-1.253 0.592,-1.688 0.393,-0.438 0.902,-0.655 1.53,-0.655 1.084,0 1.624,0.553 1.624,1.66 0,0.676 -0.205,1.25 -0.619,1.718 -0.41,0.468 -0.887,0.7 -1.427,0.7 -0.495,0 -0.9,-0.151 -1.22,-0.453 -0.32,-0.302 -0.48,-0.728 -0.48,-1.282 z"
           inkscape:connector-curvature="0"
           style="fill:#1768b1" /><path
           id="path926"
           d="m 374.798,258.237 c -2.265,0 -4.042,-0.67 -5.334,-2.011 -1.292,-1.343 -1.938,-3.199 -1.938,-5.574 0,-2.315 0.459,-4.534 1.376,-6.656 0.915,-2.121 2.131,-3.772 3.644,-4.956 1.515,-1.18 3.182,-1.771 5.001,-1.771 1.884,0 3.3,0.41 4.247,1.229 0.948,0.817 1.422,1.959 1.422,3.423 0,2.216 -1.023,3.954 -3.063,5.216 -2.044,1.262 -4.966,1.893 -8.769,1.893 h -0.609 l -0.073,1.476 c 0,1.612 0.378,2.871 1.135,3.773 0.758,0.905 1.93,1.358 3.517,1.358 0.776,0 1.573,-0.112 2.391,-0.332 0.818,-0.224 1.835,-0.628 3.055,-1.22 v 2.695 c -1.156,0.54 -2.179,0.921 -3.063,1.135 -0.89,0.214 -1.868,0.322 -2.939,0.322 z m 2.565,-18.328 c -1.268,0 -2.457,0.577 -3.571,1.733 -1.113,1.158 -1.965,2.765 -2.557,4.82 h 0.221 c 2.807,0 4.956,-0.369 6.453,-1.1 1.494,-0.733 2.243,-1.792 2.243,-3.184 0,-0.652 -0.227,-1.195 -0.674,-1.624 -0.449,-0.43 -1.155,-0.645 -2.115,-0.645 z"
           inkscape:connector-curvature="0"
           style="fill:#1768b1" /><path
           id="path928"
           d="m 395.195,249.212 0.646,-2.915 h 8.841 l -0.628,2.915 z"
           inkscape:connector-curvature="0"
           style="fill:#1768b1" /><path
           id="path930"
           d="m 420.556,257.869 h -3.175 l 5.705,-26.987 h 13.564 l -0.553,2.825 h -10.482 l -2.031,9.837 h 9.746 l -0.592,2.825 h -9.765 z"
           inkscape:connector-curvature="0"
           style="fill:#1768b1" /><path
           id="path932"
           d="m 445.512,237.38 c 2.337,0 4.184,0.691 5.536,2.077 1.355,1.382 2.031,3.287 2.031,5.714 0,2.312 -0.443,4.497 -1.328,6.55 -0.888,2.056 -2.086,3.643 -3.601,4.763 -1.513,1.12 -3.224,1.682 -5.132,1.682 -2.363,0 -4.213,-0.697 -5.557,-2.086 -1.34,-1.392 -2.01,-3.293 -2.01,-5.705 0,-2.339 0.449,-4.536 1.346,-6.598 0.899,-2.062 2.113,-3.644 3.638,-4.745 1.528,-1.102 3.217,-1.652 5.077,-1.652 z m 4.355,7.365 c 0,-1.416 -0.386,-2.562 -1.152,-3.444 -0.77,-0.878 -1.814,-1.318 -3.13,-1.318 -1.341,0 -2.545,0.455 -3.607,1.367 -1.065,0.908 -1.89,2.173 -2.475,3.791 -0.583,1.617 -0.876,3.42 -0.876,5.399 0,1.612 0.39,2.858 1.171,3.737 0.782,0.881 1.905,1.321 3.369,1.321 1.279,0 2.43,-0.449 3.453,-1.349 1.02,-0.896 1.816,-2.174 2.391,-3.83 0.57,-1.653 0.856,-3.546 0.856,-5.674 z"
           inkscape:connector-curvature="0"
           style="fill:#1768b1" /><path
           id="path934"
           d="m 468.732,237.269 c 0.849,0 1.588,0.088 2.213,0.26 l -0.664,2.768 c -0.652,-0.16 -1.298,-0.238 -1.938,-0.238 -1.119,0 -2.167,0.368 -3.145,1.107 -0.981,0.736 -1.836,1.763 -2.566,3.073 -0.733,1.31 -1.271,2.765 -1.617,4.364 l -1.975,9.267 h -3.1 l 4.319,-20.232 h 2.565 l -0.407,3.749 h 0.185 c 0.887,-1.168 1.617,-2.011 2.197,-2.521 0.579,-0.51 1.183,-0.902 1.816,-1.181 0.635,-0.278 1.342,-0.416 2.117,-0.416 z"
           inkscape:connector-curvature="0"
           style="fill:#1768b1" /><path
           id="path936"
           d="m 482.668,257.869 2.732,-12.774 c 0.22,-1.155 0.332,-1.985 0.332,-2.493 0,-0.859 -0.19,-1.53 -0.574,-2.01 -0.38,-0.48 -1.032,-0.722 -1.956,-0.722 -1.032,0 -2.04,0.371 -3.018,1.108 -0.979,0.739 -1.839,1.796 -2.584,3.166 -0.746,1.373 -1.319,3.024 -1.727,4.956 l -1.862,8.769 h -3.103 l 4.318,-20.232 h 2.566 l -0.404,3.749 h 0.184 c 1.071,-1.464 2.137,-2.518 3.202,-3.157 1.062,-0.64 2.161,-0.96 3.294,-0.96 1.391,0 2.463,0.401 3.211,1.201 0.752,0.8 1.195,1.914 1.331,3.342 h 0.148 c 1.056,-1.54 2.182,-2.681 3.377,-3.426 1.192,-0.743 2.399,-1.117 3.616,-1.117 1.563,0 2.774,0.42 3.628,1.256 0.854,0.836 1.283,2.056 1.283,3.655 0,0.836 -0.136,1.932 -0.407,3.283 l -2.656,12.406 h -3.14 l 2.731,-12.774 c 0.248,-1.279 0.372,-2.179 0.372,-2.695 0,-0.764 -0.215,-1.373 -0.638,-1.835 -0.425,-0.462 -1.092,-0.694 -2.004,-0.694 -0.996,0 -1.979,0.359 -2.952,1.071 -0.972,0.716 -1.826,1.727 -2.557,3.037 -0.733,1.31 -1.288,2.864 -1.672,4.66 l -1.974,9.23 z"
           inkscape:connector-curvature="0"
           style="fill:#1768b1" /><path
           id="path938"
           d="m 514.582,237.269 c 1.132,0 2.14,0.305 3.027,0.914 0.884,0.61 1.575,1.485 2.067,2.63 h 0.202 l 1.237,-3.176 h 2.343 l -4.302,20.232 h -2.453 l 0.479,-3.857 h -0.147 c -2.204,2.815 -4.522,4.226 -6.958,4.226 -1.711,0 -3.052,-0.609 -4.023,-1.826 -0.972,-1.22 -1.458,-2.886 -1.458,-5.005 0,-2.56 0.435,-4.932 1.311,-7.123 0.872,-2.191 2.079,-3.906 3.615,-5.149 1.54,-1.244 3.224,-1.866 5.06,-1.866 z m -3.508,18.403 c 1.192,0 2.382,-0.567 3.562,-1.709 1.184,-1.138 2.144,-2.62 2.88,-4.446 0.739,-1.829 1.107,-3.658 1.107,-5.493 0,-1.268 -0.344,-2.275 -1.032,-3.027 -0.691,-0.748 -1.594,-1.126 -2.713,-1.126 -1.28,0 -2.473,0.531 -3.574,1.588 -1.099,1.06 -1.965,2.493 -2.593,4.301 -0.628,1.809 -0.941,3.716 -0.941,5.724 0,1.403 0.289,2.45 0.869,3.147 0.576,0.693 1.388,1.041 2.435,1.041 z"
           inkscape:connector-curvature="0"
           style="fill:#1768b1" /><path
           id="path940"
           d="m 531.434,255.708 c 0.676,0 1.563,-0.16 2.659,-0.48 v 2.382 c -0.42,0.172 -0.936,0.32 -1.552,0.443 -0.615,0.124 -1.107,0.185 -1.476,0.185 -1.54,0 -2.717,-0.365 -3.535,-1.099 -0.817,-0.73 -1.229,-1.823 -1.229,-3.275 0,-0.812 0.112,-1.735 0.332,-2.771 l 2.346,-11.11 h -3.176 l 0.257,-1.347 3.417,-1.439 2.306,-4.211 h 1.809 l -1.015,4.651 h 5.059 l -0.479,2.346 h -5.041 l -2.381,11.149 c -0.221,1.068 -0.332,1.881 -0.332,2.436 0,0.688 0.178,1.22 0.537,1.588 0.355,0.367 0.853,0.552 1.494,0.552 z"
           inkscape:connector-curvature="0"
           style="fill:#1768b1" /><path
           id="path942"
           d="m 540.588,257.869 h -3.1 l 4.319,-20.232 h 3.1 z m 2.086,-25.399 c 0,-0.688 0.196,-1.253 0.592,-1.688 0.393,-0.438 0.905,-0.655 1.53,-0.655 1.083,0 1.627,0.553 1.627,1.66 0,0.676 -0.209,1.25 -0.619,1.718 -0.413,0.468 -0.891,0.7 -1.431,0.7 -0.492,0 -0.899,-0.151 -1.22,-0.453 -0.319,-0.302 -0.479,-0.728 -0.479,-1.282 z"
           inkscape:connector-curvature="0"
           style="fill:#1768b1" /><path
           id="path944"
           d="m 557.865,237.38 c 2.339,0 4.184,0.691 5.539,2.077 1.352,1.382 2.028,3.287 2.028,5.714 0,2.312 -0.444,4.497 -1.328,6.55 -0.888,2.056 -2.086,3.643 -3.602,4.763 -1.512,1.12 -3.224,1.682 -5.131,1.682 -2.36,0 -4.214,-0.697 -5.554,-2.086 -1.343,-1.392 -2.014,-3.293 -2.014,-5.705 0,-2.339 0.45,-4.536 1.35,-6.598 0.896,-2.062 2.109,-3.644 3.634,-4.745 1.528,-1.102 3.219,-1.652 5.078,-1.652 z m 4.356,7.365 c 0,-1.416 -0.383,-2.562 -1.153,-3.444 -0.77,-0.878 -1.811,-1.318 -3.13,-1.318 -1.34,0 -2.541,0.455 -3.606,1.367 -1.065,0.908 -1.89,2.173 -2.476,3.791 -0.582,1.617 -0.875,3.42 -0.875,5.399 0,1.612 0.39,2.858 1.171,3.737 0.782,0.881 1.904,1.321 3.368,1.321 1.28,0 2.434,-0.449 3.453,-1.349 1.021,-0.896 1.817,-2.174 2.391,-3.83 0.57,-1.653 0.857,-3.546 0.857,-5.674 z"
           inkscape:connector-curvature="0"
           style="fill:#1768b1" /><path
           id="path946"
           d="m 580.66,257.869 2.731,-12.774 c 0.248,-1.279 0.371,-2.164 0.371,-2.659 0,-0.772 -0.22,-1.395 -0.654,-1.862 -0.438,-0.468 -1.139,-0.703 -2.099,-0.703 -1.092,0 -2.161,0.371 -3.202,1.108 -1.038,0.739 -1.956,1.792 -2.75,3.157 -0.794,1.367 -1.391,3.021 -1.799,4.965 l -1.865,8.769 h -3.1 l 4.319,-20.232 h 2.565 l -0.404,3.749 h 0.184 c 1.181,-1.5 2.321,-2.562 3.423,-3.185 1.103,-0.622 2.243,-0.933 3.423,-0.933 1.563,0 2.799,0.429 3.704,1.283 0.902,0.856 1.355,2.052 1.355,3.592 0,0.972 -0.143,2.079 -0.426,3.319 l -2.639,12.406 z"
           inkscape:connector-curvature="0"
           style="fill:#1768b1" /></g></g></g></svg>