<?xml version="1.0" encoding="UTF-8" standalone="no"?>
<!-- Generator: Adobe Illustrator 18.1.1, SVG Export Plug-In . SVG Version: 6.00 Build 0)  -->

<svg
   xmlns:dc="http://purl.org/dc/elements/1.1/"
   xmlns:cc="http://creativecommons.org/ns#"
   xmlns:rdf="http://www.w3.org/1999/02/22-rdf-syntax-ns#"
   xmlns:svg="http://www.w3.org/2000/svg"
   xmlns="http://www.w3.org/2000/svg"
   xmlns:sodipodi="http://sodipodi.sourceforge.net/DTD/sodipodi-0.dtd"
   xmlns:inkscape="http://www.inkscape.org/namespaces/inkscape"
   version="1.1"
   x="0px"
   y="0px"
   viewBox="0 0 595.28 260.79"
   xml:space="preserve"
   id="svg4136"
   inkscape:version="0.92.2 5c3e80d, 2017-08-06"
   sodipodi:docname="chooseyouboos.svg"
   width="595.28003"
   height="260.79001"><metadata
     id="metadata5226"><rdf:RDF><cc:Work
         rdf:about=""><dc:format>image/svg+xml</dc:format><dc:type
           rdf:resource="http://purl.org/dc/dcmitype/StillImage" /><dc:title /></cc:Work></rdf:RDF></metadata><defs
     id="defs5224"><clipPath
       id="clipPath4582"
       clipPathUnits="userSpaceOnUse"><path
         inkscape:connector-curvature="0"
         id="path4580"
         d="M 0,298.553 H 563.876 V 0 H 0 Z" /></clipPath></defs><sodipodi:namedview
     pagecolor="#ffffff"
     bordercolor="#666666"
     borderopacity="1"
     objecttolerance="10"
     gridtolerance="10"
     guidetolerance="10"
     inkscape:pageopacity="0"
     inkscape:pageshadow="2"
     inkscape:window-width="1035"
     inkscape:window-height="609"
     id="namedview5222"
     showgrid="false"
     units="px"
     inkscape:snap-grids="false"
     inkscape:zoom="0.50000001"
     inkscape:cx="-279.90115"
     inkscape:cy="192.64943"
     inkscape:window-x="36"
     inkscape:window-y="0"
     inkscape:window-maximized="0"
     inkscape:current-layer="layer2" /><g
     inkscape:groupmode="layer"
     id="layer2"
     inkscape:label="chooseyourboss"><g
       transform="matrix(0.86440485,0,0,-0.86440485,53.931397,260.79001)"
       inkscape:label="CYB_Logo_Pour fond clair (2)"
       id="g4570"><g
         transform="translate(257.3281,101.2812)"
         id="g4572"><path
           inkscape:connector-curvature="0"
           id="path4574"
           style="fill:#58585a;fill-opacity:1;fill-rule:nonzero;stroke:none"
           d="M 0,0 8.839,-23.088 17.646,0 H 30.288 L 14.407,-33.754 V -55.56 H 3.271 v 21.806 L -12.599,0 Z" /></g><g
         id="g4576"><g
           clip-path="url(#clipPath4582)"
           id="g4578"><g
             transform="translate(306.5674,81.249)"
             id="g4584"><path
               inkscape:connector-curvature="0"
               id="path4586"
               style="fill:#58585a;fill-opacity:1;fill-rule:nonzero;stroke:none"
               d="m 0,0 c -5.035,-0.064 -7.545,-2.641 -7.545,-7.742 v -12.117 c 0,-5.103 2.51,-7.688 7.545,-7.759 v -9.126 c -12.467,0.059 -18.701,5.683 -18.701,16.885 V -7.742 C -18.701,3.442 -12.467,9.07 0,9.126 Z M 0.197,0 H 0 v 9.126 h 0.197 c 12.342,0 18.504,-5.62 18.504,-16.868 v -12.117 c 0,-11.262 -6.162,-16.885 -18.504,-16.885 H 0 v 9.126 h 0.197 c 4.914,0 7.35,2.592 7.35,7.759 V -7.742 C 7.547,-2.573 5.111,0 0.197,0" /></g><g
             transform="translate(342.1611,89.1787)"
             id="g4588"><path
               inkscape:connector-curvature="0"
               id="path4590"
               style="fill:#58585a;fill-opacity:1;fill-rule:nonzero;stroke:none"
               d="m 0,0 v -27.789 c 0,-4.368 1.902,-6.547 5.734,-6.547 h 7.348 V 0 H 24.221 V -43.059 L 6.533,-43.457 c -11.789,0 -17.683,5.36 -17.683,16.07 V 0 Z" /></g><g
             transform="translate(393.335,80.041)"
             id="g4592"><path
               inkscape:connector-curvature="0"
               id="path4594"
               style="fill:#58585a;fill-opacity:1;fill-rule:nonzero;stroke:none"
               d="m 0,0 h -3.514 c -2.798,0 -4.978,-0.472 -6.537,-1.409 v -32.91 H -21.197 V 4.974 c 2.504,2.771 8.392,4.164 17.683,4.164 L 0,9.054 Z" /></g><g
             transform="translate(20.1123,92.5722)"
             id="g4596"><path
               inkscape:connector-curvature="0"
               id="path4598"
               style="fill:#18b9e8;fill-opacity:1;fill-rule:nonzero;stroke:none"
               d="m 0,0 c -5.709,0 -8.56,-3.669 -8.56,-10.989 v -16.154 c 0,-7.319 2.851,-10.985 8.56,-10.985 5.141,0 10.229,0.511 15.261,1.528 v -8.392 c -3.764,-1.504 -8.99,-2.262 -15.66,-2.262 -13.141,0 -19.713,6.701 -19.713,20.111 v 16.154 c 0,13.399 6.572,20.112 19.713,20.112 6.67,0 11.896,-0.762 15.66,-2.261 V -1.423 C 12.255,-0.431 8.297,0.068 3.393,0.068 2.315,0.068 1.185,0.048 0,0" /></g><g
             transform="translate(52.2803,45.7578)"
             id="g4600"><path
               inkscape:connector-curvature="0"
               id="path4602"
               style="fill:#18b9e8;fill-opacity:1;fill-rule:nonzero;stroke:none"
               d="M 0,0 -11.154,-0.036 V 55.523 H 0 V 40.992 c 3.111,1.878 6.642,2.827 10.567,2.827 9.103,0 13.651,-5.361 13.651,-16.07 V -0.036 H 13.081 v 28.181 c 0,4.358 -1.917,6.552 -5.736,6.552 -2.509,0 -4.962,-0.47 -7.345,-1.381 z" /></g><g
             transform="translate(100.9492,81.249)"
             id="g4604"><path
               inkscape:connector-curvature="0"
               id="path4606"
               style="fill:#18b9e8;fill-opacity:1;fill-rule:nonzero;stroke:none"
               d="m 0,0 c -5.036,-0.064 -7.547,-2.641 -7.547,-7.742 v -12.117 c 0,-5.103 2.511,-7.688 7.547,-7.759 v -9.126 c -12.467,0.059 -18.699,5.683 -18.699,16.885 V -7.742 C -18.699,3.442 -12.467,9.07 0,9.126 Z M 0.199,0 H 0 v 9.126 h 0.199 c 12.339,0 18.502,-5.62 18.502,-16.868 v -12.117 c 0,-11.262 -6.163,-16.885 -18.502,-16.885 H 0 v 9.126 h 0.199 c 4.91,0 7.348,2.592 7.348,7.759 V -7.742 C 7.547,-2.573 5.109,0 0.199,0" /></g><g
             transform="translate(144.0869,81.249)"
             id="g4608"><path
               inkscape:connector-curvature="0"
               id="path4610"
               style="fill:#18b9e8;fill-opacity:1;fill-rule:nonzero;stroke:none"
               d="m 0,0 c -5.033,-0.064 -7.547,-2.641 -7.547,-7.742 v -12.117 c 0,-5.103 2.514,-7.688 7.547,-7.759 v -9.126 c -12.465,0.059 -18.697,5.683 -18.697,16.885 V -7.742 C -18.697,3.442 -12.465,9.07 0,9.126 Z M 0.204,0 H 0 v 9.126 h 0.204 c 12.337,0 18.5,-5.62 18.5,-16.868 v -12.117 c 0,-11.262 -6.163,-16.885 -18.5,-16.885 H 0 v 9.126 h 0.204 c 4.908,0 7.349,2.592 7.349,7.759 V -7.742 C 7.553,-2.573 5.112,0 0.204,0" /></g><g
             transform="translate(168.5322,55.8603)"
             id="g4612"><path
               inkscape:connector-curvature="0"
               id="path4614"
               style="fill:#18b9e8;fill-opacity:1;fill-rule:nonzero;stroke:none"
               d="m 0,0 c 3.664,-1.208 8.889,-1.954 15.674,-2.23 5.704,0 8.558,1.52 8.558,4.531 0,2.689 -3.101,4.592 -9.292,5.74 -9.425,2.091 -14.131,6.362 -14.131,12.833 0,9.094 6.301,13.641 18.897,13.641 4.787,-0.264 9.079,-1.265 12.836,-3.016 v -8.324 c -3.647,1.212 -7.937,1.959 -12.836,2.214 -5.165,0 -7.754,-1.361 -7.754,-4.12 0,-2.354 2.822,-4.409 8.477,-6.132 9.967,-2.094 14.942,-6.381 14.942,-12.836 0,-9.106 -6.562,-13.656 -19.697,-13.656 C 8.987,-10.817 3.76,-9.784 0,-8.28 Z" /></g><g
             transform="translate(227.3506,45.3388)"
             id="g4616"><path
               inkscape:connector-curvature="0"
               id="path4618"
               style="fill:#18b9e8;fill-opacity:1;fill-rule:nonzero;stroke:none"
               d="m 0,0 c -11.801,0.327 -17.692,5.543 -17.692,15.654 v 12.514 c 0,10.709 5.897,16.07 17.682,16.07 H 0 V 35.112 C -4.361,34.933 -6.543,32.611 -6.543,28.124 V 25.658 H 0 v -7.096 h -6.543 v -2.908 c 0,-4.016 2.176,-6.181 6.543,-6.505 z m 0,44.238 c 11.793,0 17.681,-5.361 17.681,-16.07 V 18.562 H 0 v 7.096 h 6.538 v 2.466 c 0,4.658 -2.137,6.992 -6.424,6.992 C 0.076,35.112 0.038,35.112 0,35.112 Z M 17.681,2.241 C 12.564,0.737 7.076,-0.021 1.207,-0.021 0.796,-0.021 0.393,-0.012 0,0 V 9.149 C 0.385,9.121 0.788,9.105 1.207,9.105 2.252,9.054 3.297,9.021 4.362,9.021 c 4.731,0 9.182,0.511 13.319,1.528 z" /></g><g
             transform="translate(399.0771,45.7216)"
             id="g4620"><path
               inkscape:connector-curvature="0"
               id="path4622"
               style="fill:#18b9e8;fill-opacity:1;fill-rule:nonzero;stroke:none"
               d="m 0,0 v 55.56 h 18.897 c 0.275,0 0.544,-0.005 0.812,-0.009 v -9.138 c -0.264,0.016 -0.533,0.02 -0.812,0.02 H 11.15 V 31.737 h 7.747 c 0.279,0 0.548,0.009 0.812,0.016 v -8.34 H 11.15 V 9.121 h 8.559 V 0 Z M 19.709,55.551 C 32.303,55.34 38.608,50.13 38.608,39.898 38.608,33.7 35.014,29.672 27.832,27.785 35.547,25.895 39.408,21.861 39.408,15.668 39.408,5.221 32.852,0 19.709,0 v 9.121 c 5.707,0 8.563,2.454 8.563,7.349 0,4.631 -2.856,6.943 -8.563,6.943 v 8.34 c 5.166,0.231 7.75,2.681 7.75,7.337 0,4.662 -2.584,7.099 -7.75,7.323 z" /></g><g
             transform="translate(462.9365,81.249)"
             id="g4624"><path
               inkscape:connector-curvature="0"
               id="path4626"
               style="fill:#18b9e8;fill-opacity:1;fill-rule:nonzero;stroke:none"
               d="m 0,0 c -5.037,-0.064 -7.545,-2.641 -7.545,-7.742 v -12.117 c 0,-5.103 2.508,-7.688 7.545,-7.759 v -9.126 c -12.465,0.059 -18.699,5.683 -18.699,16.885 V -7.742 C -18.699,3.442 -12.465,9.07 0,9.126 Z M 0.201,0 H 0 v 9.126 h 0.201 c 12.34,0 18.502,-5.62 18.502,-16.868 v -12.117 c 0,-11.262 -6.162,-16.885 -18.502,-16.885 H 0 v 9.126 h 0.201 c 4.908,0 7.348,2.592 7.348,7.759 V -7.742 C 7.549,-2.573 5.109,0 0.201,0" /></g><g
             transform="translate(487.3799,55.8603)"
             id="g4628"><path
               inkscape:connector-curvature="0"
               id="path4630"
               style="fill:#18b9e8;fill-opacity:1;fill-rule:nonzero;stroke:none"
               d="m 0,0 c 3.666,-1.208 8.891,-1.954 15.672,-2.23 5.707,0 8.562,1.52 8.562,4.531 0,2.689 -3.099,4.592 -9.293,5.74 -9.429,2.091 -14.13,6.362 -14.13,12.833 0,9.094 6.302,13.641 18.902,13.641 4.777,-0.264 9.07,-1.265 12.836,-3.016 v -8.324 c -3.656,1.212 -7.944,1.959 -12.836,2.214 -5.17,0 -7.762,-1.361 -7.762,-4.12 0,-2.354 2.828,-4.409 8.475,-6.132 9.97,-2.094 14.949,-6.381 14.949,-12.836 0,-9.106 -6.568,-13.656 -19.703,-13.656 C 8.984,-10.817 3.762,-9.784 0,-8.28 Z" /></g><g
             transform="translate(528.5088,55.8603)"
             id="g4632"><path
               inkscape:connector-curvature="0"
               id="path4634"
               style="fill:#18b9e8;fill-opacity:1;fill-rule:nonzero;stroke:none"
               d="m 0,0 c 3.664,-1.208 8.887,-1.954 15.67,-2.23 5.709,0 8.56,1.52 8.56,4.531 0,2.689 -3.099,4.592 -9.291,5.74 -9.427,2.091 -14.127,6.362 -14.127,12.833 0,9.094 6.301,13.641 18.899,13.641 4.781,-0.264 9.068,-1.265 12.832,-3.016 v -8.324 c -3.649,1.212 -7.941,1.959 -12.832,2.214 -5.17,0 -7.762,-1.361 -7.762,-4.12 0,-2.354 2.828,-4.409 8.473,-6.132 C 30.393,13.043 35.367,8.756 35.367,2.301 35.367,-6.805 28.81,-11.355 15.67,-11.355 8.986,-10.817 3.758,-9.784 0,-8.28 Z" /></g><g
             transform="translate(10.2344,22.541)"
             id="g4636"><path
               inkscape:connector-curvature="0"
               id="path4638"
               style="fill:#b0b2b3;fill-opacity:1;fill-rule:nonzero;stroke:none"
               d="M 0,0 C -1.931,0 -3.3,-0.21 -3.3,-0.21 V -9.55 H 0 c 1.967,0 3.266,0.843 3.266,4.67 C 3.266,-1.475 2.493,0 0,0 m 2.879,-11.621 4.81,-10.674 h -3.37 l -4.494,10.182 H -3.3 V -22.295 H -6.355 V 2.282 c 0,0 3.02,0.246 5.934,0.246 5.337,0 6.812,-2.844 6.812,-7.163 0,-3.616 -1.019,-6.004 -3.512,-6.986" /></g><g
             transform="translate(36.0019,0.2461)"
             id="g4640"><path
               inkscape:connector-curvature="0"
               id="path4642"
               style="fill:#b0b2b3;fill-opacity:1;fill-rule:nonzero;stroke:none"
               d="M 0,0 V 24.577 H 11.516 V 22.015 H 3.055 v -8.041 h 7.584 V 11.411 H 3.055 V 2.563 h 8.461 V 0 Z" /></g><g
             transform="translate(73.0039,22.541)"
             id="g4644"><path
               inkscape:connector-curvature="0"
               id="path4646"
               style="fill:#b0b2b3;fill-opacity:1;fill-rule:nonzero;stroke:none"
               d="M 0,0 C -1.931,0 -3.3,-0.21 -3.3,-0.21 V -10.463 H 0 c 1.967,0 3.336,1.299 3.336,5.126 C 3.336,-1.825 2.493,0 0,0 M -0.351,-13.025 H -3.3 v -9.27 H -6.355 V 2.282 c 0,0 3.02,0.246 5.934,0.246 5.337,0 6.882,-3.301 6.882,-7.619 0,-5.337 -1.826,-7.934 -6.812,-7.934" /></g><g
             transform="translate(104.6006,22.541)"
             id="g4648"><path
               inkscape:connector-curvature="0"
               id="path4650"
               style="fill:#b0b2b3;fill-opacity:1;fill-rule:nonzero;stroke:none"
               d="M 0,0 C -1.932,0 -3.301,-0.21 -3.301,-0.21 V -9.55 H 0 c 1.966,0 3.265,0.843 3.265,4.67 C 3.265,-1.475 2.492,0 0,0 m 2.879,-11.621 4.81,-10.674 H 4.318 l -4.494,10.182 H -3.301 V -22.295 H -6.355 V 2.282 c 0,0 3.019,0.246 5.933,0.246 5.337,0 6.812,-2.844 6.812,-7.163 0,-3.616 -1.018,-6.004 -3.511,-6.986" /></g><g
             transform="translate(130.3672,0.2461)"
             id="g4652"><path
               inkscape:connector-curvature="0"
               id="path4654"
               style="fill:#b0b2b3;fill-opacity:1;fill-rule:nonzero;stroke:none"
               d="M 0,0 V 24.577 H 11.517 V 22.015 H 3.055 v -8.041 h 7.584 V 11.411 H 3.055 V 2.563 h 8.462 V 0 Z" /></g><g
             transform="translate(169.2305,0.2461)"
             id="g4656"><path
               inkscape:connector-curvature="0"
               id="path4658"
               style="fill:#b0b2b3;fill-opacity:1;fill-rule:nonzero;stroke:none"
               d="M 0,0 -5.372,21.979 V 0 H -8.216 V 24.577 H -3.23 L 2.177,2.599 V 24.577 H 5.021 V 0 Z" /></g><g
             transform="translate(194.2607,0.2461)"
             id="g4660"><path
               inkscape:connector-curvature="0"
               id="path4662"
               style="fill:#b0b2b3;fill-opacity:1;fill-rule:nonzero;stroke:none"
               d="M 0,0 V 24.577 H 11.516 V 22.015 H 3.055 v -8.041 h 7.584 V 11.411 H 3.055 V 2.563 h 8.461 V 0 Z" /></g><g
             transform="translate(226.6289,2.8447)"
             id="g4664"><path
               inkscape:connector-curvature="0"
               id="path4666"
               style="fill:#b0b2b3;fill-opacity:1;fill-rule:nonzero;stroke:none"
               d="M 0,0 H 8.672 V -2.599 H -3.125 v 3.09 l 9.059,18.89 h -8.251 v 2.598 h 11.34 v -3.09 z" /></g><g
             transform="translate(277.4267,0.2461)"
             id="g4668"><path
               inkscape:connector-curvature="0"
               id="path4670"
               style="fill:#b0b2b3;fill-opacity:1;fill-rule:nonzero;stroke:none"
               d="M 0,0 V 24.577 H 3.055 V 2.668 h 7.83 V 0 Z" /></g><g
             transform="translate(305.8633,0.2461)"
             id="g4672"><path
               inkscape:connector-curvature="0"
               id="path4674"
               style="fill:#b0b2b3;fill-opacity:1;fill-rule:nonzero;stroke:none"
               d="M 0,0 V 24.577 H 11.516 V 22.015 H 3.055 v -8.041 h 7.584 V 11.411 H 3.055 V 2.563 h 8.461 V 0 Z" /></g><g
             transform="translate(366.0351,22.541)"
             id="g4676"><path
               inkscape:connector-curvature="0"
               id="path4678"
               style="fill:#b0b2b3;fill-opacity:1;fill-rule:nonzero;stroke:none"
               d="M 0,0 C -1.932,0 -3.301,-0.21 -3.301,-0.21 V -10.463 H 0 c 1.967,0 3.336,1.299 3.336,5.126 C 3.336,-1.825 2.492,0 0,0 m -0.352,-13.025 h -2.949 v -9.27 H -6.355 V 2.282 c 0,0 3.019,0.246 5.933,0.246 5.338,0 6.883,-3.301 6.883,-7.619 0,-5.337 -1.826,-7.934 -6.813,-7.934" /></g><g
             transform="translate(397.9121,22.5058)"
             id="g4680"><path
               inkscape:connector-curvature="0"
               id="path4682"
               style="fill:#b0b2b3;fill-opacity:1;fill-rule:nonzero;stroke:none"
               d="m 0,0 c -3.16,0 -4.213,-2.142 -4.213,-9.866 0,-7.548 1.053,-10.076 4.213,-10.076 3.16,0 4.213,2.528 4.213,10.076 C 4.213,-2.142 3.16,0 0,0 m 0,-22.506 c -5.793,0 -7.338,4.214 -7.338,12.816 0,8.251 1.545,12.254 7.338,12.254 5.793,0 7.338,-4.003 7.338,-12.254 0,-8.602 -1.545,-12.816 -7.338,-12.816" /></g><g
             transform="translate(437.5469,6.7412)"
             id="g4684"><path
               inkscape:connector-curvature="0"
               id="path4686"
               style="fill:#b0b2b3;fill-opacity:1;fill-rule:nonzero;stroke:none"
               d="m 0,0 c 0,-4.739 -2.527,-6.741 -6.566,-6.741 -4.038,0 -6.6,2.002 -6.6,6.741 v 18.082 h 3.055 V -0.667 c 0,-2.458 1.439,-3.511 3.545,-3.511 2.107,0 3.511,1.053 3.511,3.511 V 18.082 H 0 Z" /></g><g
             transform="translate(464.6133,0.2461)"
             id="g4688"><path
               inkscape:connector-curvature="0"
               id="path4690"
               style="fill:#b0b2b3;fill-opacity:1;fill-rule:nonzero;stroke:none"
               d="m 0,0 h -4.178 l -4.81,24.577 h 3.09 L -2.037,3.09 2.143,24.577 H 5.16 Z" /></g><g
             transform="translate(494.1367,22.5058)"
             id="g4692"><path
               inkscape:connector-curvature="0"
               id="path4694"
               style="fill:#b0b2b3;fill-opacity:1;fill-rule:nonzero;stroke:none"
               d="m 0,0 c -3.16,0 -4.213,-2.142 -4.213,-9.866 0,-7.548 1.053,-10.076 4.213,-10.076 3.16,0 4.215,2.528 4.215,10.076 C 4.215,-2.142 3.16,0 0,0 m 0,-22.506 c -5.793,0 -7.338,4.214 -7.338,12.816 0,8.251 1.545,12.254 7.338,12.254 5.793,0 7.338,-4.003 7.338,-12.254 0,-8.602 -1.545,-12.816 -7.338,-12.816" /></g><g
             transform="translate(519.3789,0.2461)"
             id="g4696"><path
               inkscape:connector-curvature="0"
               id="path4698"
               style="fill:#b0b2b3;fill-opacity:1;fill-rule:nonzero;stroke:none"
               d="M 0,0 V 2.563 H 2.457 V 22.015 H 0 v 2.562 H 7.969 V 22.015 H 5.512 V 2.563 H 7.969 V 0 Z" /></g><g
             transform="translate(552.3086,22.541)"
             id="g4700"><path
               inkscape:connector-curvature="0"
               id="path4702"
               style="fill:#b0b2b3;fill-opacity:1;fill-rule:nonzero;stroke:none"
               d="M 0,0 C -1.932,0 -3.301,-0.21 -3.301,-0.21 V -9.55 H 0 c 1.965,0 3.264,0.843 3.264,4.67 C 3.264,-1.475 2.492,0 0,0 M 2.879,-11.621 7.687,-22.295 H 4.318 l -4.494,10.182 H -3.301 V -22.295 H -6.356 V 2.282 c 0,0 3.02,0.246 5.934,0.246 5.336,0 6.811,-2.844 6.811,-7.163 0,-3.616 -1.018,-6.004 -3.51,-6.986" /></g><g
             transform="translate(233.0586,217.9179)"
             id="g4704"><path
               inkscape:connector-curvature="0"
               id="path4706"
               style="fill:#ffffff;fill-opacity:1;fill-rule:nonzero;stroke:none"
               d="M 0,0 0.144,-0.007 0.1,0.006 Z" /></g><g
             transform="translate(239.2002,140.0576)"
             id="g4708"><path
               inkscape:connector-curvature="0"
               id="path4710"
               style="fill:#58585a;fill-opacity:1;fill-rule:nonzero;stroke:none"
               d="m 0,0 c 0.635,2.878 0.664,7.058 0.664,10.473 l 1.89,37.637 c 0.148,-0.506 0.277,-0.924 0.391,-1.225 l 0.259,-3.973 c 3.582,0.419 6.362,2.487 10.982,8.034 C 12.45,64.464 6.504,76.669 -5.498,78.837 l 0.139,0.062 -0.521,-0.586 c 0,0 -17.269,-20.913 -21.601,-20.913 -4.332,0 -20.802,21.496 -20.802,21.496 v 0.006 c -10.841,-1.848 -18.679,-14.719 -20.282,-28.15 4.702,-5.646 7.989,-7.521 11.654,-7.919 l 0.355,4.052 c 0.129,0.327 0.276,0.798 0.439,1.375 l 1.899,-37.787 c 0,-3.415 0.206,-7.392 0.84,-10.264 C -41.091,-7.353 -13.077,-7.573 0,0" /></g><g
             transform="translate(170.7104,186.8315)"
             id="g4712"><path
               inkscape:connector-curvature="0"
               id="path4714"
               style="fill:#58585a;fill-opacity:1;fill-rule:nonzero;stroke:none"
               d="m 0,0 c -0.638,-13.097 3.049,-26.9 9.912,-34.023 0,0 1.582,24.601 1.654,26.568 C 9.13,-7.455 1.946,-3.052 0,0" /></g><g
             transform="translate(242.6396,179.3642)"
             id="g4716"><path
               inkscape:connector-curvature="0"
               id="path4718"
               style="fill:#58585a;fill-opacity:1;fill-rule:nonzero;stroke:none"
               d="m 0,0 1.723,-26.286 c 7.118,7.39 10.545,21.005 9.34,34.531 C 6.179,1.266 1.402,0.034 0,0" /></g><g
             transform="translate(232.9331,217.9111)"
             id="g4720"><path
               inkscape:connector-curvature="0"
               id="path4722"
               style="fill:#ffffff;fill-opacity:1;fill-rule:nonzero;stroke:none"
               d="M 0,0 0.126,0.007 0,0.013 Z" /></g><g
             transform="translate(232.1973,236.9878)"
             id="g4724"><path
               inkscape:connector-curvature="0"
               id="path4726"
               style="fill:#58585a;fill-opacity:1;fill-rule:nonzero;stroke:none"
               d="m 0,0 h -12.905 c -0.352,0 -0.657,-0.128 -0.856,-0.355 -0.204,-0.229 -0.287,-0.547 -0.24,-0.898 l 0.156,-1.212 c 0.04,-0.15 0.088,-0.3 0.104,-0.458 l -0.04,-0.005 0.287,-2.165 c 0.114,-0.87 0.99,-1.637 1.866,-1.637 h 10.587 c 0.865,0 1.703,0.753 1.794,1.608 l 0.412,3.827 C 1.203,-0.94 1.105,-0.612 0.89,-0.374 0.676,-0.131 0.359,0 0,0" /></g><g
             transform="translate(204.8545,236.9878)"
             id="g4728"><path
               inkscape:connector-curvature="0"
               id="path4730"
               style="fill:#58585a;fill-opacity:1;fill-rule:nonzero;stroke:none"
               d="m 0,0 h -12.904 c -0.35,0 -0.656,-0.128 -0.855,-0.355 -0.202,-0.229 -0.288,-0.547 -0.242,-0.898 l 0.511,-3.84 c 0.112,-0.87 0.987,-1.637 1.867,-1.637 h 10.586 c 0.863,0 1.701,0.753 1.794,1.608 l 0.41,3.827 C 1.206,-0.94 1.109,-0.612 0.894,-0.374 0.678,-0.131 0.361,0 0,0" /></g><g
             transform="translate(236.2856,235.3794)"
             id="g4732"><path
               inkscape:connector-curvature="0"
               id="path4734"
               style="fill:#58585a;fill-opacity:1;fill-rule:nonzero;stroke:none"
               d="m 0,0 -0.411,-3.827 c -0.251,-2.338 -2.367,-4.236 -4.718,-4.236 h -10.587 c -2.371,0 -4.473,1.84 -4.782,4.195 l -0.312,2.347 c -0.151,0.398 -2.472,0.896 -3.372,0.852 -0.806,-0.028 -3.151,-0.51 -3.165,-0.852 l -0.155,0.003 -0.248,-2.309 c -0.251,-2.338 -2.367,-4.236 -4.718,-4.236 h -10.586 c -2.372,0 -4.476,1.84 -4.783,4.195 l -0.511,3.835 c -0.155,1.188 0.188,2.362 0.946,3.225 0.757,0.862 1.875,1.354 3.067,1.354 h 12.904 c 1.188,0 2.309,-0.492 3.083,-1.347 0.359,-0.398 0.622,-0.87 0.796,-1.38 0.492,0.157 2.69,0.431 3.274,0.449 0.684,0.019 2.881,-0.241 3.465,-0.411 0.164,0.486 0.411,0.944 0.75,1.335 0.757,0.862 1.875,1.354 3.069,1.354 h 12.906 c 1.186,0 2.307,-0.492 3.079,-1.347 C -0.242,2.343 0.128,1.175 0,0 m -4.42,18.327 c -0.291,0.355 -0.592,0.673 -0.905,1.012 -1.129,1.275 -2.381,2.418 -3.729,3.451 -4.294,3.302 -9.55,5.404 -14.944,6.562 -3.022,0.647 -6.085,0.994 -9.049,1.091 -0.116,-0.91 -0.484,-1.762 -1.037,-2.588 -1.759,-2.638 -5.381,-5.008 -8.585,-8.498 -5.341,-5.798 -7.27,-14.61 -5.998,-21.116 l 0.587,-2.17 c 1.933,-8.672 6.98,-16.028 13.996,-20.076 3.02,-1.743 6.43,-4.049 10.086,-4.049 h 0.026 c 5.779,0 10.857,3.522 14.918,7.409 1.751,1.669 3.303,3.997 4.634,6.045 2.079,3.211 3.62,6.396 4.504,10.732 L 0.67,-1.731 C 1.867,4.774 0.229,12.604 -4.42,18.327" /></g><g
             transform="translate(267.3642,160.3276)"
             id="g4736"><path
               inkscape:connector-curvature="0"
               id="path4738"
               style="fill:#58585a;fill-opacity:1;fill-rule:nonzero;stroke:none"
               d="m 0,0 c -13.223,-15.204 -32.692,-24.824 -54.423,-24.824 -39.832,0 -72.123,32.289 -72.123,72.123 0,39.832 32.291,72.124 72.123,72.124 39.833,0 72.123,-32.292 72.123,-72.124 0,-3.545 -0.266,-7.027 -0.76,-10.435 1.506,-10.278 5.371,-19.803 11.034,-28.017 5.461,11.68 8.529,24.706 8.529,38.452 0,50.218 -40.707,90.927 -90.926,90.927 -50.217,0 -90.927,-40.709 -90.927,-90.927 0,-50.218 40.71,-90.929 90.927,-90.929 25.737,0 48.96,10.713 65.502,27.897 C 6.88,-10.882 3.163,-5.62 0,0" /></g><g
             transform="translate(441.8525,207.7021)"
             id="g4740"><path
               inkscape:connector-curvature="0"
               id="path4742"
               style="fill:#18b9e8;fill-opacity:1;fill-rule:nonzero;stroke:none"
               d="m 0,0 h 0.008 c -0.038,50.183 -40.73,90.851 -90.924,90.851 -25.889,0 -49.23,-10.837 -65.788,-28.202 4.207,-4.839 7.937,-10.099 11.118,-15.714 13.228,15.367 32.805,25.113 54.67,25.113 39.006,0 70.754,-30.968 72.059,-69.653 h -0.118 c 0.108,0 0.181,-2.031 0.181,-3.668 0,-39.833 -32.289,-71.528 -72.122,-71.528 -39.832,0 -72.122,31.395 -72.122,71.229 0,1.637 0.076,3.967 0.183,3.967 h -0.091 c 0.091,2.547 0.275,5.07 0.62,7.544 -1.546,10.32 -5.447,19.875 -11.13,28.115 -5.184,-11.202 -8.145,-23.629 -8.345,-36.734 -0.008,-0.226 -0.015,-0.469 -0.021,-0.735 -0.001,-0.197 -0.016,-0.388 -0.016,-0.585 h 0.007 c -0.007,-0.425 -0.009,-0.861 -0.009,-1.273 0,-50.217 40.706,-90.331 90.924,-90.331 50.22,0 90.925,39.814 90.925,90.032 C 0.009,-1.084 0.006,-0.533 0,0" /></g><g
             transform="translate(350.9209,155.6464)"
             id="g4744"><path
               inkscape:connector-curvature="0"
               id="path4746"
               style="fill:#18b9e8;fill-opacity:1;fill-rule:nonzero;stroke:none"
               d="m 0,0 h -0.025 l -7.587,9.113 4.658,36.421 1.352,1.616 c 0.527,-0.036 1.053,-0.178 1.577,-0.178 H 0 c 0.516,0 1.038,0.14 1.556,0.178 L 2.965,45.4 7.616,9.067 Z m 27.937,60.841 -0.077,0.042 c -0.258,0.154 -0.517,0.291 -0.784,0.433 -0.089,0.043 -0.176,0.087 -0.272,0.132 -0.211,0.109 -0.427,0.211 -0.642,0.307 -0.142,0.064 -0.284,0.127 -0.427,0.187 -0.179,0.074 -0.363,0.152 -0.543,0.22 -0.174,0.067 -0.347,0.129 -0.522,0.195 -0.152,0.048 -0.303,0.106 -0.46,0.151 -0.206,0.068 -0.415,0.134 -0.625,0.196 -0.14,0.04 -0.282,0.08 -0.427,0.12 -0.226,0.055 -0.461,0.113 -0.698,0.167 -0.124,0.024 -0.247,0.054 -0.37,0.082 -0.268,0.056 -0.531,0.1 -0.802,0.146 -0.032,0.006 -0.061,0.007 -0.092,0.012 L 21.185,63.247 21.156,63.311 10.879,40.335 2.032,49.993 C 1.944,49.198 1.07,48.568 -0.024,48.568 c -1.087,0 -1.947,0.618 -2.05,1.401 l -8.808,-9.67 -10.169,23.012 h -0.009 c -8.108,-2.043 -13.656,-8.17 -16.923,-16.339 h 0.006 c -6.656,-16.338 -3.876,-39.817 5.993,-50.063 l 2.213,34.2 c 0.128,0.329 0.272,0.83 0.435,1.412 l 1.9,-37.769 c 0,-3.352 0.757,-8.85 1.372,-11.682 6.175,-4.568 40.76,-7.728 52.282,1.013 0.63,2.864 1.22,7.406 1.22,10.809 l 1.891,37.583 c 0.146,-0.512 0.277,-0.963 0.392,-1.26 l 2.217,-34.149 c 13.214,13.716 13.849,53.309 -4.001,63.775" /></g><g
             transform="translate(327.0879,233.312)"
             id="g4748"><path
               inkscape:connector-curvature="0"
               id="path4750"
               style="fill:#18b9e8;fill-opacity:1;fill-rule:nonzero;stroke:none"
               d="m 0,0 c 3.117,1.35 3.477,5.912 3.672,8.832 0.334,4.883 5.061,8.794 9.238,4.892 3.605,-3.362 5.719,-4.972 10.898,-4.972 5.169,0 7.029,1.706 10.633,5.064 4.176,3.9 9.152,-0.038 9.481,-4.921 0.191,-2.854 0.624,-8.109 4.679,-8.847 0.145,1.167 0.244,2.341 0.244,3.524 0,15.519 -11.196,26.02 -25.006,26.02 -13.81,0 -25.004,-10.501 -25.004,-26.02 0,-1.243 0.109,-2.476 0.269,-3.701 z" /></g><g
             transform="translate(373.9258,228.9873)"
             id="g4752"><path
               inkscape:connector-curvature="0"
               id="path4754"
               style="fill:#18b9e8;fill-opacity:1;fill-rule:nonzero;stroke:none"
               d="m 0,0 c -3.978,1.719 -5.225,6.971 -5.483,10.775 -0.2,3.004 -2.498,7.281 -5.616,4.375 -3.927,-3.667 -6.165,-4.758 -11.931,-4.758 h -0.009 c -5.776,0 -8.009,1.091 -11.942,4.758 -3.116,2.906 -5.548,-0.904 -5.752,-3.911 -0.247,-3.723 -1.396,-9.144 -6.237,-10.926 3.261,-12.39 13.892,-22.597 23.971,-22.597 9.968,0 20.483,9.98 23.87,22.183 C 0.467,-0.073 0.092,-0.038 0,0" /></g></g></g></g></g></svg>