<?xml version="1.0" encoding="UTF-8" standalone="no"?>
<svg version="1.1" x="0px" y="0px" viewBox="0 35 595.28 190" style="enable-background:new 0 0 595.28 260.79;" xml:space="preserve" id="svg1991" sodipodi:docname="sciam.svg" inkscape:version="1.1.1 (c3084ef, 2021-09-22)" inkscape:export-filename="/Users/csabourdin/Documents/projets/personnel/projets/site/parisjug/foo-site/src/site/resources/images/sponsors/2020/renault-digital.png" inkscape:export-xdpi="19.101164" inkscape:export-ydpi="19.101164" xmlns:inkscape="http://www.inkscape.org/namespaces/inkscape" xmlns:sodipodi="http://sodipodi.sourceforge.net/DTD/sodipodi-0.dtd" xmlns="http://www.w3.org/2000/svg" xmlns:svg="http://www.w3.org/2000/svg" xmlns:rdf="http://www.w3.org/1999/02/22-rdf-syntax-ns#" xmlns:cc="http://creativecommons.org/ns#" xmlns:dc="http://purl.org/dc/elements/1.1/"><metadata id="metadata1997"><rdf:RDF><cc:Work rdf:about=""><dc:format>image/svg+xml</dc:format><dc:type rdf:resource="http://purl.org/dc/dcmitype/StillImage"/></cc:Work></rdf:RDF></metadata><defs id="defs1995"><clipPath id="clip0"><rect width="110" height="116" fill="white" id="rect834"/></clipPath></defs><sodipodi:namedview pagecolor="#ffffff" bordercolor="#666666" borderopacity="1" objecttolerance="10" gridtolerance="10" guidetolerance="10" inkscape:pageopacity="0" inkscape:pageshadow="2" inkscape:window-width="1577" inkscape:window-height="1067" id="namedview1993" showgrid="false" inkscape:zoom="1.1575153" inkscape:cx="204.74891" inkscape:cy="24.621705" inkscape:window-x="0" inkscape:window-y="25" inkscape:window-maximized="0" inkscape:current-layer="layer2" inkscape:document-rotation="0" inkscape:pagecheckerboard="0"/><g inkscape:groupmode="layer" id="layer2" inkscape:label="Sciam"><g id="g1048" transform="matrix(3.2605978,0,0,3.2605978,7.516329,43.542589)"><g id="layer2-1" inkscape:label="Layer 2" style="display:none"><rect style="fill:#999999;stroke:#cccccc;stroke-width:38.635;stroke-linejoin:bevel;stroke-miterlimit:4;stroke-dasharray:none" id="rect1154" width="89.252266" height="97.451698" x="12.562571" y="14.850119"/></g><g inkscape:label="Logo" id="layer1-9"/><g id="layer3" inkscape:label="SCIAM" style="display:inline"><g id="g4496" transform="matrix(0.58327612,0,0,0.58327612,56.368785,14.096524)"><path d="m 3.09365,11.6147 c 0,-1.62264 0.14519,-7.32323 11.05115,-7.32323 2.6525,0 7.1422,0.56045 9.7221,1.12624 L 24.9726,2.95172 C 22.3201,2.10837 17.903,1.12091 14.1448,1.12091 5.30499,1.12625 0,4.78253 0,11.5453 c 0,13.659 25.0451,10.3497 25.0451,20.63 0,4.6491 -5.3049,6.8268 -10.6769,6.8268 -4.49533,0 -9.57695,-1.1956 -12.37464,-2.2525 l -0.9549,2.2525 c 3.75817,1.9002 10.01804,2.9571 13.99404,2.9571 5.6735,0 13.1117,-2.9571 13.1117,-9.6451 C 28.1388,18.9379 3.09365,21.9644 3.09365,11.6147 Z" fill="white" id="path835" style="fill:#b3b3b3"/><path d="m 63.7051,39.0021 c -10.0906,0 -18.1207,-7.6755 -18.1207,-17.3206 0,-9.6451 8.0301,-17.39003 18.1207,-17.39003 4.1993,0 7.9575,0.70457 11.4197,3.17056 l 1.9154,-2.03898 c -3.6074,-2.81827 -8.689,-4.2968 -13.3351,-4.2968 -11.7882,0 -21.4322,9.15405 -21.4322,20.41645 0,11.2678 9.6496,20.4165 21.5104,20.4165 5.8913,0 11.4197,-1.5479 15.1723,-5.3537 L 77.3362,34.353 c -4.4227,3.7364 -10.0237,4.6491 -13.6311,4.6491 z" fill="white" id="path837" style="fill:#b3b3b3"/><path d="M 99.5883,1.61731 H 96.4946 V 41.6122 h 3.0937 z" fill="white" id="path839" style="fill:#b3b3b3"/><path d="m 116.883,43 18.461,-16.0022 -2.127,-2.0337 -8.98,7.7823 10.085,-25.01216 13.157,30.36046 -11.152,-3.7737 -4.149,1.644 20.656,6.987 L 134.222,0 Z" fill="white" id="path843" style="fill:#b3b3b3"/><path d="M 188.645,24.4998 168.827,0.560455 V 41.6069 h 3.093 V 9.00994 L 188.645,29.2876 205.364,9.00994 V 41.6069 h 3.094 V 0.560455 Z" fill="white" id="path841" style="fill:#b3b3b3;fill-opacity:1"/></g></g><g clip-path="url(#clip0)" id="g832" style="fill:#999999" transform="scale(0.45925794)"><path d="M 105.339,59.1294 92.0387,45.8694 V 27.1208 c 0.294,-0.0144 0.5736,-0.0721 0.8387,-0.1682 l 13.1696,31.701 c -0.26,0.125 -0.496,0.2836 -0.708,0.4758 z M 92.0387,97.4052 v -20.945 l 13.3003,-13.26 c 0.212,0.1922 0.448,0.3557 0.713,0.4758 z m 0,-29.8459 12.6583,-5.229 c 0.121,0.2595 0.285,0.4998 0.478,0.7065 L 92.0387,76.1334 Z m 0,-6.2767 h 12.4083 c 0.014,0.2931 0.072,0.5719 0.168,0.8362 l -12.5715,5.1906 v -6.0268 z m 0,-6.2576 12.5723,5.1906 c -0.097,0.2643 -0.155,0.5431 -0.169,0.8363 H 92.0338 V 55.025 Z m 0,-8.8288 13.1363,13.0966 c -0.193,0.2115 -0.357,0.447 -0.478,0.7113 l -12.6583,-5.229 z m -0.2314,-0.5527 -6.0836,-6.0653 5.2448,-12.6256 c 0.2651,0.0961 0.5447,0.1538 0.8388,0.1682 z m 0,9.0355 -10.5474,-4.3543 4.3722,-10.5158 6.18,6.1614 v 8.7087 z m 0,6.3729 H 76.8009 l 4.3722,-10.5158 10.639,4.3928 v 6.123 z m 0,6.3536 -10.639,4.3928 -4.3722,-10.5205 h 15.0064 v 6.1277 z m 0,8.9586 -6.18,6.1614 -4.3674,-10.5157 10.5522,-4.3592 v 8.7135 z m 0,21.0411 -6.0836,-14.649 6.0836,-6.0653 z M 81.2696,87.1971 85.5454,82.934 91.5952,97.4965 Z m -4.4398,4.4264 4.2759,-4.263 10.3256,10.2946 z m -6.2619,6.2431 6.0836,-6.0701 14.693,6.0653 H 70.5679 Z M 57.5187,112.064 c -0.1205,-0.26 -0.2844,-0.5 -0.4772,-0.707 L 70.3414,98.0973 h 21.0079 z m -0.6411,-0.87 c -0.2073,-0.192 -0.4483,-0.356 -0.7086,-0.476 l 5.2447,-12.6207 h 8.6047 z m -1.7643,-0.731 V 98.0925 h 6.0449 l -5.2061,12.5345 c -0.2652,-0.092 -0.5448,-0.149 -0.8388,-0.164 z m 0,-27.5578 10.5473,4.3591 -4.4059,10.6071 h -6.1414 z m 0,-21.464 14.9774,14.9325 -14.9774,6.1855 z m 0,-21.6659 14.9774,6.1854 -14.9774,14.9326 z m 0,-15.3075 h 6.1414 L 65.6606,35.0749 55.1085,39.434 V 24.4678 Z m 0,-14.78352 6.0498,14.55772 H 55.1133 Z M 70.0184,24.242 H 61.4137 L 55.3302,9.59777 Z M 89.3199,23.4057 C 89.2234,23.67 89.1656,23.9488 89.1511,24.242 H 70.3414 L 55.4893,9.43436 Z m 0.564,2.8212 -8.7734,8.7471 -4.2758,-4.263 12.5719,-5.1906 c 0.1206,0.2595 0.2845,0.4998 0.4773,0.7065 z m -19.3834,19.6521 10.61,-10.5782 4.3433,4.3303 -4.406,10.607 z m 0.0048,0.2499 10.4509,4.3159 -4.3288,10.4196 z m 0,30.0766 6.1221,-14.7355 4.3288,10.4196 z m -0.0097,0.2499 10.5474,-4.3543 4.406,10.6023 -4.3433,4.3302 z M 76.4587,61.2826 70.2546,76.2151 55.2772,61.2826 Z m 0,-0.2307 H 55.282 L 70.2546,46.1241 Z m -10.4944,-25.852 10.639,-4.3928 4.3433,4.3303 -10.6149,10.5782 z M 70.0811,45.706 55.3013,39.6023 65.7522,35.2864 Z M 70.5728,24.4678 H 89.156 c 0.0096,0.2932 0.0723,0.572 0.1687,0.8363 l -12.6636,5.229 z m 5.8521,6.1615 -10.5522,4.3591 -4.3722,-10.5158 h 8.7397 z m -10.4606,56.5053 4.3723,-10.5158 10.61,10.5783 -4.3433,4.3303 z M 65.7522,87.0481 55.3013,82.7322 70.0811,76.6284 Z m 0.1254,0.2979 10.5473,4.3544 -6.1799,6.1614 h -8.7397 z m 24.8788,-60.4799 -5.2062,12.5343 -4.2758,-4.263 8.7734,-8.7471 c 0.2073,0.1922 0.4483,0.3556 0.7086,0.4758 z M 54.8819,24.242 h -6.045 l 6.045,-14.55772 z m 0,15.1872 -10.5474,-4.3543 4.406,-10.6071 h 6.1414 z m 0,21.4593 -14.9726,-14.9278 14.9726,-6.1854 z m 0,21.6707 L 39.9093,76.3737 54.8819,61.446 Z m 0,15.3074 h -6.1414 l -4.406,-10.6071 10.5474,-4.3543 z m 0,12.5964 c -0.2941,0.015 -0.5736,0.072 -0.8388,0.169 L 48.8369,98.0973 h 6.045 z m -1.7595,0.731 -13.136,-13.0967 h 8.6047 l 5.2447,12.6207 c -0.2651,0.12 -0.5061,0.284 -0.7134,0.476 z m -0.6411,0.87 -33.8258,-13.9667 h 21.0031 l 13.2999,13.2597 c -0.1928,0.207 -0.3567,0.442 -0.4772,0.707 z m -23.587,-24.7035 4.2759,4.263 -14.6015,6.0316 z m -4.4397,-4.4265 4.2758,4.2631 -10.3256,10.2946 z m -6.2619,-6.2431 6.0836,6.0653 -6.0836,14.6442 z M 4.66147,59.1342 C 4.44936,58.942 4.21316,58.7786 3.95285,58.6584 L 17.1274,26.9526 c 0.2651,0.0961 0.5447,0.1538 0.8388,0.1682 V 45.8694 Z M 17.9613,54.7751 5.29778,60.0041 C 5.17726,59.7446 5.01337,59.5043 4.82054,59.2928 L 17.9613,46.1914 Z m 0,6.2768 H 5.55327 C 5.53881,60.7587 5.48096,60.4799 5.38455,60.2156 L 17.9613,55.0202 Z m 0,6.2575 L 5.38455,62.114 C 5.48096,61.8497 5.53881,61.5709 5.55327,61.2778 H 17.9613 Z m 0,8.8288 L 4.82054,63.0368 c 0.19283,-0.2115 0.35672,-0.447 0.47724,-0.7113 l 12.66352,5.229 z m 0,21.267 L 3.94803,63.676 c 0.2603,-0.1201 0.50133,-0.2836 0.71344,-0.4758 l 13.29983,13.26 z M 54.5107,9.43436 39.6586,24.242 H 20.8489 C 20.8344,23.9488 20.7765,23.67 20.6801,23.4057 Z M 39.9816,24.242 54.6698,9.59777 48.5863,24.242 Z m 4.1408,10.7464 -10.5521,-4.3591 6.1799,-6.1615 h 8.7397 z m 0.1254,0.298 10.4509,4.3159 -14.7798,6.1037 z m -4.5844,10.4292 -10.61,-10.5782 4.3433,-4.3303 10.639,4.3928 z m -6.1172,15.3363 6.204,-14.9326 14.9774,14.9326 z m -0.0049,0.2307 H 54.7228 L 39.7454,76.2151 Z M 28.9522,72.1011 39.5044,76.4602 28.8943,87.0385 24.551,82.7082 Z m -10.7595,-4.4456 10.5474,4.3591 -4.3674,10.5157 -6.18,-6.1614 z m 0.8388,-40.7029 5.2448,12.6208 -6.0836,6.0653 V 27.1208 c 0.2941,-0.0144 0.5737,-0.0721 0.8388,-0.1682 z m 9.6989,8.1848 -4.2758,4.263 -5.211,-12.5343 c 0.2603,-0.1202 0.5014,-0.2836 0.7135,-0.4758 z m 0.2218,15.0959 -4.406,-10.607 4.3433,-4.3303 10.61,10.5782 z m 0.0916,0.2115 10.4509,-4.3159 -6.1221,14.7355 z m 4.3288,11.0204 6.1221,14.7355 -10.4509,-4.3159 z M 33.1991,61.2826 28.8269,71.8031 18.1879,67.4103 V 61.2826 Z M 18.1927,54.679 v -8.7135 l 6.18,-6.1614 4.3674,10.5158 z m 10.639,-4.1429 4.3674,10.5158 H 18.1927 v -6.123 z m 4.3336,-19.8251 -4.2758,4.263 -8.7734,-8.7471 c 0.1929,-0.2115 0.3568,-0.447 0.4773,-0.7113 z m 6.2619,-6.2432 -6.0835,6.0653 -12.6636,-5.229 c 0.0964,-0.2643 0.1543,-0.5431 0.1688,-0.8363 z M 44.0357,87.1346 33.4016,91.5274 29.0582,87.1971 39.6683,76.6188 Z M 39.9189,76.6284 54.6987,82.7322 44.2478,87.0481 Z M 39.4321,97.8666 H 18.6555 l 14.6882,-6.0653 z m -5.857,-6.1614 10.5473,-4.3592 4.3675,10.5206 H 39.755 Z M 107.214,58.3893 c -0.338,0 -0.656,0.0673 -0.955,0.1778 L 93.0895,26.8661 c 0.9545,-0.4422 1.6149,-1.3938 1.6149,-2.5136 0,-1.5283 -1.2437,-2.7731 -2.7814,-2.7731 -1.1184,0 -2.0729,0.6632 -2.5164,1.61 L 55.041,8.99701 c -0.0097,-0.00481 -0.0145,0 -0.0241,0 -0.0097,0 -0.0145,-0.00961 -0.0241,-0.00961 -0.0097,0 -0.0145,0.00961 -0.0193,0.00961 -0.0097,0 -0.0145,-0.00481 -0.0241,0 L 20.5934,23.1894 c -0.4435,-0.9468 -1.398,-1.61 -2.5164,-1.61 -1.5377,0 -2.7814,1.2448 -2.7814,2.7731 0,1.115 0.6652,2.0714 1.6149,2.5136 L 3.73592,58.5719 C 3.43705,58.4614 3.11889,58.3941 2.78145,58.3941 1.2437,58.3941 0,59.6389 0,61.1672 c 0,1.5332 1.2437,2.7731 2.78145,2.7731 0.33744,0 0.6556,-0.0672 0.95447,-0.1778 L 17.971,98.0252 c 0.0048,0.0096 0.0145,0.0144 0.0193,0.024 0.0048,0.0048 0.0096,0.0144 0.0144,0.0193 0.0049,0.0048 0.0145,0.0096 0.0193,0.0144 0.0048,0 0.0048,0.0048 0.0048,0.0048 l 34.3609,14.1873 c -0.1109,0.298 -0.1784,0.615 -0.1784,0.952 0,1.533 1.2437,2.773 2.7815,2.773 1.5377,0 2.7814,-1.24 2.7814,-2.773 0,-0.337 -0.0675,-0.654 -0.1783,-0.952 L 91.9615,98.0877 c 0.0048,0 0.0048,-0.0048 0.0048,-0.0048 0.0097,-0.0048 0.0145,-0.0096 0.0241,-0.0144 0.0049,-0.0049 0.0097,-0.0097 0.0145,-0.0193 0.0048,-0.0096 0.0145,-0.0144 0.0193,-0.024 L 106.254,63.7625 c 0.299,0.1106 0.617,0.1778 0.955,0.1778 1.538,0 2.781,-1.2399 2.781,-2.7731 0.01,-1.5283 -1.234,-2.7779 -2.776,-2.7779 z" fill="white" id="path828" style="fill:#999999"/><path d="M 54.8816,82.9052 50.4226,84.746 96.9119,101.144 54.8864,0 15.7388,101.26 57.3304,63.652 55.113,61.4412 54.7225,61.0519 52.5292,58.8651 32.3455,77.1187 55.113,18.2151 84.8172,89.7058 59.7889,80.877 55.301,82.7322 Z" fill="white" id="path830" style="fill:#999999"/></g></g></g><style type="text/css" id="style1076">
	.st0{fill:#66D8D0;}
</style></svg>