<?xml version="1.0" encoding="UTF-8" standalone="no"?>
<svg xmlns:dc="http://purl.org/dc/elements/1.1/" xmlns:cc="http://creativecommons.org/ns#" xmlns:rdf="http://www.w3.org/1999/02/22-rdf-syntax-ns#" xmlns:svg="http://www.w3.org/2000/svg" xmlns="http://www.w3.org/2000/svg" xmlns:sodipodi="http://sodipodi.sourceforge.net/DTD/sodipodi-0.dtd" xmlns:inkscape="http://www.inkscape.org/namespaces/inkscape" version="1.1" x="0px" y="0px" viewBox="0 50 595.28 160" style="enable-background:new 0 0 595.28 260.79;" xml:space="preserve" id="svg1991" sodipodi:docname="softteam.svg"><metadata id="metadata1997"><rdf:RDF><cc:Work rdf:about=""><dc:format>image/svg+xml</dc:format><dc:type rdf:resource="http://purl.org/dc/dcmitype/StillImage"/><dc:title/></cc:Work></rdf:RDF></metadata><defs id="defs1995"/><sodipodi:namedview pagecolor="#ffffff" bordercolor="#666666" borderopacity="1" objecttolerance="10" gridtolerance="10" guidetolerance="10" inkscape:pageopacity="0" inkscape:pageshadow="2" inkscape:window-width="1577" inkscape:window-height="1075" id="namedview1993" showgrid="false" inkscape:zoom="1.1575153" inkscape:cx="214.82333" inkscape:cy="24.303304" inkscape:window-x="0" inkscape:window-y="23" inkscape:window-maximized="0" inkscape:current-layer="layer2" inkscape:document-rotation="0"/><g inkscape:groupmode="layer" id="layer2" inkscape:label="SOFTEAM"><g id="g12" transform="matrix(0.08572413,0,0,-0.08572413,-58.967737,259.16075)"><path d="m 1086.06,1779.73 c -93.607,0 -161.048,-26.17 -161.048,-77.5 0,-129.85 478.108,-57.37 478.108,-308.01 0,-138.9 -147.96,-221.43 -326.12,-221.43 -105.687,0 -250.625,36.24 -344.238,100.65 l 76.5,113.74 c 69.453,-54.36 182.187,-88.57 280.828,-88.57 72.47,0 158.02,21.13 158.02,79.52 0,140.91 -477.094,55.35 -477.094,301.95 0,130.85 138.902,225.47 318.064,225.47 97.64,0 229.49,-33.22 305.99,-84.55 l -76.5,-113.74 c -59.38,45.3 -161.04,72.47 -232.51,72.47" style="fill:#0000ff;fill-opacity:1;fill-rule:nonzero;stroke:none" id="path14"/><path d="m 1659.94,1539.17 c 0,-140.92 112.73,-232.52 271.76,-232.52 158.03,0 270.76,91.6 270.76,232.52 0,140.91 -112.73,232.51 -270.76,232.51 -159.03,0 -271.76,-91.6 -271.76,-232.51 z m 271.76,-366.38 c -266.73,0 -425.77,164.07 -425.77,366.38 0,202.32 159.04,366.38 425.77,366.38 266.74,0 425.77,-164.06 425.77,-366.38 0,-202.31 -159.03,-366.38 -425.77,-366.38" style="fill:#0000ff;fill-opacity:1;fill-rule:nonzero;stroke:none" id="path16"/><path d="m 2483.5,1186.88 v 704.58 h 600.9 v -135.88 h -451.94 v -174.14 h 412.68 V 1444.55 H 2632.46 V 1186.88 H 2483.5" style="fill:#0000ff;fill-opacity:1;fill-rule:nonzero;stroke:none" id="path18"/><path d="m 3886,1755.58 h -268.74 v -568.7 h -148.97 v 568.7 h -268.75 v 135.88 H 3886 v -135.88" style="fill:#0000ff;fill-opacity:1;fill-rule:nonzero;stroke:none" id="path20"/><path d="m 4599.22,1891.46 v -135.88 h -463.01 v -140.92 h 424.77 v -135.89 h -424.77 v -156 h 476.1 v -135.89 h -573.74 c -33.21,0 -51.33,21.14 -51.33,50.32 v 654.26 h 611.98" style="fill:#0000ff;fill-opacity:1;fill-rule:nonzero;stroke:none" id="path22"/><path d="m 5277.52,1447.58 -148.99,295.91 -148.96,-295.91 z m 293.89,-260.7 h -88.56 c -55.36,0 -74.49,3.01 -95.63,45.29 l -42.27,82.54 h -432.81 l -64.43,-127.83 h -160.04 l 369.41,711.62 h 144.93 l 369.4,-711.62" style="fill:#0000ff;fill-opacity:1;fill-rule:nonzero;stroke:none" id="path24"/><path d="m 6027.54,1336.86 -240.57,316.04 v -466.02 h -144.94 v 704.58 H 5791 l 269.75,-363.37 269.76,363.37 h 148.96 v -704.58 h -148.96 v 466.02 l -239.56,-316.04 h -63.41" style="fill:#0000ff;fill-opacity:1;fill-rule:nonzero;stroke:none" id="path26"/><path d="m 7282.22,1807.6 h -586.58 c -26.95,0 -48.8,21.85 -48.8,48.8 v 0 c 0,26.95 21.85,48.8 48.8,48.8 h 586.58 c 26.94,0 48.79,-21.85 48.79,-48.8 v 0 c 0,-26.95 -21.85,-48.8 -48.79,-48.8" style="fill:#0000ff;fill-opacity:1;fill-rule:nonzero;stroke:none" id="path28"/><path d="m 7538.33,1990.5 h -586.57 c -26.96,0 -48.8,21.85 -48.8,48.79 v 0 c 0,26.96 21.84,48.8 48.8,48.8 h 586.57 c 26.95,0 48.8,-21.84 48.8,-48.8 v 0 c 0,-26.94 -21.85,-48.79 -48.8,-48.79" style="fill:#0000ff;fill-opacity:1;fill-rule:nonzero;stroke:none" id="path30"/><path d="m 7377.14,2173.39 h -586.57 c -26.96,0 -48.8,21.85 -48.8,48.81 v 0 c 0,26.94 21.84,48.79 48.8,48.79 h 586.57 c 26.95,0 48.8,-21.85 48.8,-48.79 v 0 c 0,-26.96 -21.85,-48.81 -48.8,-48.81" style="fill:#0000ff;fill-opacity:1;fill-rule:nonzero;stroke:none" id="path32"/><path d="M 899.727,829.309 V 949 h 44.726 V 832.93 c 0,-38.071 19.043,-59.532 59.237,-59.532 40.5,0 59.54,21.461 59.54,59.532 V 949 h 44.73 V 829.309 c 0,-64.071 -42.92,-96.11 -104.27,-96.11 -61.358,0 -103.963,32.039 -103.963,96.11" style="fill:#0000ff;fill-opacity:1;fill-rule:nonzero;stroke:none" id="path34"/><path d="M 1379.31,949 V 737.43 H 1338.2 L 1204.32,886.129 V 737.43 h -43.53 V 949 h 43.53 L 1335.78,803.32 V 949 h 43.53" style="fill:#0000ff;fill-opacity:1;fill-rule:nonzero;stroke:none" id="path36"/><path d="m 1620.42,949 v -40.801 h -139.03 v -42.32 h 127.54 V 825.082 H 1481.39 V 778.23 h 142.96 v -40.8 h -172.28 c -9.97,0 -15.41,6.34 -15.41,15.109 V 949 h 183.76" style="fill:#0000ff;fill-opacity:1;fill-rule:nonzero;stroke:none" id="path38"/><path d="m 1874.52,782.461 -72.24,94.91 V 737.43 h -43.52 V 949 h 44.73 l 81,-109.109 81,109.109 h 44.73 V 737.43 h -44.73 v 139.941 l -71.93,-94.91 h -19.04" style="fill:#0000ff;fill-opacity:1;fill-rule:nonzero;stroke:none" id="path40"/><path d="m 2214.46,815.711 -44.73,88.859 -44.74,-88.859 z m 88.25,-78.281 h -26.6 c -16.62,0 -22.36,0.91 -28.71,13.601 l -12.69,24.778 H 2104.74 L 2085.4,737.43 h -48.05 l 110.92,213.691 h 43.52 L 2302.71,737.43" style="fill:#0000ff;fill-opacity:1;fill-rule:nonzero;stroke:none" id="path42"/><path d="m 2478.54,857.121 c 5.75,6.039 8.77,11.789 8.77,21.758 0,6.953 -3.02,13.601 -7.26,18.133 -12.39,12.398 -34.75,12.398 -69.81,12.398 -9.37,0 -24.79,0 -35.67,-0.308 v -64.383 c 10.88,-0.289 26.3,-0.289 35.67,-0.289 26.9,0 55.31,-0.321 68.3,12.691 z m 62.57,-119.691 h -37.18 c -13.9,0 -22.36,3.629 -28.41,11.191 l -46.54,56.809 h -54.41 v -68 h -44.73 V 949 c 22.37,0.602 55.01,1.512 80.1,1.512 51.68,0 83.71,-6.063 105.47,-25.992 12.09,-11.18 18.14,-26.309 18.14,-45.93 0,-38.399 -22.06,-58.34 -55.61,-67.719 l 63.17,-73.441" style="fill:#0000ff;fill-opacity:1;fill-rule:nonzero;stroke:none" id="path44"/><path d="m 2692.77,777.641 c 46.54,0 81.59,27.789 81.59,67.691 0,39.898 -35.05,67.707 -81.59,67.707 -46.25,0 -81.31,-27.809 -81.31,-67.707 0,-39.902 35.06,-67.691 81.31,-67.691 z m 104.87,7.847 41.41,-48.058 h -36.58 c -11.48,0 -21.76,2.422 -27.5,10.281 l -8.16,10.891 c -18.43,-12.09 -45.03,-21.172 -74.04,-21.172 -77.98,0 -127.85,47.761 -127.85,107.902 0,60.148 49.87,107.887 127.85,107.887 78.27,0 127.84,-47.739 127.84,-107.887 0,-21.152 -7.56,-43.223 -22.97,-59.844" style="fill:#0000ff;fill-opacity:1;fill-rule:nonzero;stroke:none" id="path46"/><path d="M 2862.55,829.309 V 949 h 44.73 V 832.93 c 0,-38.071 19.04,-59.532 59.24,-59.532 40.5,0 59.54,21.461 59.54,59.532 V 949 h 44.73 V 829.309 c 0,-64.071 -42.92,-96.11 -104.27,-96.11 -61.36,0 -103.97,32.039 -103.97,96.11" style="fill:#0000ff;fill-opacity:1;fill-rule:nonzero;stroke:none" id="path48"/><path d="m 3307.38,949 v -40.801 h -139.03 v -42.32 h 127.54 V 825.082 H 3168.35 V 778.23 h 142.96 v -40.8 h -172.28 c -9.97,0 -15.41,6.34 -15.41,15.109 V 949 h 183.76" style="fill:#0000ff;fill-opacity:1;fill-rule:nonzero;stroke:none" id="path50"/><path d="m 3609.83,889.461 c -19.04,19.039 -44.42,19.949 -75.25,19.949 -14.81,0 -28.41,0 -44.13,-0.308 V 777.34 c 15.72,-0.309 29.32,-0.621 44.13,-0.621 30.83,0 56.21,1.222 75.25,20.25 11.49,11.492 17.84,27.5 17.84,46.242 0,18.738 -6.35,34.758 -17.84,46.25 z m 37.48,-116.973 c -27.5,-27.797 -61.35,-36.566 -112.13,-36.566 -28.11,0 -58.33,0.609 -89.46,1.508 V 949 c 31.13,0.898 61.35,1.512 89.46,1.512 50.78,0 84.63,-9.071 112.13,-36.571 17.23,-17.23 26.91,-43.82 26.91,-70.73 0,-26.891 -9.68,-53.492 -26.91,-70.723" style="fill:#0000ff;fill-opacity:1;fill-rule:nonzero;stroke:none" id="path52"/><path d="m 3906.26,949 v -40.801 h -139.03 v -42.32 h 127.53 V 825.082 H 3767.23 V 778.23 h 142.95 v -40.8 h -172.27 c -9.98,0 -15.41,6.34 -15.41,15.109 V 949 h 183.76" style="fill:#0000ff;fill-opacity:1;fill-rule:nonzero;stroke:none" id="path54"/><path d="m 4226.53,843.359 c 0,18.993 -5.95,34.43 -17.83,46.352 -4.83,4.84 -10.02,8.578 -15.57,11.211 -5.53,2.617 -11.43,4.59 -17.67,5.91 -6.25,1.309 -12.9,2.117 -19.95,2.418 -7.05,0.301 -14.41,0.449 -22.06,0.449 -7.46,0 -14.71,0 -21.76,0 -7.05,0 -14.5,-0.109 -22.37,-0.301 V 777.332 c 7.87,-0.211 15.32,-0.363 22.37,-0.453 7.05,-0.109 14.3,-0.16 21.76,-0.16 7.65,0 15.01,0.16 22.06,0.461 7.05,0.289 13.7,1.152 19.95,2.57 6.24,1.41 12.14,3.441 17.67,6.059 5.55,2.621 10.74,6.363 15.57,11.203 11.88,11.918 17.83,27.367 17.83,46.347 z m 46.54,-0.148 c 0,-13.5 -2.31,-26.5 -6.95,-38.992 -4.64,-12.489 -11.28,-23.071 -19.94,-31.731 -6.86,-7.058 -14.16,-12.898 -21.91,-17.527 -7.76,-4.641 -16.22,-8.359 -25.39,-11.18 -9.17,-2.82 -19.1,-4.832 -29.77,-6.043 -10.68,-1.207 -22.36,-1.816 -35.06,-1.816 -14.1,0 -28.61,0.16 -43.51,0.457 -14.92,0.301 -30.23,0.652 -45.94,1.051 v 211.558 c 15.71,0.403 31.02,0.762 45.94,1.063 14.9,0.289 29.41,0.449 43.51,0.449 12.7,0 24.38,-0.609 35.06,-1.82 10.67,-1.211 20.6,-3.27 29.77,-6.192 9.17,-2.918 17.63,-6.699 25.39,-11.34 7.75,-4.628 15.05,-10.378 21.91,-17.218 8.66,-8.66 15.3,-19.239 19.94,-31.731 4.64,-12.5 6.95,-25.488 6.95,-38.988" style="fill:#0000ff;fill-opacity:1;fill-rule:nonzero;stroke:none" id="path56"/><path d="m 4432.89,913.02 c -11.88,0 -22.78,-1.661 -32.73,-4.981 -9.96,-3.328 -18.56,-8.008 -25.8,-14.051 -7.24,-6.047 -12.87,-13.398 -16.89,-22.058 -4.02,-8.68 -6.04,-18.25 -6.04,-28.719 0,-10.68 2.02,-20.301 6.04,-28.859 4.02,-8.571 9.65,-15.872 16.89,-21.922 7.24,-6.039 15.84,-10.719 25.8,-14.051 9.95,-3.32 20.85,-4.981 32.73,-4.981 11.85,0 22.77,1.661 32.72,4.981 9.96,3.332 18.51,8.012 25.65,14.051 7.14,6.05 12.71,13.351 16.74,21.922 4.02,8.558 6.03,18.179 6.03,28.859 0,10.469 -2.01,20.039 -6.03,28.719 -4.03,8.66 -9.6,16.011 -16.74,22.058 -7.14,6.043 -15.69,10.723 -25.65,14.051 -9.95,3.32 -20.87,4.981 -32.72,4.981 z m 127.68,-69.809 c 0,-15.109 -2.92,-29.371 -8.76,-42.762 -5.84,-13.41 -14.25,-25.09 -25.24,-35.058 -10.98,-9.981 -24.37,-17.832 -40.19,-23.571 -15.82,-5.738 -33.7,-8.621 -53.65,-8.621 -19.94,0 -37.83,2.883 -53.64,8.621 -15.82,5.739 -29.22,13.59 -40.19,23.571 -10.99,9.968 -19.4,21.648 -25.24,35.058 -5.85,13.391 -8.77,27.653 -8.77,42.762 0,15.109 2.92,29.359 8.77,42.769 5.84,13.399 14.25,25.079 25.24,35.059 10.97,9.973 24.37,17.832 40.19,23.563 15.81,5.738 33.7,8.617 53.64,8.617 19.95,0 37.83,-2.879 53.65,-8.617 15.82,-5.731 29.21,-13.59 40.19,-23.563 10.99,-9.98 19.4,-21.66 25.24,-35.059 5.84,-13.41 8.76,-27.66 8.76,-42.769" style="fill:#0000ff;fill-opacity:1;fill-rule:nonzero;stroke:none" id="path58"/><path d="m 4811.72,922.699 -22.97,-34.148 c -9.68,8.847 -20.7,15.148 -33.1,18.879 -12.39,3.73 -24.32,5.59 -35.81,5.59 -11.89,0 -22.82,-1.661 -32.79,-4.981 -9.97,-3.328 -18.58,-8.008 -25.84,-14.051 -7.26,-6.047 -12.9,-13.398 -16.92,-22.058 -4.04,-8.68 -6.05,-18.25 -6.05,-28.719 0,-10.68 2.01,-20.301 6.05,-28.859 4.02,-8.571 9.66,-15.872 16.92,-21.922 7.26,-6.039 15.87,-10.719 25.84,-14.051 9.97,-3.32 20.9,-4.981 32.79,-4.981 13.9,0 26.45,2.114 37.63,6.352 11.18,4.23 22.41,10.57 33.7,19.031 l 22.36,-33.242 c -12.09,-10.48 -26.25,-18.488 -42.47,-24.019 -16.22,-5.54 -33.29,-8.321 -51.22,-8.321 -19.95,0 -37.83,2.883 -53.64,8.621 -15.82,5.739 -29.25,13.59 -40.29,23.571 -11.05,9.968 -19.51,21.648 -25.39,35.058 -5.88,13.391 -8.82,27.653 -8.82,42.762 0,15.109 2.94,29.359 8.82,42.769 5.88,13.399 14.34,25.079 25.39,35.059 11.04,9.973 24.47,17.832 40.29,23.563 15.81,5.738 33.69,8.617 53.64,8.617 19.54,0 36.98,-2.719 52.29,-8.16 15.3,-5.438 28.5,-12.899 39.59,-22.36" style="fill:#0000ff;fill-opacity:1;fill-rule:nonzero;stroke:none" id="path60"/><path d="m 5000.33,815.699 -44.73,88.86 -44.73,-88.86 z m 88.25,-78.269 h -26.6 c -4.23,0 -7.81,0.101 -10.72,0.308 -2.93,0.192 -5.44,0.75 -7.56,1.66 -2.12,0.903 -3.98,2.262 -5.6,4.082 -1.61,1.809 -3.22,4.321 -4.83,7.559 l -12.7,24.77 h -129.95 l -19.34,-38.379 h -48.05 l 110.91,213.679 h 43.52 L 5088.58,737.43" style="fill:#0000ff;fill-opacity:1;fill-rule:nonzero;stroke:none" id="path62"/><path d="m 5163.62,841.398 c 5.44,0 10.98,-0.046 16.62,-0.16 5.64,-0.097 10.77,-0.136 15.41,-0.136 6.65,0 13.15,0.039 19.5,0.136 6.34,0.114 12.29,0.563 17.83,1.371 5.53,0.813 10.62,2.082 15.26,3.801 4.63,1.719 8.57,4.199 11.79,7.442 2.82,3.027 4.99,6.367 6.49,10.007 1.52,3.641 2.27,7.993 2.27,13.063 0,3.43 -0.66,6.93 -1.97,10.457 -1.3,3.551 -3.06,6.43 -5.28,8.66 -3.03,3.031 -6.55,5.473 -10.58,7.281 -4.03,1.828 -8.72,3.2 -14.06,4.102 -5.33,0.91 -11.38,1.519 -18.12,1.816 -6.76,0.301 -14.46,0.461 -23.13,0.461 -4.64,0 -9.77,0 -15.41,0 -5.64,0 -11.18,-0.109 -16.62,-0.301 z m 0,-40.796 V 737.43 h -44.72 v 211.558 c 11.29,0.403 23.7,0.762 37.22,1.063 13.52,0.289 26.63,0.449 39.35,0.449 39.15,0 68.91,-5.691 89.29,-17.078 20.39,-11.383 30.57,-30.371 30.57,-56.961 0,-14.922 -2.92,-27.262 -8.78,-37.02 -5.86,-9.781 -13.97,-17.589 -24.37,-23.429 -10.4,-5.84 -22.72,-9.922 -36.96,-12.242 -14.23,-2.309 -29.82,-3.481 -46.77,-3.481 -4.65,0 -10.25,0.051 -16.82,0.16 -6.56,0.102 -12.56,0.153 -18.01,0.153" style="fill:#0000ff;fill-opacity:1;fill-rule:nonzero;stroke:none" id="path64"/><path d="m 5470.76,913.02 c -11.86,0 -22.77,-1.661 -32.72,-4.981 -9.96,-3.328 -18.56,-8.008 -25.8,-14.051 -7.24,-6.047 -12.87,-13.398 -16.89,-22.058 -4.02,-8.68 -6.03,-18.25 -6.03,-28.719 0,-10.68 2.01,-20.301 6.03,-28.859 4.02,-8.571 9.65,-15.872 16.89,-21.922 7.24,-6.039 15.84,-10.719 25.8,-14.051 9.95,-3.32 20.86,-4.981 32.72,-4.981 11.87,0 22.78,1.661 32.73,4.981 9.96,3.332 18.5,8.012 25.65,14.051 7.14,6.05 12.71,13.351 16.74,21.922 4.02,8.558 6.03,18.179 6.03,28.859 0,10.469 -2.01,20.039 -6.03,28.719 -4.03,8.66 -9.6,16.011 -16.74,22.058 -7.15,6.043 -15.69,10.723 -25.65,14.051 -9.95,3.32 -20.86,4.981 -32.73,4.981 z m 127.7,-69.809 c 0,-15.109 -2.93,-29.371 -8.77,-42.762 -5.85,-13.41 -14.26,-25.09 -25.24,-35.058 -10.98,-9.981 -24.37,-17.832 -40.19,-23.571 -15.82,-5.738 -33.69,-8.621 -53.65,-8.621 -19.95,0 -37.83,2.883 -53.64,8.621 -15.82,5.739 -29.22,13.59 -40.19,23.571 -10.99,9.968 -19.4,21.648 -25.24,35.058 -5.85,13.391 -8.77,27.653 -8.77,42.762 0,15.109 2.92,29.359 8.77,42.769 5.84,13.399 14.25,25.079 25.24,35.059 10.97,9.973 24.37,17.832 40.19,23.563 15.81,5.738 33.69,8.617 53.64,8.617 19.96,0 37.83,-2.879 53.65,-8.617 15.82,-5.731 29.21,-13.59 40.19,-23.563 10.98,-9.98 19.39,-21.66 25.24,-35.059 5.84,-13.41 8.77,-27.66 8.77,-42.769" style="fill:#0000ff;fill-opacity:1;fill-rule:nonzero;stroke:none" id="path66"/><path d="m 5785.22,902.898 c -5.85,2.723 -11.89,4.981 -18.13,6.801 -6.25,1.821 -12.49,3.223 -18.74,4.231 -6.25,1 -12.09,1.511 -17.53,1.511 -14.1,0 -25.68,-1.961 -34.76,-5.89 -9.06,-3.93 -13.59,-9.719 -13.59,-17.379 0,-6.453 3.52,-11.481 10.55,-15.113 7.04,-3.629 15.89,-6.797 26.54,-9.52 10.65,-2.719 22.17,-5.391 34.53,-8.008 12.36,-2.621 23.88,-6.301 34.53,-11.031 10.66,-4.738 19.5,-10.93 26.54,-18.59 7.04,-7.648 10.56,-17.73 10.56,-30.219 0,-10.48 -2.57,-19.8 -7.7,-27.953 -5.15,-8.156 -12.2,-15.117 -21.17,-20.859 -8.96,-5.738 -19.39,-10.129 -31.28,-13.141 -11.88,-3.027 -24.48,-4.539 -37.77,-4.539 -7.86,0 -16.38,0.66 -25.54,1.973 -9.17,1.308 -18.34,3.269 -27.5,5.887 -9.18,2.613 -18.09,5.793 -26.74,9.523 -8.68,3.727 -16.53,8.008 -23.58,12.84 l 22.97,34.16 c 5.24,-4.031 11.18,-7.711 17.83,-11.043 6.64,-3.32 13.65,-6.148 21.01,-8.449 7.34,-2.328 14.9,-4.078 22.66,-5.301 7.76,-1.207 15.37,-1.809 22.82,-1.809 5.44,0 10.97,0.399 16.62,1.211 5.64,0.797 10.73,2.161 15.26,4.079 4.53,1.921 8.26,4.378 11.18,7.402 2.92,3.019 4.39,6.75 4.39,11.187 0,7.051 -3.53,12.493 -10.58,16.313 -7.06,3.828 -15.92,7.008 -26.6,9.527 -10.67,2.512 -22.16,5.02 -34.45,7.551 -12.29,2.512 -23.77,5.941 -34.46,10.281 -10.68,4.321 -19.54,10.168 -26.59,17.528 -7.05,7.351 -10.57,17.171 -10.57,29.461 0,9.871 2.48,18.929 7.45,27.21 4.97,8.25 11.76,15.411 20.38,21.45 8.61,6.05 18.73,10.718 30.32,14.05 11.6,3.321 24.15,4.989 37.65,4.989 7.25,0 15.06,-0.598 23.43,-1.809 8.35,-1.211 16.66,-2.93 24.93,-5.14 8.26,-2.231 16.11,-4.891 23.57,-8.008 7.45,-3.121 14.1,-6.602 19.94,-10.43 l -22.97,-34.152 c -4.43,3.422 -9.57,6.5 -15.41,9.218" style="fill:#0000ff;fill-opacity:1;fill-rule:nonzero;stroke:none" id="path68"/><path d="m 6054.04,908.191 h -80.69 V 737.43 h -44.73 v 170.761 h -80.69 v 40.797 h 206.11 v -40.797" style="fill:#0000ff;fill-opacity:1;fill-rule:nonzero;stroke:none" id="path70"/><path d="M 6268.92,948.988 V 908.191 H 6129.9 v -42.312 h 127.54 V 825.082 H 6129.9 V 778.23 h 142.95 v -40.8 h -172.27 c -5.03,0 -8.86,1.41 -11.48,4.23 -2.62,2.82 -3.93,6.449 -3.93,10.879 v 196.449 h 183.75" style="fill:#0000ff;fill-opacity:1;fill-rule:nonzero;stroke:none" id="path72"/></g></g></svg>