<?xml version="1.0" encoding="iso-8859-1"?>
<!-- Generator: Adobe Illustrator 18.1.1, SVG Export Plug-In . SVG Version: 6.00 Build 0)  -->
<svg version="1.1" xmlns="http://www.w3.org/2000/svg" xmlns:xlink="http://www.w3.org/1999/xlink" x="0px" y="0px"
	 viewBox="0 0 595.28 260.79" style="enable-background:new 0 0 595.28 260.79;" xml:space="preserve">
<g id="CarbonIT">
	<g>
		<g>
			<defs>
				<rect id="SVGID_21_" y="50.536" width="595.276" height="132.095"/>
			</defs>
			<clipPath id="SVGID_22_">
				<use xlink:href="#SVGID_21_"  style="overflow:visible;"/>
			</clipPath>
			<g style="clip-path:url(#SVGID_22_);">
				<defs>
					<rect id="SVGID_23_" x="-14.631" y="-13.705" width="623.62" height="260.79"/>
				</defs>
				<clipPath id="SVGID_24_">
					<use xlink:href="#SVGID_23_"  style="overflow:visible;"/>
				</clipPath>
				<path style="clip-path:url(#SVGID_24_);fill:#13120D;" d="M589.157,66.845l-21.141-13.092c-2.962-1.765-5.327-3.189-8.972-3.217
					c-3.738-0.028-5.687,1.452-8.729,3.26l-21.502,13.217c-3.384,2.281-5.948,6.42-5.948,10.752v26.862
					c0,4.54,2.139,8.375,5.955,10.641l21.358,12.613c2.968,1.768,5.14,3.192,8.776,3.213c3.735,0.028,6.053-1.445,9.102-3.25
					l21.191-12.626c3.682-2.191,6.029-6.2,6.029-10.591V77.951C595.276,73.415,592.97,69.12,589.157,66.845 M551.101,106.489h-7.079
					V79.605h7.079V106.489z M577.991,85.267h-8.487v21.222h-7.082V85.267h-7.07v-5.662h22.639V85.267z"/>
				<path style="clip-path:url(#SVGID_24_);fill:#13120D;" d="M41.671,102.287c20.002,0,29.484,11.436,29.484,11.436l-8.427,13.086
					c0,0-7.969-8.279-20.003-8.279c-14.14,0-23.318,10.691-23.318,23.78c0,12.943,9.324,24.074,23.913,24.074
					c12.941,0,22.565-9.779,22.565-9.779l7.373,13.539c0,0-10.98,12.487-31.587,12.487C16.248,182.631,0,164.725,0,142.468
					C0,120.644,16.248,102.287,41.671,102.287"/>
				<path style="clip-path:url(#SVGID_24_);fill:#13120D;" d="M133.597,132.682h2.565v-1.062c0-10.078-6.32-13.537-14.747-13.537
					c-10.98,0-21.057,7.371-21.057,7.371l-7.225-13.692c0,0,11.879-9.475,30.086-9.475c20.159,0,31.89,11.128,31.89,30.538v47.997
					h-17.592v-6.318c0-3.005,0.293-5.416,0.293-5.416h-0.293c0.146,0-5.871,13.543-23.318,13.543
					c-13.69,0-26.029-8.577-26.029-23.923C88.17,134.339,121.114,132.682,133.597,132.682 M119.007,167.736
					c10.084,0,17.301-10.83,17.301-20.156v-1.802H133c-9.781,0-25.569,1.348-25.569,12.029
					C107.431,162.922,111.185,167.736,119.007,167.736"/>
				<path style="clip-path:url(#SVGID_24_);fill:#13120D;" d="M175.545,104.089h18.352v13.241c0,2.856-0.302,5.42-0.302,5.42h0.302
					c3.454-10.988,12.638-19.711,24.371-19.711c1.804,0,3.465,0.301,3.465,0.301v18.804c0,0-1.962-0.298-4.518-0.298
					c-8.123,0-17.299,4.664-20.917,16.103c-1.202,3.767-1.651,7.978-1.651,12.49v30.383h-19.102V104.089z"/>
				<path style="clip-path:url(#SVGID_24_);fill:#13120D;" d="M241.174,74.001h19.105v32.957c0,3.75-0.304,6.457-0.304,6.457h0.304
					c0,0,6.769-11.128,23.015-11.128c20.772,0,34.01,16.399,34.01,40.181c0,24.367-14.895,40.162-35.209,40.162
					c-15.955,0-22.872-11.439-22.872-11.439h-0.299c0,0,0.299,2.26,0.299,5.271v4.36h-18.049V74.001z M278.779,166.527
					c10.531,0,19.258-8.568,19.258-23.758c0-14.611-7.819-24.083-19.1-24.083c-9.931,0-19.263,7.219-19.263,24.226
					C259.674,154.799,265.991,166.527,278.779,166.527"/>
				<path style="clip-path:url(#SVGID_24_);fill:#13120D;" d="M374.891,102.287c23.471,0,42.278,16.697,42.278,40.181
					c0,23.615-18.807,40.162-42.12,40.162c-23.465,0-42.276-16.547-42.276-40.162C332.773,118.984,351.584,102.287,374.891,102.287
					 M375.049,166.384c12.334,0,22.71-9.631,22.71-23.916c0-14.155-10.376-23.938-22.71-23.938
					c-12.486,0-22.872,9.783-22.872,23.938C352.177,156.753,362.563,166.384,375.049,166.384"/>
				<path style="clip-path:url(#SVGID_24_);fill:#13120D;" d="M432.304,104.089h18.347v8.882c0,2.859-0.304,5.261-0.304,5.261h0.304
					c3.316-6.47,11.734-15.945,27.229-15.945c16.999,0,26.626,8.872,26.626,29.186v49.349h-18.96v-45.43
					c0-9.341-2.402-15.653-12.185-15.653c-10.23,0-17.747,6.467-20.603,15.653c-1.053,3.157-1.358,6.622-1.358,10.233v35.197
					h-19.096V104.089z"/>
			</g>
		</g>
	</g>
</g>
</svg>
