<?xml version="1.0" encoding="iso-8859-1"?>
<!-- Generator: Adobe Illustrator 18.1.1, SVG Export Plug-In . SVG Version: 6.00 Build 0)  -->
<svg version="1.1" xmlns="http://www.w3.org/2000/svg" xmlns:xlink="http://www.w3.org/1999/xlink" x="0px" y="0px"
	 viewBox="0 0 595.28 260.79" style="enable-background:new 0 0 595.28 260.79;" xml:space="preserve">
<g id="Arolla">
	<g>
		<path style="fill:#878787;" d="M121.753,198.11v-63.655c0-21.211-17.912-32.046-36.773-32.046
			c-22.868,0-37.242,18.149-37.242,39.603c0,20.971,15.318,38.643,37.009,38.643c11.779,0,21.447-6.598,28.514-15.55v24.518
			c-8.244,6.119-16.259,10.842-30.64,10.842c-32.525,0-55.622-26.872-55.622-60.11C27,108.066,49.152,82.6,85.449,82.6
			c34.89,0,57.05,21.223,57.05,53.758v61.751H121.753L121.753,198.11z"/>
		<path style="fill:#878787;" d="M162.293,84.969h19.802v12.956h0.469c7.067-11.074,16.735-15.322,30.639-15.322h4.72v19.805h-3.066
			c-20.038,0-31.817,12.259-31.817,42.902v52.799h-20.746V84.969L162.293,84.969z"/>
		<path style="fill:#878787;" d="M282.977,180.655c21.455,0,37.005-16.023,37.005-39.108c0-23.116-15.55-39.138-37.005-39.138
			c-21.454,0-37.006,16.023-37.006,39.138C245.971,164.633,261.523,180.655,282.977,180.655 M282.977,82.6
			c31.352,0,58.689,24.052,58.689,58.947c0,34.872-27.337,58.918-58.689,58.918c-31.348,0-58.696-24.046-58.696-58.918
			C224.281,106.653,251.629,82.6,282.977,82.6"/>
		<path style="fill:#13A538;" d="M423.59,1c-14.468,13.113-28.928,12.146-28.928,12.146l-14.243,49.682L341.629,198.11h27.25
			c0,0,21.72-77.124,37.874-135.282C415.153,32.588,422.049,7.46,423.59,1"/>
		<path style="fill:#13A538;" d="M445.099,13.146l-14.243,49.678L392.066,198.11h27.25c0,0,21.728-77.127,37.874-135.286
			c8.4-30.24,15.296-55.361,16.837-61.82C459.552,14.116,445.099,13.146,445.099,13.146"/>
		<path style="fill:#878787;" d="M554.039,198.11v-63.655c0-21.211-17.919-32.046-36.769-32.046
			c-22.868,0-37.249,18.149-37.249,39.603c0,20.971,15.326,38.643,37.009,38.643c11.779,0,21.444-6.598,28.521-15.55v24.518
			c-8.255,6.119-16.263,10.842-30.643,10.842c-32.533,0-55.626-26.872-55.626-60.11c0-32.289,22.156-57.755,58.453-57.755
			c34.88,0,57.043,21.223,57.043,53.758v61.751H554.039L554.039,198.11z"/>
		<polygon style="fill:#878787;" points="31.821,219.416 42.663,243.265 53.766,219.416 58.126,249.231 54.911,249.231 
			52.284,229.625 42.663,250.422 33.184,229.575 30.386,249.231 27.163,249.231 31.821,219.416 		"/>
		<path style="fill:#878787;" d="M67.497,245.111c1.072,1.249,2.456,1.882,4.145,1.882c1.755,0,3.176-0.625,4.255-1.86
			c1.094-1.243,1.639-2.856,1.639-4.84c0-1.86-0.552-3.379-1.653-4.571c-1.101-1.191-2.529-1.773-4.28-1.773
			c-1.613,0-2.969,0.61-4.07,1.845c-1.093,1.221-1.653,2.732-1.653,4.498C65.88,242.248,66.418,243.846,67.497,245.111
			 M80.37,231.653v17.585h-3.052v-2.463c-0.839,1.054-1.755,1.802-2.729,2.245c-0.977,0.458-2.093,0.683-3.364,0.683
			c-2.456,0-4.48-0.887-6.057-2.674c-1.584-1.773-2.376-4.048-2.376-6.809c0-2.609,0.807-4.759,2.42-6.445
			c1.606-1.7,3.623-2.543,6.049-2.543c1.25,0,2.343,0.233,3.303,0.698c0.963,0.465,1.886,1.206,2.754,2.223v-2.5H80.37
			L80.37,231.653z"/>
		<path style="fill:#878787;" d="M93.333,235.722c-0.312-0.595-0.661-1.031-1.064-1.308c-0.396-0.291-0.839-0.429-1.348-0.429
			c-0.603,0-1.108,0.181-1.533,0.545c-0.421,0.371-0.632,0.828-0.632,1.359c0,0.625,0.255,1.112,0.76,1.49
			c0.509,0.363,1.134,0.697,1.867,1.01c0.225,0.094,0.462,0.181,0.701,0.283c0.236,0.087,0.483,0.189,0.737,0.312
			c1.018,0.458,1.948,1.039,2.798,1.781c0.847,0.726,1.272,1.816,1.272,3.255c0,1.613-0.574,2.965-1.719,4.055
			c-1.141,1.075-2.547,1.627-4.218,1.627c-1.49,0-2.761-0.363-3.812-1.105c-1.035-0.741-1.845-1.853-2.412-3.342l2.674-1.105
			c0.08,0.168,0.171,0.335,0.251,0.48c0.084,0.167,0.156,0.32,0.211,0.45c0.421,0.734,0.868,1.236,1.33,1.512
			c0.469,0.261,1.072,0.4,1.809,0.4c0.81,0,1.486-0.269,2.031-0.814c0.534-0.53,0.803-1.228,0.803-2.071
			c0-0.763-0.305-1.359-0.916-1.781c-0.603-0.428-1.315-0.821-2.136-1.185c-0.171-0.058-0.327-0.116-0.483-0.188
			c-0.156-0.073-0.305-0.139-0.447-0.189c-0.988-0.451-1.897-1.018-2.729-1.686c-0.843-0.654-1.25-1.635-1.25-2.935
			c0-1.41,0.498-2.587,1.501-3.517c1.006-0.93,2.256-1.395,3.753-1.395c1.01,0,1.918,0.269,2.707,0.785
			c0.796,0.523,1.45,1.315,1.995,2.398L93.333,235.722L93.333,235.722z"/>
		<polygon style="fill:#878787;" points="104.008,249.238 100.956,249.238 100.956,234.458 99.132,234.458 99.132,231.653 
			100.956,231.653 100.956,225.301 104.008,225.301 104.008,231.653 107.099,231.653 107.099,234.458 104.008,234.458 
			104.008,249.238 		"/>
		<path style="fill:#878787;" d="M120.772,235.214c-0.93-0.829-2.046-1.228-3.34-1.228c-1.272,0-2.398,0.429-3.371,1.271
			c-0.974,0.843-1.569,1.933-1.798,3.27h10.333C122.32,237.132,121.713,236.027,120.772,235.214 M112.052,241.055
			c0.083,1.759,0.632,3.176,1.652,4.288c1.018,1.097,2.286,1.65,3.808,1.65c0.901,0,1.689-0.139,2.354-0.429
			c0.661-0.276,1.301-0.756,1.926-1.432c0.192-0.262,0.403-0.53,0.618-0.807c0.207-0.291,0.432-0.61,0.654-0.981l2.54,1.41
			c-0.872,1.504-1.995,2.725-3.365,3.612c-1.37,0.9-2.961,1.337-4.763,1.337c-2.543,0-4.614-0.857-6.213-2.587
			c-1.591-1.723-2.387-3.953-2.387-6.693c0-2.682,0.796-4.891,2.387-6.605c1.599-1.723,3.655-2.587,6.169-2.587
			c2.881,0,4.992,0.988,6.333,2.965c1.337,1.976,2.009,4.258,2.009,6.859H112.052L112.052,241.055z"/>
		<path style="fill:#878787;" d="M133.401,231.653v1.904c0.371-0.421,0.683-0.77,0.952-1.061c0.266-0.276,0.549-0.508,0.833-0.712
			c0.334-0.232,0.683-0.371,1.05-0.45c0.371-0.058,0.81-0.102,1.315-0.102c0.171,0,0.335,0.015,0.483,0.015
			c0.163,0.029,0.305,0.043,0.446,0.072c0.233,0.029,0.469,0.095,0.723,0.182c0.254,0.109,0.552,0.247,0.894,0.458l-1.446,2.747
			c-0.193-0.145-0.378-0.247-0.548-0.334c-0.171-0.095-0.32-0.145-0.462-0.174c-0.12-0.022-0.24-0.044-0.356-0.073
			c-0.135,0-0.269-0.015-0.411-0.015c-1.214,0-2.1,0.465-2.648,1.381c-0.553,0.915-0.825,2.412-0.825,4.462v9.286h-3.008v-17.585
			H133.401L133.401,231.653z"/>
		<path style="fill:#878787;" d="M145.94,249.238h-3.052v-17.585h3.052V249.238L145.94,249.238z M142.888,223.478
			c0.425-0.414,0.93-0.639,1.526-0.639c0.596,0,1.1,0.225,1.526,0.639c0.425,0.428,0.632,0.93,0.632,1.526
			c0,0.617-0.207,1.14-0.632,1.548c-0.426,0.407-0.93,0.603-1.526,0.603c-0.596,0-1.101-0.196-1.526-0.625
			c-0.425-0.429-0.632-0.923-0.632-1.526C142.256,224.408,142.463,223.906,142.888,223.478"/>
		<path style="fill:#878787;" d="M154.707,231.653v2.122c0.141-0.174,0.276-0.32,0.378-0.443c0.112-0.138,0.24-0.269,0.388-0.406
			c0.618-0.618,1.264-1.069,1.947-1.315c0.68-0.247,1.468-0.378,2.369-0.378c2.26,0,3.823,0.683,4.701,2.035
			c0.879,1.351,1.308,3.022,1.308,5.043v10.929h-3.041v-10.376c0-1.81-0.276-3.081-0.828-3.822
			c-0.549-0.726-1.486-1.097-2.812-1.097c-1.555,0-2.678,0.516-3.369,1.548c-0.694,1.032-1.043,2.674-1.043,4.934v8.814h-3.008
			v-17.585H154.707L154.707,231.653z"/>
		<path style="fill:#878787;" d="M175.082,245.111c1.043,1.206,2.383,1.83,4.018,1.83c1.817,0,3.267-0.595,4.367-1.795
			c1.101-1.199,1.653-2.754,1.653-4.672c0-1.991-0.552-3.56-1.653-4.752c-1.1-1.191-2.565-1.773-4.404-1.773
			c-1.555,0-2.866,0.61-3.935,1.86c-1.079,1.249-1.617,2.776-1.617,4.607C173.512,242.32,174.039,243.875,175.082,245.111
			 M188.002,248.816c0,1.606-0.106,2.885-0.298,3.823c-0.204,0.944-0.567,1.831-1.101,2.645c-0.062,0.059-0.105,0.123-0.149,0.196
			c-0.04,0.079-0.091,0.152-0.149,0.24c-0.789,1.061-1.795,1.882-3.008,2.427c-1.214,0.552-2.598,0.828-4.153,0.828
			c-2.452,0-4.44-0.726-5.966-2.194c-1.526-1.482-2.336-3.444-2.42-5.901l2.961,0.044c0.141,1.671,0.687,2.972,1.639,3.902
			c0.944,0.938,2.187,1.388,3.742,1.388c2.718,0,4.367-0.871,4.963-2.616c0.589-1.759,0.901-3.677,0.93-5.756v-0.537v-0.53
			c-0.847,0.959-1.791,1.679-2.841,2.158c-1.043,0.48-2.151,0.727-3.343,0.727c-2.402,0-4.404-0.872-5.995-2.601
			c-1.595-1.73-2.391-3.91-2.391-6.533c0-2.623,0.795-4.817,2.391-6.605c1.592-1.795,3.557-2.688,5.868-2.688
			c1.355,0,2.525,0.218,3.513,0.676c0.988,0.458,1.918,1.206,2.798,2.246v-2.5h3.008V248.816L188.002,248.816z"/>
		<path style="fill:#878787;" d="M218.958,226.581c-0.109-0.181-0.214-0.334-0.312-0.494c-0.095-0.16-0.208-0.305-0.313-0.45
			c-0.563-0.785-1.167-1.345-1.806-1.664c-0.632-0.327-1.377-0.487-2.227-0.487c-1.374,0-2.536,0.392-3.466,1.177
			c-0.93,0.799-1.399,1.787-1.399,3.016c0,1.235,0.49,2.216,1.482,2.914c0.988,0.697,2.148,1.38,3.473,1.991
			c0.255,0.116,0.512,0.218,0.781,0.342c0.276,0.123,0.527,0.24,0.781,0.385c1.638,0.727,3.146,1.657,4.494,2.769
			c1.355,1.112,2.031,2.761,2.031,4.941c0,2.456-0.854,4.513-2.558,6.184c-1.712,1.657-3.811,2.5-6.29,2.5
			c-2.292,0-4.196-0.639-5.722-1.89c-1.526-1.249-2.551-3.037-3.096-5.348l3.059-0.858c0.386,1.701,1.065,2.979,2.031,3.866
			c0.951,0.865,2.173,1.308,3.64,1.308c1.665,0,3.041-0.545,4.128-1.642c1.079-1.076,1.632-2.442,1.632-4.085
			c0-1.438-0.56-2.543-1.668-3.313c-1.122-0.785-2.397-1.511-3.84-2.18c-0.164-0.094-0.334-0.174-0.505-0.247
			c-0.17-0.072-0.342-0.152-0.505-0.225c-1.646-0.734-3.136-1.621-4.494-2.667c-1.356-1.054-2.031-2.601-2.031-4.665
			c0-2.122,0.756-3.852,2.282-5.203c1.525-1.366,3.491-2.042,5.893-2.042c1.467,0,2.797,0.378,4.003,1.127
			c1.2,0.748,2.202,1.845,3.031,3.277L218.958,226.581L218.958,226.581z"/>
		<path style="fill:#878787;" d="M231.155,245.14c1.163,1.235,2.628,1.845,4.415,1.845c1.839,0,3.331-0.596,4.502-1.816
			c1.181-1.221,1.755-2.776,1.755-4.665c0-1.904-0.574-3.488-1.755-4.694c-1.171-1.207-2.663-1.831-4.502-1.831
			c-1.787,0-3.252,0.624-4.415,1.86c-1.152,1.221-1.733,2.776-1.733,4.665C229.422,242.378,230.003,243.919,231.155,245.14
			 M229.044,233.92c1.806-1.787,3.993-2.688,6.562-2.688c2.598,0,4.807,0.901,6.609,2.688c1.805,1.796,2.706,3.982,2.706,6.584
			c0,2.58-0.901,4.752-2.706,6.525c-1.802,1.787-4.011,2.667-6.609,2.667c-2.569,0-4.756-0.88-6.562-2.667
			c-1.809-1.773-2.717-3.946-2.717-6.525C226.327,237.902,227.235,235.715,229.044,233.92"/>
		<path style="fill:#878787;" d="M252.555,249.238h-3.045v-14.78h-1.66v-2.805h1.66v-7.5c0-1.714,0.363-3.197,1.115-4.433
			c0.752-1.249,2.1-1.874,4.04-1.874c0.181,0,0.338,0,0.494,0.029c0.156,0.014,0.305,0.014,0.443,0.014
			c0.174,0.03,0.367,0.073,0.589,0.131c0.232,0.051,0.483,0.117,0.759,0.204v3.052c-0.276-0.109-0.512-0.196-0.705-0.261
			c-0.211-0.044-0.403-0.087-0.604-0.117c-0.105-0.029-0.225-0.051-0.334-0.051h-0.388c-0.924,0-1.555,0.283-1.875,0.821
			c-0.327,0.567-0.49,1.627-0.49,3.212v6.773h4.396v2.805h-4.396V249.238L252.555,249.238z"/>
		<polygon style="fill:#878787;" points="262.725,249.238 259.666,249.238 259.666,234.458 257.852,234.458 257.852,231.653 
			259.666,231.653 259.666,225.301 262.725,225.301 262.725,231.653 265.813,231.653 265.813,234.458 262.725,234.458 
			262.725,249.238 		"/>
		<polygon style="fill:#878787;" points="274.799,243.556 280.306,230.301 285.767,243.556 291.021,231.653 294.403,231.653 
			285.683,250.474 280.259,237.328 274.834,250.474 266.198,231.653 269.588,231.653 274.799,243.556 		"/>
		<path style="fill:#878787;" d="M301.176,245.111c1.083,1.249,2.456,1.882,4.156,1.882c1.743,0,3.175-0.625,4.258-1.86
			c1.082-1.243,1.628-2.856,1.628-4.84c0-1.86-0.552-3.379-1.657-4.571c-1.09-1.191-2.514-1.773-4.273-1.773
			c-1.613,0-2.965,0.61-4.069,1.845c-1.105,1.221-1.656,2.732-1.656,4.498C299.563,242.248,300.108,243.846,301.176,245.111
			 M314.06,231.653v17.585h-3.052v-2.463c-0.85,1.054-1.752,1.802-2.725,2.245c-0.981,0.458-2.107,0.683-3.372,0.683
			c-2.455,0-4.476-0.887-6.06-2.674c-1.577-1.773-2.377-4.048-2.377-6.809c0-2.609,0.814-4.759,2.42-6.445
			c1.607-1.7,3.619-2.543,6.061-2.543c1.235,0,2.339,0.233,3.299,0.698c0.959,0.465,1.874,1.206,2.754,2.223v-2.5H314.06
			L314.06,231.653z"/>
		<path style="fill:#878787;" d="M322.83,231.653v1.904c0.364-0.421,0.683-0.77,0.959-1.061c0.262-0.276,0.538-0.508,0.814-0.712
			c0.334-0.232,0.698-0.371,1.061-0.45c0.363-0.058,0.807-0.102,1.316-0.102c0.167,0,0.334,0.015,0.487,0.015
			c0.16,0.029,0.305,0.043,0.443,0.072c0.225,0.029,0.472,0.095,0.712,0.182c0.261,0.109,0.566,0.247,0.901,0.458l-1.447,2.747
			c-0.203-0.145-0.378-0.247-0.552-0.334c-0.16-0.095-0.32-0.145-0.458-0.174c-0.124-0.022-0.24-0.044-0.364-0.073
			c-0.124,0-0.254-0.015-0.399-0.015c-1.22,0-2.093,0.465-2.652,1.381c-0.545,0.915-0.822,2.412-0.822,4.462v9.286h-3.022v-17.585
			H322.83L322.83,231.653z"/>
		<path style="fill:#878787;" d="M343.075,235.214c-0.93-0.829-2.049-1.228-3.35-1.228c-1.272,0-2.39,0.429-3.364,1.271
			c-0.974,0.843-1.569,1.933-1.802,3.27h10.333C344.616,237.132,344.005,236.027,343.075,235.214 M334.341,241.055
			c0.087,1.759,0.647,3.176,1.657,4.288c1.017,1.097,2.296,1.65,3.808,1.65c0.901,0,1.693-0.139,2.362-0.429
			c0.661-0.276,1.301-0.756,1.918-1.432c0.203-0.262,0.414-0.53,0.625-0.807c0.203-0.291,0.428-0.61,0.647-0.981l2.543,1.41
			c-0.872,1.504-1.999,2.725-3.357,3.612c-1.38,0.9-2.972,1.337-4.774,1.337c-2.536,0-4.614-0.857-6.206-2.587
			c-1.591-1.723-2.391-3.953-2.391-6.693c0-2.682,0.8-4.891,2.391-6.605c1.592-1.723,3.655-2.587,6.162-2.587
			c2.885,0,4.992,0.988,6.329,2.965c1.352,1.976,2.02,4.258,2.02,6.859H334.341L334.341,241.055z"/>
		<path style="fill:#878787;" d="M371.161,246.317c3.379,0,6.22-0.989,8.487-2.973c2.274-1.969,3.408-4.716,3.408-8.218
			c0-3.386-1.075-6.097-3.234-8.124c-2.158-2.035-5.05-3.052-8.661-3.052h-2.754v22.367H371.161L371.161,246.317z M365.224,220.978
			h5.814c2.281,0,4.229,0.269,5.857,0.778c1.628,0.537,3.138,1.38,4.52,2.529c1.577,1.294,2.783,2.871,3.619,4.724
			c0.828,1.845,1.25,3.909,1.25,6.162c0,2.209-0.436,4.229-1.279,6.053c-0.843,1.845-2.063,3.423-3.676,4.745
			c-0.029,0.029-0.073,0.058-0.117,0.087c-0.036,0.029-0.072,0.066-0.094,0.087c-1.417,1.134-2.885,1.926-4.425,2.398
			c-1.54,0.45-3.444,0.697-5.697,0.697h-5.77V220.978L365.224,220.978z"/>
		<path style="fill:#878787;" d="M402.037,235.214c-0.938-0.829-2.049-1.228-3.343-1.228c-1.278,0-2.398,0.429-3.371,1.271
			c-0.973,0.843-1.569,1.933-1.802,3.27h10.341C403.577,237.132,402.967,236.027,402.037,235.214 M393.309,241.055
			c0.094,1.759,0.64,3.176,1.65,4.288c1.017,1.097,2.296,1.65,3.807,1.65c0.901,0,1.694-0.139,2.362-0.429
			c0.661-0.276,1.301-0.756,1.926-1.432c0.196-0.262,0.407-0.53,0.625-0.807c0.196-0.291,0.421-0.61,0.639-0.981l2.543,1.41
			c-0.88,1.504-1.998,2.725-3.357,3.612c-1.38,0.9-2.965,1.337-4.767,1.337c-2.543,0-4.622-0.857-6.206-2.587
			c-1.598-1.723-2.398-3.953-2.398-6.693c0-2.682,0.799-4.891,2.398-6.605c1.584-1.723,3.641-2.587,6.162-2.587
			c2.878,0,4.985,0.988,6.323,2.965c1.351,1.976,2.019,4.258,2.019,6.859H393.309L393.309,241.055z"/>
		<polygon style="fill:#878787;" points="417.754,243.468 422.965,231.609 426.35,231.609 417.754,250.379 409.114,231.609 
			412.5,231.609 417.754,243.468 		"/>
		<path style="fill:#878787;" d="M440.332,235.214c-0.93-0.829-2.043-1.228-3.357-1.228c-1.264,0-2.383,0.429-3.357,1.271
			c-0.974,0.843-1.569,1.933-1.795,3.27h10.326C441.872,237.132,441.262,236.027,440.332,235.214 M431.612,241.055
			c0.087,1.759,0.625,3.176,1.642,4.288c1.017,1.097,2.296,1.65,3.815,1.65c0.908,0,1.679-0.139,2.362-0.429
			c0.653-0.276,1.293-0.756,1.918-1.432c0.189-0.262,0.407-0.53,0.625-0.807c0.203-0.291,0.414-0.61,0.647-0.981l2.543,1.41
			c-0.887,1.504-2.013,2.725-3.365,3.612c-1.38,0.9-2.965,1.337-4.774,1.337c-2.536,0-4.614-0.857-6.198-2.587
			c-1.598-1.723-2.398-3.953-2.398-6.693c0-2.682,0.8-4.891,2.398-6.605c1.584-1.723,3.647-2.587,6.148-2.587
			c2.892,0,5,0.988,6.344,2.965c1.345,1.976,2.013,4.258,2.013,6.859H431.612L431.612,241.055z"/>
		<polygon style="fill:#878787;" points="452.947,249.238 449.938,249.238 449.938,218.355 452.947,218.355 452.947,249.238 		"/>
		<path style="fill:#878787;" d="M462.393,245.14c1.156,1.235,2.623,1.845,4.404,1.845c1.845,0,3.342-0.596,4.512-1.816
			c1.177-1.221,1.759-2.776,1.759-4.665c0-1.904-0.582-3.488-1.759-4.694c-1.17-1.207-2.667-1.831-4.512-1.831
			c-1.781,0-3.248,0.624-4.404,1.86c-1.163,1.221-1.729,2.776-1.729,4.665C460.664,242.378,461.23,243.919,462.393,245.14
			 M460.271,233.92c1.817-1.787,3.997-2.688,6.57-2.688c2.594,0,4.803,0.901,6.612,2.688c1.81,1.796,2.703,3.982,2.703,6.584
			c0,2.58-0.894,4.752-2.703,6.525c-1.809,1.787-4.018,2.667-6.612,2.667c-2.573,0-4.753-0.88-6.57-2.667
			c-1.801-1.773-2.71-3.946-2.71-6.525C457.561,237.902,458.469,235.715,460.271,233.92"/>
		<path style="fill:#878787;" d="M493.639,235.831c-1.09-1.257-2.47-1.889-4.128-1.889c-1.729,0-3.146,0.618-4.244,1.868
			c-1.097,1.242-1.642,2.855-1.642,4.825c0,1.831,0.552,3.357,1.671,4.556c1.119,1.199,2.536,1.802,4.244,1.802
			c1.613,0,2.979-0.61,4.07-1.824c1.104-1.214,1.664-2.718,1.664-4.534C495.274,238.687,494.714,237.081,493.639,235.831
			 M480.785,259.142v-27.49h3.001v2.456c0.901-1.01,1.839-1.743,2.798-2.194c0.959-0.458,2.071-0.683,3.35-0.683
			c2.456,0,4.469,0.894,6.046,2.674c1.598,1.773,2.383,4.047,2.383,6.816c0,2.572-0.814,4.701-2.42,6.409
			c-1.606,1.715-3.626,2.572-6.053,2.572c-1.221,0-2.318-0.232-3.306-0.712c-0.996-0.458-1.926-1.191-2.798-2.209v12.361H480.785
			L480.785,259.142z"/>
		<path style="fill:#878787;" d="M505.993,231.653v1.86c0.08-0.117,0.174-0.225,0.261-0.335c0.102-0.116,0.211-0.225,0.334-0.334
			c0.53-0.596,1.098-1.003,1.708-1.25c0.611-0.232,1.36-0.363,2.275-0.363c0.959,0,1.846,0.247,2.659,0.749
			c0.814,0.486,1.468,1.184,1.947,2.1c0.545-0.915,1.243-1.613,2.093-2.1c0.857-0.502,1.831-0.749,2.906-0.749
			c2.165,0,3.684,0.654,4.549,1.962c0.858,1.322,1.302,2.95,1.302,4.898v11.147h-3.016v-10.681c0-1.606-0.247-2.776-0.741-3.517
			c-0.494-0.726-1.301-1.097-2.427-1.097c-1.257,0-2.187,0.458-2.819,1.373c-0.639,0.916-0.952,2.304-0.952,4.135v9.788h-3.016
			V238.81c0-1.606-0.262-2.813-0.799-3.641c-0.538-0.814-1.323-1.228-2.369-1.228c-1.308,0-2.281,0.473-2.935,1.417
			c-0.64,0.945-0.959,2.383-0.959,4.301v9.577h-3.016v-17.585H505.993L505.993,231.653z"/>
		<path style="fill:#878787;" d="M542.544,235.214c-0.945-0.829-2.057-1.228-3.357-1.228c-1.264,0-2.398,0.429-3.371,1.271
			c-0.974,0.843-1.563,1.933-1.795,3.27h10.34C544.07,237.132,543.459,236.027,542.544,235.214 M533.809,241.055
			c0.087,1.759,0.639,3.176,1.642,4.288c1.025,1.097,2.296,1.65,3.822,1.65c0.901,0,1.686-0.139,2.354-0.429
			c0.654-0.276,1.294-0.756,1.926-1.432c0.196-0.262,0.4-0.53,0.625-0.807c0.196-0.291,0.414-0.61,0.647-0.981l2.543,1.41
			c-0.886,1.504-2.005,2.725-3.372,3.612c-1.374,0.9-2.965,1.337-4.767,1.337c-2.543,0-4.614-0.857-6.206-2.587
			c-1.599-1.723-2.391-3.953-2.391-6.693c0-2.682,0.792-4.891,2.391-6.605c1.592-1.723,3.648-2.587,6.162-2.587
			c2.877,0,4.992,0.988,6.337,2.965c1.337,1.976,2.02,4.258,2.02,6.859H533.809L533.809,241.055z"/>
		<path style="fill:#878787;" d="M555.158,231.653v2.122c0.145-0.174,0.276-0.32,0.385-0.443c0.109-0.138,0.225-0.269,0.371-0.406
			c0.624-0.618,1.278-1.069,1.961-1.315c0.669-0.247,1.468-0.378,2.369-0.378c2.267,0,3.823,0.683,4.701,2.035
			c0.872,1.351,1.316,3.022,1.316,5.043v10.929h-3.052v-10.376c0-1.81-0.276-3.081-0.828-3.822c-0.552-0.726-1.49-1.097-2.819-1.097
			c-1.555,0-2.682,0.516-3.365,1.548c-0.69,1.032-1.039,2.674-1.039,4.934v8.814h-3.008v-17.585H555.158L555.158,231.653z"/>
		<polygon style="fill:#878787;" points="575.076,249.238 572.017,249.238 572.017,234.458 570.193,234.458 570.193,231.653 
			572.017,231.653 572.017,225.301 575.076,225.301 575.076,231.653 578.157,231.653 578.157,234.458 575.076,234.458 
			575.076,249.238 		"/>
	</g>
</g>
</svg>
