<?xml version="1.0" encoding="UTF-8" standalone="no"?>
<!-- Generator: Adobe Illustrator 18.1.1, SVG Export Plug-In . SVG Version: 6.00 Build 0)  -->

<svg xmlns:dc="http://purl.org/dc/elements/1.1/" xmlns:cc="http://creativecommons.org/ns#" xmlns:rdf="http://www.w3.org/1999/02/22-rdf-syntax-ns#" xmlns:svg="http://www.w3.org/2000/svg" xmlns="http://www.w3.org/2000/svg" xmlns:xlink="http://www.w3.org/1999/xlink" xmlns:sodipodi="http://sodipodi.sourceforge.net/DTD/sodipodi-0.dtd" xmlns:inkscape="http://www.inkscape.org/namespaces/inkscape" version="1.1" x="0px" y="0px" viewBox="0 0 595.28 260.79" style="enable-background:new 0 0 595.28 260.79;" xml:space="preserve" id="svg5545" inkscape:version="0.91 r13725" sodipodi:docname="couchbase.svg" inkscape:export-filename="/Users/csabourdin/Documents/projets/personnel/ParisJug/xwikiwebsite/Logo_2016/png/couchbase.png" inkscape:export-xdpi="34.471172" inkscape:export-ydpi="34.471172">
	<metadata id="metadata6635">
		<rdf:RDF>
			<cc:Work rdf:about="">
				<dc:format>image/svg+xml</dc:format>
				<dc:type rdf:resource="http://purl.org/dc/dcmitype/StillImage" />
				<dc:title></dc:title>
			</cc:Work>
		</rdf:RDF>
	</metadata>
	<defs id="defs6633">
		<inkscape:perspective sodipodi:type="inkscape:persp3d" inkscape:vp_x="0 : 130.395 : 1" inkscape:vp_y="0 : 1000 : 0" inkscape:vp_z="595.28 : 130.395 : 1" inkscape:persp3d-origin="297.64 : 86.93 : 1" id="perspective6639" />
	</defs>
	<sodipodi:namedview pagecolor="#ffffff" bordercolor="#666666" borderopacity="1" objecttolerance="10" gridtolerance="10" guidetolerance="10" inkscape:pageopacity="0" inkscape:pageshadow="2" inkscape:window-width="1680" inkscape:window-height="1006" id="namedview6631" showgrid="false" inkscape:zoom="0.61709106" inkscape:cx="312.86808" inkscape:cy="546.79879" inkscape:window-x="81" inkscape:window-y="0" inkscape:window-maximized="0" inkscape:current-layer="layer10" />
	<g inkscape:groupmode="layer" id="layer10" inkscape:label="couchebase">
		<g id="g8020" transform="matrix(1.0056319,0,0,1.0244884,-3.4038889,37.918024)">
			<g id="g8022">
				<path id="path8024" d="m 210.31,120.939 c -20.316,0 -30.517,-14.647 -30.517,-30.76 0,-16.093 10.558,-30.586 30.717,-30.586 7.734,0 13.225,1.689 17.873,4.733 l -5.781,9.47 c -3.267,-2.091 -6.891,-3.445 -12.292,-3.445 -10.87,0 -16.715,8.668 -16.715,19.469 0,11.137 5.577,20.274 16.914,20.274 6.401,0 10.246,-2.244 13.316,-4.512 l 5.332,9.113 c -3.02,2.734 -10.2,6.244 -18.847,6.244 z" inkscape:connector-curvature="0" />
				<path id="path8026" d="m 253.379,84.508 c -6.516,0 -8.626,5.47 -8.626,13.45 0,8.002 2.555,13.734 9.067,13.734 6.581,0 8.826,-5.354 8.826,-13.357 10e-4,-8.002 -2.689,-13.827 -9.267,-13.827 z m 0.243,36.431 c -15.16,0 -21.847,-11.403 -21.847,-22.604 0,-11.203 6.6,-22.896 21.76,-22.896 15.181,0 22.092,11.315 22.092,22.52 -0.001,11.024 -6.757,22.98 -22.005,22.98 z" inkscape:connector-curvature="0" />
				<path id="path8028" d="m 294.826,76.506 0,27.832 c 0,4.268 1.489,6.4 5.646,6.4 4.378,0 7.737,-4.16 8.623,-5.224 l 0,-29.008 12.249,0 0,30.63 c 0,5.67 0.624,10.089 1.175,12.739 l -12.066,0 c -0.357,-1.156 -0.802,-4.002 -0.891,-5.76 -2.334,2.978 -6.801,6.824 -13.959,6.824 -9.556,0 -13.025,-6.132 -13.025,-14.093 l 0,-30.34 12.248,0 z" inkscape:connector-curvature="0" />
				<path id="path8030" d="m 351.345,120.939 c -13.981,0 -22.649,-9.135 -22.649,-22.696 0,-14.575 9.736,-22.805 23.006,-22.805 7.025,0 11.225,2.091 13.27,3.424 l -3.889,8.36 c -1.935,-1.225 -4.689,-2.512 -8.979,-2.512 -6.806,0 -10.424,5.267 -10.424,13.154 0,7.938 3.443,13.629 10.689,13.629 4.955,0 7.913,-1.802 9.244,-2.578 l 3.714,8.157 c -2.048,1.311 -6.048,3.867 -13.982,3.867 z" inkscape:connector-curvature="0" />
				<path id="path8032" d="m 398.066,119.875 0,-27.83 c 0,-4.268 -1.492,-6.4 -5.577,-6.4 -4.448,0 -7.806,4.088 -8.692,5.242 l 0,28.988 -12.25,0 0,-64.014 12.25,0 0,25.824 c 2.24,-2.4 6.398,-6.247 13.489,-6.247 9.558,0 13.03,6.091 13.03,14.114 l 0,30.322 -12.25,0 z" inkscape:connector-curvature="0" />
				<path id="path8034" d="m 432.536,110.448 c 0.801,0.268 2.623,0.934 5.825,0.934 6.332,0 10.179,-4.623 10.179,-13.517 0,-8.02 -2.713,-12.779 -8.89,-12.779 -3.647,0 -6.379,2.313 -7.114,3.227 l 0,22.135 z m 0,-54.587 0,24.045 c 1.956,-1.977 5.757,-4.468 10.581,-4.468 10.778,0 18.401,7.38 18.401,22.427 0,14.918 -10.022,23.074 -23.157,23.074 -9.893,0 -15.938,-2.465 -18.072,-3.465 l 0,-61.613 12.247,0 z" inkscape:connector-curvature="0" />
				<path id="path8036" d="m 490.557,100.759 -1.49,0 c -6.732,0 -11.379,2 -11.379,6.913 0,3.087 2.469,4.422 5.157,4.422 4.111,0 6.489,-2.356 7.712,-3.646 l 0,-7.689 z m 1.378,19.116 c -0.355,-1.069 -0.645,-3.27 -0.734,-4.604 -1.934,2.334 -6.001,5.668 -12.114,5.668 -7.401,0 -13.136,-4.443 -13.136,-12.247 0,-11.269 11.581,-15.426 23.115,-15.426 l 1.49,0 0,-2.38 c 0,-3.598 -1.466,-5.801 -6.913,-5.801 -5.558,0 -9.403,2.893 -11.003,4.048 l -5.29,-7.423 c 2.623,-2.359 8.402,-6.272 17.718,-6.272 12.021,0 17.67,4.579 17.67,16.158 l 0,15.229 c 0,5.979 0.622,10.247 1.244,13.049 l -12.047,0 z" inkscape:connector-curvature="0" />
				<path id="path8038" d="m 524.763,120.939 c -7.845,0 -12.847,-2.309 -15.513,-4.09 l 4.088,-8.532 c 1.713,1.154 5.908,3.553 10.69,3.553 4.468,0 6.98,-1.265 6.98,-3.734 0,-2.842 -4.924,-3.598 -11.068,-6.554 -5.968,-2.871 -9.512,-6.229 -9.512,-12.761 0,-8.202 6.511,-13.383 16.377,-13.383 7.426,0 11.984,2.27 13.984,3.445 l -4.247,8.339 c -1.71,-1.049 -5.112,-2.715 -9.246,-2.715 -4.133,0 -5.87,1.447 -5.87,3.666 0,2.848 4,3.537 8.961,5.537 6.849,2.762 11.711,5.961 11.711,13.25 0,9.178 -6.557,13.979 -17.335,13.979 z" inkscape:connector-curvature="0" />
				<path id="path8040" d="m 575.142,92.911 c -0.087,-4.802 -1.997,-8.688 -7.245,-8.688 -4.848,0 -7.603,3.085 -8.401,8.688 l 15.646,0 z m -4.667,18.959 c 5.868,0 9.092,-1.886 11.251,-2.954 l 3.909,7.848 c -2.889,1.619 -7.312,4.176 -16.294,4.176 -14.582,0 -22.874,-9.093 -22.874,-22.962 0,-13.781 9.536,-22.539 21.609,-22.539 13.669,0 20.268,9.491 18.825,25.698 l -27.339,0 c 0.579,6.468 3.911,10.733 10.913,10.733 z" inkscape:connector-curvature="0" />
			</g>
			<path id="path8042" d="m 77.793,24.092 c -36.544,0 -66.173,29.63 -66.173,66.176 0,36.545 29.629,66.173 66.173,66.173 36.544,0 66.172,-29.628 66.172,-66.173 0,-36.546 -29.628,-66.176 -66.172,-66.176 z m 44.728,77.773 c 0.002,3.955 -2.321,7.517 -6.813,8.294 -7.806,1.36 -24.182,2.193 -37.914,2.193 -13.732,0 -30.111,-0.833 -37.917,-2.193 -4.491,-0.777 -6.814,-4.339 -6.814,-8.294 0,-8.613 0,-17.23 0,-25.842 -0.002,-3.959 3.055,-7.653 6.814,-8.3 2.32,-0.401 7.683,-0.784 11.89,-0.768 1.584,0.006 2.866,1.244 2.871,3.137 0,0.007 -0.003,18.066 -0.003,18.066 8.068,-0.027 15.069,-0.482 23.159,-0.482 8.086,0 15.093,0.455 23.156,0.482 0,0 -0.002,-18.06 -0.002,-18.066 0.007,-1.893 1.286,-3.131 2.871,-3.137 4.207,-0.016 9.572,0.367 11.89,0.768 3.759,0.646 6.815,4.341 6.813,8.3 -0.001,8.612 -0.001,17.229 -0.001,25.842 z" style="fill:#cc2a2e" inkscape:connector-curvature="0" />
		</g>
	</g>
</svg>