<?xml version="1.0" encoding="iso-8859-1"?>
<!-- Generator: Adobe Illustrator 18.1.1, SVG Export Plug-In . SVG Version: 6.00 Build 0)  -->
<svg version="1.1" xmlns="http://www.w3.org/2000/svg" xmlns:xlink="http://www.w3.org/1999/xlink" x="0px" y="0px"
	 viewBox="0 0 595.28 260.79" style="enable-background:new 0 0 595.28 260.79;" xml:space="preserve">
<g id="Oxiane">
	<g>
		<g>
			<defs>
				<rect id="SVGID_11_" y="40.361" width="595.28" height="160.337"/>
			</defs>
			<clipPath id="SVGID_12_">
				<use xlink:href="#SVGID_11_"  style="overflow:visible;"/>
			</clipPath>
			<g style="clip-path:url(#SVGID_12_);">
				<defs>
					<rect id="SVGID_13_" x="-30.285" y="-28.481" width="654.773" height="289.195"/>
				</defs>
				<clipPath id="SVGID_14_">
					<use xlink:href="#SVGID_13_"  style="overflow:visible;"/>
				</clipPath>
				<g style="clip-path:url(#SVGID_14_);">
					<defs>
						<rect id="SVGID_15_" x="0" y="40.361" width="595.28" height="160.337"/>
					</defs>
					<clipPath id="SVGID_16_">
						<use xlink:href="#SVGID_15_"  style="overflow:visible;"/>
					</clipPath>
					<path style="clip-path:url(#SVGID_16_);fill:#2856A3;" d="M595.28,141.516c0,5.74-0.551,10.816-0.914,13.472l-57.953-0.229
						c0.922,14.132,12.323,20.756,25.39,20.756c9.561,0,17.29-1.545,24.835-4.641l3.676,22.749
						c-9.193,4.64-20.42,6.857-32.567,6.857c-30.533,0-48.006-21.208-48.006-55.219c0-27.379,14.345-57.645,45.443-57.645
						C584.245,87.617,595.28,114.783,595.28,141.516 M536.225,131.789h33.12c0-7.946-2.947-21.855-15.639-21.855
						C541.748,109.933,536.962,122.959,536.225,131.789"/>
					<path style="clip-path:url(#SVGID_16_);fill:#2856A3;" d="M497.042,134.435v63.829h-27.965v-59.84
						c0-13.917-4.047-23.424-14.168-23.424c-7.72,0-12.323,6.414-14.348,12.601c-0.731,2.204-0.917,5.297-0.917,8.391v62.273
						h-27.971v-73.538c0-13.473-0.369-24.737-0.726-34.45h24.285l1.285,15.016h0.549c3.678-7.066,12.697-17.452,27.779-17.452
						C483.242,87.841,497.042,102.645,497.042,134.435"/>
					<path style="clip-path:url(#SVGID_16_);fill:#2856A3;" d="M395.487,198.264h-25.201l-1.653-10.816h-0.551
						c-5.897,8.611-15.085,13.248-25.757,13.248c-18.213,0-29.065-15.902-29.065-33.127c0-28.043,20.969-41.294,52.799-41.294
						v-1.326c0-5.744-2.577-13.912-16.373-13.912c-9.205,0-18.952,3.746-24.832,7.951l-5.158-21.42
						c6.254-4.195,18.578-9.726,34.951-9.726c29.996,0,39.372,21.196,39.372,46.594V172.2
						C394.016,182.366,394.387,192.299,395.487,198.264 M366.979,158.952v-11.696c-14.723,0-26.132,4.189-26.132,16.998
						c0,8.617,4.783,12.812,11.041,12.812c6.797,0,12.695-5.518,14.534-12.365C366.787,162.93,366.979,160.948,366.979,158.952"/>
					<rect x="273.343" y="90.275" style="clip-path:url(#SVGID_16_);fill:#2856A3;" width="27.954" height="107.986"/>
					<path style="clip-path:url(#SVGID_16_);fill:#2856A3;" d="M303.131,58.26c0,9.928-6.064,17.882-15.81,17.882h-0.186
						c-9.382,0-15.451-7.955-15.451-17.882c0-10.166,6.243-17.897,15.82-17.897C297.068,40.363,302.957,48.093,303.131,58.26"/>
					<path style="clip-path:url(#SVGID_16_);fill:#2856A3;" d="M262.086,55.995v126.637c0,8.633-6.763,15.631-15.115,15.631H15.116
						c-8.349,0-15.113-6.998-15.113-15.631V55.995c0-8.637,6.764-15.632,15.113-15.632H246.97
						C255.322,40.363,262.086,47.358,262.086,55.995 M250.235,185.393l-44.181-68.496l39.684-60.885h-42.286l-18.365,35.157
						l-18.722-35.157h-44.693l40.717,60.516l-44.707,68.865h43.67l21.831-38.606l21.135,38.606H250.235z M139.523,120.698
						c0-39.489-25.131-67.764-62.737-67.764c-37.6,0-62.725,28.275-62.725,67.764c0,39.504,25.125,67.775,62.725,67.775
						C114.392,188.474,139.523,160.202,139.523,120.698"/>
					<g style="opacity:0;clip-path:url(#SVGID_16_);">
						<g>
							<defs>
								<rect id="SVGID_17_" x="117.68" y="56.013" width="132.557" height="129.38"/>
							</defs>
							<clipPath id="SVGID_18_">
								<use xlink:href="#SVGID_17_"  style="overflow:visible;"/>
							</clipPath>
							<polygon style="clip-path:url(#SVGID_18_);fill:#FFFFFF;" points="206.057,116.896 250.237,185.392 204.318,185.392 
								183.181,146.786 161.352,185.392 117.68,185.392 162.39,116.525 121.674,56.013 166.367,56.013 185.089,91.165 
								203.452,56.013 245.738,56.013 							"/>
						</g>
					</g>
					<g style="opacity:0;clip-path:url(#SVGID_16_);">
						<g>
							<defs>
								<rect id="SVGID_19_" x="14.061" y="52.935" width="125.459" height="135.538"/>
							</defs>
							<clipPath id="SVGID_20_">
								<use xlink:href="#SVGID_19_"  style="overflow:visible;"/>
							</clipPath>
							<path style="clip-path:url(#SVGID_20_);fill:#FFFFFF;" d="M76.787,52.934c37.611,0,62.734,28.275,62.734,67.764
								c0,39.504-25.123,67.775-62.734,67.775c-37.6,0-62.725-28.271-62.725-67.775C14.062,81.21,39.187,52.934,76.787,52.934
								 M101.4,120.698c0-28.807-14.9-35.511-24.613-35.511c-9.697,0-24.602,6.704-24.602,35.511
								c0,28.819,14.906,35.52,24.602,35.52C86.5,156.219,101.4,149.517,101.4,120.698"/>
						</g>
					</g>
					<path style="clip-path:url(#SVGID_16_);fill:#2856A3;" d="M76.787,85.186c9.711,0,24.613,6.703,24.613,35.511
						c0,28.819-14.902,35.52-24.613,35.52c-9.697,0-24.602-6.702-24.602-35.52C52.184,91.889,67.09,85.186,76.787,85.186"/>
				</g>
			</g>
		</g>
	</g>
</g>
</svg>
