<?xml version="1.0" encoding="utf-8"?>
<!-- Generator: Adobe Illustrator 16.0.4, SVG Export Plug-In . SVG Version: 6.00 Build 0)  -->
<!DOCTYPE svg PUBLIC "-//W3C//DTD SVG 1.1//EN" "http://www.w3.org/Graphics/SVG/1.1/DTD/svg11.dtd">
<svg version="1.1" id="Calque_1" xmlns="http://www.w3.org/2000/svg" xmlns:xlink="http://www.w3.org/1999/xlink" x="0px" y="0px"
	 width="2125.98px" height="1275.59px" viewBox="0 0 2125.98 1275.59" enable-background="new 0 0 2125.98 1275.59"
	 xml:space="preserve">
<path fill-rule="evenodd" clip-rule="evenodd" fill="#56585A" d="M475.974,597.267h-53.598V278.682h53.598v39.177
	c18.997-26.92,50.692-42.575,87.853-42.575c6.839,0,14.813,0.639,19.095,1.283l3.937,0.538v56.946l-5.659-1.428
	c-7.383-1.821-17.621-2.807-28.743-2.807c-44.984,0-76.483,33.072-76.483,80.473V597.267z"/>
<path fill-rule="evenodd" clip-rule="evenodd" fill="#56585A" d="M998.754,402.018c5.368-46.607,48.284-83.669,98.044-83.669
	c46.214,0,84.064,37.11,86.375,83.669H998.754z M1097.981,596.67c52.759,0,90.854-16.342,123.58-53.003l2.807-3.153l-34.255-35.188
	l-3.296,3.446c-24.216,25.642-46.512,40.456-88.836,40.456c-59.508,0-98.387-38.09-102.424-99.862h241.164l0.299-4.229
	c0.586-8.863,0.586-18.706,0.586-19.149c0-43.411-13.482-83.078-37.994-111.771c-25.84-30.319-61.421-46.314-102.813-46.314
	c-91.296,0-155.086,69.351-155.086,168.718v2.364C941.711,533.285,1004.517,596.67,1097.981,596.67z"/>
<rect x="639.079" y="278.682" fill-rule="evenodd" clip-rule="evenodd" fill="#56585A" width="53.597" height="318.585"/>
<path fill-rule="evenodd" clip-rule="evenodd" fill="#56585A" d="M876.307,601.102c-16.39,0-40.507-1.672-59.8-16.293
	c-20.917-15.793-31.549-43.507-31.549-82.284V328.879v-50.448v-73.724h53.601v73.724h69.74v50.448h-69.74v173.645
	c0,40.108,14.222,48.13,37.105,48.13c8.42,0,16.39,0,27.319-1.769l5.316-0.836v49.116l-3.499,0.836
	C893.725,600.612,886.001,601.102,876.307,601.102z"/>
<path fill-rule="evenodd" clip-rule="evenodd" fill="#56585A" d="M1435.507,318.349c30.617,0,58.571,11.713,78.699,33.072
	c20.131,21.311,31.204,50.841,31.204,83.083c0,32.235-11.073,61.713-31.204,83.072c-20.128,21.312-48.082,33.078-78.699,33.078
	c-30.61,0-58.564-11.766-78.694-33.078c-20.128-21.358-31.202-50.836-31.202-83.072c0-32.242,11.074-61.772,31.202-83.083
	C1376.942,330.062,1404.896,318.349,1435.507,318.349z M1435.507,601.102c44.003,0,85.001-16.735,115.469-47.151
	c30.952-30.904,48.082-73.382,48.082-119.446c0-46.07-17.13-88.496-48.082-119.453c-30.468-30.415-71.466-47.15-115.469-47.15
	c-43.997,0-84.995,16.736-115.463,47.15c-31.006,30.958-48.083,73.383-48.083,119.453c0,46.064,17.077,88.542,48.083,119.446
	C1350.512,584.366,1391.51,601.102,1435.507,601.102z"/>
<path fill-rule="evenodd" clip-rule="evenodd" fill="#56585A" d="M242.882,601.102c-44.394,0-85.688-16.735-116.35-47.151
	C95.377,523.046,78.25,480.616,78.25,434.504c0-46.123,17.127-88.543,48.282-119.453c30.662-30.415,71.957-47.15,116.35-47.15
	c46.707,0,87.262,16.24,117.136,46.953l2.855,3.004l-32.779,38.734l-3.495-3.691c-21.557-22.638-50.496-34.553-83.717-34.553
	c-30.909,0-59.159,11.762-79.536,33.072c-20.277,21.359-31.498,50.841-31.498,83.083c0,32.235,11.221,61.713,31.498,83.024
	c20.377,21.36,48.626,33.125,79.536,33.125c33.271,0,62.209-11.958,83.717-34.548l3.495-3.691l32.779,38.729l-2.855,3.005
	C330.144,584.861,289.638,601.102,242.882,601.102z"/>
<path fill-rule="evenodd" clip-rule="evenodd" fill="#F28F23" d="M665.904,146.877c-22.589,0-40.998-18.457-40.998-41.099
	c0-22.686,18.409-41.143,40.998-41.143c22.542,0,40.95,18.457,40.95,41.143C706.854,128.42,688.446,146.877,665.904,146.877z"/>
<path fill-rule="evenodd" clip-rule="evenodd" fill="#F28F23" d="M2005.937,601.102c-22.591,0-40.95-18.456-40.95-41.143
	c0-22.695,18.359-41.099,40.95-41.099c22.636,0,40.997,18.404,40.997,41.099C2046.934,582.646,2028.572,601.102,2005.937,601.102z"
	/>
<path fill-rule="evenodd" clip-rule="evenodd" fill="#F28F23" d="M1889.344,540.565h-108.97c-28.2,0-51.039-22.787-51.039-50.894
	V169.76c0-45.968-37.355-83.222-83.473-83.222H783.189v37.014h858.05c28.15,0,50.985,22.734,50.985,50.837V494.3
	c0,45.973,37.408,83.227,83.524,83.227h113.595V540.565z"/>
<path fill-rule="evenodd" clip-rule="evenodd" fill="#F28F23" d="M1030.696,1103.51c0,75.546,49.025,82.29,80.915,82.29
	c7.09,0,14.174-0.593,21.264-2.264v-38.879c-6.498,1.769-14.174,2.359-21.264,2.359c-27.756,0-37.206-13.684-37.206-46.457V763.816
	h-43.709V1103.51z"/>
<path fill-rule="evenodd" clip-rule="evenodd" fill="#F28F23" d="M1208.273,1097.06c0-39.224,32.777-49.904,81.404-54.086
	c41.54-3.595,66.15-7.136,76.68-18.457v53.549c0,41.588-31.596,68.951-90.162,68.951
	C1234.015,1147.017,1208.273,1128.607,1208.273,1097.06z M1164.567,1098.29c0,54.336,44.296,87.51,106.952,87.51
	c40.998,0,78.449-10.68,100.747-35.977c1.181,4.875,2.949,10.186,6.497,16.094c3.543,5.907,14.174,15.947,31.3,15.947
	c9.448,0,21.853-1.184,30.121-6.5v-28.348h-5.316c-12.4,0-24.805-0.591-24.805-23.179V963.881c0-57.389-43.114-91.1-106.946-91.1
	c-45.676,0-83.718,19.096-109.609,56.009l29.977,25.002c18.75-25.002,44.493-42.228,79.633-42.228
	c46.852,0,63.24,24.953,63.24,45.77c0,35.092-22.243,39.869-78.449,44.001C1207.095,1007.291,1164.567,1036.428,1164.567,1098.29z"
	/>
<path fill-rule="evenodd" clip-rule="evenodd" fill="#F28F23" d="M1528.774,1029.291c0-67.185,47.151-117.727,110.84-117.727
	c61.323,0,106.701,50.542,106.701,117.727c0,67.183-45.378,117.726-106.701,117.726
	C1575.926,1147.017,1528.774,1096.474,1528.774,1029.291z M1490.387,1176.648h43.703v-42.085
	c14.717,24.805,47.151,51.236,105.524,51.236c83.126,0,150.406-64.915,150.406-156.509c0-91.596-67.28-156.51-150.406-156.51
	c-58.373,0-90.808,26.429-105.524,51.283V763.816h-43.703V1176.648z"/>
<path fill-rule="evenodd" clip-rule="evenodd" fill="#F28F23" d="M1828.21,1111.633c12.406,45.623,57.291,69.245,111.086,69.245
	c73.974,0,107.638-41.685,107.638-83.865c0-47.494-33.073-72.692-89.231-94.35c-37.994-14.665-63.342-26.97-63.342-53.302
	c0-24.608,19.592-38.096,45.525-38.096c24.166,0,38.587,9.945,48.972,29.283l35.045-18.157
	c-17.131-32.778-45.43-49.909-84.606-49.909c-51.434,0-88.64,31.353-88.64,76.879c0,46.856,33.664,67.379,79.977,86.13
	c45.526,18.162,72.596,29.285,72.596,61.521c0,16.98-10.338,45.083-63.933,45.083c-43.214,0-66.791-22.244-73.875-44.541
	L1828.21,1111.633z"/>
</svg>
