<?xml version="1.0" encoding="iso-8859-1"?>
<!-- Generator: Adobe Illustrator 18.1.1, SVG Export Plug-In . SVG Version: 6.00 Build 0)  -->
<svg version="1.1" xmlns="http://www.w3.org/2000/svg" xmlns:xlink="http://www.w3.org/1999/xlink" x="0px" y="0px"
	 viewBox="0 0 595.28 260.79" style="enable-background:new 0 0 595.28 260.79;" xml:space="preserve">
<g id="Soat">
	<g>
		<g>
			<defs>
				<rect id="SVGID_1_" x="77.232" width="440.496" height="260.343"/>
			</defs>
			<clipPath id="SVGID_2_">
				<use xlink:href="#SVGID_1_"  style="overflow:visible;"/>
			</clipPath>
			<g style="clip-path:url(#SVGID_2_);">
				<defs>
					<rect id="SVGID_3_" x="-6.936" y="-98.737" width="593.653" height="445.24"/>
				</defs>
				<clipPath id="SVGID_4_">
					<use xlink:href="#SVGID_3_"  style="overflow:visible;"/>
				</clipPath>
				<path style="clip-path:url(#SVGID_4_);fill:#010102;" d="M139.78,100.418c-6.656-6.655-14.964-11.627-24.693-14.781
					c-5.832-2.728-10.454-5.751-13.733-8.98c-3.459-3.459-5.14-7.513-5.14-12.394c0-4.928,1.68-8.993,5.137-12.427
					c3.458-3.436,7.513-5.105,12.395-5.105c4.883,0,8.94,1.658,12.394,5.065c1.923,1.925,3.323,4.056,4.161,6.337l0.421,1.146
					l8.26-3.263l-0.337-1.06c-1.108-3.482-3.135-6.66-6.012-9.434c-5.221-5.169-11.575-7.79-18.886-7.79
					c-7.362,0-13.718,2.636-18.891,7.833c-5.17,5.198-7.792,11.49-7.792,18.699c0,7.363,2.623,13.719,7.794,18.89
					c5.069,5.069,12.057,9.113,20.695,11.991c7.037,2.883,13.053,6.792,17.88,11.621c5.407,5.408,8.149,12.007,8.149,19.611
					c0,7.657-2.742,14.281-8.149,19.687c-5.408,5.407-12.032,8.149-19.686,8.149c-7.605,0-14.204-2.742-19.611-8.149
					c-4.643-4.641-7.336-10.143-8.006-16.355l-0.163-1.512l-8.734,3.186l0.144,0.962c1.137,7.594,4.614,14.345,10.333,20.062
					c7.166,7.219,15.925,10.879,26.036,10.879c10.109,0,18.868-3.634,26.034-10.8c7.168-7.168,10.802-15.954,10.802-26.109
					C150.582,116.267,146.946,107.533,139.78,100.418"/>
				<path style="clip-path:url(#SVGID_4_);fill:#010102;" d="M270.321,55.866c-12.236-12.234-27.207-18.436-44.495-18.436
					c-17.29,0-32.26,6.203-44.493,18.436c-12.232,12.229-18.434,27.198-18.434,44.492s6.202,32.264,18.434,44.497
					c12.231,12.23,27.2,18.43,44.493,18.43c17.291,0,32.261-6.201,44.495-18.43c12.233-12.236,18.435-27.207,18.435-44.497
					C288.756,83.068,282.554,68.099,270.321,55.866 M225.826,154.062c-14.743,0-27.502-5.297-37.921-15.745
					c-10.422-10.443-15.706-23.214-15.706-37.96c0-14.743,5.284-27.502,15.705-37.921c10.42-10.421,23.179-15.705,37.922-15.705
					c14.742,0,27.5,5.284,37.921,15.705c10.421,10.417,15.705,23.176,15.705,37.921c0,14.747-5.284,27.518-15.706,37.96
					C253.326,148.765,240.568,154.062,225.826,154.062"/>
				<path style="clip-path:url(#SVGID_4_);fill:#ACC90F;" d="M400.359,33.938l-45.94,126.103l-0.583,1.526h9.755l16.771-45.22
					h39.989l16.768,45.22h9.68L400.359,33.938z M417.001,106.491h-33.289l16.646-45.779L417.001,106.491z"/>
				<polygon style="clip-path:url(#SVGID_4_);fill:#ACC90F;" points="447.579,38.662 447.579,47.937 478.306,47.937 
					478.306,161.566 487.002,161.566 487.002,47.937 517.728,47.937 517.728,38.662 				"/>
				<path style="clip-path:url(#SVGID_4_);fill:#C6C5C5;" d="M84.421,220.966c0,0,6.547-1.542,18.087-3.793
					c11.554-2.166,28.054-5.377,47.991-8.397c19.928-3.092,43.258-6.193,68.357-8.69c12.557-1.209,25.536-2.44,38.767-3.266
					c13.22-0.86,26.671-1.548,40.139-1.973c13.467-0.343,26.95-0.409,40.232-0.181c13.274,0.188,26.337,0.944,38.967,1.931
					c25.236,2.066,48.742,5.898,68.288,11.626c19.606,5.542,34.941,13.589,44.27,20.93c4.768,3.561,7.837,7.127,9.93,9.476
					c1.913,2.503,2.942,3.848,2.942,3.848s-1.141-1.236-3.293-3.525c-2.286-2.146-5.707-5.227-10.581-8.399
					c-4.837-3.219-11.082-6.557-18.603-9.525c-7.516-2.968-16.265-5.591-25.962-7.887c-19.398-4.506-42.591-7.336-67.541-8.769
					c-12.475-0.748-25.404-0.983-38.536-1.157c-13.146-0.136-26.505,0.062-39.863,0.474c-13.367,0.321-26.721,0.9-39.874,1.654
					c-13.147,0.785-26.093,1.519-38.607,2.493c-25.034,1.857-48.383,4.012-68.399,5.965c-20.003,2.015-36.702,3.652-48.364,5.065
					C91.094,220.199,84.421,220.966,84.421,220.966"/>
				<path style="clip-path:url(#SVGID_4_);fill:#C6C5C5;" d="M349.513,0.057c-0.148-0.391,0.345,1.252,0.93,3.743
					c0.591,2.586,1.448,6.4,2.087,11.33c1.354,9.834,2.278,24.182,0.292,41.28c-0.988,8.535-2.61,17.755-5.265,27.285
					c-2.624,9.526-5.994,19.453-10.576,29.252c-4.512,9.813-9.832,19.699-16.218,29.083c-6.308,9.435-13.46,18.51-21.165,27.058
					c-7.789,8.475-16.136,16.4-24.736,23.706c-8.558,7.357-17.587,13.847-26.448,19.848c-8.857,6.016-17.786,11.267-26.394,15.918
					c-8.551,4.745-16.901,8.724-24.652,12.238c-15.528,6.997-28.847,11.842-38.244,14.927c-4.662,1.646-8.438,2.636-10.959,3.441
					c-2.533,0.764-3.88,1.176-3.88,1.176s5.096-2.408,14.023-6.632c8.912-4.211,21.501-10.486,36.247-18.527
					c14.684-8.153,31.483-18.21,48.342-30.451c8.472-6.069,16.823-12.85,25.075-19.952c8.227-7.145,16.147-14.866,23.538-23.054
					c7.475-8.104,14.395-16.695,20.525-25.633c6.119-8.936,11.709-18.033,16.266-27.296c9.277-18.451,15.143-37.019,18.336-53.344
					c3.175-16.337,3.872-30.354,3.735-40.157c-0.088-4.9-0.267-8.773-0.512-11.402C349.661,1.351,349.362-0.337,349.513,0.057"/>
			</g>
		</g>
	</g>
</g>
</svg>
