<?xml version="1.0" encoding="iso-8859-1"?>
<!-- Generator: Adobe Illustrator 18.1.1, SVG Export Plug-In . SVG Version: 6.00 Build 0)  -->
<svg version="1.1" xmlns="http://www.w3.org/2000/svg" xmlns:xlink="http://www.w3.org/1999/xlink" x="0px" y="0px"
	 viewBox="0 0 595.28 260.79" style="enable-background:new 0 0 595.28 260.79;" xml:space="preserve">
<g id="Zenika">
	<g style="display:none;">
		
			<image style="display:inline;overflow:visible;" width="624" height="261" xlink:href="717AE6A063DDF509.jpg"  transform="matrix(0.954 0 0 0.954 0 3.9077)">
		</image>
	</g>
	<g style="display:none;">
		<g style="display:inline;">
			<path style="fill:#7B7C7E;" d="M130.929,244.035c-3.525,4.693-6.524,8.349-6.524,9.521c0,2.223,4.437,2.223,7.05,2.223
				c14.743,0,27.922-1.437,38.748-12.267c0.916-1.047,1.568-1.695,1.959-1.695c0.262,0,0.392,0.259,0.392,0.523
				c0,0.909-0.652,2.477-0.913,3.39l-4.829,13.309h-64.33l44.496-57.151c1.699-2.223,3.132-4.044,3.132-5.091
				c0-2.352-4.044-2.352-8.349-2.352c-15.528,0-24.273,1.046-34.58,13.183c-0.262,0.26-0.652,0.783-1.045,0.783
				c-0.257,0-0.257-0.39-0.257-0.523c0.128-0.783,0.257-1.436,0.519-2.089l5.35-14.615h58.067L130.929,244.035z"/>
			<path style="fill:#7B7C7E;" d="M235.972,213.499c0-12.786-6.134-21.787-19.702-21.787c-11.875,0-18.27,10.567-19.706,21.787
				H235.972z M196.042,215.977c-0.263,3.001-0.391,5.743-0.391,8.482c0,24.27,12.528,33.277,25.184,33.277
				c15.008,0,26.096-10.311,30.535-25.578h2.736C249.931,250.165,236.883,261,219.14,261c-22.185,0-38.626-15.009-38.626-35.884
				c0-20.882,16.441-35.887,38.626-35.887c14.223,0,31.444,8.616,33.271,26.748H196.042z"/>
			<path style="fill:#7B7C7E;" d="M280.072,209.455h0.265c2.998-11.091,9.393-20.229,26.618-20.229
				c14.352,0,27.794,7.443,27.794,28.191v25.178c-0.263,12.4,1.432,14.231,5.217,15.532c0.909,0.261,1.697,0.651,1.697,0.913
				c0,0.394-0.651,0.394-1.96,0.394c-1.172,0-4.564-0.394-11.743-0.394c-7.046,0-11.741,0.394-13.436,0.394
				c-0.784,0-1.439,0-1.439-0.394c0-0.263,0.263-0.653,1.176-0.784c4.702-0.519,7.046-4.043,7.046-15.661v-25.311
				c0-12.003-5.35-24.793-19.181-24.793c-15.528,0-20.615,15.922-20.615,34.187v15.917c0,8.226,0.392,14.356,6.262,15.398
				c0.913,0.133,1.437,0.394,1.437,0.784c0,0.523-0.39,0.657-1.174,0.657c-0.913,0-6.266-0.394-13.311-0.394
				c-7.046,0-13.049,0.394-13.96,0.394c-0.784,0-1.176-0.133-1.176-0.657c0-0.39,0.521-0.651,1.435-0.784
				c6.528-1.043,7.048-7.173,7.048-15.398v-32.357c0-7.83-0.911-12.267-4.569-13.833c-1.435-0.65-2.35-1.043-2.35-1.302
				c0-0.393,0.915-0.393,2.483-0.657c6.259-1.173,11.61-2.085,16.437-3.781V209.455z"/>
			<path style="fill:#7B7C7E;" d="M352.362,174.485c0-4.174,3.522-7.829,7.7-7.829c4.437,0,7.827,3.654,7.827,7.829
				c0,4.174-3.39,7.699-7.827,7.699C355.884,182.184,352.362,178.659,352.362,174.485 M354.449,204.627
				c0-6.522-2.479-7.308-4.568-8.481c-0.78-0.393-2.219-0.393-2.219-0.783c0-0.26,1.439-0.393,2.348-0.523
				c6.134-1.172,11.618-2.478,17.88-4.174v51.934c0,8.219,0.78,14.093,6.783,15.269c0.788,0.129,1.307,0.388,1.307,1.172
				c0,0.394-0.651,0.394-1.827,0.394c-1.305,0-6.003-0.394-13.053-0.394c-7.041,0-11.739,0.394-13.044,0.394
				c-1.178,0-1.827,0-1.827-0.394c0-0.784,0.519-1.043,1.303-1.172c6.003-1.176,6.916-7.05,6.916-15.269V204.627z"/>
			<path style="fill:#7B7C7E;" d="M423.216,238.422c-2.738-4.564-8.482-16.048-15.528-16.048c-4.57,0-4.57,5.217-4.57,10.827v9.393
				c0,8.226,0.657,13.184,7.05,15.398c0.657,0.133,1.176,0.394,1.176,0.784c0,0.392-0.657,0.657-1.437,0.657
				c-0.652,0-6.397-0.394-13.572-0.394c-7.043,0-12.267,0.394-13.047,0.394c-0.657,0-1.305-0.265-1.305-0.657
				c0-0.39,0.39-0.521,0.913-0.784c6.259-1.956,6.785-9.654,6.785-20.613v-51.804c0-7.699-0.525-13.699-4.827-14.352
				c-1.437-0.264-2.223-0.654-2.223-1.176c0-0.39,1.176-0.65,2.483-1.043c6.262-1.565,11.739-2.868,18.003-4.563v56.368
				l21.923-18.27c3.007-2.478,4.829-4.567,4.829-6.786c0-1.826-1.566-2.872-2.221-3.522c-0.519-0.39-1.305-0.39-1.305-1.046
				c0-0.52,0.786-0.52,1.829-0.52c1.176,0,5.74,0.52,12.529,0.52c6.391,0,7.957-0.52,12.137-0.52c1.172,0,1.822,0,1.822,0.783
				c0,0.65-2.216,0.783-4.304,1.306c-7.436,1.822-15.005,6.393-21.139,11.091l-19.312,14.615v0.259
				c17.742,0.393,21.66,7.176,30.666,21.532c4.437,7.046,9.915,14.352,16.96,17.617c0.653,0.259,1.303,0.519,1.303,0.909
				c0,0.392-0.651,0.657-1.432,0.657c-0.653,0-6.526-0.394-13.049-0.394c-2.998,0-6.005,0.394-8.609,0.394L423.216,238.422z"/>
			<path style="fill:#7B7C7E;" d="M512.469,219.895h-7.7c-14.091,0-28.572,4.174-28.572,21.398c0,9.527,6.912,16.443,16.176,16.443
				c15.398,0,20.096-16.185,20.096-28.71V219.895z M525.907,247.686c0,4.308,0.653,8.222,4.7,10.05
				c0.78,0.39,1.303,0.39,1.303,0.784c0,0.39-0.782,0.519-1.695,0.519H516.12c-1.827-4.174-2.869-8.741-3.132-13.309h-0.261
				C507.642,256.298,500.073,261,488.592,261c-13.572,0-27.538-6.268-27.538-21.796c0-19.836,30.272-21.787,43.975-21.787h7.44
				v-4.308c0-12.526-5.874-21.397-19.054-21.397c-12.002,0-19.052,3.518-23.745,15.001c-0.523,1.176-0.784,2.219-1.047,2.219
				c-0.256,0-0.394-0.654-0.65-1.436l-3.395-11.74c10.701-5.613,19.179-6.527,30.797-6.527c14.877,0,30.532,5.35,30.532,21.79
				V247.686z"/>
		</g>
		<g style="display:inline;">
			<path style="fill:#B20C35;" d="M376.653,113.775c0,10.707-8.189,19.386-18.291,19.386H276.03
				c-10.102,0-18.291-8.68-18.291-19.386V20.784c0-10.707,8.189-19.386,18.291-19.386h82.332c10.102,0,18.291,8.68,18.291,19.386
				V113.775z"/>
			<path style="fill:#FFFFFF;" d="M351.128,103.051c0.113,3.276,1.145,6.649-0.4,9.582c-1.977,2.702-5.603,2.309-7.292,1.097
				c-0.075,0.003-0.999-0.714-1.922-1.465c2.248,1.649,3.618,2.172,4.687,2.172c1.633,0,3.025-0.483,3.928-1.544
				c1.591-1.072,1.191-6.328,0.578-11.378c-0.296-2.67-0.657-5.409-0.997-7.822c-0.035-0.285-0.071-0.544-0.115-0.811
				c0.029,0.003,0.044,0.003,0.071,0.007c0.052,0.006,0.106,0.01,0.158,0.014C350.228,95.764,350.909,100.211,351.128,103.051
				 M340.811,107.157c-0.794-0.422-2.089-1.465-2.465-1.551c-1.278-1.061-1.576-1.598-2.07-2.186
				c-0.993-0.837-1.061-0.733-1.862-1.176c-2.07-1.534,0.678-0.04-1.71-1.754c-0.196-0.148-0.404-0.299-0.621-0.444
				c0.05,0.012,0.113,0.026,0.202,0.072l-0.598-0.433c-0.34-0.183-0.596-0.303-0.588-0.234c-0.344-0.184-0.601-0.289-0.626-0.245
				c-0.98-0.859-2.406-1.696-3.069-2.356c-1.866-0.843-3.641-2.821-5.784-3.914c-2.098-1.592-4.043-2.588-6.17-3.792
				c-0.655,0.003-0.578,0.465,0.254,1.367c-2.048-1.309-3.914-2.49-5.619-3.55c1.007,0.104,2.21,0.205,0.49-1.047
				c0.06,0.066,0.152,0.141,0.311,0.264c-0.127,0.054-0.369-0.032-1.064-0.379c-0.565-0.404-1.954-1.173-1.666-1.144l0.154,0.086
				c0.013-0.094-0.613-0.682-1.389-1.104c-0.2-0.039,0.359,0.447-0.432,0.119c-0.826-0.447-1.75-1.035-2.435-1.519
				c0.296,0.036,0.603,0.069,0.869,0.108c1.668-0.13,4.946,0.79,6.243,0.57c2.665,0.462,2.988,0.256,4.437,0.285
				c2.039,0.527-2.746-0.136-1.674,0.235c3.011,0.519,6.326,0.916,9.4,1.482c0.803-0.003-0.511-0.389,1.105-0.144
				c-0.484-0.007-0.102,0.184,0.379,0.303c-0.2-0.058,0.248-0.019,0.309-0.044l-0.442-0.111c-0.267-0.397,2.154,0.418,3.253,0.45
				c0.463,0.206-0.578-0.107-0.677-0.01c-0.004,0.155,0.436,0.43,1.891,0.758c2.93,0.368,4.883,1.111,8.08,1.732
				c-0.115-0.16,0.765,0.094,1.282,0.191c-0.667-0.032,0.569,0.379,1.182,0.541c0.544,0.069,2.435,0.617,3.887,1.032l0.175,0.05
				c0.04,0.007,0.069,0.015,0.102,0.026c0.004,0.043,0.004,0.082,0.004,0.14c0.017,0.347-0.029,0.281-0.052,0.333l0.038,0.707
				c0.065,0.015,0.194-0.133,0.209,0.797l-0.133,0.552c-0.01,0.43,0.004,0.808,0.025,1.104c-0.108,1.627-0.202,3.24-0.202,3.811
				c0.088-0.278,0.225,1.157,0.332,1.461c-0.025,0.701-0.017,1.342,0.058,1.649c-0.138,1.28-0.302,1.645-0.49,2.367
				c-0.159,1.948-0.628,4.434-1.191,5.477C341.914,108.621,340.955,107.297,340.811,107.157 M343.245,76.397
				c0.3,1.623,0.488,3.849,0.617,6.32l0.069,1.526l-0.137-0.025c-0.006-0.007-0.006-0.022-0.027-0.022
				C343.693,81.581,343.609,78.958,343.245,76.397 M343.939,84.496c-0.052-0.006-0.102-0.014-0.152-0.021
				c0.006-0.054,0.021-0.105,0.021-0.145l0.123,0.018L343.939,84.496z M349.75,92.387c0.023,0.136,0.04,0.292,0.063,0.447
				c-0.077-0.011-0.152-0.015-0.225-0.025c-0.025-0.16-0.042-0.318-0.065-0.473C349.596,92.35,349.675,92.368,349.75,92.387
				 M289.751,111.59c-0.031-0.007-0.063-0.007-0.098-0.015c-0.017,0-0.035-0.01-0.06-0.01
				C289.647,111.573,289.699,111.583,289.751,111.59 M292.689,111.677c-0.138,0.094-0.352,0.141-0.667,0.087h-0.002
				C292.283,111.764,292.514,111.738,292.689,111.677 M292.862,110.991c-0.094-0.18-0.234-0.426-0.407-0.721
				C292.648,110.476,292.796,110.739,292.862,110.991 M347.294,22.038c-0.008,0.086-0.01,0.158-0.008,0.205
				c-0.002-0.035-0.01-0.086-0.015-0.155C347.283,22.068,347.283,22.056,347.294,22.038 M353.232,92.686
				c0.058-0.163-0.751-0.163-1.141-0.231c-0.678-0.079-1.37-0.154-2.091-0.26c0-0.018-0.008-0.032-0.008-0.047
				c1.437,0.289,2.857-0.04,4.07,0.765c-0.009-0.321-0.39,0.65,4.931-1.537c0.53-0.271,1.057-0.462,1.576-1.05
				c0.676-1.035-0.461-1.732-0.815-1.992c-5.4-2.367-9.56-2.636-10.499-2.875c-0.968-0.018,1.314,0.152,8.299,2.262
				c0.411,0.108,0.836,0.166,1.247,0.328c0.542,0.23,1.09,0.534,1.58,1.01c0.732,0.837-0.273,1.638-0.678,1.836
				c-1.057,0.621-2.164,0.985-3.29,1.317c-0.949,0.441-2.673,0.459-3.409-0.154c-0.974-0.145-1.975-0.224-2.973-0.383
				c-0.004-0.029-0.015-0.061-0.021-0.094c0.515,0.072,1.23,0.151,2.002,0.195c0.621-0.101,1.17,0.154,1.695,0.354
				c0.138,0.119,0.307,0.234,0.592,0.234c1.414,0,6.043-1.602,6.043-2.619c0-1.289-5.198-2.736-12.296-4.114
				c-0.655-3.365-1.316-5.887-2.279-9.008c-0.329-0.96-0.653-1.068-1.195-1.068c-0.648,0-0.974,0.217-0.974,0.484
				c0,0.23,0.455,1.821,0.707,8.265l-0.021-0.003c-0.029-0.452-0.181-1.032-0.127-1.415l-0.288-2.984
				c-0.104-0.981-0.242-1.944-0.4-2.868c0.044-0.444-0.517-0.887,0.238-1.627c0.542-0.126,1.047-0.349,1.645-0.035
				c1.432,1.761,1.324,3.185,1.891,4.441c0.44,1.49,0.826,3.048,1.161,4.57c-0.661-2.886-1.013-5.527-2.523-8.958
				c-0.84-0.956-3.011-0.772-2.911,1.078c0.133,0.802,0.217,1.613,0.3,2.453c0.148,1.667,0.248,3.413,0.321,5.232l0.027,0.116h0.029
				c0.008,0.043,0.008,0.097,0.015,0.148c-0.346-0.047-0.742-0.101-0.869-0.141l-3.957-0.646c-5.257-0.822-10.246-1.482-12.465-1.67
				c-7.763-1.09-10.023-1.515-14.489-2.164c-3.063-0.365-6.278-0.653-9.514-0.988l-4.744-0.487
				c5.851-2.363,11.433-4.647,15.957-6.581c11.38-4.698,13.566-5.383,16.771-6.531c5.115-2.222,14.56-5.787,16.476-7.125
				c1.122-0.711,2.279-1.014,3.088-2.595c0.35-2.167-1.462-2.742-2.162-3.142c-1.839-0.786-3.361-1.05-4.71-1.342
				c-2.696-0.519-4.692-0.797-6.956-1.068c-3.591-0.281-6.733-0.498-6.783-0.306c-1.364-0.971-2.508-1.746-4.777-3.362
				c-0.621-0.466-1.151-0.863-1.645-1.235c0.152-0.072,0.288-0.144,0.386-0.191c0.642-0.308,0.371-0.101,0.167,0.072
				c-0.423,0.35-0.596,0.559,7.233-3.789c1.299-0.714,2.692-1.49,4.062-2.262c-0.256,0.17-0.559,0.361-1.061,0.661l3.926-2.183
				c2.027-1.172,3.564-2.089,3.297-1.998c1.991-1.162,3.328-1.977,3.29-2.013c1.737-0.924,3.582-1.916,5.463-2.965
				c0.938-0.531,1.883-1.069,2.836-1.664c0.767-0.952,2.294-0.378,2.727-3.666c-1.877-3.145-2.49-3.849-5.88-4.971
				c-0.434-0.051-1.458,0.26-1.866,1.194c-0.09,0.213-0.133,0.429-0.158,0.61c-0.09,0.083-0.315,0.365-0.45,0.419
				c-0.557,0.458-1.191,0.89-1.758,1.266c-4.823,3.528-10.963,7.021-17.321,10.412c-3.226,1.678-6.526,3.387-9.804,5.123
				l-1.699,0.902l-0.317-0.242l-1.145-0.83c-1.535-1.071-3.078-2.085-4.629-3.037c-6.829-4.373-12.953-8.096-19.844-10.579
				c-3.893-1.305-7.483-0.339-11.068,0.405c-0.48,0.166-0.882,0.234-1.437,0.494c-0.277,0.242-0.432-0.101-1.134,0.988
				c-0.261,0.346-0.117,1,0.475,1.472c0.555,0.331,0.371,0.162,0.596,0.271c1.011,0.307,1.818,0.469,2.719,0.699
				c1.754,0.447,3.524,0.921,5.311,1.483c3.253,0.762,1.806-0.353-5.244-2.565c5.63,1.457,19.075,5.227,36.85,16.985
				c-4.935-2.677-11.17-5.812-0.246,1.241c-0.402-0.288-1.001-0.703-1.985-1.377c0.465,0.213,1.791,0.898,5.655,3.531
				c0.35,0.26,0.774,0.567,1.209,0.881c-0.39-0.011-0.786-0.022-1.147-0.033c-2.738-0.06-4.752-0.111-3.955-0.158l1.07,0.015
				c-0.233-0.101-5.306-0.35-10.657-0.357c-1.178,0.065,3.249,0.223-1.879,0.31c-6.524,0.126-13.935-0.358-19.55,0.141
				c-1.791,0.519-3.33,1.689-4.333,3.207c-0.427,0.6-1.199,1.627-0.534,2.85c0.922,1.141,2.058,0.696,2.585,0.556
				c1.057-0.378,1.889-0.591,2.746-0.771c1.681-0.347,3.184-0.553,5.396-0.805c-1.082,0.162-2.156,0.35-3.221,0.563
				c2.339-0.242,0.359,0.015,8.39-0.758c5.386-0.498,6.458-0.57,13.607-0.884c4.285-0.043,10.19-0.126,16.307-0.148
				c3.038,0.011,6.116,0.04,9.027,0.336c1.451,0.148,2.865,0.34,4.129,0.639c0.252,0.057,0.496,0.137,0.713,0.213
				c-8.904,3.827-28.383,10.506-35.234,13.54c-7.757,2.865-12.023,4.506-15.367,5.849c-1.674,0.663-3.119,1.255-4.654,1.883
				c-0.052,0.007-0.106,0.037-0.159,0.044c3.747-1.931,6.618-2.5,4.054-1.862c-2.294,1.126-4.156,0.931-6.873,3.172
				c-1.71,2.45-1.853,4.978-2.141,7.443c-0.211,2.489-0.196,4.943-0.094,7.428l0.238,3.695l0.186,1.876l0.148,0.967l0.117,0.545
				c0.108,0.022,0.056,0.176,0.108,0.368c0.183,3.344,0.709,6.804,2.961,9.691c1.889,1.93,1.316,1.093,1.143,0.916
				c-0.034-0.563-0.163,1.032,5.156,2.095c-1.747-0.227-1.672-0.213-0.669,0.059c0.505,0.126,1.251,0.208,2.077,0.242
				c0.315-0.086,0.634,0.151,1.241-0.13c-0.094,0.015-0.056,0.022,0.132-0.079c-0.044,0.025-0.092,0.061-0.132,0.079
				c0.021-0.003,0.021-0.007,0.05-0.007c0.063-0.069,0.336-0.137,0.573-0.408c-0.021,0.015-0.037,0.025-0.056,0.04
				c0.021-0.018,0.039-0.028,0.063-0.047c0,0.004-0.002,0.004-0.006,0.007c0.04-0.029,0.069-0.05,0.106-0.082
				c0.006-0.029,0.006-0.048,0.015-0.076c-0.033,0.057-0.075,0.101-0.115,0.148c0.023-0.101,0.023-0.163,0.033-0.253
				c-0.138,0.271-0.336,0.495-0.584,0.531c-0.421,0.148-0.724,0.158-1.014,0.158c-0.265-0.04-0.244-0.072,0.021-0.097
				c-0.056-0.217,1.562,0.505,1.514-1.576c-0.692-1.371-1.685-2.828-2.709-4.821c-2.102-3.852-3.849-9.008-4.404-12.198
				c-0.444-2.929,0.613,3.418,1.02,3.828c0.332-0.166-1.297-2.947-0.888-11.692c-0.342-4.74,5.029-1.509,8.499-0.592
				c3.712,1.411,7.213,3.034,10.692,4.812c6.937,3.565,13.724,8.01,21.954,13.573c-0.653-0.613,3.901,2.601,6.505,4.459
				c-3.349-2.226,3.044,2.378,6.018,4.867c2.027,1.393,3.267,2.265,5.519,2.536c1.374,0.062,4.877-0.187,6.134-3.687
				c-0.6,1.415-1.856,2.645-3.328,2.991c-0.807,0.188-2.02,0.61-3.77,0.155c-1.591-0.494-3.048-1.487-4.472-2.566
				c-2.732-2.179-5.809-4.289-7.869-5.729c-2.277-2.248-20.788-13.732-18.724-12.66l2.619,1.674
				c9.61,6.205,14.627,9.261,23.313,15.589c3.113,2.908,6.601,4.484,9.372,3.088c3.028-1.233,3.182-4.74,2.938-7.378
				c-0.563-7.035-1.043-8.882-1.604-12.49c-0.094-0.62-0.183-1.183-0.273-1.742l-0.008-0.066c-0.021-0.141-0.042-0.292-0.065-0.433
				c0.519,0.083,1.018,0.145,1.526,0.21c2.089,0.202-0.926-0.163,1.145,0.047c0.49,0.035,0.402,0.101,0.563,0.209
				c0.728,0.419,1.334,0.39,1.681,0.307c0.815-0.123,1.53-0.325,2.237-0.542c1.345-0.541,2.446-0.717,3.607-1.922
				c-0.651,0.498-2.775,1.783-5.751,2.283C354.734,93.223,353.557,92.975,353.232,92.686"/>
		</g>
	</g>
	<g>
		<path style="fill:#B20C35;" d="M122.798,176.471c0,11.065-8.463,20.034-18.903,20.034H18.812c-10.44,0-18.903-8.97-18.903-20.034
			V80.372c0-11.065,8.463-20.034,18.903-20.034h85.084c10.44,0,18.903,8.97,18.903,20.034V176.471z"/>
		<path style="fill:#7B7C7E;" d="M181.421,154.594c-3.643,4.85-6.742,8.628-6.742,9.839c0,2.297,4.585,2.297,7.285,2.297
			c15.236,0,28.855-1.485,40.044-12.677c0.947-1.082,1.62-1.752,2.024-1.752c0.271,0,0.405,0.267,0.405,0.541
			c0,0.94-0.673,2.56-0.944,3.504l-4.991,13.754h-66.48l45.984-59.061c1.756-2.297,3.237-4.179,3.237-5.261
			c0-2.43-4.179-2.43-8.628-2.43c-16.047,0-25.084,1.081-35.736,13.624c-0.27,0.268-0.674,0.809-1.079,0.809
			c-0.266,0-0.266-0.403-0.266-0.541c0.132-0.809,0.266-1.484,0.536-2.159l5.529-15.103h60.008L181.421,154.594z"/>
		<path style="fill:#7B7C7E;" d="M289.975,123.037c0-13.213-6.34-22.515-20.361-22.515c-12.272,0-18.88,10.92-20.365,22.515H289.975
			z M248.71,125.598c-0.272,3.102-0.404,5.935-0.404,8.766c0,25.081,12.947,34.39,26.026,34.39
			c15.509,0,26.968-10.655,31.556-26.433h2.827c-4.314,18.609-17.799,29.805-36.135,29.805c-22.926,0-39.917-15.51-39.917-37.083
			c0-21.58,16.991-37.086,39.917-37.086c14.699,0,32.495,8.904,34.383,27.642H248.71z"/>
		<path style="fill:#7B7C7E;" d="M335.549,118.858h0.274c3.099-11.462,9.707-20.905,27.508-20.905
			c14.832,0,28.723,7.691,28.723,29.133v26.019c-0.271,12.815,1.48,14.706,5.391,16.051c0.94,0.269,1.754,0.672,1.754,0.944
			c0,0.407-0.672,0.407-2.025,0.407c-1.211,0-4.717-0.407-12.136-0.407c-7.281,0-12.134,0.407-13.886,0.407
			c-0.81,0-1.487,0-1.487-0.407c0-0.271,0.271-0.674,1.215-0.81c4.859-0.536,7.281-4.178,7.281-16.185v-26.157
			c0-12.404-5.529-25.622-19.822-25.622c-16.047,0-21.305,16.454-21.305,35.33v16.449c0,8.501,0.405,14.836,6.471,15.913
			c0.944,0.138,1.485,0.407,1.485,0.81c0,0.541-0.403,0.679-1.213,0.679c-0.944,0-6.475-0.407-13.756-0.407
			c-7.281,0-13.485,0.407-14.426,0.407c-0.81,0-1.215-0.138-1.215-0.679c0-0.403,0.539-0.672,1.483-0.81
			c6.747-1.077,7.283-7.413,7.283-15.913v-33.438c0-8.091-0.942-12.677-4.721-14.295c-1.483-0.671-2.428-1.077-2.428-1.346
			c0-0.406,0.946-0.406,2.566-0.679c6.469-1.212,11.998-2.155,16.986-3.908V118.858z"/>
		<path style="fill:#7B7C7E;" d="M410.256,82.719c0-4.314,3.639-8.09,7.958-8.09c4.585,0,8.089,3.776,8.089,8.09
			c0,4.314-3.504,7.956-8.089,7.956C413.895,90.676,410.256,87.033,410.256,82.719 M412.412,113.869c0-6.74-2.562-7.552-4.721-8.764
			c-0.806-0.406-2.293-0.406-2.293-0.809c0-0.268,1.487-0.406,2.426-0.541c6.34-1.211,12.007-2.561,18.477-4.314v53.669
			c0,8.494,0.806,14.564,7.01,15.78c0.814,0.133,1.351,0.401,1.351,1.211c0,0.407-0.672,0.407-1.888,0.407
			c-1.349,0-6.204-0.407-13.489-0.407c-7.277,0-12.131,0.407-13.48,0.407c-1.218,0-1.888,0-1.888-0.407
			c0-0.81,0.537-1.077,1.347-1.211c6.204-1.215,7.147-7.285,7.147-15.78V113.869z"/>
		<path style="fill:#7B7C7E;" d="M483.478,148.794c-2.829-4.717-8.766-16.584-16.047-16.584c-4.723,0-4.723,5.391-4.723,11.189
			v9.707c0,8.501,0.679,13.625,7.285,15.913c0.679,0.138,1.215,0.407,1.215,0.81c0,0.405-0.679,0.679-1.485,0.679
			c-0.674,0-6.611-0.407-14.025-0.407c-7.279,0-12.677,0.407-13.483,0.407c-0.679,0-1.349-0.274-1.349-0.679
			c0-0.403,0.403-0.539,0.944-0.81c6.469-2.021,7.012-9.977,7.012-21.302V94.18c0-7.957-0.543-14.157-4.988-14.832
			c-1.485-0.273-2.297-0.675-2.297-1.215c0-0.403,1.215-0.671,2.566-1.078c6.471-1.617,12.132-2.964,18.605-4.716v58.252
			l22.655-18.88c3.107-2.561,4.991-4.72,4.991-7.013c0-1.887-1.618-2.968-2.295-3.639c-0.536-0.403-1.349-0.403-1.349-1.081
			c0-0.538,0.812-0.538,1.89-0.538c1.215,0,5.932,0.538,12.948,0.538c6.605,0,8.223-0.538,12.543-0.538c1.211,0,1.883,0,1.883,0.809
			c0,0.671-2.291,0.809-4.447,1.35c-7.684,1.883-15.506,6.607-21.845,11.461l-19.958,15.103v0.268
			c18.335,0.406,22.384,7.416,31.691,22.252c4.586,7.281,10.246,14.832,17.527,18.206c0.675,0.267,1.347,0.537,1.347,0.94
			c0,0.405-0.672,0.679-1.48,0.679c-0.675,0-6.745-0.407-13.485-0.407c-3.099,0-6.206,0.407-8.897,0.407L483.478,148.794z"/>
		<path style="fill:#7B7C7E;" d="M575.714,129.647h-7.958c-14.562,0-29.527,4.314-29.527,22.114c0,9.845,7.143,16.993,16.717,16.993
			c15.913,0,20.768-16.726,20.768-29.669V129.647z M589.601,158.367c0,4.452,0.674,8.496,4.857,10.386
			c0.806,0.403,1.347,0.403,1.347,0.81c0,0.403-0.808,0.536-1.752,0.536h-14.566c-1.888-4.314-2.965-9.033-3.237-13.754h-0.269
			c-5.255,10.92-13.078,15.78-24.942,15.78c-14.026,0-28.458-6.477-28.458-22.524c0-20.499,31.284-22.515,45.445-22.515h7.688
			v-4.452c0-12.945-6.07-22.113-19.69-22.113c-12.403,0-19.688,3.635-24.539,15.503c-0.541,1.215-0.81,2.293-1.082,2.293
			c-0.265,0-0.407-0.676-0.672-1.484l-3.508-12.133c11.058-5.801,19.82-6.745,31.826-6.745c15.375,0,31.553,5.529,31.553,22.519
			V158.367z"/>
		<path style="fill:#FFFFFF;" d="M29.961,160.075c-0.431-1.417-0.817-2.849-1.075-4.296c-0.17-0.715-0.373-1.438-0.481-2.166
			C28.864,156.91,29.312,157.951,29.961,160.075"/>
		<path style="fill:#FFFFFF;" d="M35.26,172.196c-0.073-0.123-0.142-0.246-0.226-0.414c0.006,0.059,0.022,0.108,0.041,0.153
			c-0.073-0.074-0.147-0.141-0.211-0.194c0.172,0.298,0.345,0.604,0.534,0.992c0.009,0.003,0.009,0.021,0.015,0.029
			c-0.03-0.273-0.099-0.455-0.179-0.6C35.242,172.174,35.253,172.181,35.26,172.196"/>
		<path style="fill:#FFFFFF;" d="M35.434,174.023c0.11-0.179,0.196-0.414,0.23-0.761c-0.034-0.156-0.062-0.265-0.099-0.377
			C35.594,173.151,35.566,173.505,35.434,174.023"/>
		<path style="fill:#FFFFFF;" d="M104.969,151.835c-0.071,0.083-0.142,0.145-0.209,0.216
			C104.939,151.91,105.032,151.821,104.969,151.835"/>
		<path style="fill:#FFFFFF;" d="M94.764,164.77c0.117,3.385,1.183,6.872-0.414,9.902c-2.043,2.793-5.79,2.386-7.535,1.133
			c-0.078,0.003-1.032-0.738-1.987-1.514c2.323,1.705,3.738,2.244,4.844,2.244c1.687,0,3.127-0.499,4.06-1.596
			c1.644-1.108,1.23-6.54,0.597-11.759c-0.306-2.759-0.679-5.59-1.03-8.084c-0.037-0.294-0.073-0.562-0.118-0.838
			c0.03,0.003,0.045,0.003,0.073,0.007c0.054,0.007,0.11,0.011,0.164,0.014C93.834,157.239,94.538,161.835,94.764,164.77
			 M84.103,169.012c-0.821-0.436-2.159-1.514-2.547-1.603c-1.321-1.097-1.629-1.652-2.14-2.259
			c-1.026-0.865-1.097-0.757-1.924-1.215c-2.14-1.585,0.7-0.041-1.767-1.812c-0.203-0.153-0.418-0.309-0.642-0.459
			c0.052,0.012,0.116,0.027,0.209,0.074l-0.618-0.447c-0.351-0.19-0.616-0.313-0.608-0.242c-0.356-0.19-0.621-0.299-0.647-0.253
			c-1.013-0.888-2.487-1.753-3.172-2.435c-1.928-0.872-3.762-2.915-5.977-4.045c-2.168-1.645-4.178-2.674-6.376-3.919
			c-0.677,0.003-0.597,0.481,0.263,1.413c-2.116-1.353-4.045-2.573-5.807-3.669c1.041,0.108,2.284,0.212,0.506-1.082
			c0.062,0.068,0.157,0.146,0.321,0.273c-0.132,0.056-0.382-0.034-1.099-0.391c-0.584-0.418-2.019-1.212-1.722-1.182l0.159,0.089
			c0.013-0.097-0.634-0.705-1.435-1.141c-0.207-0.041,0.371,0.462-0.446,0.123c-0.853-0.462-1.808-1.07-2.517-1.57
			c0.306,0.038,0.623,0.071,0.898,0.112c1.724-0.135,5.111,0.817,6.451,0.589c2.754,0.477,3.088,0.264,4.585,0.294
			c2.107,0.544-2.838-0.141-1.73,0.242c3.111,0.537,6.537,0.947,9.714,1.532c0.83-0.003-0.528-0.402,1.142-0.149
			c-0.5-0.007-0.106,0.19,0.392,0.314c-0.207-0.06,0.256-0.019,0.319-0.045l-0.457-0.115c-0.276-0.411,2.226,0.432,3.361,0.465
			c0.478,0.213-0.597-0.111-0.7-0.011c-0.004,0.161,0.45,0.444,1.954,0.783c3.028,0.38,5.047,1.148,8.35,1.789
			c-0.118-0.165,0.791,0.097,1.325,0.197c-0.69-0.033,0.588,0.392,1.222,0.559c0.562,0.071,2.517,0.638,4.017,1.067l0.181,0.052
			c0.041,0.008,0.071,0.015,0.106,0.027c0.004,0.044,0.004,0.085,0.004,0.144c0.017,0.359-0.03,0.291-0.054,0.344l0.039,0.73
			c0.067,0.015,0.2-0.138,0.216,0.824l-0.138,0.57c-0.011,0.444,0.004,0.835,0.026,1.141c-0.112,1.682-0.209,3.349-0.209,3.938
			c0.091-0.288,0.233,1.196,0.343,1.509c-0.026,0.724-0.017,1.387,0.06,1.704c-0.142,1.323-0.312,1.7-0.506,2.446
			c-0.164,2.013-0.649,4.582-1.23,5.66C85.242,170.526,84.251,169.158,84.103,169.012 M86.617,137.225
			c0.31,1.678,0.504,3.978,0.638,6.531l0.071,1.577l-0.142-0.026c-0.006-0.008-0.006-0.023-0.028-0.023
			C87.08,142.582,86.994,139.871,86.617,137.225 M87.335,145.594c-0.054-0.007-0.105-0.014-0.157-0.022
			c0.006-0.056,0.021-0.109,0.021-0.15l0.127,0.018L87.335,145.594z M93.34,153.749c0.024,0.141,0.041,0.302,0.065,0.462
			c-0.08-0.012-0.157-0.015-0.233-0.026c-0.026-0.165-0.043-0.329-0.067-0.489C93.181,153.711,93.263,153.729,93.34,153.749
			 M31.336,173.595c-0.032-0.008-0.065-0.008-0.101-0.015c-0.017,0-0.037-0.011-0.062-0.011
			C31.228,173.576,31.282,173.587,31.336,173.595 M34.372,173.684c-0.142,0.097-0.364,0.146-0.69,0.09H33.68
			C33.952,173.773,34.191,173.747,34.372,173.684 M34.551,172.975c-0.097-0.186-0.241-0.44-0.42-0.746
			C34.329,172.443,34.482,172.714,34.551,172.975 M90.802,81.049c-0.009,0.089-0.011,0.164-0.009,0.212
			c-0.002-0.037-0.011-0.089-0.015-0.16C90.791,81.079,90.791,81.067,90.802,81.049 M96.939,154.058
			c0.06-0.168-0.776-0.168-1.179-0.239c-0.7-0.082-1.416-0.16-2.161-0.268c0-0.018-0.009-0.033-0.009-0.048
			c1.485,0.298,2.952-0.041,4.206,0.791c-0.009-0.332-0.403,0.671,5.096-1.588c0.547-0.28,1.092-0.477,1.629-1.085
			c0.698-1.07-0.476-1.789-0.842-2.059c-5.581-2.446-9.88-2.725-10.849-2.972c-1-0.018,1.357,0.157,8.576,2.338
			c0.425,0.112,0.864,0.171,1.289,0.339c0.56,0.238,1.127,0.552,1.633,1.044c0.756,0.865-0.282,1.693-0.7,1.897
			c-1.092,0.642-2.237,1.018-3.4,1.361c-0.98,0.456-2.762,0.474-3.523-0.159c-1.006-0.15-2.041-0.232-3.073-0.395
			c-0.004-0.03-0.015-0.064-0.022-0.097c0.532,0.074,1.271,0.156,2.069,0.201c0.642-0.104,1.209,0.16,1.752,0.365
			c0.142,0.123,0.317,0.242,0.612,0.242c1.461,0,6.245-1.656,6.245-2.706c0-1.332-5.372-2.827-12.707-4.252
			c-0.677-3.478-1.36-6.084-2.355-9.309c-0.34-0.992-0.675-1.104-1.235-1.104c-0.67,0-1.006,0.224-1.006,0.5
			c0,0.238,0.47,1.882,0.73,8.542l-0.022-0.003c-0.03-0.467-0.187-1.067-0.131-1.462l-0.297-3.084
			c-0.108-1.014-0.25-2.009-0.414-2.964c0.045-0.459-0.534-0.917,0.246-1.682c0.56-0.13,1.082-0.361,1.7-0.037
			c1.48,1.82,1.368,3.291,1.955,4.59c0.455,1.54,0.853,3.15,1.2,4.723c-0.683-2.982-1.047-5.711-2.607-9.257
			c-0.868-0.988-3.112-0.798-3.008,1.114c0.138,0.829,0.224,1.667,0.31,2.535c0.153,1.723,0.257,3.528,0.332,5.406l0.028,0.12h0.03
			c0.009,0.044,0.009,0.1,0.015,0.153c-0.358-0.049-0.767-0.105-0.898-0.146l-4.09-0.668c-5.432-0.849-10.589-1.532-12.881-1.726
			c-8.022-1.126-10.358-1.566-14.974-2.237c-3.165-0.377-6.488-0.675-9.832-1.021l-4.902-0.503c6.047-2.442,11.815-4.802,16.491-6.8
			c11.761-4.855,14.019-5.563,17.331-6.749c5.286-2.296,15.047-5.981,17.027-7.363c1.159-0.735,2.355-1.048,3.191-2.682
			c0.362-2.24-1.51-2.834-2.235-3.247c-1.9-0.812-3.473-1.085-4.868-1.387c-2.786-0.536-4.848-0.824-7.188-1.103
			c-3.711-0.291-6.958-0.515-7.01-0.317c-1.409-1.003-2.592-1.805-4.937-3.475c-0.642-0.482-1.189-0.892-1.7-1.276
			c0.157-0.074,0.297-0.149,0.399-0.197c0.664-0.318,0.383-0.105,0.172,0.074c-0.437,0.362-0.616,0.577,7.475-3.915
			c1.342-0.738,2.782-1.54,4.197-2.338c-0.265,0.176-0.577,0.373-1.097,0.683l4.057-2.256c2.095-1.211,3.683-2.159,3.407-2.065
			c2.058-1.2,3.439-2.043,3.4-2.081c1.795-0.955,3.702-1.98,5.646-3.064c0.97-0.548,1.946-1.104,2.93-1.72
			c0.793-0.984,2.37-0.391,2.819-3.788c-1.939-3.25-2.573-3.978-6.077-5.137c-0.448-0.053-1.506,0.268-1.929,1.234
			c-0.093,0.22-0.138,0.444-0.164,0.63c-0.093,0.086-0.325,0.377-0.465,0.433c-0.575,0.473-1.23,0.92-1.817,1.308
			c-4.984,3.646-11.33,7.255-17.9,10.76c-3.333,1.734-6.744,3.501-10.132,5.295l-1.756,0.932l-0.327-0.25l-1.183-0.857
			c-1.586-1.107-3.18-2.155-4.784-3.139c-7.057-4.52-13.386-8.367-20.507-10.932c-4.023-1.349-7.733-0.35-11.437,0.418
			c-0.496,0.171-0.912,0.242-1.485,0.511c-0.287,0.25-0.446-0.104-1.172,1.021c-0.269,0.358-0.121,1.033,0.491,1.521
			c0.573,0.342,0.383,0.168,0.616,0.28c1.045,0.317,1.879,0.485,2.81,0.723c1.812,0.462,3.642,0.951,5.488,1.532
			c3.362,0.788,1.866-0.365-5.419-2.65c5.818,1.506,19.712,5.402,38.082,17.553c-5.1-2.767-11.543-6.007-0.254,1.282
			c-0.416-0.297-1.034-0.726-2.051-1.423c0.48,0.22,1.851,0.928,5.844,3.649c0.362,0.268,0.799,0.586,1.25,0.91
			c-0.403-0.012-0.812-0.023-1.185-0.034c-2.829-0.062-4.911-0.115-4.088-0.164l1.105,0.015c-0.241-0.104-5.484-0.362-11.013-0.368
			c-1.217,0.067,3.357,0.231-1.942,0.32c-6.742,0.13-14.4-0.37-20.203,0.145c-1.851,0.536-3.441,1.745-4.478,3.314
			c-0.442,0.62-1.239,1.682-0.552,2.946c0.952,1.179,2.127,0.72,2.672,0.574c1.092-0.391,1.952-0.611,2.838-0.797
			c1.737-0.359,3.29-0.571,5.577-0.832c-1.118,0.168-2.228,0.362-3.329,0.582c2.418-0.25,0.371,0.015,8.671-0.783
			c5.566-0.515,6.673-0.589,14.062-0.913c4.428-0.044,10.53-0.13,16.852-0.153c3.14,0.012,6.32,0.041,9.328,0.347
			c1.5,0.153,2.961,0.351,4.267,0.66c0.261,0.059,0.513,0.141,0.737,0.22c-9.201,3.955-29.331,10.857-36.412,13.992
			c-8.016,2.961-12.424,4.657-15.881,6.044c-1.73,0.685-3.223,1.297-4.809,1.946c-0.054,0.008-0.11,0.038-0.164,0.045
			c3.872-1.995,6.839-2.584,4.189-1.924c-2.37,1.164-4.295,0.962-7.102,3.278c-1.767,2.532-1.915,5.144-2.213,7.691
			c-0.218,2.572-0.203,5.108-0.097,7.676l0.246,3.818l0.192,1.938l0.153,0.999l0.121,0.563c0.112,0.023,0.058,0.182,0.112,0.38
			c0.19,3.456,0.733,7.031,3.06,10.014c1.952,1.994,1.36,1.129,1.181,0.947c-0.035-0.582-0.168,1.067,5.329,2.165
			c-1.806-0.235-1.728-0.22-0.692,0.06c0.522,0.13,1.293,0.215,2.146,0.25c0.325-0.089,0.655,0.156,1.282-0.135
			c-0.097,0.015-0.058,0.023,0.136-0.082c-0.045,0.026-0.095,0.064-0.136,0.082c0.022-0.003,0.022-0.008,0.052-0.008
			c0.065-0.071,0.347-0.141,0.592-0.421c-0.021,0.015-0.039,0.026-0.058,0.041c0.021-0.018,0.041-0.029,0.065-0.048
			c0,0.004-0.002,0.004-0.007,0.008c0.041-0.03,0.071-0.052,0.11-0.085c0.007-0.03,0.007-0.05,0.015-0.079
			c-0.034,0.059-0.078,0.105-0.118,0.153c0.024-0.105,0.024-0.168,0.034-0.262c-0.142,0.28-0.347,0.512-0.603,0.549
			c-0.435,0.153-0.748,0.164-1.047,0.164c-0.274-0.041-0.252-0.074,0.022-0.1c-0.058-0.224,1.614,0.521,1.564-1.629
			c-0.715-1.417-1.741-2.923-2.799-4.982c-2.172-3.981-3.978-9.309-4.551-12.606c-0.459-3.026,0.634,3.532,1.054,3.956
			c0.343-0.171-1.34-3.046-0.918-12.083c-0.353-4.899,5.197-1.559,8.783-0.612c3.836,1.458,7.454,3.135,11.05,4.973
			c7.169,3.684,14.183,8.278,22.688,14.027c-0.675-0.633,4.032,2.688,6.723,4.608c-3.46-2.3,3.146,2.457,6.219,5.029
			c2.094,1.439,3.377,2.341,5.704,2.621c1.42,0.064,5.04-0.194,6.339-3.811c-0.62,1.462-1.918,2.733-3.439,3.091
			c-0.834,0.194-2.088,0.63-3.896,0.16c-1.644-0.511-3.15-1.536-4.622-2.651c-2.823-2.252-6.003-4.432-8.132-5.92
			c-2.353-2.323-21.483-14.191-19.35-13.083l2.707,1.73c9.931,6.413,15.116,9.571,24.093,16.11c3.217,3.005,6.822,4.634,9.686,3.191
			c3.129-1.274,3.288-4.899,3.036-7.625c-0.582-7.27-1.077-9.179-1.657-12.907c-0.097-0.641-0.19-1.223-0.282-1.8l-0.009-0.068
			c-0.022-0.145-0.043-0.302-0.067-0.447c0.537,0.086,1.052,0.15,1.577,0.217c2.159,0.209-0.957-0.168,1.183,0.048
			c0.506,0.037,0.416,0.105,0.582,0.216c0.752,0.433,1.379,0.403,1.737,0.318c0.842-0.127,1.582-0.336,2.312-0.56
			c1.39-0.559,2.528-0.741,3.728-1.987c-0.672,0.515-2.868,1.842-5.943,2.36C98.49,154.613,97.275,154.357,96.939,154.058"/>
		<path style="fill:#FFFFFF;" d="M34.865,171.741c-0.073-0.127-0.147-0.25-0.218-0.376
			C34.633,171.544,34.736,171.634,34.865,171.741"/>
		<path style="fill:#FFFFFF;" d="M95.575,174.019c0.207-0.496,0.343-1.014,0.379-1.52C95.872,173.066,95.738,173.564,95.575,174.019
			"/>
		<path style="fill:#FFFFFF;" d="M35.26,172.196c0.112,0.179,0.211,0.373,0.306,0.686C35.529,172.525,35.391,172.338,35.26,172.196"
			/>
		<path style="fill:#FFFFFF;" d="M35.413,172.76c0.034,0.283,0.011,0.667-0.06,1.152C35.559,173.501,35.607,172.979,35.413,172.76"
			/>
		<path style="fill:#FFFFFF;" d="M67.573,146.195c0.039,0.014,0.101,0.029,0.213,0.052
			C67.709,146.232,67.644,146.213,67.573,146.195"/>
	</g>
</g>
</svg>
